<?xml version="1.0" encoding="UTF-8" standalone="no"?>
<!-- Created with Inkscape (http://www.inkscape.org/) -->

<svg
   version="1.1"
   id="svg820"
   width="2666.6707"
   height="2666.6699"
   viewBox="0 0 2666.6706 2666.6699"
   sodipodi:docname="pocket0001.png"
   xmlns:inkscape="http://www.inkscape.org/namespaces/inkscape"
   xmlns:sodipodi="http://sodipodi.sourceforge.net/DTD/sodipodi-0.dtd"
   xmlns="http://www.w3.org/2000/svg"
   xmlns:svg="http://www.w3.org/2000/svg">
  <defs
     id="defs824" />
  <sodipodi:namedview
     id="namedview822"
     pagecolor="#ffffff"
     bordercolor="#000000"
     borderopacity="0.25"
     inkscape:showpageshadow="2"
     inkscape:pageopacity="0.0"
     inkscape:pagecheckerboard="0"
     inkscape:deskcolor="#d1d1d1"
     showgrid="false" />
  <g
     inkscape:groupmode="layer"
     inkscape:label="Image"
     id="g826">
    <path
       style="fill:#000000;stroke-width:1.33333"
       d="m 146.6707,2602.0001 v -64.6666 l 4.3333,-0.013 c 6.9598,-0.017 2300.419,-0.021 2342.6667,0 l 38.3333,0.016 v 64.6667 64.6667 H 1339.3374 146.6707 v -64.6667 z M 0.004,1344 V 153.33334 h 73.998 73.9981 l -0.6672,652.33334 c -0.3669,358.78332 -0.9631,787.03342 -1.3249,951.66682 -0.3618,164.6333 -0.6607,406.8833 -0.6642,538.3333 l -0.01,239 H 72.6667 0 Z m 2533.3298,963.0001 c 0,-304.3505 -1.1698,-1355.4715 -1.9928,-1798.00009 l -0.6614,-355.66667 h 67.9955 67.9956 V 1344 2534.6668 h -66.6667 -66.6666 V 2307.0001 Z M 893.27269,2188.8891 c -0.3311,-0.2956 -15.4101,-0.9487 -33.5088,-1.4512 -18.0988,-0.5027 -34.2988,-1.1304 -36,-1.3952 -1.7013,-0.2648 -10.5932,-0.8772 -19.7599,-1.361 -9.1667,-0.4837 -18.4667,-1.0989 -20.6667,-1.367 -2.2,-0.2682 -8.79999,-0.8584 -14.66659,-1.3116 -38.9372,-3.0083 -101.3863,-13.4524 -143.441,-23.9895 -37.0718,-9.2885 -80.3095,-23.5968 -111.8924,-37.0276 -39.3341,-16.7271 -72.563,-34.622 -106.6666,-57.4437 -53.1167,-35.5451 -107.9735,-83.3098 -136.1912,-118.5839 -39.5131,-49.394 -52.6944,-89.7791 -59.9339,-183.6249 -1.7877,-23.1747 -2.6002,-229.3539 -1.1875,-301.3335 2.0655,-105.2368 5.9061,-173.1405 20.0218,-354 8.7332,-111.89523 11.9071,-137.94757 21.3604,-175.33332 20.4711,-80.95896 59.8912,-113.62275 150.4042,-124.62611 41.83,-5.08513 62.0749,-5.2126 840.8595,-5.29444 957.2731,-0.10053 971.1528,-0.0289 1014,5.24025 116.4146,14.31607 151.3428,62.30424 165.9602,228.01362 7.5973,86.1262 18.6148,240.5473 22.0226,308.6667 3.9367,78.6916 6.3255,305.0553 4.0171,380.6668 -4.5949,150.5069 -26.7273,201.0477 -124.7279,284.8236 -95.967,82.0374 -191.321,128.667 -319.9386,156.4549 -8.8,1.9012 -18.4,4.0025 -21.3334,4.6695 -10.4789,2.3829 -59.0305,9.3124 -79.3333,11.3229 -11.3667,1.1256 -23.3667,2.3243 -26.6667,2.6637 -3.3,0.3395 -17.7,1.2708 -32,2.0696 -14.3,0.7988 -29.9,1.8131 -34.6666,2.2539 -9.5296,0.8813 -915.09411,2.1639 -916.06471,1.2975 z M 733.2618,1985.7696 c 1.9558,-1.3699 2.7652,-1.552 2.0977,-0.4719 -1.6902,2.7348 11.8615,0.8215 43.00629,-6.0717 106.3914,-23.5475 211.7082,-55.7617 250.97151,-76.7672 11.6003,-6.206 15.0185,-8.9521 14.1053,-11.3319 -0.3605,-0.9394 -0.082,-2.0626 0.6196,-2.4961 2.4732,-1.5285 1.2324,-3.2973 -2.313,-3.2973 -3.451,0 -3.4893,-0.076 -1,-2.0004 2.4522,-1.8954 2.4131,-1.9371 -0.7452,-0.7948 -1.8333,0.663 -3.1685,1.9078 -2.9669,2.7661 0.2014,0.8584 -0.2309,1.1915 -0.9609,0.7404 -0.73,-0.4512 -2.9948,0.037 -5.033,1.0869 -2.0382,1.049 -13.0059,5.6702 -24.3725,10.2692 -11.36671,4.5991 -20.97231,8.8172 -21.34591,9.3736 -1.2309,1.8332 -15.0316,6.6994 -16.9318,5.9703 -1.0234,-0.3928 -1.5241,-0.1693 -1.1126,0.4965 1.0508,1.7003 -7.6895,4.3616 -10.6249,3.2351 -1.5599,-0.5985 -2.1098,-0.4237 -1.5445,0.4908 1.1566,1.8715 -2.776,3.3177 -6.1285,2.2536 -1.8718,-0.594 -2.353,-0.3661 -1.6451,0.7793 0.7267,1.176 0.1794,1.3584 -2,0.6667 -1.7736,-0.5629 -2.6835,-0.4392 -2.2251,0.3025 0.9152,1.4808 -9.809,6.004 -21.1083,8.9028 -14.3096,3.6712 -14.8922,3.493 -2.235,-0.684 6.8374,-2.2562 12.1853,-4.3488 11.8842,-4.65 -0.3012,-0.301 -8.8954,1.9352 -19.0984,4.9698 -10.2029,3.0344 -21.7185,6.4402 -25.5901,7.5684 -3.8716,1.1281 -6.3718,2.4638 -5.5559,2.968 2.6743,1.6528 -9.9987,3.9817 -14.5554,2.6749 -2.6179,-0.7508 -3.9398,-0.7381 -3.4631,0.033 0.4241,0.6862 -0.3143,1.2568 -1.6409,1.268 -2.0451,0.017 -2.1078,0.2171 -0.4121,1.313 2.6251,1.6964 -0.152,1.7165 -4.5798,0.033 -2.3672,-0.9001 -3.4202,-0.8556 -3.4202,0.1445 0,0.8938 -1.3984,1.12 -3.6666,0.5931 -2.7459,-0.6377 -3.1644,-0.5072 -1.6667,0.5197 1.1,0.7544 3.8,1.0924 6,0.7512 2.9749,-0.4613 2.6259,-0.1633 -1.362,1.1628 -6.7521,2.2455 -15.7994,3.9679 -11.9713,2.2791 2.0373,-0.8988 1.3616,-1.134 -2.8629,-0.9967 -3.0413,0.099 -5.2966,0.5642 -5.0117,1.0338 0.7638,1.2592 -8.5804,2.7676 -10.3541,1.6714 -0.9707,-0.5998 -1.1475,-0.3401 -0.4913,0.7218 0.6583,1.0652 2.7605,1.4046 5.8727,0.9484 l 4.8473,-0.7107 -4.6667,1.472 c -4.92,1.552 -21.4415,6.4883 -32.6667,9.7603 -3.6666,1.0686 -12.0108,2.561 -18.5425,3.3164 -6.53169,0.7553 -13.73169,2.209 -15.99999,3.2305 -2.2683,1.0215 -5.4741,2.2051 -7.1241,2.63 -1.65,0.4249 -4.2,1.1131 -5.6667,1.5292 -1.4667,0.4161 -2.6667,0.1637 -2.6667,-0.5608 0,-0.7244 1.95,-1.7665 4.3334,-2.3159 4.2172,-0.9718 4.244,-1.0216 1,-1.8588 -1.8334,-0.473 -3.5334,-0.3713 -3.7778,0.226 -0.2444,0.5975 -2.0944,1.0863 -4.1111,1.0863 -2.0167,0 -4.1165,0.45 -4.6664,1 -0.5498,0.55 -3.6384,1.0735 -6.8635,1.1633 -6.4454,0.1796 -12.5812,3.409 -12.5812,6.6218 0,1.1313 0.6211,3.2174 1.3802,4.6358 1.7472,3.2648 8.7825,3.4504 13.2109,0.3486 z m 5.4927,-3.07 c 1.1461,-0.6707 14.6461,-3.9913 30,-7.3795 51.54929,-11.3749 155.58549,-38.7638 174.36509,-45.9038 4.5145,-1.7164 7.6992,-1.8124 4.8555,-0.1464 -2.1955,1.2862 -46.4631,15.0441 -65.9711,20.503 -35.4703,9.9258 -138.03749,34.3271 -143.69829,34.1867 -0.9851,-0.024 -0.8068,-0.5252 0.4488,-1.26 z m 98.33279,-26.2769 c 0.9625,-0.3852 2.1126,-0.3379 2.5556,0.1053 0.4431,0.4431 -0.3444,0.7583 -1.75,0.7004 -1.5533,-0.064 -1.8692,-0.38 -0.8056,-0.8056 z m 5.3334,-1.3334 c 0.9625,-0.3852 2.1125,-0.3378 2.5555,0.1054 0.4431,0.443 -0.3444,0.7582 -1.75,0.7004 -1.5532,-0.064 -1.8692,-0.38 -0.8055,-0.8056 z m -8,-2.6666 c 0.9625,-0.3852 2.1125,-0.3379 2.5555,0.1053 0.4431,0.4431 -0.3444,0.7583 -1.75,0.7004 -1.5532,-0.064 -1.8692,-0.38 -0.8055,-0.8056 z m 30.6666,-8 c 0.9625,-0.3852 2.1126,-0.3379 2.5556,0.1053 0.4431,0.4431 -0.3444,0.7583 -1.75,0.7004 -1.5533,-0.064 -1.8692,-0.38 -0.8056,-0.8056 z m 38.6667,-10.6667 c 0.9625,-0.3852 2.1125,-0.3379 2.5556,0.1053 0.443,0.4431 -0.3445,0.7583 -1.75,0.7004 -1.5533,-0.064 -1.8692,-0.38 -0.8056,-0.8056 z m 48.9167,-7.0892 c 3.6654,-1.5751 5.7706,-1.5751 3.3333,0 -1.1,0.7109 -2.9,1.2595 -4,1.2192 -1.3187,-0.048 -1.0916,-0.4636 0.6667,-1.2192 z m 51.22641,-25.4265 c 3.9746,-1.4108 7.4571,-2.3344 7.739,-2.0526 0.6219,0.622 -11.5227,4.8523 -13.53631,4.715 -0.786,-0.053 1.8228,-1.2516 5.79731,-2.6624 z m 14.6346,-5.3622 c 3.2236,-1.4302 6.0985,-2.3629 6.3886,-2.0728 0.5765,0.5764 -9.6981,4.9202 -11.2766,4.7674 -0.5352,-0.052 1.6644,-1.2644 4.888,-2.6946 z m 934.5502,79.8336 c 0.3715,-4.4773 0.051,-5.037 -3.3333,-5.8058 -2.0595,-0.468 -7.1312,-1.6882 -11.2703,-2.7116 -10.1879,-2.5191 -13.6665,-2.4002 -8.6897,0.2969 5.26,2.8505 3.8425,3.4553 -2.5023,1.0677 -2.9052,-1.0933 -6.3323,-2.3362 -7.6156,-2.7621 -1.2833,-0.4259 -2.3333,-1.2481 -2.3333,-1.8273 0,-0.5792 -1.2,-0.7392 -2.6667,-0.3556 -1.4667,0.3834 -2.6667,0.1066 -2.6667,-0.6159 0,-2.2028 -15.6034,-5.8441 -27.1222,-6.3295 -6.9367,-0.2922 -13.4295,-1.4665 -17.9208,-3.2409 -3.8736,-1.5304 -11.0736,-3.3647 -16,-4.076 -4.9263,-0.7113 -17.957,-4.31 -28.957,-7.9971 -11,-3.6869 -17.9,-6.33 -15.3333,-5.8732 8.414,1.4971 3.6111,-0.5001 -12.6667,-5.2673 -63.1636,-18.4984 -105.6494,-32.2136 -130.4784,-42.1205 -6.3589,-2.5374 -11.5353,-3.8455 -13.1669,-3.3276 -1.5813,0.5018 -2.3619,0.3246 -1.8953,-0.4303 0.4624,-0.7481 -0.5998,-1.0173 -2.5464,-0.6452 -1.8891,0.3612 -4.333,-0.2207 -5.6263,-1.3395 -2.2309,-1.9297 -23.2311,-10.3508 -25.8127,-10.3508 -3.2384,0 0.8403,2.5415 8.4851,5.2872 9.4327,3.3878 13.3668,5.9908 5.966,3.9474 -6.3868,-1.7635 -27.9539,-10.4507 -29.3595,-11.826 -0.6056,-0.5926 0.5944,-0.822 2.6667,-0.5099 l 3.7677,0.5675 -3.3604,-1.9486 c -4.4861,-2.6012 -12.7966,-4.0876 -13.7977,-2.4677 -1.4748,2.3863 5.1913,10.2497 12.3029,14.5127 30.4619,18.2597 164.9652,60.8818 286.8552,90.9004 33.3187,8.2054 47.5304,10.6854 59.3334,10.3536 5.1602,-0.1451 5.3466,-0.3107 5.7445,-5.105 z m -31.0779,-1.1573 c -5.1333,-1.3988 -25.5333,-6.4793 -45.3333,-11.29 -40.7835,-9.9091 -85.3073,-22.0741 -127.3333,-34.7909 -37.5611,-11.3659 -77.6976,-24.5535 -76.9632,-25.2879 0.3205,-0.3205 9.8184,2.3929 21.1062,6.03 70.0702,22.5768 207.3883,60.3868 235.8288,64.9347 2.9814,0.4768 5.7427,1.388 6.1364,2.025 1.0606,1.716 -2.9873,1.2279 -13.4416,-1.6209 z m -126.6666,-41.2209 c -1.6808,-0.7223 -1.9274,-1.1459 -0.6667,-1.1459 1.1,0 3.2,0.5156 4.6667,1.1459 1.6808,0.7222 1.9273,1.1458 0.6666,1.1458 -1.1,0 -3.2,-0.5156 -4.6666,-1.1458 z m -70,-20 c -2.4374,-1.5751 -0.3322,-1.5751 3.3333,0 1.7583,0.7556 1.9855,1.1709 0.6667,1.2192 -1.1,0.04 -2.9,-0.5083 -4,-1.2192 z m -70.6667,-16 c -1.1,-0.711 -1.4,-1.2926 -0.6667,-1.2926 0.7334,0 2.2334,0.5816 3.3334,1.2926 1.1,0.7109 1.4,1.2925 0.6666,1.2925 -0.7333,0 -2.2333,-0.5816 -3.3333,-1.2925 z m -896.3611,72.5277 c -0.4431,-0.4431 -1.5931,-0.4904 -2.5556,-0.1053 -1.0636,0.4256 -0.7477,0.7416 0.8056,0.8056 1.4055,0.057 2.193,-0.2574 1.75,-0.7004 z m 12,-2.6667 c -0.4431,-0.443 -1.5931,-0.4904 -2.5556,-0.1053 -1.0636,0.4256 -0.7477,0.7416 0.8056,0.8056 1.4055,0.057 2.193,-0.2573 1.75,-0.7004 z m 11.99999,-2.6666 c -0.4431,-0.4431 -1.5931,-0.4904 -2.5556,-0.1054 -1.0636,0.4256 -0.7477,0.7416 0.8056,0.8056 1.4055,0.057 2.193,-0.2573 1.75,-0.7004 z m 5.3333,-1.3334 c -0.443,-0.443 -1.5931,-0.4904 -2.5556,-0.1053 -1.0636,0.4256 -0.7477,0.7416 0.8056,0.8056 1.4056,0.057 2.1931,-0.2573 1.75,-0.7004 z m 6.6667,-1.3333 c -0.4431,-0.4431 -1.5931,-0.4904 -2.5556,-0.1053 -1.0636,0.4256 -0.7477,0.7416 0.8056,0.8056 1.4055,0.057 2.193,-0.2574 1.75,-0.7004 z m 5.3333,-1.3333 c -0.443,-0.4431 -1.5931,-0.4904 -2.5556,-0.1054 -1.0636,0.4256 -0.7477,0.7416 0.8056,0.8056 1.4056,0.057 2.1931,-0.2573 1.75,-0.7004 z m 5.3333,-1.3334 c -0.443,-0.443 -1.593,-0.4904 -2.5555,-0.1053 -1.0637,0.4256 -0.7477,0.7416 0.8055,0.8056 1.4056,0.057 2.1931,-0.2573 1.75,-0.7004 z m 9.6945,-1.861 c 2.6394,-0.8454 2.7782,-1.0675 0.6666,-1.0675 -1.4666,0 -4.1666,0.4803 -6,1.0675 -2.6394,0.8453 -2.7782,1.0674 -0.6666,1.0674 1.4666,0 4.1666,-0.4802 6,-1.0674 z m 1068.66671,-2.5783 c -1.4667,-0.5916 -4.7667,-1.43 -7.3334,-1.8631 -4.6008,-0.7761 -4.5913,-0.7612 0.6667,1.0579 5.7217,1.9796 11.2249,2.6443 6.6667,0.8052 z m -14.6667,-4.0884 c -1.4667,-0.6303 -3.8667,-1.1459 -5.3333,-1.1459 h -2.6667 l 2.6667,1.1459 c 1.4666,0.6303 3.8666,1.1459 5.3333,1.1459 h 2.6667 z m -1021.02781,-2.1389 c -0.443,-0.4431 -1.5931,-0.4904 -2.5556,-0.1054 -1.0636,0.4256 -0.7477,0.7416 0.8056,0.8056 1.4056,0.057 2.1931,-0.2573 1.75,-0.7004 z m 1012.00011,0 c -0.4431,-0.4431 -1.5931,-0.4904 -2.5556,-0.1054 -1.0636,0.4256 -0.7478,0.7416 0.8056,0.8056 1.4054,0.057 2.193,-0.2573 1.75,-0.7004 z m -9.3334,-2.6667 c -0.443,-0.4431 -1.593,-0.4904 -2.5556,-0.1053 -1.0636,0.4256 -0.7477,0.7416 0.8056,0.8056 1.4055,0.057 2.1931,-0.2574 1.75,-0.7004 z m -5.0833,-1.0337 c -1.2144,-1.106 -32.0433,-9.1174 -32.6707,-8.49 -0.3693,0.3693 4.3055,1.9801 10.3884,3.5794 6.0831,1.5994 12.56,3.4251 14.3934,4.057 3.4046,1.1737 8.8922,1.7674 7.8889,0.8536 z m -966.91671,-4.2996 c -0.4431,-0.4431 -1.5931,-0.4904 -2.5556,-0.1054 -1.0636,0.4256 -0.7477,0.7416 0.8056,0.8056 1.4055,0.057 2.193,-0.2573 1.75,-0.7004 z m 95.6176,-32.4034 c 0.4109,-0.6649 -0.4537,-0.895 -1.9213,-0.5112 -3.1134,0.8142 -3.5069,1.7202 -0.7472,1.7202 1.0567,0 2.2575,-0.544 2.6685,-1.209 z m 7.4102,-2.791 c 1.1,-0.711 1.4,-1.2926 0.6666,-1.2926 -0.7333,0 -2.2333,0.5816 -3.3333,1.2926 -1.1,0.7109 -1.4,1.2925 -0.6667,1.2925 0.7334,0 2.2334,-0.5816 3.3334,-1.2925 z m 10.6666,-4.225 c 1.39,-0.8588 0.9833,-0.9637 -1.3333,-0.3441 -1.8333,0.4904 -4.2333,1.4477 -5.3333,2.1273 -1.39,0.8588 -0.9834,0.9638 1.3333,0.3442 1.8333,-0.4904 4.2333,-1.4478 5.3333,-2.1274 z m 10.00001,-3.8709 c 2.9333,-1.4107 3.8333,-2.1913 2,-1.7349 -3.7753,0.9398 -10.70611,4.4148 -8.66661,4.3452 0.7333,-0.025 3.7333,-1.1996 6.66661,-2.6103 z m -248,-47.8872 -26.6667,-0.7691 37.3334,-0.091 c 21.64919,-0.052 34.81259,0.3441 31.33329,0.9441 -9.2749,1.5992 59.6994,-0.019 93.3333,-2.1892 56.0285,-3.6159 96.3788,-9.7311 106.0588,-16.0736 3.1147,-2.0408 3.175,-2.2885 0.9651,-3.9655 -1.2965,-0.9837 -3.2572,-1.8498 -4.3572,-1.9248 -1.3882,-0.095 -1.1843,-0.5142 0.6667,-1.3722 2.0506,-0.9507 1.6875,-1.0635 -1.5717,-0.4879 -2.3312,0.4116 -8.5303,0.9756 -13.7758,1.2533 -5.2456,0.2779 -15.0383,1.1448 -21.7616,1.9268 -25.3811,2.9516 -58.7111,5.4155 -92.2243,6.8174 -19.0666,0.7977 -36.7666,1.7934 -39.3333,2.2128 -4.4425,0.7258 -4.5065,0.8108 -1.3333,1.7656 8.3464,2.5117 -95.38669,0.5726 -157.99999,-2.9534 -15.4,-0.8672 -34.0994,-1.622 -41.5542,-1.6772 -7.4548,-0.056 -14.0048,-0.5505 -14.5556,-1.1005 -1.3419,-1.3401 -7.5584,-1.2871 -6.7275,0.057 0.6609,1.0692 -12.4877,0.7818 -22.7355,-0.497 -3.0651,-0.3826 -7.0597,-1.8651 -8.877,-3.2946 -1.8173,-1.4294 -4.1395,-2.599 -5.1605,-2.599 -1.021,0 -2.5001,-0.6438 -3.2868,-1.4304 -0.7868,-0.7868 -3.4568,-1.2368 -5.9334,-1 -3.7294,0.3564 -4.5724,1.0296 -4.9075,3.9185 -0.2988,2.5753 0.7138,4.4292 3.8692,7.0843 2.7896,2.3473 4.5892,3.086 5.1819,2.1269 0.6601,-1.068 1.9706,-1.0591 4.7975,0.032 11.3607,4.3864 59.3051,10.7751 78.1848,10.4184 l 9.7046,-0.1833 -12.6667,-1.1064 c -15.9902,-1.3967 -39.4929,-5.0262 -43.1843,-6.669 -2.0792,-0.9253 -1.2462,-1.0773 3.1843,-0.5809 3.3,0.3697 16.5,1.5851 29.3333,2.7008 12.8334,1.1157 32.6334,2.9495 44,4.0749 11.3667,1.1255 23.3667,2.2634 26.6667,2.5286 3.3,0.2652 -5.4,0.2877 -19.3333,0.051 -13.9334,-0.2376 -24.4334,-0.1628 -23.3334,0.166 4.556,1.3624 47.2382,2.7316 84,2.6947 37.39289,-0.037 38.01779,-0.077 12.6667,-0.8085 z m -30.25,-0.9277 c 0.9625,-0.3852 2.1125,-0.3379 2.5556,0.1053 0.443,0.4431 -0.3445,0.7583 -1.75,0.7004 -1.5533,-0.064 -1.8692,-0.38 -0.8056,-0.8056 z m 103.58329,-1.967 c 37.9771,-2.3549 23.5818,-3.3544 -39.3333,-2.731 -66.41309,0.6581 -103.32449,-0.4212 -89.99999,-2.6318 4.3051,-0.7141 8.7051,-0.5612 12.4212,0.4319 4.1641,1.1127 24.8869,1.3423 74.98149,0.8304 45.4574,-0.4644 68.9473,-0.2547 68.4124,0.6108 -0.908,1.4691 16.7218,0.6832 53.5182,-2.3857 40.457,-3.3742 39.3676,-3.3116 33.3334,-1.9164 -16.6096,3.8401 -91.0246,9.5334 -119.3334,9.1298 -12.307,-0.1753 -12.1366,-0.2133 6,-1.338 z m 29.6667,-10.0053 c 0.9167,-0.3699 2.4167,-0.3699 3.3333,0 0.9167,0.3699 0.1667,0.6725 -1.6666,0.6725 -1.8334,0 -2.5834,-0.3026 -1.6667,-0.6725 z m 92,0 c 0.9167,-0.3699 2.4167,-0.3699 3.3334,0 0.9166,0.3699 0.1666,0.6725 -1.6667,0.6725 -1.8333,0 -2.5833,-0.3026 -1.6667,-0.6725 z m -41.3333,-2.7245 c 1.65,-0.3179 4.35,-0.3179 6,0 1.65,0.3177 0.3,0.5777 -3,0.5777 -3.3,0 -4.65,-0.26 -3,-0.5777 z m -343.98449,-1.3355 c 1.6586,-0.3189 4.0586,-0.3068 5.3334,0.027 1.2747,0.3337 -0.082,0.5946 -3.0156,0.5798 -2.9333,-0.015 -3.9763,-0.2878 -2.3178,-0.6068 z m 1397.5753,7.0388 c 20.1249,-0.4581 36.9139,-1.156 37.3088,-1.5508 1.0149,-1.0151 -92.3637,0.934 -93.5032,1.9516 -0.9963,0.8899 -0.2756,0.8847 56.1944,-0.4008 z m -127.9241,-1.4893 c -49.4396,-2.2858 -111.9816,-7.7359 -110.1211,-9.5964 0.3295,-0.3296 6.7916,0.041 14.3601,0.8242 12.9515,1.3398 35.7907,2.9046 72.279,4.9523 11.3506,0.6371 15.5949,0.4749 14.9485,-0.5709 -0.6289,-1.0178 3.6609,-1.5751 14.1487,-1.8382 11.1733,-0.2802 14.9656,-0.8069 14.7181,-2.0441 -0.1833,-0.9167 0.7167,-1.7701 2,-1.8967 3.6701,-0.3616 -17.8131,-1.971 -47.6667,-3.5708 -38.1524,-2.0445 -65.5237,-4.0348 -87.3333,-6.3502 -10.2667,-1.0899 -26.1667,-2.5448 -35.3333,-3.2331 -9.1667,-0.6881 -18.7667,-1.5496 -21.3334,-1.9143 l -4.6666,-0.663 4.3333,1.3521 c 4.9788,1.5537 5.5767,3.3684 1.5324,4.6519 -1.5644,0.4965 -2.2944,1.3954 -1.6536,2.0362 1.6616,1.6616 24.4728,7.4724 38.4545,9.7959 16.8246,2.7957 65.9958,7.3289 90.2739,8.3224 11.216,0.4591 20.6428,1.0524 20.9484,1.3188 0.3055,0.2663 13.2055,0.402 28.6667,0.3016 l 28.111,-0.1825 z m -2.3334,-9.5255 c 1.2834,-0.3355 3.3834,-0.3355 4.6667,0 1.2833,0.3353 0.2333,0.6097 -2.3333,0.6097 -2.5667,0 -3.6167,-0.2744 -2.3334,-0.6097 z m -115.9746,-1.3383 c 1.2973,-0.338 3.0973,-0.3158 4,0.049 0.9028,0.3652 -0.1587,0.6417 -2.3587,0.6146 -2.2,-0.027 -2.9385,-0.326 -1.6413,-0.6641 z m -0.6087,-6.6534 c 0.9625,-0.3852 2.1125,-0.3379 2.5556,0.1053 0.4431,0.4431 -0.3445,0.7583 -1.75,0.7004 -1.5533,-0.064 -1.8692,-0.38 -0.8056,-0.8056 z m -19.0833,-1.7559 c -5.5448,-1.4109 -0.088,-1.4735 6.6666,-0.076 4.4842,0.9276 4.6964,1.1025 1.3334,1.0988 -2.2,0 -5.8,-0.4624 -8,-1.0223 z m 266,17.31 c 6.9666,-0.6083 22.5666,-1.7683 34.6666,-2.5777 19.7131,-1.3188 53.0207,-4.3204 67.3334,-6.0682 4.5977,-0.5614 4.3218,-0.3584 -2,1.4723 -4.0334,1.1679 -15.4334,3.1973 -25.3334,4.5099 -13.434,1.7812 -16.1398,2.4214 -10.6666,2.524 15.9185,0.2982 57.1828,-5.55 69.2833,-9.8194 3.0108,-1.0622 5.7032,-1.2778 6.9867,-0.5597 1.434,0.8025 3.2034,0.2912 5.6486,-1.6321 2.7451,-2.1594 3.4676,-3.758 3.1543,-6.9799 -0.3573,-3.6756 -0.9489,-4.2311 -4.9092,-4.6096 -2.4765,-0.2368 -5.1465,0.2132 -5.9333,1 -0.7867,0.7867 -2.2036,1.4304 -3.1486,1.4304 -0.9449,0 -2.9422,1.05 -4.4386,2.3333 -4.9411,4.2378 -10.2159,5.149 -23.0902,3.989 -12.6773,-1.1423 -20.8864,-0.4592 -20.8864,1.7381 0,0.7001 -1.05,1.2637 -2.3333,1.2525 -1.994,-0.017 -2.0425,-0.2084 -0.3333,-1.3129 2.7021,-1.7463 0.1186,-1.7035 -35.3334,0.5843 -16.1333,1.0412 -42.2333,2.247 -58,2.68 -37.932,1.0412 -64.5366,2.2117 -65.2222,2.8694 -0.3055,0.2931 13.4945,0.6231 30.6666,0.7332 17.5106,0.112 28.5874,0.6099 25.2223,1.1331 -4.414,0.6863 -1.9763,0.9857 9.2223,1.1331 8.3721,0.1106 14.8914,0.5309 14.4872,0.9352 -0.4042,0.4042 -31.775,0.7334 -69.7127,0.7317 -37.9379,0 -68.6611,0.3135 -68.274,0.7007 2.7072,2.707 106.4887,4.1196 132.9439,1.8093 z m 7.6666,-7.6079 c 2.3834,-0.2957 6.2834,-0.2957 8.6667,0 2.3833,0.2958 0.4333,0.5378 -4.3333,0.5378 -4.7667,0 -6.7167,-0.242 -4.3334,-0.5378 z m 124.6667,-6.6212 c 1.2833,-0.3354 3.3833,-0.3354 4.6667,0 1.2833,0.3354 0.2333,0.6098 -2.3334,0.6098 -2.5666,0 -3.6166,-0.2744 -2.3333,-0.6098 z m -185.3333,9.2564 c -8.9834,-0.2306 -23.6834,-0.2306 -32.6667,0 -8.9833,0.2307 -1.6333,0.4195 16.3333,0.4195 17.9667,0 25.3167,-0.1888 16.3334,-0.4195 z m -847.9542,-47.0412 c 17.1744,-2.0708 20.7212,-6.4782 6.0326,-7.4965 -3.8931,-0.2699 -13.6785,-1.0859 -21.7451,-1.8132 -8.0667,-0.7273 -24.8667,-1.9472 -37.3334,-2.7107 -38.93571,-2.3846 -94.75501,-9.7482 -130.66661,-17.2374 -6.6,-1.3764 -18.6,-3.4872 -26.6667,-4.6908 -8.0667,-1.2036 -18.5667,-3.4184 -23.3333,-4.9219 -15.473,-4.8804 -41.9097,-14.4325 -45.5391,-16.4543 -1.9465,-1.0842 -4.4965,-1.9713 -5.6666,-1.9713 -1.17019,0 -2.12769,-0.9148 -2.12769,-2.0331 0,-2.215 -3.2785,-3.7632 -10.9279,-5.1605 -4.1783,-0.7632 -5.1591,-0.4685 -6.4467,1.9376 -2.2597,4.2221 -0.5305,8.6851 4.5914,11.8507 2.5051,1.5481 5.0561,2.6917 5.6689,2.5412 0.6129,-0.1506 3.7249,0.4718 6.9156,1.3829 8.00829,2.2867 8.37039,0.9639 0.7908,-2.8883 -12.5819,-6.3942 -3.4104,-4.4632 22.04969,4.6426 58.4003,20.8868 134.7424,35.2209 210.71741,39.5644 11.5441,0.66 15.5547,1.1724 9.9742,1.2744 -13.9409,0.2548 -53.57061,-2.1387 -74.00001,-4.4692 -50.7084,-5.7847 -98.6072,-15.8047 -136.8165,-28.6208 -19.8557,-6.6599 -24.7839,-7.9228 -19.9326,-5.108 10.6598,6.1852 54.83,19.0761 90.509,26.4148 70.373,14.4746 143.60991,20.8318 183.95261,15.9674 z m -71.29581,-11.5402 c 0.9624,-0.3852 2.1125,-0.3379 2.5555,0.1053 0.4431,0.4431 -0.3444,0.7583 -1.75,0.7004 -1.5533,-0.064 -1.8692,-0.38 -0.8055,-0.8056 z m -42.75,-3.9723 c 0.9166,-0.3699 2.4166,-0.3699 3.3333,0 0.9167,0.3699 0.1667,0.6725 -1.6667,0.6725 -1.8333,0 -2.5833,-0.3026 -1.6666,-0.6725 z m -9.9747,-1.3743 c 1.2973,-0.338 3.0973,-0.3158 4,0.049 0.9027,0.3652 -0.1587,0.6417 -2.3587,0.6146 -2.2,-0.027 -2.9386,-0.326 -1.6413,-0.6641 z m 663.64131,10.058 c 4.0334,-0.731 14.093,-3.1148 22.3546,-5.2972 8.2617,-2.1824 15.7044,-3.5457 16.5393,-3.0297 0.9331,0.5767 1.1515,0.3451 0.5668,-0.6011 -0.5799,-0.9381 -0.013,-1.5804 1.4607,-1.6445 1.3265,-0.057 1.7158,-0.39 0.865,-0.738 -0.8509,-0.3479 -7.7509,0.5628 -15.3333,2.0236 -7.5825,1.4609 -18.5864,3.0071 -24.4531,3.4359 -10.6204,0.7761 -10.5885,0.7625 7.3334,-3.1143 21,-4.5427 45.2557,-11.2607 70.9917,-19.6619 12.8967,-4.21 18.976,-5.6176 20.5228,-4.752 1.6395,0.9176 -4.8783,3.6164 -25.6584,10.6243 -21.9261,7.3944 -26.4369,9.2899 -21.1895,8.904 3.6667,-0.2696 6.9667,-0.5896 7.3334,-0.7112 0.3666,-0.1213 1.1166,-0.15 1.6666,-0.063 0.55,0.087 1,-0.3421 1,-0.9532 0,-0.6112 0.75,-1.1745 1.6667,-1.2521 3.1264,-0.2644 13.0844,-3.0008 15.3784,-4.2257 2.4383,-1.3022 17.2027,-6.2543 33.6216,-11.2772 28.0757,-8.589 99.04,-39.9087 132.6667,-58.5516 8.282,-4.5916 11.0234,-5.7772 14.2136,-6.147 0.4841,-0.056 3.968,-2.5426 7.7417,-5.5257 6.2971,-4.9775 6.8279,-5.8276 6.4531,-10.3333 -0.4022,-4.8344 -0.4902,-4.9046 -5.7418,-4.5816 -2.9333,0.1805 -6.8333,1.5245 -8.6666,2.9869 -11.4282,9.1156 -33.6182,21.5381 -45.3334,25.3785 -4.0333,1.3223 -22.0333,8.6819 -40,16.3547 -61.7485,26.3703 -108.0801,42.5119 -165.3333,57.6012 -35.7663,9.4263 -42,11.5072 -42,14.0203 0,3.8066 13.8201,4.3056 31.3333,1.131 z m 191.3662,-69.187 c 0.4352,-0.7042 0.028,-1.2803 -0.905,-1.2803 -0.9328,0 13.7908,-7.8 32.7191,-17.3333 18.9283,-9.5334 34.9561,-17.3334 35.6173,-17.3334 3.3476,0 0.2851,2.9502 -7.6957,7.4134 -20.1457,11.2661 -61.1767,30.865 -59.7357,28.5336 z m 71.6338,-75.4826 c 4.95,-0.4674 9,-1.417 9,-2.1102 0,-0.7807 -4.4392,-0.8342 -11.6666,-0.1406 -23.8432,2.2884 -59.5814,-0.124 -81.6667,-5.5137 -12.6047,-3.0757 -28.6157,-8.5287 -27.7079,-9.4365 0.2619,-0.2619 4.9286,0.6692 10.3704,2.0689 12.2371,3.1477 32.2158,5.7215 39.3375,5.0677 l 5.3333,-0.4896 -4.6666,-0.8442 c -2.5667,-0.4643 -10.6667,-1.4403 -18,-2.1688 -18.9094,-1.8784 -46.6991,-9.7328 -60.9908,-17.2383 -6.4116,-3.3671 -11.4418,-6.3376 -11.178,-6.6013 0.2636,-0.2638 6.4094,1.6777 13.6574,4.3142 38.0658,13.8472 48.8122,15.8996 77.8447,14.8679 23.4773,-0.8344 34.2365,-3.0423 56,-11.4921 16.9287,-6.5726 23.5875,-10.3603 21.6392,-12.3086 -0.9559,-0.9558 -6.0743,0.9323 -16.5565,6.1075 -10.163,5.0175 -20.4411,8.8464 -31.1279,11.5959 -14.0765,3.6216 -18.1523,4.1068 -34.6215,4.1218 -22.9846,0.021 -31.92,-1.6826 -64.0721,-12.2172 -13.5083,-4.426 -25.8207,-8.0472 -27.3608,-8.0472 -1.5403,0 -6.6789,-2.1689 -11.4193,-4.82 -4.7404,-2.6509 -8.8835,-4.5554 -9.2068,-4.2321 -0.3234,0.3233 4.0577,3.1937 9.7356,6.3787 5.6778,3.185 13.7332,7.8084 17.9006,10.2744 21.3314,12.6218 54.6811,25.2854 76.4228,29.0194 23.7983,4.0871 53.7348,5.6635 73,3.844 z m -967.44791,-3.2228 c 17.4214,-1.9426 55.1802,-14.8208 71.3766,-24.3441 6.3774,-3.7499 11.3718,-7.0415 11.0986,-7.3147 -0.2732,-0.273 -5.4911,2.2068 -11.5953,5.5111 -6.1043,3.3043 -22.1986,9.8732 -35.7653,14.5976 -23.265,8.1019 -25.7558,8.6853 -43.8326,10.2675 -10.9086,0.9548 -24.9825,1.3108 -32.6667,0.8264 -28.0533,-1.7684 -31.445,-2.424 -45.5007,-8.7946 -4.4,-1.9942 -9.2,-4.0014 -10.6667,-4.4604 -1.8387,-0.5754 -3.3737,-3.2196 -4.9439,-8.5158 -2.5081,-8.46 -4.3282,-32.4311 -3.0001,-39.5108 0.8259,-4.4022 0.9517,-4.4774 5.7275,-3.4222 18.8532,4.1655 34.1178,5.322 50.703,3.8418 20.6604,-1.8442 48.9292,-7.5746 70.0044,-14.1907 l 15.8242,-4.9677 2.6378,3.2841 c 1.4507,1.8064 8.3297,9.4343 15.2866,16.9509 8.5988,9.2907 13.574,13.6612 15.538,13.6498 3.6293,-0.021 34.50761,-10.6968 41.59981,-14.3822 9.9734,-5.1826 27.2542,-20.247 36.6196,-31.923 7.5753,-9.4444 19.8285,-30.4049 24.3642,-41.678 0.6851,-1.7028 1.0954,-1.6413 2.7605,0.4131 3.1681,3.909 4.1855,0 1.3635,-5.2438 -1.7019,-3.1602 -2.0237,-4.9013 -1.0265,-5.553 0.7989,-0.5223 2.5291,-3.7996 3.8448,-7.283 3.3701,-8.9222 4.4576,-8.4896 6.703,2.6667 1.7415,8.6528 2.6625,3.9501 2.7676,-14.132 0.082,-14.1603 0.642,-19.7981 2.402,-24.1968 1.262,-3.1543 3.7119,-11.5883 5.4442,-18.7423 1.7322,-7.154 3.8014,-14.2252 4.598,-15.7138 0.7967,-1.4886 1.4485,-3.6103 1.4485,-4.7151 0,-1.7659 -0.4429,-1.7775 -3.6667,-0.096 -5.6206,2.932 -7.4555,2.5513 -5.1616,-1.0708 1.0449,-1.65 2.3064,-4.95 2.8033,-7.3333 0.6981,-3.3479 1.5905,-4.3334 3.9243,-4.3334 1.6614,0 4.0934,-1.1853 5.4044,-2.634 2.2024,-2.4336 2.2661,-3.8732 0.8371,-18.9252 -0.8507,-8.9601 -1.8404,-16.5848 -2.1993,-16.9437 -1.7181,-1.7181 -3.1054,3.2013 -5.2179,18.5029 -1.2655,9.1667 -2.5702,16.941 -2.8995,17.2762 -1.0166,1.035 -7.6848,-3.553 -10.4093,-7.1622 -2.5687,-3.4028 -2.5666,-3.4578 0.3333,-8.6176 2.1931,-3.9021 2.9185,-7.4069 2.9185,-14.101 0,-8.2832 0.186,-8.8494 2.6503,-8.0672 2.3985,0.7612 2.5568,0.4214 1.6667,-3.5768 -0.541,-2.4299 -0.9836,-10.8454 -0.9836,-18.7009 0,-13.1367 -0.2085,-14.3136 -2.598,-14.6666 -2.0967,-0.3098 -2.8754,-2.0854 -4.0355,-9.2015 -0.8908,-5.4643 -2.8184,-10.9044 -5.0686,-14.3047 -1.9972,-3.0178 -3.6313,-6.3406 -3.6313,-7.3839 0,-2.0059 8.2486,-7.4937 11.2635,-7.4937 1.7173,0 5.2528,11.1053 8.9143,28 0.8741,4.0334 2.3341,8.1544 3.2445,9.1578 3.4622,3.8162 4.5777,0.088 4.5777,-15.3001 0,-14.9581 -0.085,-15.3974 -3.6274,-18.6801 -1.9951,-1.849 -5.2379,-3.684 -7.2062,-4.0776 -2.7854,-0.5571 -4.0916,-2.0882 -5.8932,-6.9078 -1.273,-3.4057 -2.9158,-6.9566 -3.6505,-7.891 -0.7348,-0.9344 -0.9957,-2.0392 -0.5798,-2.4551 1.2767,-1.2767 5.8112,0.7311 11.0451,4.8905 2.7438,2.1805 5.2901,3.6632 5.6585,3.2948 0.3683,-0.3684 -1.2127,-3.6979 -3.5134,-7.399 -4.3821,-7.0493 -4.6199,-8.3212 -8.216,-43.9486 -1.6977,-16.8184 -8.9382,-42.292 -15.658,-55.0877 -2.62,-4.9889 -9.2901,-14.2482 -14.8225,-20.5762 -5.5323,-6.3281 -9.0605,-11.1225 -7.8404,-10.6543 3.4968,1.3419 3.8477,-1.0406 0.5961,-4.0474 -9.6252,-8.9006 -49.25371,-29.2978 -65.36451,-33.6439 -6.1762,-1.6661 -6.4848,-1.6136 -8.6163,1.4656 -1.2159,1.7564 -4.0015,4.6935 -6.1901,6.5268 -2.1886,1.8333 -7.7716,6.8884 -12.4067,11.2334 l -8.4273,7.9001 -10.3103,-4.1957 c -27.8881,-11.3489 -60.4505,-20.812 -83.6437,-24.3079 -14.2297,-2.1448 -39.2487,-0.13 -58.4049,4.7036 -7.9226,1.999 -14.6894,3.35 -15.0373,3.0021 -0.3478,-0.3478 0.01,-2.319 0.7926,-4.3804 3.0706,-8.0765 12.299,-42.0835 11.6076,-42.7749 -0.2836,-0.2836 -7.0279,-1.1711 -14.9873,-1.9722 -15.57849,-1.5679 -19.55579,-1.1289 -42.94399,4.7396 -10.443,2.6204 -14.9859,4.7552 -30,14.098 -9.7314,6.0556 -22.7934,15.2725 -29.0267,20.4822 -22.3172,18.6522 -69.1762,68.6262 -77.2418,82.3767 -4.356,7.4262 -13.388,31.9212 -15.0039,40.6907 -1.876,10.1814 -1.9534,10.0719 14.1101,19.9522 6.6746,4.1053 12.3021,7.6031 12.5056,7.7729 0.2036,0.1697 -1.3894,5.6421 -3.5399,12.1608 -4.5748,13.8674 -10.3238,46.69 -12.0012,68.5188 -1.4783,19.2384 0.3466,68.1179 3.0236,80.984 1.1044,5.3079 3.3299,14.5498 4.9455,20.5375 3.3363,12.3645 3.5674,11.8269 -7.4647,17.3643 -11.3402,5.692 -17.9947,10.986 -17.9974,14.3178 0,1.762 2.4634,10.506 5.4773,19.431 5.1159,15.1496 6.3629,17.4164 18.7748,34.1297 29.8878,40.2458 58.4577,62.4298 125.7453,97.639 32.348,16.9266 40.658,19.8924 51.01349,18.2071 4.2032,-0.6841 7.8354,-1.8235 8.0715,-2.532 0.2362,-0.7084 8.9387,1.6684 19.3389,5.2819 12.0003,4.1694 22.8068,7.0061 29.5761,7.7638 15.3377,1.7167 46.6741,1.7766 61.5521,0.1174 z M 731.8339,1583.0001 c -1.6585,-2.1148 -1.6113,-2.1618 0.5034,-0.5034 1.2834,1.0065 2.3334,2.0565 2.3334,2.3333 0,1.0975 -1.0949,0.3911 -2.8368,-1.8299 z m -9.8522,-8.9572 c -3.4256,-4.0097 -5.9726,-8.0581 -5.6598,-8.9964 0.3503,-1.0509 1.246,-0.4273 2.3327,1.6239 0.9702,1.8313 3.843,5.8797 6.384,8.9964 6.7299,8.2545 4.263,6.9441 -3.0569,-1.6239 z m 48.689,-19.2984 c -33.256,-12.1642 -48.2966,-19.4234 -70.2298,-33.8961 -6.8197,-4.5 -17.4924,-11.1232 -23.7171,-14.7182 -12.2022,-7.0474 -40.6506,-32.8766 -51.0082,-46.3119 -5.8612,-7.6029 -17.6851,-27.5524 -17.7017,-29.8668 -0.015,-2.1377 23.2308,-15.7917 37.1231,-21.8048 13.4821,-5.8356 41.6745,-12.3908 42.51,-9.8844 0.2574,0.7723 4.413,9.1292 9.2345,18.5709 4.8216,9.4418 12.3412,24.2414 16.7101,32.888 4.369,8.6466 9.9678,17.7454 12.4419,20.2195 8.1651,8.1651 47.723,26.0075 62.34379,28.12 5.0409,0.7283 6.2382,1.3756 5.7276,3.0967 -2.195,7.3989 -5.0298,28.5298 -5.7027,42.5094 -0.5112,10.6211 -1.3012,16.3097 -2.2588,16.2659 -0.81,-0.037 -7.7727,-2.3718 -15.47269,-5.1882 z m 154.40619,-15.9924 c -7.5071,-7.899 -10.7083,-14.1905 -19.5287,-38.3811 l -3.9971,-10.9623 30.8931,-15.4781 c 16.9912,-8.5128 31.9218,-16.4035 33.179,-17.5346 2.7621,-2.4852 17.1632,-24.1156 24.7618,-37.1922 3.2454,-5.5852 6.9948,-14.8738 9.1495,-22.6667 2.00791,-7.2621 3.72591,-13.3447 3.81791,-13.5171 0.5063,-0.9489 34.4161,10.01 48.9092,15.8064 21.7778,8.71 21.3787,8.3926 19.5361,15.5424 -1.2652,4.9096 -1.8535,5.5803 -4.2328,4.8252 -2.7162,-0.8621 -2.7226,-0.8149 -0.3778,2.7639 2.3472,3.5823 2.3194,3.7755 -1.7307,12.0024 -7.5054,15.2457 -19.5582,30.5011 -34.8143,44.0652 -7.9324,7.0525 -14.7199,13.5979 -15.0834,14.5452 -0.7598,1.98 -21.00341,19.2283 -30.88801,26.3177 -9.7453,6.9895 -36.1636,21.6309 -44.7937,24.8252 l -7.4604,2.7613 z m -113.7396,-39.535 c -2.2,-0.3141 -6.4557,-0.8891 -9.4572,-1.2777 l -5.4573,-0.7066 2.322,-13.6164 c 1.277,-7.489 3.6584,-19.8537 5.2919,-27.4772 2.6625,-12.4261 2.8858,-16.2212 2.157,-36.6666 -0.4471,-12.5432 -1.1915,-25.5627 -1.6541,-28.9322 l -0.8413,-6.1262 33.1529,-0.225 c 18.234,-0.124 35.0464,-0.5732 37.3607,-0.9986 l 4.2079,-0.7736 0.9727,10.3802 c 0.535,5.7092 0.5784,18.8154 0.097,29.125 -0.8225,17.5977 -0.7063,18.9892 1.8991,22.7445 4.1958,6.0475 9.1179,17.3183 13.3926,30.6667 2.1135,6.6 3.8534,12.142 3.8663,12.3154 0.06,0.8098 -10.7381,4.6539 -21.7807,7.7536 -10.6367,2.9859 -15.3489,3.4851 -36.8624,3.9047 -13.5666,0.2647 -26.4666,0.2241 -28.6666,-0.089 z m 264.10381,-91.9705 c -2.6641,-2.664 -13.3177,-19.1072 -16.1048,-24.8567 -1.8853,-3.8891 -1.8896,-4.0856 -0.038,-1.7232 5.0067,6.3887 6.1849,7.3333 9.1455,7.3333 2.0289,0 3.6558,1.149 4.6185,3.2618 0.8174,1.794 3.6854,5.6961 6.3734,8.6713 4.0467,4.4792 4.6024,5.7528 3.2313,7.4049 -2.1284,2.5646 -4.6011,2.5332 -7.2258,-0.092 z m -389.2858,-16.2874 c -7.0457,-13.6248 -12.3028,-43.314 -13.6274,-76.9592 -0.7491,-19.0255 -0.5301,-22.6315 2.0244,-33.3333 1.5754,-6.6 3.379,-12.8261 4.0078,-13.8357 1.8636,-2.9917 23.8155,4.0127 38.1106,12.1601 l 12,6.8394 20.6666,0.2891 c 11.3667,0.1589 27.35759,0.3831 35.53519,0.498 l 14.8686,0.2091 -0.2019,32.92 c -0.1111,18.106 0.3163,39.5305 0.9496,47.6101 l 1.1515,14.6903 -31.15149,-1.6337 c -34.2411,-1.7956 -32.8447,-1.9606 -54.0587,6.3854 -7.5787,2.9816 -24.8485,7.8679 -27.8079,7.8679 -0.3023,0 -1.4124,-1.6683 -2.4669,-3.7075 z m 384.4757,-8.9985 c -6.9323,-17.9381 -8.4353,-22.0993 -10.0837,-27.9179 -1.0322,-3.6432 -1.8766,-8.0582 -1.8766,-9.8112 0,-2.8108 0.4329,-3.0786 3.6639,-2.2677 2.0152,0.5057 3.7115,1.0208 3.7697,1.1445 0.058,0.124 0.8435,4.3788 1.7451,9.4559 0.9309,5.242 3.4489,12.4976 5.8271,16.7907 l 4.1878,7.5597 -2.8514,4.5035 -2.8513,4.5033 z M 881.34809,1377 c 0,-2.3833 0.8705,-10.9333 1.9213,-19 1.0508,-8.0666 2.2959,-22.7666 2.7669,-32.6667 0.7829,-16.4581 3.6933,-39.5033 5.1761,-40.9861 0.3353,-0.3353 15.2006,-0.066 33.034,0.5976 l 32.4243,1.2073 20.6667,-4.565 c 29.74211,-6.5696 27.07311,-7.2282 28.68621,7.0796 2.3347,20.7084 -0.9679,86.6845 -4.5222,90.3411 -0.5388,0.5544 -6.04611,-0.1616 -12.23851,-1.591 -15.805,-3.6482 -39.9594,-8.0886 -43.9255,-8.0752 -1.8334,0 -14.0039,2.707 -27.0457,6.0015 -13.0417,3.2947 -26.6917,5.9903 -30.3333,5.9903 -6.5832,0 -6.621,-0.025 -6.6103,-4.3334 z m 197.60351,-34.3505 c -2.7073,-1.6507 -5.5646,-2.3781 -7.4664,-1.9008 -2.953,0.7412 -3.1183,0.3687 -3.9865,-8.9877 -0.4983,-5.3686 -1.2823,-12.1187 -1.7423,-15.0004 l -0.8364,-5.2394 4.246,3.0235 c 3.6577,2.6045 4.8252,2.8216 8.4249,1.5667 2.2984,-0.8012 4.3638,-1.2718 4.5898,-1.0459 0.6378,0.6379 2.293,30.2685 1.6904,30.2629 -0.2936,0 -2.5073,-1.2082 -4.9195,-2.6789 z m -28.7234,-7.8509 c -0.49,-4.6877 -0.8909,-13.5351 -0.8909,-19.6608 0,-10.8787 0.058,-11.0798 2.4928,-8.6451 1.7141,1.7141 2.7651,5.3582 3.365,11.6667 0.4797,5.0457 1.2143,12.0239 1.6324,15.5073 0.685,5.7075 0.4952,6.3333 -1.9206,6.3333 -1.4744,0 -2.9298,0.7474 -3.2343,1.6608 -0.3045,0.9135 -0.9545,-2.1745 -1.4444,-6.8622 z m 9.6483,-27.0554 c -3.2905,-1.1044 -3.4102,-1.471 -2.4315,-7.4523 1.6716,-10.2161 4.9909,-23.2561 6.2369,-24.5021 0.6544,-0.6544 2.4517,0.2203 4.1351,2.0122 l 2.9778,3.1696 -3.0621,5.1786 c -2.0295,3.4324 -3.2868,8.1421 -3.7287,13.967 -0.6655,8.7738 -0.6724,8.7865 -4.1275,7.627 z m -258.09611,-24.308 c 0.4337,-1.1302 1.2017,-14.5832 1.7067,-29.8955 l 0.918,-27.8406 -4.2068,-10.1053 c -3.4506,-8.2887 -10.5665,-35.6468 -11.3352,-43.5796 -0.1452,-1.4983 1.9352,-2.1955 8.4742,-2.8399 22.1629,-2.1842 37.9117,-2.4775 59.2671,-1.1039 18.6945,1.2025 26.1654,2.3107 38.9333,5.7751 14.1835,3.8486 15.7688,4.5776 15.4986,7.1275 -0.1656,1.5622 -4.2156,11.6598 -9,22.439 -7.5945,17.1102 -8.7024,20.6348 -8.7263,27.7599 -0.015,4.4888 -0.9077,17.1614 -1.9837,28.1614 -1.0759,11 -1.9636,20.6599 -1.9726,21.4663 -0.021,1.8718 -18.2408,3.136 -57.8558,4.0143 -27.1085,0.601 -30.4182,0.4474 -29.7175,-1.3787 z m 202.28751,-17.2682 c -2.0032,-8.1083 -11.06931,-27.8953 -19.69141,-42.9772 -6.1465,-10.7515 -6.2711,-10.8674 -22.9429,-21.3333 -17.1747,-10.7817 -40.5444,-23.1898 -43.676,-23.1898 -0.9645,0 -1.7536,-0.9611 -1.7536,-2.1358 0,-3.7869 14.9666,-34.157 23.1087,-46.8919 l 7.9031,-12.361 11.4941,6.1739 c 17.9031,9.6165 33.4386,20.4338 41.93171,29.1969 4.274,4.4098 16.2249,18.5179 26.5575,31.3512 16.0905,19.9848 19.8814,25.6295 26.4159,39.3333 4.1962,8.8 8.6261,19.498 9.8441,23.7733 1.8495,6.4915 2.5304,7.5113 4.1292,6.1845 1.0608,-0.8805 3.3811,-1.2207 5.204,-0.7632 3.2794,0.823 3.2686,0.8534 -3.4984,9.8155 -3.8021,5.0355 -8.2091,9.3885 -10.0187,9.896 -1.7769,0.4983 -3.0414,0.4983 -2.81,0 0.2314,-0.4983 2.1077,-4.1157 4.1694,-8.0386 2.0618,-3.9229 3.5584,-7.3103 3.3257,-7.5274 -0.2326,-0.2171 -5.823,1.3913 -12.423,3.5742 -6.6,2.183 -19.5557,5.9455 -28.7905,8.3611 l -16.7906,4.392 z m -343.1666,-8.282 c -8.6732,-2.4476 -18.8732,-5.9546 -22.6667,-7.7932 -6.1863,-2.9983 -24.812,-13.5885 -26.0589,-14.8165 -1.4563,-1.4342 13.1561,-27.2431 22.6141,-39.942 20.2509,-27.1901 50.1565,-53.1066 84.8796,-73.5575 10.2762,-6.0523 50.5853,-23.1091 54.6123,-23.1091 0.6575,0 1.20739,7.05 1.22199,15.6666 0.023,13.7402 0.6294,17.9525 4.93,34.2547 2.697,10.2234 4.9036,19.0035 4.9036,19.5113 0,0.5079 -4.05,1.3363 -9,1.841 -10.26549,1.0467 -40.96859,12.5463 -54.71949,20.4948 -8.0824,4.6719 -8.8013,5.5437 -19.8402,24.0586 -11.4924,19.2755 -20.7804,37.6611 -22.4837,44.5063 -0.5017,2.0167 -1.2973,3.5921 -1.7678,3.501 -0.4705,-0.091 -7.9516,-2.1683 -16.6248,-4.616 z m 1194.1549,359.5713 c 6.7546,-1.4122 17.2434,-4.3802 23.3085,-6.5954 6.0649,-2.2153 10.6981,-3.4953 10.296,-2.8445 -0.9512,1.5389 2.4499,3.2188 10.4907,5.1812 6.1822,1.5089 7.0416,1.3508 18.6666,-3.4347 32.0367,-13.188 77.9955,-38.3194 104.186,-56.9713 24.386,-17.3667 38.5922,-31.435 57.9388,-57.3762 7.955,-10.6664 11.4647,-16.807 14.6968,-25.714 4.1867,-11.5372 10.2178,-34.7643 9.2136,-35.4838 -0.2837,-0.2032 -6.8782,-4.1869 -14.6545,-8.8529 l -14.1385,-8.4833 3.0634,-11.4407 c 6.7483,-25.2013 9.9019,-66.2751 7.271,-94.6988 -1.3459,-14.5398 -9.6719,-56.8034 -14.11,-71.6237 -0.7424,-2.4787 0.7905,-3.9937 10.9566,-10.8294 15.478,-10.4074 15.6516,-10.6441 14.6554,-19.984 -2.0587,-19.299 -10.8811,-42.8931 -21.0538,-56.3048 -8.8369,-11.6507 -62.9516,-65.9223 -76.1165,-76.3372 -17.3057,-13.6909 -40.1817,-27.0603 -54.3889,-31.7866 -10.6882,-3.5556 -15.27,-4.3143 -29.3334,-4.857 -18.9668,-0.732 -26.1257,0.4967 -25.7645,4.4221 0.2929,3.1834 6.3827,28.2036 9.0889,37.3426 2.2444,7.5789 2.5252,10.3593 0.9482,9.3845 -2.4203,-1.4958 -23.273,-6.4311 -36.9392,-8.7425 -30.5975,-5.1752 -64.0108,1.8258 -124.4114,26.0676 l -5.7445,2.3056 -14.5619,-14.5166 -14.5617,-14.5166 -6.3603,1.6817 c -8.4722,2.2401 -46.805,21.206 -57.687,28.5418 -8.9631,6.0422 -18.5056,16.7994 -16.1784,18.2377 0.7249,0.4481 -1.3524,3.8052 -4.6164,7.4604 -14.8098,16.585 -22.1314,39.1373 -24.618,75.8299 -0.7511,11.0821 -1.492,21.6138 -1.6464,23.4037 -0.2375,2.7533 0.5097,3.4459 4.8513,4.497 l 5.1321,1.2426 -5.096,2.8585 c -5.6436,3.1657 -12.9332,12.9208 -12.2616,16.4086 0.3547,1.8412 1.2911,1.484 5.2718,-2.0111 2.6622,-2.3375 6.0226,-4.25 7.4676,-4.25 2.5945,0 2.5924,0.1 -0.176,8.0524 -2.0787,5.9711 -3.5748,8.2475 -5.7888,8.8076 -1.6422,0.4153 -4.8708,2.9023 -7.175,5.5265 -4.1136,4.6851 -4.174,4.9511 -3.3477,14.7269 0.4629,5.4756 0.8416,12.0696 0.8416,14.6535 v 4.6979 l 3.1253,-2.9361 c 2.3699,-2.2264 3.8459,-6.4144 6.1064,-17.3258 1.6395,-7.9143 3.4582,-15.1619 4.0415,-16.1057 1.3125,-2.1236 4.8844,-1.0605 9.7444,2.9003 l 3.6841,3.0025 -3.9637,5.9397 c -2.9993,4.4946 -4.1809,8.144 -4.8564,15 -0.7584,7.6967 -1.2739,9.0603 -3.4244,9.0603 -2.3107,0 -2.4561,0.7355 -1.6673,8.4343 0.7841,7.6534 -0.4124,17.556 -2.9067,24.0558 -0.8107,2.1127 -0.4976,2.3396 2.0923,1.5176 2.9822,-0.9465 3.0317,-0.8041 2.3757,6.8462 -0.5528,6.4468 -0.112,8.9233 2.5209,14.164 l 3.191,6.3512 -5.2618,5.6408 c -2.894,3.1024 -5.6476,5.2549 -6.1193,4.7832 -1.1807,-1.1807 -4.5784,-20.7003 -4.6355,-26.6299 -0.04,-4.1367 -3.1197,-9.296 -4.5885,-7.6865 -0.2627,0.2878 -0.6983,8.0181 -0.9679,17.1785 l -0.4901,16.6552 4.5905,1.4952 c 3.9218,1.2773 4.941,2.5261 6.9958,8.5712 1.3229,3.8919 2.1136,7.3677 1.7572,7.7241 -0.3566,0.3566 -3.0546,-0.297 -5.9958,-1.4524 -2.9413,-1.1553 -5.3477,-1.6222 -5.3477,-1.0374 0,2.7402 4.224,10.7208 6.3205,11.9416 2.2038,1.2833 2.1951,1.3686 -0.1426,1.4068 -1.7495,0.028 -2.274,0.7337 -1.7658,2.3738 0.3978,1.2834 3.2356,10.4334 6.3063,20.3334 l 5.5832,18 -2.8845,9.8662 c -3.3155,11.3407 -2.0686,15.0514 2.4718,7.356 3.2992,-5.5917 4.1187,-5.1761 7.4503,3.7778 1.296,3.4833 3.0249,6.3466 3.842,6.3629 0.8169,0.016 0.049,1.134 -1.7063,2.4837 -3.3705,2.5916 -2.8148,5.9434 0.8667,5.2272 1.488,-0.2894 4.3579,4.1178 9.928,15.2468 12.1657,24.3067 22.2539,36.4556 46.5819,56.0972 6.439,5.1987 20.5264,11.0168 39.6106,16.3595 13.5604,3.7961 14.3612,3.4438 23.7712,-10.4554 3.5383,-5.2265 9.2558,-12.5908 12.7052,-16.3653 l 6.2719,-6.8625 9.7281,3.177 c 15.3187,5.0028 47.1224,13.5386 61.7282,16.567 16.7513,3.4733 43.578,2.8696 59.1416,-1.3311 l 9.8082,-2.6472 -0.8148,6.9035 c -0.448,3.7969 -1.1346,12.3034 -1.5256,18.9034 -0.8104,13.6775 -2.4508,20.9843 -5.3657,23.8992 -4.8272,4.8271 -35.9453,11.9627 -59.5771,13.6615 -6.4166,0.4612 -11.6666,1.2057 -11.6666,1.6544 0,1.5519 33.4849,-1.2011 45.7188,-3.7589 z m 82.9478,-38.7895 c 1.3274,-1.4667 2.7134,-2.6667 3.08,-2.6667 0.3667,0 -0.4193,1.2 -1.7466,2.6667 -1.3274,1.4667 -2.7134,2.6667 -3.08,2.6667 -0.3667,0 0.4193,-1.2 1.7466,-2.6667 z m 4.6667,-2.9456 c 0,-0.4412 2.1799,-3.4088 4.8441,-6.5949 2.6642,-3.186 5.4606,-7.1428 6.214,-8.7928 0.7535,-1.65 1.8858,-3 2.5163,-3 2.0627,0 -3.8967,9.8936 -8.7909,14.5949 -2.631,2.5272 -4.7835,4.2339 -4.7835,3.7928 z m -51.0928,-32.6701 c 0.5029,-7.8886 -0.1661,-14.5503 -2.784,-27.7177 -4.7272,-23.7767 -4.9492,-22.4911 4.2101,-24.3856 14.651,-3.0306 33.3766,-11.361 56.4886,-25.1298 6.7868,-4.0432 8.243,-5.8054 15.5416,-18.8062 4.4292,-7.8899 13.3593,-24.6808 19.8448,-37.3134 8.7538,-17.051 12.4244,-22.9765 14.2472,-23 1.3506,-0.017 9.7498,1.7952 18.665,4.0282 16.2254,4.0638 19.8226,5.6905 43.115,19.497 l 12.2354,7.2524 -2.0524,4.9287 c -6.1666,14.8083 -15.229,28.1491 -28.9573,42.6285 -10.6264,11.2079 -30.4471,27.4803 -40.1279,32.9443 -3.6666,2.0696 -10.8666,6.6069 -16,10.0831 -23.5366,15.9382 -36.2246,22.4454 -70,35.9003 -28.1625,11.219 -25.2064,11.329 -24.4261,-0.9098 z m -151.5739,-7.6634 c -19.9213,-8.1485 -40.6706,-19.9134 -57.1686,-32.415 -31.9296,-24.1952 -58.5162,-52.0152 -68.8839,-72.0799 -3.5283,-6.8282 -3.5896,-7.2809 -1.5629,-11.5308 2.5569,-5.3621 1.5348,-7.014 -1.8391,-2.972 l -2.4568,2.9434 -0.044,-3.588 c -0.024,-1.9734 -0.6444,-3.9588 -1.3777,-4.412 -0.7334,-0.4532 -1.3334,-1.7304 -1.3334,-2.8382 0,-2.3232 21.9274,-13.0081 37.3334,-18.1918 12.2565,-4.1242 36.0858,-10.6886 36.5946,-10.081 0.2046,0.2444 1.699,4.6443 3.3208,9.7776 4.6402,14.6855 14.5406,32.1399 34.1795,60.2578 3.5767,5.1209 6.2881,6.6764 32.2384,18.4938 15.5833,7.0966 28.3333,13.398 28.3333,14.0035 0,2.948 -10.7634,31.1525 -13.8073,36.1807 -1.9081,3.152 -6.332,8.818 -9.8309,12.5912 l -6.3618,6.8602 -7.3333,-2.9995 z m 70,-44.6749 c -9.9326,-2.1429 -30,-8.7845 -30,-9.9289 0,-3.2245 7.8282,-24.4979 12.3286,-33.5032 l 5.9706,-11.9473 0.9504,-29.3223 c 0.5228,-16.1272 1.1315,-29.5032 1.3528,-29.7245 0.2212,-0.2214 10.2263,0.2209 22.2334,0.9826 12.0069,0.7619 28.4309,1.3874 36.4976,1.3903 h 14.6666 l -0.4073,13.0009 c -0.224,7.1507 -0.8873,19.5602 -1.4739,27.577 -0.9613,13.1385 -0.759,15.6934 2.0522,25.911 3.822,13.8919 9.1745,45.2788 7.9332,46.5202 -0.4982,0.498 -14.2254,1.0681 -30.505,1.2669 -25.2242,0.3079 -31.3729,-0.021 -41.5992,-2.2279 z m -209.7562,-87.12 -2.8876,-3.0738 5.2385,-5.1152 c 2.8812,-2.8135 5.9488,-6.8303 6.8171,-8.9263 1.2233,-2.9536 2.4484,-3.8108 5.446,-3.8108 3.1552,0 4.5992,-1.1535 7.8382,-6.2611 3.9351,-6.2048 5.3127,-6.9253 2.5204,-1.318 -2.4469,4.9138 -20.4101,31.5791 -21.2733,31.5791 -0.4464,0 -2.1111,-1.3832 -3.6993,-3.0739 z m 389.0896,-20.5252 c -9.2098,-1.6464 -25.3063,-6.2817 -34.4363,-9.9166 -7.7276,-3.0767 -11.5352,-3.897 -15.5637,-3.353 -25.3836,3.4282 -50.5764,6.1904 -56.5078,6.1956 h -7.1745 l 0.8412,-5 c 4.1124,-24.4452 5.1009,-38.2042 4.3347,-60.3333 -0.4444,-12.8334 -1.1604,-24.8695 -1.5912,-26.747 l -0.7832,-3.4136 9.107,1.0118 c 5.009,0.5565 21.868,1.0427 37.4647,1.0803 l 28.3575,0.068 13.1301,-6.589 c 14.0929,-7.0721 33.342,-13.8914 37.1448,-13.1591 5.5333,1.0656 7.0724,26.3479 3.6777,60.4148 -2.8638,28.7399 -4.1902,37.3233 -7.6212,49.3167 -3.1353,10.9602 -3.7716,11.5988 -10.3798,10.4176 z m -381.927,-7.4254 c -2.3344,-4.3347 -2.3249,-4.3932 1.7634,-11 3.1662,-5.1166 4.3108,-8.8338 4.9834,-16.1839 0.8623,-9.4229 0.925,-9.5496 5.0267,-10.1753 2.2844,-0.3484 4.3863,-0.4219 4.6708,-0.1632 1.4397,1.3093 -11.3017,41.8802 -13.1527,41.8802 -0.5196,0 -2.0008,-1.961 -3.2916,-4.3578 z M 1679.5358,1367 c -3.48,-42.221 -4.8006,-93.6079 -2.4987,-97.2265 1.2308,-1.9348 18.6543,1.4412 39.0799,7.5721 12.7153,3.8167 14.8433,4.0878 25.2204,3.2131 16.2181,-1.367 44.3616,-0.7976 45.4225,0.919 0.4821,0.7801 1.2329,5.4167 1.6685,10.3037 2.5284,28.3694 5.171,52.5706 6.9127,63.3094 3.2259,19.8903 3.7101,18.7787 -7.7581,17.8094 -10.5216,-0.8895 -23.0259,-3.4979 -37.1162,-7.7424 -8.5876,-2.587 -9.2684,-2.6014 -21.3333,-0.4502 -15.7771,2.8131 -36.4544,7.9227 -42.8141,10.5799 -2.693,1.1252 -5.1294,2.0459 -5.4142,2.0459 -0.2848,0 -0.901,-4.65 -1.3694,-10.3334 z m -79.8171,-37.5132 c 0.5392,-16.2456 0.9665,-17.7013 4.9063,-16.7125 2.3264,0.5839 4.5993,-0.236 8.139,-2.9359 l 4.9114,-3.7461 -0.7659,3.9539 c -0.4213,2.1746 -1.1601,8.9081 -1.642,14.9635 -0.8387,10.5401 -1.0265,11.0411 -4.4031,11.7481 -1.9398,0.4061 -5.327,1.5209 -7.527,2.4772 l -4,1.7385 z m 31.1632,9.5132 c -0.1449,-2.0588 -1.0623,-3 -2.9237,-3 -2.4418,0 -2.6455,-0.6325 -2.0395,-6.3333 0.3703,-3.4834 1.0312,-10.7237 1.4688,-16.0896 0.5799,-7.1099 1.4947,-10.4552 3.3728,-12.3333 2.5472,-2.5473 2.5755,-2.4651 2.4359,7.0895 -0.1602,10.9672 -1.992,35.2422 -2.3143,30.6667 z m -12.4792,-43.1369 c -0.4107,-5.6757 -1.3676,-8.6796 -3.4824,-10.9308 -3.7181,-3.9578 -3.6871,-4.2522 0.9784,-9.2442 l 3.8947,-4.1672 0.881,5.2395 c 0.4846,2.8818 1.6866,8.2396 2.671,11.9063 3.1405,11.6969 3.0605,13.0069 -0.859,14.0694 -3.4697,0.9406 -3.5253,0.847 -4.0837,-6.873 z m 175.268,-16.7444 c -3.1167,-0.3329 -5.6784,-1.0208 -5.6927,-1.5287 -0.015,-0.5078 -0.9216,-8.7233 -2.0162,-18.2567 -1.0947,-9.5333 -1.9118,-23.4588 -1.8155,-30.9456 0.1605,-12.5002 -0.1147,-14.1069 -3.3719,-19.6642 -4.3866,-7.4853 -13.246,-34.1202 -11.8173,-35.5276 2.1852,-2.1525 25.6145,-8.1042 39.0469,-9.919 20.4554,-2.7636 80.223,-2.1651 83.2215,0.8334 1.0036,1.0037 -7.7077,29.5894 -12.5625,41.223 -3.9984,9.5811 -4.1695,10.7541 -4.0843,28 0.049,9.9 0.4615,24 0.9168,31.3334 l 0.828,13.3333 h -15.8264 c -8.7045,0 -26.0264,0.3879 -38.4931,0.8621 -12.4666,0.4741 -25.2166,0.5896 -28.3333,0.2566 z m -175,-11.2026 c 0,-0.569 -2.9864,-4.3022 -6.6365,-8.2959 -6.5247,-7.1391 -6.5926,-7.3013 -4.025,-9.6248 2.2176,-2.007 2.938,-2.0924 4.7767,-0.5665 1.7873,1.4834 9.9283,12.8222 12.8548,17.9044 0.4308,0.7481 -0.9303,1.3957 -3.1011,1.4754 -2.1278,0.078 -3.8689,-0.3236 -3.8689,-0.8926 z m 32.6667,-9.0726 c -11,-3.5334 -23.9838,-8.0559 -28.8527,-10.05 l -8.8527,-3.6258 2.3167,-7.5838 c 5.9151,-19.3635 13.6516,-32.0705 36.722,-60.3142 29.8312,-36.5206 37.5245,-43.2747 66.5839,-58.4554 l 13.2505,-6.9221 5.0003,5.7206 c 5.2938,6.0563 12.5558,19.8362 21.9384,41.628 l 5.7008,13.2408 -12.9036,5.8096 c -17.6875,7.9634 -42.1271,21.3614 -45.3108,24.8397 -6.6246,7.2376 -24.2211,41.9162 -29.1947,57.5358 -0.7645,2.4011 -2.2979,4.1201 -3.8359,4.3006 -1.4092,0.1653 -11.5622,-2.5904 -22.5622,-6.1238 z m 348.8258,-12.766 c -3.6202,-7.675 -11.7001,-22.5322 -17.9553,-33.016 -10.4483,-17.5115 -12.0031,-19.4576 -19.1217,-23.9331 -18.814,-11.8282 -43.0492,-22.065 -59.4155,-25.0966 -7.438,-1.3777 -9,-2.1151 -9,-4.2485 0,-1.4197 2.55,-11.4018 5.6667,-22.1823 4.9373,-17.0785 5.6496,-21.1743 5.534,-31.826 l -0.1334,-12.225 11.4662,3.952 c 14.469,4.9871 43.4536,19.2039 56.453,27.69 11.3971,7.4401 32.1479,24.4818 45.4648,37.3382 17.3038,16.7054 34.495,39.8654 42.7211,57.5542 7.6193,16.384 8.1752,14.624 -7.4055,23.4459 -12.8293,7.264 -18.8092,9.382 -44.0633,15.6071 -3.5111,0.8655 -3.8437,0.4401 -10.2116,-13.0599 z M 900.81039,1617.2729 c 11.2606,-0.9128 21.7946,-2.7061 30.5269,-5.197 7.3334,-2.0918 15.5834,-4.1918 18.3334,-4.6666 2.75,-0.4749 5,-1.4838 5,-2.2422 0,-1.6818 -4.3359,-0.8368 -21.4079,4.1717 -8.881,2.6055 -18.7812,4.2447 -32.6769,5.4105 -18.8524,1.5819 -20.8768,1.5107 -37.2587,-1.3098 -28.3647,-4.8836 -33.6841,-6.4583 -50.3704,-14.9112 -10.5712,-5.3551 -16.3864,-7.6279 -17.2661,-6.7482 -1.667,1.667 9.0697,8.734 11.2356,7.3954 0.8522,-0.5267 1.1196,-0.3218 0.6247,0.4789 -0.4757,0.7699 0.063,1.7556 1.1966,2.1908 1.1825,0.4537 1.7136,0.228 1.2456,-0.5293 -0.4489,-0.7262 1.17,-0.1586 3.5974,1.2614 8.4044,4.9164 19.9001,8.3202 40.7763,12.0734 24.6758,4.4362 24.317,4.416 46.4435,2.6222 z M 582.0225,798.66668 c -0.2162,-0.36667 0.4429,-6.66667 1.4646,-14 9.4132,-67.55955 48.9028,-156.85669 128.5406,-290.66667 33.7451,-56.69968 83.16839,-127.04279 98.73609,-140.52911 l 6.7672,-5.86243 7.9964,7.86243 c 17.8955,17.5957 65.9516,87.93092 100.115,146.52911 57.6043,98.80469 94.77991,176.49485 113.24741,236.66667 7.4977,24.42941 13.9653,58.47885 11.2799,59.38466 -2.2782,0.76846 -467.6961,1.3802 -468.1472,0.61534 z m 1215.0089,0.32932 c -189.219,-0.29583 -215.8742,-0.58064 -216.5392,-2.31375 -1.3464,-3.5086 2.0782,-36.55752 5.5117,-53.18871 12.3103,-59.63141 46.5739,-137.1424 109.6984,-248.1602 38.3932,-67.52243 90.3985,-145.49619 111.3185,-166.90426 l 8.0498,-8.23757 7.2677,6.23757 c 8.1036,6.95502 19.3375,21.09364 38.8569,48.90426 15.2026,21.65989 41.4386,60.84471 44.6364,66.66667 1.2084,2.2 5.5718,9.4 9.6962,16 14.1869,22.70198 48.8872,84.04349 62.9802,111.33333 50.2983,97.39754 69.2567,153.57258 74.3602,220.33334 l 0.688,9 -3.776,0.10173 c -17.743,0.47816 -65.1502,0.52085 -252.7488,0.22756 z M 149.3373,75.33333 V 0 h 1190.0001 1190 v 75.33333 75.33334 h -1190 -1190.0001 z"
       id="path830" />
  </g>
</svg>
