<?xml version="1.0" encoding="UTF-8" standalone="no"?>
<!-- Created with Inkscape (http://www.inkscape.org/) -->

<svg
   version="1.1"
   id="svg9"
   width="2666.6667"
   height="2666.6667"
   viewBox="0 0 2666.6667 2666.6667"
   sodipodi:docname="hoodie_back0001.png"
   xml:space="preserve"
   xmlns:inkscape="http://www.inkscape.org/namespaces/inkscape"
   xmlns:sodipodi="http://sodipodi.sourceforge.net/DTD/sodipodi-0.dtd"
   xmlns="http://www.w3.org/2000/svg"
   xmlns:svg="http://www.w3.org/2000/svg"><defs
     id="defs13" /><sodipodi:namedview
     id="namedview11"
     pagecolor="#ffffff"
     bordercolor="#000000"
     borderopacity="0.25"
     inkscape:showpageshadow="2"
     inkscape:pageopacity="0.0"
     inkscape:pagecheckerboard="0"
     inkscape:deskcolor="#d1d1d1"
     showgrid="false" /><g
     inkscape:groupmode="layer"
     inkscape:label="Image"
     id="g15"><path
       style="fill:#000000;stroke-width:1.33333"
       d="m 0.0324,2579.6667 0.031,-87 327.613,-230 c 180.1872,-126.5 460.8234,-323.5137 623.6361,-437.8084 162.8127,-114.2945 296.5781,-208.3297 297.2567,-208.9669 0.7468,-0.7015 -0.4316,-6.5645 -2.9865,-14.8584 -5.6151,-18.2277 -6.665,-23.5399 -7.7388,-39.1545 -0.4997,-7.2666 -1.5685,-13.7138 -2.3751,-14.3274 -1.5936,-1.2122 -1.7775,-1.2489 19.5393,3.8926 9.1388,2.2042 14.0206,3.9741 13.4607,4.8801 -0.5454,0.8824 -0.2398,1.0268 0.8057,0.3807 1.9382,-1.1979 44.2513,11.2424 43.3268,12.7382 -0.3316,0.5364 0.6918,0.6368 2.2742,0.223 1.9714,-0.5155 2.5768,-0.2666 1.9231,0.791 -0.5298,0.8574 -0.178,1.6035 0.7915,1.6787 8.464,0.6559 13.1564,1.6812 27.0787,5.9169 8.8,2.6774 19.0676,6.3154 22.817,8.0847 7.7104,3.6384 32.5152,11.3545 33.8497,10.5297 0.4812,-0.2973 6.2237,0.9311 12.7613,2.7298 12.7816,3.5165 26.214,4.5438 21.2387,1.6244 -1.4667,-0.8607 -6.2667,-2.9112 -10.6667,-4.5567 -10.7942,-4.0369 -7.2825,-3.9208 5.5979,0.1851 9.3659,2.9856 20.4299,8.6221 17.0688,8.6957 -0.7333,0.016 -0.4333,0.6108 0.6667,1.3217 1.5182,0.9812 0.959,1.2975 -2.3219,1.313 -3.48,0.016 -9.9737,4.2082 -33.3333,21.5176 -15.9563,11.8234 -29.5016,21.9436 -30.1006,22.489 -0.599,0.5456 2.1208,2.8035 6.044,5.0176 3.9232,2.2142 7.9043,4.955 8.847,6.0907 1.5221,1.8341 0.8464,1.9963 -6.0442,1.4508 -4.2666,-0.3377 -10.8141,-0.8456 -14.5498,-1.1287 -4.6962,-0.3556 -10.6158,-2.4348 -19.1831,-6.7374 -8.3713,-4.2044 -12.1272,-5.5359 -11.5779,-4.1044 0.4472,1.1653 1.484,5.9717 2.3042,10.681 1.2373,7.1054 1.1281,9.8108 -0.6419,15.8991 -2.0627,7.0955 -6.9019,12.8451 -10.8112,12.8451 -0.9216,0 -2.0269,1.4 -2.4564,3.111 -1.1017,4.3896 -10.0962,14.2306 -21.593,23.6248 -10.7901,8.817 -12.561,12.3183 -12.5745,24.8608 l -0.01,6.9299 8.3808,-3.9219 c 17.6342,-8.252 40.2523,-11.447 48.4716,-6.8473 1.7723,0.9919 -0.6621,1.2297 -8.8716,0.8672 -11.284,-0.4984 -11.2916,-0.4965 -2.8479,0.7049 8.1375,1.1579 14.8671,4.1262 14.8671,6.5576 0,0.6374 -2.2268,0.024 -4.9485,-1.3641 -8.372,-4.2683 -20.8234,-2.8976 -39.0283,4.2963 -13.8138,5.4588 -17.3565,8.6805 -17.3565,15.7838 0,5.8883 -0.8781,6.3466 -7.6427,3.9884 -3.3738,-1.1761 -4.1874,-2.3269 -4.9305,-6.9737 -0.4894,-3.0609 -1.3107,-4.9423 -1.825,-4.1808 -0.5143,0.7613 -2.3604,2.3587 -4.1023,3.5496 -2.9733,2.0328 -3.6034,1.9724 -10.2954,-0.9871 -3.9206,-1.7338 -9.9954,-5.0344 -13.4996,-7.3346 l -6.3712,-4.182 5.4656,5.0918 c 3.0061,2.8007 8.3857,6.5488 11.9546,8.3294 3.569,1.7805 5.7388,3.4874 4.8219,3.793 -2.3591,0.7864 -11.5935,-3.1226 -18.3367,-7.7621 -5.4888,-3.7764 -5.7594,-3.8287 -6.5715,-1.2701 -0.4658,1.4677 -1.7815,2.6685 -2.9237,2.6685 -1.5836,0 -1.892,-0.9241 -1.2986,-3.8913 l 0.7783,-3.8915 -9.874,-0.9253 c -17.0452,-1.5972 -27.1116,1.9478 -43.9151,15.4654 -21.3736,17.1943 -24.2163,29.6882 -12.6346,55.5298 3.8224,8.5286 14.8085,26.2346 17.192,27.7077 1.717,1.0611 1.7615,7.3385 0.052,7.3385 -2.7354,0 -24.0431,-39.403 -24.0431,-44.4624 0,-1.2124 -0.6028,-2.2042 -1.3397,-2.2042 -0.7368,0 -21.5868,15.1105 -46.3333,33.5789 -24.7465,18.4684 -61.4936,45.8832 -81.6603,60.9217 -36.234,27.0202 -158.3544,118.2163 -256.6667,191.6719 C 756.8,2118.9937 644,2203.2182 534,2285.3382 c -110,82.1201 -222.5,166.1152 -250,186.6559 -27.5,20.5406 -97.4,72.741 -155.3333,116.0009 l -105.3334,78.6546 -11.6666,0.013 H 0 Z m 1321.3028,-833.7346 c 4.7667,-1.8464 6.8667,-2.9904 4.6667,-2.5423 -3.7618,0.7665 -15.4438,5.6137 -14,5.8091 0.3666,0.049 4.5666,-1.4204 9.3333,-3.2668 z m 13.6667,-4.1484 c -0.9167,-0.3699 -2.4167,-0.3699 -3.3334,0 -0.9166,0.3698 -0.1666,0.6725 1.6667,0.6725 1.8333,0 2.5833,-0.3027 1.6667,-0.6725 z m -4.6667,-50.7027 c -1.2833,-0.3355 -3.3833,-0.3355 -4.6667,0 -1.2833,0.3353 -0.2333,0.6097 2.3334,0.6097 2.5666,0 3.6166,-0.2744 2.3333,-0.6097 z m 9.2484,-2.7476 c 1.3992,-1.2833 1.8833,-1.9075 1.076,-1.3871 -0.8075,0.5204 -2.9357,1.5324 -4.7296,2.2488 -2.0619,0.8235 -2.4576,1.3336 -1.0759,1.3871 1.2022,0.047 3.3304,-0.9655 4.7295,-2.2488 z m -31.9447,-11.4056 c 6.2716,-3.284 32.3915,-30.9403 32.3158,-34.2167 -0.025,-1.1244 -0.7887,-3.3785 -1.6948,-5.009 -1.6454,-2.9612 -1.6519,-2.9592 -5.3038,1.6176 -2.011,2.5202 -7.9984,7.143 -13.3053,10.2729 -9.6608,5.6975 -21.0169,15.8127 -25.5872,22.7909 -2.3636,3.6092 -2.3612,3.7722 0.085,5.6243 3.4869,2.6399 6.9093,2.3659 13.4899,-1.08 z m 12.1608,-87.7193 c -0.9396,-0.5807 -2.5434,-0.3628 -3.5641,0.4842 -2.6133,2.1688 -5.8044,-2.4696 -5.2925,-7.6926 0.3385,-3.4532 0.8934,-3.9658 4.0588,-3.749 2.0166,0.138 3.6666,-0.312 3.6666,-1 0,-0.6881 -0.6838,-1.251 -1.5196,-1.251 -0.8359,0 -2.1859,-0.8655 -3,-1.9232 -0.8142,-1.0579 -8.3381,-4.1227 -16.7198,-6.811 -8.3817,-2.6881 -16.0745,-5.7226 -17.0952,-6.7433 -1.0207,-1.0208 -2.563,-1.8427 -3.4273,-1.8267 -1.8936,0.035 33.8209,34.4843 35.8445,34.5744 0.7788,0.035 2.8788,2.0131 4.6667,4.3964 l 3.2507,4.3334 0.4199,-5.8679 c 0.267,-3.7319 -0.2021,-6.2521 -1.2887,-6.9237 z m -72.2204,7.8749 c -0.4256,-1.0636 -0.7415,-0.7477 -0.8055,0.8056 -0.058,1.4055 0.2572,2.1931 0.7003,1.75 0.443,-0.4431 0.4904,-1.5931 0.1052,-2.5556 z m -1.3333,-5.3333 c -0.4256,-1.0636 -0.7416,-0.7478 -0.8055,0.8056 -0.058,1.4054 0.2572,2.193 0.7003,1.75 0.443,-0.4431 0.4904,-1.5931 0.1052,-2.5556 z m -3.9868,-26.058 c -0.3381,-1.2972 -0.6369,-0.5587 -0.6641,1.6413 -0.027,2.2 0.2494,3.2615 0.6147,2.3587 0.3652,-0.9027 0.3874,-2.7027 0.05,-4 z M 189.3828,2664.8193 c 1.0738,-1.0161 28.9523,-22.8059 61.9523,-48.4215 69.8907,-54.2515 186.7278,-145.0136 625.0621,-485.5648 218.5045,-169.7607 320.3932,-248.1489 321.8274,-247.5987 1.5568,0.5975 1.9301,0.1607 1.4456,-1.6917 -0.8312,-3.1787 1.2037,-6.8759 3.7844,-6.8759 3.1391,0 12.6179,5.216 19.755,10.871 3.5976,2.8504 8.0976,5.5569 10,6.0144 10.4781,2.5198 29.5913,15.6644 27.559,18.9526 -0.9924,1.6059 9.5872,3.373 15.2331,2.5443 5.9959,-0.88 4.816,1.0289 -1.6665,2.6964 -5.0406,1.2964 -4.4882,1.3787 5,0.7441 6.7834,-0.4536 11.8312,-1.522 13.8654,-2.9346 1.7593,-1.2219 4.7593,-3.1576 6.6666,-4.3019 1.9074,-1.1443 4.0603,-3.3943 4.7842,-5 0.7239,-1.6057 1.7739,-2.9196 2.3333,-2.9196 1.5862,0 1.2068,1.8027 -1.0608,5.04 -1.9661,2.8071 -1.8911,3.0377 1.3921,4.286 1.9086,0.7257 4.9437,1.6892 6.7447,2.1412 1.801,0.452 3.2745,1.3568 3.2745,2.0107 0,0.6538 1.2413,1.1888 2.7584,1.1888 3.71,0 23.1697,4.975 63.2416,16.1682 92.7491,25.9076 134.6655,39.6518 244.6667,80.2251 l 55.3333,20.4093 -0.446,9.3419 c -0.3305,6.9236 0.051,9.7537 1.4711,10.9329 1.6346,1.3567 1.8245,0.6286 1.2889,-4.9456 -1.1372,-11.8346 3.1903,-11.9008 39.0193,-0.596 8.0667,2.5451 15.5499,4.9231 16.6294,5.2843 1.7278,0.5781 1.7278,0.8051 0,1.8979 -1.0795,0.6826 -1.3327,1.2504 -0.5627,1.2616 0.77,0.013 1.97,-0.4958 2.6667,-1.1267 1.7418,-1.5772 32.4437,5.4035 33.8626,7.6995 0.77,1.2457 2.462,1.5693 5.2696,1.0078 2.2746,-0.4549 5.4854,-0.33 7.135,0.2778 7.7756,2.8641 10.0073,2.8841 10.7364,0.096 0.5917,-2.2631 1.3276,-2.5344 4.4854,-1.6539 2.0778,0.5792 11.8418,0.9025 21.698,0.7184 12.7083,-0.2375 18.2048,0.1253 18.8986,1.2479 1.5182,2.4566 26.502,-2.7272 26.5504,-5.5091 0.025,-1.4175 3.7029,-3.2501 11.6604,-5.8099 26.5801,-8.5501 49.2493,-19.276 56.81,-26.8797 8.0137,-8.0595 21.7545,-24.1045 25.9381,-30.288 9.2489,-13.6697 4.0947,-20.5683 -20.2492,-27.1017 l -10.4715,-2.8104 13.2252,-13.9238 c 7.2739,-7.6581 171.0731,-181.0996 363.9983,-385.4254 192.9252,-204.3259 351.436,-371.9113 352.2463,-372.4121 1.0672,-0.6595 1.4549,15.5503 1.4071,58.835 l -0.067,59.7453 -169.6006,192.0412 c -184.759,209.2054 -493.2454,558.6774 -818.2673,926.9826 l -207.3333,234.944 -98.611,0.016 -98.6109,0.016 5.4143,-5.6667 c 2.9779,-3.1166 127.6877,-135.2667 277.133,-293.6667 149.4452,-158.4 273.7138,-290.1048 276.1522,-292.6774 l 4.4336,-4.6774 h -18.6235 -18.6233 l -2.1803,4.5946 c -4.1587,8.7637 -6.0927,9.9174 -15.0548,8.9806 -8.1013,-0.8468 -12.096,-0.2229 -12.096,1.889 0,0.6365 1.95,0.7929 4.3333,0.3477 5.2011,-0.9719 3.726,0.9704 -2.6444,3.4817 -4.0496,1.5966 -13.6889,0.9964 -13.6889,-0.8522 0,-0.4359 1.05,-1.6578 2.3333,-2.7151 2.2084,-1.8196 2.2026,-1.8809 -0.1093,-1.1469 -1.3433,0.4265 -4.3433,0.845 -6.6667,0.9301 -2.3921,0.088 -3.1802,0.4253 -1.8172,0.7787 1.324,0.3432 2.224,1.1113 2,1.7069 -0.2238,0.5956 -39.6282,41.4952 -87.5652,90.888 -47.9369,49.3928 -173.9369,179.3201 -280,288.7275 l -192.841,198.9225 -117.3219,0.077 -117.3219,0.077 9.3219,-9.1667 c 5.127,-5.0417 96.0219,-92.1715 201.9885,-193.6217 105.9667,-101.4503 220.8667,-211.4834 255.3334,-244.5179 34.4666,-33.0345 64.8802,-62.1547 67.5857,-64.7116 62.5897,-59.1513 137.9863,-132.7817 136.7008,-133.4985 -3.3735,-1.8815 -53.0229,-19.817 -54.8575,-19.817 -1.0569,0 -70.5109,63.7299 -154.3421,141.6219 -83.8311,77.892 -211.5203,196.5303 -283.7536,263.6404 -72.2333,67.1103 -164.7471,153.0832 -205.586,191.0511 l -74.2527,69.0327 -135.1781,-0.3398 -135.1782,-0.3389 215.9682,-186 c 118.7826,-102.3 305.4265,-263.0148 414.7642,-357.144 109.3378,-94.1291 199.3059,-171.6191 199.9293,-172.1999 0.6233,-0.5808 -2.0767,-1.9537 -6,-3.0508 -3.9234,-1.0971 -20.7092,-5.8532 -37.3019,-10.5693 -33.5841,-9.5454 -34.794,-9.5535 -35.39,-0.2364 -0.5068,7.9224 -3.0008,13.446 -8.5983,19.0436 -6.5316,6.5316 -12.6899,8.7417 -21.2084,7.6117 l -6.403,-0.8493 -230.5811,191.6972 c -126.8197,105.4334 -281.4655,233.9972 -343.6573,285.6972 -62.1918,51.7 -148.9667,123.85 -192.8331,160.3333 l -79.7571,66.3334 H 321.751 c -114.5187,0 -134.0328,-0.2724 -132.3682,-1.8475 z m 1524.194,-575.8192 c 1.1465,-0.9167 2.4205,-3.076 2.8312,-4.7986 0.6201,-2.6014 0.3085,-3.0173 -1.8397,-2.4556 -3.0111,0.7875 -7.5015,-4.344 -5.1002,-5.828 0.864,-0.534 -0.013,-2.011 -2.2241,-3.7513 -4.0871,-3.2149 -5.9431,-2.7815 -3.0988,0.7239 1.3812,1.7022 1.4104,2.0197 0.1133,1.2397 -0.9586,-0.5765 -3.3357,-1.2232 -5.2826,-1.4369 -1.9468,-0.2138 -3.7223,-0.9071 -3.9455,-1.5408 -2.3195,-6.5871 -5.7065,-5.0371 -5.6661,2.5929 0.035,6.6208 2.6033,10.2672 9.9506,14.1287 6.0207,3.1642 11.2004,3.5732 14.2614,1.126 z m 73.0917,-7.6667 c 1.7778,-1.1489 1.7778,-1.2925 0,-1.2925 -1.1,0 -2.9,0.5816 -4,1.2925 -1.7777,1.1489 -1.7777,1.2925 0,1.2925 1.1,0 2.9,-0.5816 4,-1.2925 z m -17.3826,-7.7117 12.6173,-3.4802 -7.284,-1.8602 c -5.6168,-1.4346 -8.81,-1.5351 -13.9507,-0.4395 -3.6666,0.7813 -9.8166,1.814 -13.6666,2.2947 -6.6472,0.8297 -7,1.07 -7,4.7682 v 3.8944 l 8.3333,-0.8486 c 4.5833,-0.4667 14.0111,-2.4147 20.9507,-4.3288 z m -459.6146,-118.6216 c 1.1455,-1.2834 2.2885,-3.8334 2.54,-5.6667 0.4043,-2.9477 -0.047,-3.3488 -3.8983,-3.4667 -5.8042,-0.1777 -6.1804,-0.8257 -2.8997,-4.9964 1.5302,-1.9453 2.1886,-3.5369 1.4631,-3.5369 -0.7254,0 -1.519,0.5616 -1.7634,1.2481 -0.6461,1.8143 -10.4445,-1.5496 -10.4445,-3.5857 0,-2.8387 -5.0674,1.0965 -5.9523,4.6224 -0.8644,3.444 2.4947,11.0015 5.7996,13.0485 2.7346,1.6938 9.701,4.4324 11.6127,4.5652 0.8031,0.056 2.3973,-0.9485 3.5428,-2.2318 z m 4.9972,-25.0876 c 0,-5.1482 -10.5576,-11.1694 -19.6666,-11.2164 -7.5502,-0.039 -7.1966,2.0044 0.6736,3.8924 3.4872,0.8365 8.7372,2.9398 11.6667,4.674 5.5435,3.2814 7.3263,3.9262 7.3263,2.65 z m -48.9746,-14.787 c -0.9027,-0.3653 -2.7027,-0.3874 -4,-0.049 -1.2973,0.3381 -0.5587,0.6369 1.6413,0.6641 2.2,0.027 3.2614,-0.2494 2.3587,-0.6146 z m -7.3865,-1.2644 c -0.443,-0.443 -1.593,-0.4904 -2.5555,-0.1053 -1.0637,0.4256 -0.7477,0.7416 0.8055,0.8056 1.4056,0.057 2.1931,-0.2573 1.75,-0.7004 z m -5.3333,-1.3333 c -0.4431,-0.4431 -1.5931,-0.4904 -2.5556,-0.1053 -1.0636,0.4256 -0.7477,0.7416 0.8056,0.8056 1.4055,0.057 2.193,-0.2574 1.75,-0.7004 z m 1.6944,-5.0411 c 0,-0.2822 -1.5439,-1.5249 -3.4309,-2.7613 -3.3518,-2.1963 -3.3968,-2.1844 -1.9531,0.5133 1.2208,2.281 5.384,4.0194 5.384,2.248 z m -9.3333,-2.7413 c 0,-0.3233 -0.6,-0.9588 -1.3333,-1.412 -0.7334,-0.4532 -1.3334,-0.1887 -1.3334,0.588 0,0.7765 0.6,1.412 1.3334,1.412 0.7333,0 1.3333,-0.2645 1.3333,-0.588 z m -18.2231,-7.7453 c -2.2812,-1.65 -6.2858,-4.6995 -8.899,-6.7767 -3.293,-2.6175 -5.5891,-3.5107 -7.4812,-2.9101 -3.5297,1.1202 -3.4408,2.2209 0.4769,5.9013 3.5807,3.364 11.7352,6.6377 16.7554,6.7269 3.242,0.057 3.2281,0.013 -0.8521,-2.9414 z m 310.3932,767.3792 c 2.1444,-2.6804 501.681,-582.431 854.4999,-991.7126 20.2292,-23.4666 89.4791,-103.8666 153.8883,-178.6666 64.4093,-74.8 117.938,-136.8838 118.9528,-137.9638 1.5721,-1.6733 1.794,9.0046 1.5003,72.2318 l -0.3447,74.1954 -465.2572,582.1016 -465.2571,582.1017 h -99.9061 c -94.2068,0 -99.8018,-0.1307 -98.0762,-2.2875 z m 249.4335,-0.036 c 1.1187,-1.2885 38.894,-49.4428 83.9452,-107.0095 45.0512,-57.5667 117.6217,-150.2667 161.268,-206 43.6463,-55.7333 203.1284,-259.4333 354.4048,-452.6667 151.2764,-193.2333 276.1874,-352.5166 277.5799,-353.9629 2.488,-2.5841 2.5315,-1.2567 2.5065,76.6667 l -0.025,79.2962 -351.0643,482.6667 -351.0643,482.6667 -89.7922,0.3428 c -85.5542,0.3265 -89.6963,0.2321 -87.7583,-2 z m 216.5549,0.7341 c 0.5404,-0.8744 16.8868,-23.8244 36.3255,-51 19.4387,-27.1757 167.5931,-234.5103 329.232,-460.7436 161.6391,-226.2333 294.728,-412.2119 295.7532,-413.2857 1.5975,-1.6731 1.8626,11.2974 1.853,90.6666 l -0.013,92.6191 -17.6765,26.6667 c -9.722,14.6666 -120.2054,181.9166 -245.5184,371.6666 l -227.842,345.0001 h -86.5491 c -66.6675,0 -86.3235,-0.3652 -85.5665,-1.5898 z m 220.7736,-29.4102 c 11.0848,-17.0501 90.466,-139.0001 176.4026,-271.0001 85.9366,-132 180.4241,-277.2 209.9721,-322.6666 29.5482,-45.4667 54.242,-83.2367 54.8752,-83.9334 0.6472,-0.7121 1.1514,42.5143 1.1514,98.7292 v 99.996 l -153.5781,254.9374 -153.578,254.9371 h -77.6997 -77.6997 l 20.1542,-31 z m 157.3607,28.0105 c 1.0707,-1.6559 48.0337,-80.4106 104.3624,-175.0106 56.3288,-94.6 119.8749,-201.317 141.2136,-237.149 l 38.7979,-65.149 0.3401,123.9182 0.3402,123.9182 -63.2227,115.8975 -63.2228,115.8975 -80.2776,0.3439 -80.2776,0.3437 z m 176.0332,-5.3439 c 2.5139,-4.5833 27.5663,-50.9333 55.672,-103 28.1056,-52.0667 51.6039,-95.2367 52.2183,-95.9333 0.6144,-0.6967 1.1171,45.6533 1.1171,103 v 104.2667 h -56.7891 -56.789 z M 0.0018,2273.5969 v -89.0699 l 64.3333,-40.5236 c 35.3834,-22.2881 151.6334,-95.524 258.3334,-162.7467 732.545,-461.5142 890.9956,-561.2566 891.6119,-561.2566 1.3451,0 -1.1678,15.6344 -7.2867,45.3333 -9.2516,44.9049 -8.4922,56.5531 4.4271,67.8963 2.7001,2.3708 6.351,4.9673 8.113,5.7701 1.7621,0.8029 3.004,2.0592 2.7598,2.7917 -0.2442,0.7326 -39.8576,27.7792 -88.0298,60.1036 -48.1722,32.3244 -147.8768,99.2716 -221.5659,148.7716 -73.689,49.5 -157.2469,105.6 -185.6842,124.6667 -28.4373,19.0667 -81.0984,54.4235 -117.0247,78.5707 -71.5709,48.1052 -277.2331,186.238 -420.6539,282.5318 -50.2333,33.7271 -113.0349,75.9266 -139.559,93.7764 -26.5241,17.8499 -48.5741,32.4544 -49,32.4544 -0.4259,0 -0.7743,-40.0814 -0.7743,-89.0698 z m 0.3224,-296.8552 0.3443,-76.8854 583.3333,-328.6901 c 320.8334,-180.7796 585.6415,-329.8891 588.4626,-331.3545 2.8211,-1.4654 5.3827,-2.4108 5.6926,-2.1009 0.3099,0.3098 -1.5599,10.34 -4.1551,22.2893 -2.5952,11.9492 -4.4463,21.9981 -4.1136,22.3308 0.9822,0.9822 5.2148,-16.9085 17.4246,-73.6518 6.6349,-30.8345 6.5841,-30.517 4.689,-29.3457 -1.8418,1.1383 -1.6329,-1.0214 1.2899,-13.3333 l 2.5322,-10.6667 -2.9111,-3.1327 c -1.6011,-1.723 -5.1353,-4.903 -7.8539,-7.0668 l -4.9428,-3.934 -155.7238,82.9169 c -85.6482,45.6043 -229.5239,122.2053 -319.7239,170.2245 -90.2,48.019 -177.8,94.67 -194.6667,103.6688 -59.4297,31.707 -501.3889,266.9561 -505.6667,269.1596 l -4.3333,2.2322 v -71.7937 -71.7937 l 81.6667,-40.482 c 74.556,-36.9572 929.3219,-463.8733 929.8701,-464.4272 0.1299,-0.1312 -7.3769,-0.2386 -16.6819,-0.2386 -16.4406,0 -17.1699,-0.124 -25.8383,-4.3931 -5.0975,-2.5105 -10.1693,-6.1474 -11.835,-8.4867 l -2.9148,-4.0935 3.1999,1.1533 c 8.0752,2.9105 24.0265,1.1322 47.2,-5.262 40.5577,-11.1909 74.0636,-16.7918 90.3064,-15.0956 10.3055,1.0762 22.4726,5.3349 32.9889,11.5467 12.589,7.4361 38.3037,27.8567 54.2463,43.078 7.5855,7.2423 13.7918,12.7472 13.7918,12.2331 0,-0.514 -3.2319,-5.8274 -7.182,-11.8074 -9.0942,-13.7675 -11.5023,-18.5951 -20.74,-41.5776 -13.6255,-33.8986 -23.8144,-47.9557 -41.4928,-57.2455 -12.2342,-6.4289 -23.6051,-8.6651 -44.2046,-8.6932 -29.4419,-0.04 -58.1696,7.5219 -91.8271,24.1718 -23.6558,11.7023 -26.469,14.9235 -36.5104,41.8051 l -0.9961,2.6666 -1.0965,-2.6666 c -1.5415,-3.749 -1.4714,-16.2372 0.1302,-23.1843 2.202,-9.5519 7.6672,-19.6584 14.9242,-27.5987 l 6.8142,-7.4558 -4.5763,1.9677 c -2.5169,1.0822 -48.0762,22.3586 -101.2429,47.2809 -53.1667,24.9223 -191.1667,89.5627 -306.6667,143.6454 -421.376,197.3086 -524.9757,245.8345 -540.3501,253.0988 -8.626,4.0757 -16.8823,7.7908 -18.3475,8.2558 -2.6387,0.8375 -2.6606,0.2967 -2.3164,-57.3604 l 0.3474,-58.206 49.3333,-21.7454 c 27.1333,-11.9602 284.8333,-125.6683 572.6667,-252.685 287.8333,-127.01662 539.1441,-237.89073 558.4682,-246.38685 l 35.1349,-15.44749 -0.7713,-4.75322 c -2.8054,-17.28754 -3.7948,-45.3907 -2.3115,-65.65961 0.8635,-11.79943 1.3996,-21.57741 1.1915,-21.72887 -0.2081,-0.15145 -27.6784,10.94514 -61.0451,24.65908 C 1119.9685,788.41009 849.0685,899.5782 551.3351,1021.7364 253.6018,1143.8946 7.7518,1244.7858 5.0018,1245.939 l -5,2.0969 0.023,-57.0179 0.023,-57.0179 52.9769,-20.2545 c 29.1373,-11.1399 129.7769,-49.7425 223.6436,-85.7835 93.8666,-36.04102 293.3666,-112.63589 443.3333,-170.21088 149.9667,-57.575 347.3667,-133.36385 438.6667,-168.41969 234.4974,-90.03832 441.9107,-169.67431 605.3334,-232.41668 77.3666,-29.70315 223.4666,-85.79568 324.6666,-124.65007 278.0768,-106.76388 573.0435,-220.00098 575.6667,-220.99725 2.1635,-0.82167 2.3326,0.70112 2.322,20.92315 L 2666.644,154 l -84.3222,34.54988 c -90.4273,37.05147 -363.5706,149.10938 -950.9886,390.14609 -202.4,83.05131 -369.1413,151.31409 -370.5362,151.69508 -2.3784,0.64964 -2.4844,0.0787 -1.705,-9.18249 0.4571,-5.43138 1.145,-19.47522 1.5286,-31.20855 0.8146,-24.91865 -1.202,-23.26707 -3.256,2.66667 -2.2261,28.1051 1.7206,74.16582 9.3593,109.23094 1.4255,6.54368 2.3818,12.10764 2.1251,12.36434 -0.2567,0.25669 -2.6845,-7.07644 -5.3951,-16.29587 -2.7106,-9.21943 -8.2196,-24.52693 -12.2421,-34.01669 -10.3792,-24.48599 -12.8058,-34.60391 -12.7787,-53.28272 0.036,-24.55032 6.1681,-43.39614 15.4341,-47.42988 l 4.1326,-1.79908 -4.9916,-0.0521 c -4.3383,-0.0453 -5.5107,0.66439 -8.9577,5.42286 -19.4244,26.81454 -29.6634,110.60469 -16.6283,136.07665 5.4526,10.65516 9.8243,14.39736 25.7524,22.04447 9.1654,4.40032 17.2281,9.27181 19.7435,11.929 l 4.2516,4.49133 -3.9183,-11.59169 c -4.2673,-12.6245 -4.6045,-14.33964 -2.5719,-13.08342 0.7405,0.45766 38.6905,-15.6449 84.3334,-35.78346 201.8343,-89.05348 1256.4443,-554.4038 1282.0254,-565.69813 15.6044,-6.88956 28.6689,-12.52647 29.0321,-12.52647 0.3633,0 0.4961,10.01022 0.2951,22.24491 l -0.3656,22.24491 -89.3334,41.83433 c -49.1333,23.00888 -139.7333,65.4324 -201.3333,94.27448 -61.6,28.84207 -211.6,99.07884 -333.3334,156.08171 -249.6021,116.87871 -435.2929,203.82182 -617.9201,289.31902 -103.6831,48.53938 -124.9887,58.07454 -126.9819,56.82974 -3.7246,-2.32606 -7.0838,-1.84942 -22.8214,3.23822 -35.0693,11.33715 -42.2916,7.6912 -51.6367,-26.06731 -1.3195,-4.76667 -2.4533,-7.75161 -2.5195,-6.63321 -0.1882,3.17933 7.5307,33.97838 11.9187,47.55657 2.1785,6.74118 3.9609,12.46858 3.9609,12.72755 0,0.25897 -42.2541,20.23929 -93.8981,44.40072 -51.644,24.16148 -93.794,44.0102 -93.6667,44.1085 0.1274,0.098 5.6315,-0.9328 12.2315,-2.2912 48.4785,-9.97792 99.8484,-4.71492 142.4274,14.5922 l 9.094,4.1236 27.8938,-13.959 c 15.3438,-7.67752 28.4701,-13.95912 29.1717,-13.95912 0.7016,0 4.0556,5.1 7.4534,11.33332 3.3978,6.2334 6.3872,11.3334 6.6431,11.3334 0.2559,0 -0.9927,-3.5881 -2.7747,-7.9735 -6.5187,-16.04272 -4.2206,-21.41042 18.7901,-43.88825 17.4781,-17.07338 21.0893,-22.30003 21.97,-31.79852 l 0.6667,-7.19 10.6666,14.73444 c 5.8667,8.10393 11.024,14.74524 11.4607,14.75844 0.9183,0.0277 635.5456,-316.46349 1042.2911,-519.79497 152.7634,-76.36623 278.3135,-138.8477 279,-138.8477 0.7359,0 1.2287,11.0822 1.2005,27 l -0.048,27 -236.8809,126.00001 c -130.2846,69.3 -288.8131,153.658 -352.2858,187.46221 -63.4725,33.80422 -240.8046,128.21968 -394.0713,209.81212 -153.2667,81.59246 -278.9229,148.59072 -279.2361,148.88502 -0.3132,0.2943 1.1412,2.3207 3.232,4.503 l 3.8013,3.9678 7.8563,-7.4936 c 6.0268,-5.7486 8.2217,-7.128 9.4261,-5.9236 1.9596,1.9595 1.8776,46.8392 -0.096,52.7871 -1.3068,3.9376 -1.3463,3.9524 -2.5363,0.9507 -1.1602,-2.9267 -1.2774,-2.8597 -2.9142,1.6667 -0.9379,2.5937 -2.2236,4.7159 -2.8571,4.7159 -0.6335,0 -1.9447,0.757 -2.9137,1.6822 -1.7983,1.7171 -8.4646,4.9865 -10.158,4.982 -0.5155,0 -1.0322,-3.4514 -1.1482,-7.6667 -0.3674,-13.3487 -1.3005,-17.9488 -3.9513,-19.4806 -1.3775,-0.796 -3.078,-1.4629 -3.7791,-1.4821 -1.9337,-0.053 -5.0557,-22.1739 -3.5802,-25.3681 1.3414,-2.904 1.1049,-3.2548 5.6094,8.3178 l 1.4212,3.6512 2.5491,-3.3178 c 1.4021,-1.8249 2.5625,-3.8645 2.5789,-4.5325 0.048,-1.9521 -13.2418,-18.9679 -26.7813,-34.29042 -6.8873,-7.7944 -14.1257,-16.1944 -16.0855,-18.6667 l -3.5632,-4.495 3.4643,7.1306 c 6.824,14.046 5.0447,26.42982 -6.3247,44.02052 -2.8778,4.4525 -4.6581,8.4504 -3.9562,8.8842 0.702,0.4338 1.2673,1.5034 1.2564,2.3768 -0.013,0.8733 -2.1406,-0.8121 -4.7324,-3.7454 -4.0546,-4.5885 -4.5875,-4.8678 -3.817,-2 0.4926,1.8333 1.5722,4.1985 2.3991,5.2559 1.1748,1.5024 1.1116,1.6867 -0.2892,0.8435 -0.986,-0.5936 -3.6428,-5.0587 -5.9041,-9.9226 l -4.1115,-8.8435 -0.9833,6 c -2.1258,12.9692 -4.0773,18.8744 -5.9945,18.1387 -1.3314,-0.5109 -2.105,0.7949 -2.7091,4.5731 -0.4651,2.9085 -1.4282,5.2882 -2.1403,5.2882 -1.5816,0 -9.0312,7.8152 -9.0312,9.4744 0,0.6558 -0.9149,1.1923 -2.033,1.1923 -1.1181,0 -2.6091,1.5154 -3.3133,3.3675 -0.7042,1.8521 -2.1894,3.7163 -3.3004,4.1426 -2.1934,0.8417 -2.7571,5.2103 -0.8263,6.4036 0.6564,0.4057 1.5376,-0.1589 1.9581,-1.2547 0.4205,-1.0958 1.6834,-1.9923 2.8064,-1.9923 1.123,0 2.0418,-0.6149 2.0418,-1.3664 0,-0.7514 1.35,-1.95 3,-2.6634 3.0102,-1.3016 5.2825,-2.6363 11.8668,-6.9702 1.9497,-1.2834 4.438,-2.3334 5.5298,-2.3334 2.2652,0 3.5342,-2.6256 3.7581,-7.7757 0.1133,-2.5914 0.3304,-2.8714 0.8017,-1.0307 0.5199,2.0303 0.8786,2.1613 1.825,0.6666 0.934,-1.4751 1.182,-1.3609 1.1982,0.5519 0.013,1.3266 0.5692,2.0728 1.2399,1.6583 0.6707,-0.4145 1.4413,-0.088 1.7127,0.726 0.3406,1.0219 2.0256,0.8393 5.4472,-0.5904 5.4997,-2.2979 6.431,-1.0193 2.1576,2.962 -2.4028,2.2386 -2.691,3.6398 -2.0475,9.9567 0.4119,4.0433 0.3201,7.596 -0.2037,7.8949 -0.5238,0.2988 -0.2024,0.3606 0.7142,0.1371 2.1514,-0.5245 5.6667,0.8247 5.6667,2.1748 0,0.5753 -1.5708,1.4404 -3.4907,1.9222 -1.9198,0.4819 -3.1782,1.1885 -2.7965,1.5703 0.3819,0.3818 3.1241,-0.034 6.0939,-0.9236 4.122,-1.235 5.73,-2.5655 6.796,-5.6231 0.973,-2.7917 0.9728,-4.5156 0,-5.6893 -0.987,-1.1894 -0.9276,-1.9743 0.2026,-2.6728 1.2081,-0.7466 1.139,-1.3473 -0.2819,-2.452 -1.0351,-0.8048 -2.5331,-3.9775 -3.3289,-7.0505 -1.2054,-4.6547 -1.0919,-5.9659 0.68,-7.8545 1.1698,-1.2469 1.487,-1.9153 0.7049,-1.4852 -0.7821,0.4301 -2.4072,-0.8857 -3.6113,-2.9241 -2.189,-3.7057 -2.1883,-3.7072 6.533,-14.2608 16.3083,-19.7344 23.2552,-25.6122 23.1116,-19.5547 -0.031,1.2833 -0.8386,11.1916 -1.7962,22.0185 -1.6448,18.5975 -2.9435,24.2057 -4.5512,19.6541 -0.4183,-1.1842 -1.6094,0.7112 -2.9326,4.6667 -1.2254,3.6633 -2.7764,6.6745 -3.4464,6.6915 -3.3201,0.084 -12.5877,13.0442 -10.6869,14.945 1.2001,1.2 14.1353,-1.231 14.1353,-2.6565 0,-0.7867 0.379,-1.0516 0.842,-0.5885 1.8564,1.8564 5.5736,-1.9508 6.5367,-6.6947 l 1.0224,-5.0361 1.0084,4.5484 c 0.5547,2.5017 0.6976,5.3585 0.3177,6.3485 -0.4541,1.1833 -9e-4,1.5353 1.3228,1.0273 1.1075,-0.425 2.4123,-0.1276 2.8996,0.661 0.4874,0.7885 -0.052,1.7936 -1.1984,2.2335 -1.1465,0.4399 -2.0845,1.4092 -2.0845,2.1538 0,0.8819 0.5967,0.8588 1.7113,-0.066 1.1483,-0.9529 2.355,-0.9839 3.6667,-0.094 1.6749,1.1359 1.6041,1.5552 -0.4935,2.9237 -6.453,4.2101 -7.058,4.8421 -3.8637,4.0371 1.6615,-0.4187 3.3468,-1.2889 3.7453,-1.9337 1.068,-1.728 5.9006,-1.4269 5.9006,0.3676 0,0.8733 1.1544,0.4952 2.6666,-0.8733 1.4667,-1.3274 2.6667,-1.7318 2.6667,-0.8988 0,0.8331 1.5,1.8911 3.3333,2.3512 5.483,1.3762 3.7686,3.2945 -2.3333,2.611 -4.7316,-0.53 -5.0067,-0.4486 -1.6667,0.4931 5.5291,1.5591 16.5331,1.7402 14.1532,0.233 -1.4582,-0.9235 -1.1777,-1.5391 1.3334,-2.926 1.749,-0.966 3.8849,-1.6145 4.7464,-1.4412 0.8614,0.1733 2.5114,-1.0343 3.6666,-2.6836 1.1552,-1.6493 2.1004,-2.5224 2.1004,-1.9402 0,0.5822 0.8894,0.1693 1.9762,-0.9176 1.0869,-1.0869 2.5802,-2.1798 3.3185,-2.4286 0.7383,-0.2488 1.9739,-3.8723 2.7457,-8.0523 1.2059,-6.5301 0.9287,-9.8953 -1.9686,-23.9053 -1.8547,-8.968 -3.1382,-16.5394 -2.8522,-16.8254 0.7447,-0.7447 5.5843,12.5691 8.1051,22.297 1.8491,7.1362 3.1907,9.2621 9.7432,15.4394 4.1793,3.94 8.4259,7.1856 9.4368,7.2123 1.0109,0.027 38.2109,-20.4436 82.6667,-45.4897 44.4557,-25.0462 113.5286,-63.95625 153.4953,-86.46691 39.9667,-22.51068 99.0667,-55.8039 131.3333,-73.98495 32.2667,-18.18106 112.9667,-63.65252 179.3334,-101.04772 352.2214,-198.46391 527.5708,-297.26071 588.9546,-331.83377 37.5586,-21.15389 68.6086,-38.46164 69.0001,-38.46164 0.3916,0 0.712,13.0579 0.712,29.01755 v 29.01755 l -84.3334,50.49926 c -46.3833,27.7746 -155.1333,92.93198 -241.6667,144.79418 -86.5333,51.8622 -296.8333,177.85849 -467.3333,279.99175 -303.8076,181.9874 -336.2809,201.4642 -339.6775,203.731 -2.975,1.9854 14.3979,14.6022 25.0856,18.2182 9.2899,3.1429 16.7116,7.0553 15.563,8.2039 -0.6707,0.6707 -11.7022,-3.7316 -17.3827,-6.9368 -3.6391,-2.0534 -19.5589,-4.7374 -54.708,-9.2235 -18.4613,-2.3563 -24.8329,-1.955 -8.2116,0.5171 5.5587,0.8267 11.1323,1.5032 12.3856,1.5032 1.4403,0 2.3213,1.1039 2.3941,3 0.064,1.65 0.5503,3.9791 1.0822,5.1758 0.8597,1.9342 -1.0039,1.824 -16.7818,-0.9928 -9.762,-1.7428 -18.0489,-3.1424 -18.4156,-3.1103 -0.3666,0.032 3.5334,2.226 8.6667,4.8753 11.8751,6.1287 18.1524,7.3503 25.1259,4.8899 5.1772,-1.8266 5.4633,-1.7723 9.118,1.729 4.9842,4.7753 6.7014,11.2402 5.0009,18.8282 -2.5568,11.409 -3.0977,11.6249 -10.5231,4.1996 -11.2082,-11.2083 -15.345,-9.0121 -26.9686,14.3168 -10.8454,21.7672 -19.9454,28.9803 -35.223,27.9191 -5.4204,-0.3765 -8.1994,-1.2411 -9.4394,-2.9369 -0.9666,-1.3219 -1.7574,-1.8741 -1.7574,-1.2271 0,0.647 -0.9445,0.012 -2.0989,-1.4118 -1.1543,-1.4235 -1.6885,-1.6882 -1.1869,-0.5882 0.5014,1.1 -0.6974,0.2 -2.6643,-2 -1.9668,-2.2 -3.1583,-3.1 -2.6476,-2 0.5107,1.1 -2.4481,-1.6861 -6.5751,-6.1914 l -7.5037,-8.1915 -14.3284,7.6513 c -7.8807,4.2082 -17.9743,9.812 -22.4303,12.453 -4.4561,2.641 -11.3025,6.0633 -15.2145,7.6053 -7.4299,2.9286 -9.2812,2.3642 -9.3299,-2.8442 -0.053,-5.7589 -16.619,-54.3601 -18.0314,-52.9029 -0.2242,0.2312 2.5618,9.1204 6.1912,19.7538 6.1852,18.1218 13.1532,47.3322 13.1532,55.1388 v 3.4704 l 9.6668,-5.8689 c 5.3168,-3.2278 14.4668,-7.554 20.3333,-9.6137 9.9073,-3.4784 12.1375,-3.7466 31.3332,-3.7691 15.8179,-0.018 22.8083,0.5454 29.7945,2.4034 5.0204,1.3353 9.3996,2.1561 9.7316,1.824 1.3754,-1.3752 -1.3168,-7.5946 -3.3373,-7.7102 -1.2039,-0.069 1.7112,-0.9091 6.4779,-1.8671 4.7666,-0.958 13.3322,-3.6017 19.0346,-5.8748 10.3192,-4.1133 14.7751,-4.8896 18.9255,-3.297 1.904,0.7306 22.0399,30.032 22.0399,32.0721 0,0.4259 -2.149,0.4256 -4.7754,-6e-4 l -4.7753,-0.7749 5.1087,3.7727 c 7.478,5.5225 13.3801,12.1867 26.6178,30.0549 6.5034,8.778 12.2415,16.5606 12.7516,17.2947 2.3983,3.4512 2.3471,-1.5799 -0.157,-15.4508 -1.5031,-8.3255 -2.3764,-16.4674 -1.941,-18.0931 1.0283,-3.8385 4.391,-4.8094 12.9147,-3.7288 10.5795,1.3411 11.5753,1.8315 11.7253,5.7745 l 0.1362,3.5768 1.1328,-4 c 3.7805,-13.3484 10.0526,-42.8288 11.9145,-56 0.8293,-5.8667 1.8099,-12.6757 2.1792,-15.1312 0.4447,-2.9577 0.1925,-4.1688 -0.7471,-3.588 -0.946,0.5846 -1.4184,-1.9739 -1.4184,-7.6827 0,-7.0351 -0.6237,-9.4828 -3.5025,-13.7454 -1.9263,-2.8523 -3.8763,-5.486 -4.3333,-5.8527 -0.457,-0.3667 -1.6692,-1.8667 -2.6938,-3.3333 -1.0246,-1.4667 1.2254,0.4923 5,4.3533 3.7746,3.861 6.863,7.611 6.863,8.3333 0,0.7224 0.5688,1.3134 1.2641,1.3134 1.1,0 85.2781,-52.8965 501.0692,-314.86581 105.9517,-66.75491 210.1,-132.36956 412.0536,-259.59854 87.4795,-55.1113 159.3295,-100.20237 159.6667,-100.20237 0.3372,0 0.6131,15.17488 0.6131,33.72195 v 33.72193 l -92.2671,61.94474 c -165.9943,111.44248 -253.85,170.43705 -486.7436,326.84524 -126.3108,84.82866 -274.056,184.03766 -328.3227,220.46466 -54.2667,36.4269 -99.2325,66.7675 -99.9241,67.4236 -0.7764,0.7365 -0.124,2.7269 1.7065,5.2021 5.676,7.6772 1.8319,3.9079 -11.9307,-11.6985 -11.9169,-13.5135 -21.6738,-22.9131 -45.185,-43.53 l -4.6667,-4.0922 4.8143,5.3316 c 14.948,16.5541 22.4838,29.5244 22.506,38.7364 0.019,8.0309 -5.7815,18.3014 -16.7663,29.6852 l -9.6779,10.0292 3.2223,4.2245 c 1.7721,2.3235 2.8835,4.5633 2.4695,4.9773 -1.2839,1.2839 2.664,6.4141 4.418,5.741 3.2228,-1.2367 22.7185,33.2615 26.4898,46.8746 3.4816,12.5671 3.3671,13.0922 -2.809,12.8814 -2.9334,-0.1 -10.1334,-1.1716 -16,-2.3811 -19.4282,-4.0053 -26.5315,-4.6544 -40.5852,-3.7077 l -13.9186,0.9374 -2.2705,9.0106 c -1.2487,4.9557 -1.7629,9.3241 -1.1428,9.7074 1.4491,0.8955 6.0324,-0.1673 19.2504,-4.4637 9.5333,-3.0988 12.7917,-3.4699 30.6667,-3.4925 11,-0.013 24.05,0.4256 29,0.9769 10.018,1.1156 11.0504,0.1905 5.7273,-5.1327 -1.8,-1.8 -2.52,-3.2726 -1.6,-3.2726 0.92,0 2.4295,0.75 3.3543,1.6666 1.3484,1.3364 2.7514,0.4776 7.0792,-4.3333 2.9686,-3.3 10.6921,-11.4828 17.1633,-18.184 9.1235,-9.4478 11.9775,-13.3133 12.7091,-17.2128 1.3505,-7.1992 -2.316,-22.493 -8.6154,-35.9354 -2.9213,-6.234 -5.1041,-11.3345 -4.8505,-11.3345 1.2068,0 15.8037,24.6228 18.4437,31.1121 l 2.9918,7.3534 77.2986,-54.3008 c 42.5142,-29.8654 178.9986,-125.7128 303.2986,-212.9941 124.3,-87.28131 308.607,-216.70069 409.5713,-287.59861 100.9641,-70.89792 183.9142,-128.90531 184.3334,-128.90531 0.419,0 0.762,16.1337 0.762,35.85266 v 35.85265 l -236.3334,176.44837 c -129.9833,97.04661 -268.4333,200.42334 -307.6667,229.72614 -39.2333,29.3027 -96.0833,71.7493 -126.3333,94.3258 -30.25,22.5764 -54.996,41.216 -54.9912,41.4212 0,0.2053 8.8548,0.5301 19.6667,0.7218 10.8118,0.1917 25.6578,0.9645 32.9912,1.7172 7.3333,0.7527 16.9333,1.6732 21.3333,2.0456 l 8,0.6769 83.3333,-64.9047 c 91.0676,-70.9285 184.6039,-143.6312 404.6667,-314.53391 79.2,-61.50743 146.55,-113.89551 149.6667,-116.41797 l 5.6667,-4.5863 v 44.59755 44.59756 L 2479.136,984.77088 C 2375.9923,1070.514 2256.6238,1169.736 2213.8726,1205.2644 l -77.7294,64.5971 15.5967,6.2044 c 8.5783,3.4124 19.3555,8.1067 23.9492,10.4318 l 8.3525,4.2273 81.6475,-70.317 c 44.9063,-38.6743 152.7476,-131.5642 239.6476,-206.4219 86.9,-74.85777 158.75,-136.5635 159.6667,-137.12392 1.3233,-0.80898 1.6527,10.32851 1.5989,54.05978 l -0.068,55.07872 -76.2033,70.66662 c -73.9787,68.6038 -195.1458,181.1592 -588.374,546.5575 -144.8183,134.5691 -189.3992,175.29 -189.764,173.3333 -0.2623,-1.4065 -0.9508,-3.1574 -1.53,-3.8908 -0.5792,-0.7333 -2.3582,-7.9333 -3.9534,-16 -3.6245,-18.3301 -12.3621,-52.956 -16.8646,-66.8329 -9.1004,-28.0469 -17.1098,-37.5497 -43.1263,-51.1671 -24.3465,-12.7433 -33.4757,-21.9622 -47.9753,-48.4472 -3.1458,-5.746 -7.2991,-12.1564 -9.2299,-14.2454 -1.9307,-2.0891 -4.4683,-5.1586 -5.6391,-6.8211 -1.8704,-2.6559 -1.8326,-1.5745 0.311,8.9121 1.3417,6.5643 2.4497,13.585 2.462,15.6016 0.013,2.0167 0.6601,3.6667 1.4396,3.6667 0.7793,0 1.3102,-1.05 1.1797,-2.3333 -0.1307,-1.2834 -0.1492,-4.4334 -0.041,-7 0.1765,-4.2026 0.3741,-4.432 1.9865,-2.3071 0.9848,1.2979 4.6372,10.5979 8.1167,20.6667 7.3076,21.1474 10.7826,28.5216 18.712,39.7084 7.3981,10.4372 13.866,16.1865 29.8188,26.5056 20.1466,13.0318 29.4114,23.2857 39.9125,44.1732 9.3308,18.5597 19.8915,52.8532 22.6815,73.6529 1.0053,7.4948 0.8594,8.5427 -1.354,9.7272 -1.3843,0.7408 -12.636,1.3029 -25.4551,1.2717 -12.636,-0.031 -25.3128,0.092 -28.1708,0.2728 l -5.1964,0.3286 -2.978,-8.6667 c -1.6379,-4.7667 -8.8285,-21.8667 -15.9792,-38 -7.1508,-16.1333 -15.9004,-38.0333 -19.4436,-48.6667 -3.5432,-10.6333 -6.4641,-18.5333 -6.4909,-17.5554 -0.1294,4.7404 9.774,39.7294 24.1417,85.2888 5.1573,16.3533 9.0168,30.6718 8.5767,31.8189 -0.5336,1.3904 -1.906,1.8743 -4.1171,1.4516 -1.8243,-0.3488 -3.3168,-0.1527 -3.3168,0.4357 0,2.2094 2.7901,2.6483 7.6488,1.2034 21.4351,-6.3748 38.4277,-7.984 50.7923,-4.8099 14.4637,3.7131 24.2256,2.4181 24.2256,-3.2133 0,-5.4803 2.5394,-2.3282 2.9269,3.633 0.4031,6.2004 0.4565,6.2655 6.4064,7.7771 11.3032,2.8715 24.0181,10.1901 28.1628,16.2104 2.1105,3.0655 3.8372,6.9989 3.8372,8.7411 0,5.7805 -5.6424,20.2737 -9.9995,25.6853 -2.3618,2.9333 -7.0217,9.5333 -10.3553,14.6667 -7.2024,11.0908 -10.4761,14.2598 -23.4668,22.7174 -5.4019,3.517 -10.9297,8.2164 -12.284,10.4434 -1.3543,2.2269 -2.3337,4.1776 -2.1765,4.3348 0.157,0.1572 3.5849,-0.6027 7.6172,-1.6884 7.8029,-2.1012 20.6733,-1.6655 23.1214,0.7826 0.9914,0.9914 0.8359,1.4116 -0.5232,1.4151 -1.0633,0 0.017,1.194 2.4,2.6471 2.3834,1.4532 4.3334,3.5689 4.3334,4.7016 0,1.6581 -0.7791,1.4836 -3.9963,-0.8951 -6.7588,-4.9969 -24.6488,-4.7573 -35.0207,0.4691 -1.9001,0.9576 -2.071,1.7062 -0.892,3.9092 2.0686,3.865 0.7242,4.4962 -5.5641,2.6121 -5.7985,-1.7372 -6.4827,-1.4544 -24.8603,10.2761 -6.2849,4.0118 -2.6058,0.2094 6.6667,-6.8902 5.3167,-4.0708 11.1667,-8.6579 13,-10.1935 l 3.3333,-2.7921 -5.4306,2.6488 -5.4308,2.6488 -15.0642,-4.5735 c -8.2852,-2.5153 -15.7413,-4.5736 -16.5692,-4.574 -0.8278,-4e-4 -4.0761,-2.986 -7.2184,-6.6348 l -5.7132,-6.6341 2.2118,-7.6986 c 1.2165,-4.2341 4.2198,-12.7985 6.6742,-19.0318 5.4404,-13.8168 9.1206,-34.441 6.6158,-37.0764 -1.3338,-1.4032 -2.1199,0.4161 -4.0335,9.3333 -1.3073,6.092 -4.0541,16.7764 -6.1041,23.7431 -2.0502,6.9666 -4.1094,15.0666 -4.576,18 -1.8374,11.546 -1.9226,11.7354 -4.4167,9.8073 -1.7421,-1.3468 -1.6807,-1.0607 0.2616,1.2156 1.3969,1.6375 1.9969,2.9859 1.3333,2.9967 -0.6637,0.013 0.2934,0.7608 2.1267,1.6666 2.2745,1.1239 5.5212,6.094 10.2211,15.6471 9.0234,18.3409 10.3506,23.8049 2.1978,9.0483 -5.9757,-10.8164 -9.2724,-15.2979 -14.2284,-19.3426 -1.0969,-0.8952 -2.1885,-1.1384 -2.4257,-0.5406 -0.2373,0.5978 -2.5683,1.4242 -5.1799,1.8362 l -4.7482,0.7494 1.8132,-8.2087 c 0.9973,-4.5148 2.1201,-11.2087 2.495,-14.8753 1.9562,-19.1299 5.3371,-34.8572 12.0068,-55.8532 2.153,-6.7774 2.883,-10.9788 2.0519,-11.8099 -1.8467,-1.8467 -4.6235,3.8611 -5.0253,10.3297 -0.1823,2.9334 -2.7262,13.8044 -5.6532,24.1579 -2.927,10.3535 -6.0416,22.6535 -6.9215,27.3333 -0.8797,4.6799 -2.7257,11.8088 -4.1023,15.8422 -2.263,6.6316 -2.4654,6.8644 -2.1145,2.4321 l 0.388,-4.9012 -4.4795,1.8716 c -4.097,1.7119 -4.4429,1.6751 -4.0513,-0.4321 0.2356,-1.2671 2.236,-2.8382 4.4456,-3.4914 3.9295,-1.1616 4.0839,-1.5376 7.05,-17.1694 3.078,-16.222 3.1356,-21.7654 0.1213,-11.705 -1.2346,4.1211 -3.9434,7.5579 -10.6262,13.4827 l -8.9692,7.9519 -43.1328,-14.2714 c -23.7231,-7.8493 -56.9328,-18.2326 -73.7995,-23.0742 -16.8667,-4.8416 -30.6667,-9.4383 -30.6667,-10.215 0,-0.7766 33.3,-30.0585 74,-65.0706 40.7,-35.0122 75.6047,-65.2522 77.5659,-67.1999 l 3.5659,-3.5415 -5.2335,-31.3333 c -2.8785,-17.2333 -5.3992,-31.8313 -5.6015,-32.44 -0.2024,-0.6087 -47.3224,37.918 -104.7113,85.6148 -57.3888,47.6968 -106.8781,88.7985 -109.9763,91.3372 l -5.6329,4.6157 -37.7552,-9.214 c -20.7655,-5.0676 -38.3211,-9.5634 -39.0124,-9.9908 -0.6979,-0.4312 0,-2.6626 1.5743,-5.0165 1.745,-2.6132 0.859,-1.9604 -2.3092,1.7016 -2.8272,3.2679 -5.1412,6.8679 -5.1422,8 -9e-4,1.1323 -0.6009,2.0679 -1.3333,2.0791 -0.7324,0.013 -2.0875,0.5002 -3.0113,1.0868 -1.0858,0.6892 -2.8958,-0.3788 -5.1186,-3.0204 -1.8913,-2.2478 -4.3042,-4.0868 -5.3621,-4.0868 -3.4401,0 -3.4229,-3.5954 0.051,-10.4491 3.637,-7.1775 7.8677,-10.9096 19.2553,-16.9864 18.9257,-10.0995 24.8459,-30.0965 16.7752,-56.6629 -3.7649,-12.393 -6.1472,-40.1134 -3.5835,-41.6978 2.0348,-1.2576 5.488,8.462 7.1784,20.2047 0.8123,5.642 1.9283,10.7529 2.4803,11.3576 0.8445,0.9253 156.5776,-118.5831 166.7441,-127.9583 2.8876,-2.6628 4.918,-3.171 13.3334,-3.3373 9.2168,-0.182 8.8298,-0.282 -5.4063,-1.398 -8.4333,-0.6611 -19.0832,-1.3228 -23.6665,-1.4705 -4.5832,-0.1478 -8.3332,-0.6999 -8.3334,-1.2268 0,-0.5271 -0.7686,-0.6632 -1.708,-0.3028 -0.9393,0.3604 -10.2485,-1.7584 -20.6872,-4.7086 -20.7166,-5.8549 -22.7728,-6.1778 -23.5321,-3.6972 -8.8752,28.9955 -16.342,34.7342 -45.4061,34.8971 -13.7778,0.077 -15.9192,-0.298 -35.3334,-6.1903 -11.3666,-3.4498 -26.9666,-7.5721 -34.6666,-9.1604 -8.9819,-1.8528 -18.5403,-4.9897 -26.6667,-8.7517 -10.1016,-4.6761 -11.8567,-5.1913 -8.6667,-2.5437 6.3039,5.232 2.6275,4.6424 -25.7796,-4.1339 -8.312,-2.568 -14.789,-4.9929 -14.3932,-5.3887 0.3958,-0.3958 4.6736,0.027 9.5062,0.9383 9.5921,1.8099 11.5509,1.2624 8.3178,-2.3252 -8.6447,-9.5925 0.7828,-24.4556 26.3606,-41.5591 7.3792,-4.9344 16.5682,-10.6868 20.42,-12.7832 4.8953,-2.6644 6.7728,-4.4116 6.2381,-5.8052 -0.4208,-1.0964 2.1953,0.6614 5.8136,3.9063 3.6181,3.2448 6.6396,6.5568 6.7143,7.3597 0.075,0.8031 1.2609,2.4784 2.6362,3.7231 2.3762,2.1504 2.675,2.056 6,-1.8956 1.9247,-2.2873 3.4994,-4.6637 3.4994,-5.2811 0,-0.6172 2.069,-2.4009 4.5978,-3.9638 2.5288,-1.563 4.9474,-3.943 5.3746,-5.2888 1.0524,-3.316 -1.6799,-8.922 -5.6004,-11.491 -4.1011,-2.687 -2.6603,-4.6166 6.3366,-8.487 3.6436,-1.5675 6.6247,-3.6902 6.6247,-4.717 0,-3.2838 -22.9277,-10.785 -36.6725,-11.9981 -5.1367,-0.4533 -13.8114,-1.9356 -19.2772,-3.2939 -9.2536,-2.2996 -9.6343,-2.0405 -3.1658,2.1548 2.2084,1.4324 2.0736,1.596 -1.3733,1.6667 -3.3416,0.068 -3.7421,0.4965 -3.1863,3.4043 0.5294,2.7692 -0.9554,1.8144 -8.8717,-5.7054 -7.7187,-7.332 -10.7561,-9.3168 -16.1449,-10.55 -3.6508,-0.8354 -6.7567,-1.3998 -6.9022,-1.2544 -0.1456,0.1455 3.0036,2.7932 6.998,5.8839 3.9944,3.0907 7.2626,6.0756 7.2626,6.6332 0,0.5575 -3.75,2.4501 -8.3334,4.2057 -12.8864,4.936 -36.5349,17.0374 -48.3333,24.733 -5.8667,3.8266 -17.3429,12.9058 -25.5027,20.1761 -8.1598,7.2703 -17.0098,14.8943 -19.6666,16.9421 -2.6569,2.048 -4.8307,4.3112 -4.8307,5.0295 0,1.3131 11.6281,9.2471 13.5525,9.2471 0.5668,0 0.718,-0.8143 0.3361,-1.8095 -0.8731,-2.2752 3.1115,-3.9153 19.5378,-8.0425 7.0179,-1.7632 17.2179,-5.4383 22.6667,-8.1668 13.2802,-6.6502 47.3406,-26.129 60.6617,-34.6918 l 10.7548,-6.9132 4.5785,3.865 c 6.2594,5.2838 11.9086,10.9253 11.9104,11.8942 8e-4,0.4411 -6.9753,4.8866 -15.5024,9.8787 -19.1348,11.2024 -33.3636,21.7832 -43.8294,32.5924 -12.5305,12.9416 -13.8974,13.3019 -38,10.0164 -4.4965,-0.6128 -4.4236,-0.5149 2,2.6867 3.6666,1.8274 6.1204,3.3305 5.4528,3.3398 -2.6268,0.037 -50.073,-15.1817 -60.1195,-19.284 -5.8667,-2.3954 -14.1229,-4.7766 -18.3471,-5.2914 -8.8409,-1.0775 -14.0694,-4.7108 -17.6562,-12.2692 -2.9907,-6.3026 -3.0013,-21.8283 -0.024,-34.4715 4.5997,-19.5299 11.4365,-55.0208 12.2174,-63.4227 l 0.8138,-8.7568 -8.5286,-2.3086 c -11.1214,-3.0104 -13.8542,-4.7482 -6.0909,-3.8731 l 6.0778,0.6851 1.6371,-5.4643 c 2.4051,-8.0276 0.474,-13.5344 -5.4505,-15.5431 l -4.6492,-1.5762 6,-2.7676 c 5.4854,-2.5302 6.2001,-2.5871 8.3333,-0.6635 2.9614,2.6704 3.1517,14.0903 0.3252,19.5099 -1.0955,2.1005 -1.9918,3.9838 -1.9918,4.1852 0,0.2014 3.45,0.3493 7.6666,0.3285 4.2167,-0.021 10.8333,0.4239 14.7037,0.988 7.8103,1.1383 10.7264,-0.4173 14.5147,-7.7431 2.4366,-4.712 5.7816,-21.8921 5.7816,-29.695 0,-5.2056 -0.3452,-5.8851 -3,-5.9031 -2.4486,-0.016 -2.6324,-0.2663 -1,-1.3577 1.7444,-1.1664 1.7018,-1.5131 -0.3333,-2.7126 -3.1896,-1.8798 -2.9515,-4.382 0.3352,-3.5225 1.4677,0.3839 2.3881,0.2443 2.0455,-0.3101 -0.3427,-0.5546 1.0065,-1.836 2.9981,-2.8478 5.0694,-2.5753 13.4894,-11.7033 15.7354,-17.0584 1.0372,-2.4729 1.8229,-7.2729 1.746,-10.6667 l -0.1398,-6.1705 -1.6405,5.3334 c -1.186,3.8553 -2.4631,5.4543 -4.6084,5.77 -1.6324,0.2403 -3.2954,1.2903 -3.6957,2.3334 -0.4003,1.0431 -1.9197,1.8966 -3.3766,1.8966 -1.4569,0 -2.9299,1.0745 -3.2733,2.3878 -0.7986,3.0539 -8.583,6.3763 -17.1259,7.3092 -6.5134,0.7115 -6.7987,0.5907 -12.41,-5.2545 -3.1588,-3.2904 -5.5208,-6.6861 -5.2488,-7.5459 0.7112,-2.2484 18.7159,-12.2914 29.6588,-16.5437 10.0049,-3.8878 13.3311,-6.1991 12.0063,-8.3427 -0.457,-0.739 -3.0588,-1.3436 -5.7823,-1.3436 -6.5037,0 -19.4774,7.6163 -30.0814,17.6596 -5.2099,4.9344 -8.8604,7.4141 -10.2605,6.9698 -3.3244,-1.0552 -6.549,0.6965 -6.549,3.5576 0,2.9029 5.8441,15.1144 9.152,19.1234 2.0543,2.4898 2.0432,2.5366 -0.1911,0.8043 -2.0707,-1.6055 -2.7756,-1.4607 -5.5427,1.1389 -3.5585,3.3431 -9.8583,14.8116 -13.4648,24.5123 -4.4674,12.0161 -16.6519,17.1303 -29.3024,12.2991 -5.7964,-2.2138 -7.968,-4.7316 -4.0808,-4.7316 1.0469,0 6.5242,0.6426 12.1718,1.4281 12.5619,1.7472 15.3722,0.156 6.9365,-3.9277 -6.4484,-3.1216 -20.6983,-3.9474 -23.2957,-1.3499 -0.8161,0.816 -2.1205,1.0903 -2.8987,0.6093 -2.1872,-1.3517 -5.4692,-13.8176 -5.617,-21.3352 -0.093,-4.7042 -0.4031,-5.7942 -1.0219,-3.5868 -0.7017,2.5032 -56.204,36.3138 -263.5338,160.5375 -144.4546,86.5515 -403.2119,241.5999 -575.0161,344.552 C 144.4947,1967.88 3.0398,2052.4541 1.9547,2052.8705 c -1.7301,0.664 -1.9306,-8.7072 -1.6288,-76.1282 z m 1822.703,-61.6162 c -0.9027,-0.3653 -2.7027,-0.3874 -4,-0.049 -1.2972,0.3381 -0.5587,0.6369 1.6413,0.6641 2.2,0.027 3.2615,-0.2494 2.3587,-0.6146 z m -35.0253,-70.524 c 9.5986,-2.9114 15.7666,-9.4358 21.1536,-22.376 2.2989,-5.522 4.1797,-10.7281 4.1797,-11.569 0,-0.841 -4.65,3.2122 -10.3333,9.0073 -13.3111,13.5725 -24.9362,21.8252 -37.459,26.5924 -4.7185,1.7963 -4.5545,1.8351 5.1256,1.2127 5.5,-0.3536 13.3,-1.644 17.3334,-2.8674 z m -31.5595,-18.0692 c 1.2295,-1.8765 1.9333,-3.7138 1.5641,-4.0832 -1.453,-1.4529 8.2976,-10.5817 13.3287,-12.4785 3.9665,-1.4955 4.3083,-1.8097 1.3333,-1.2261 -8.3122,1.6302 -14.6342,5.3941 -16.8554,10.0352 -3.2388,6.767 -5.1558,13.5856 -5.0554,17.9817 0.083,3.6167 0.2134,3.5089 1.7692,-1.456 0.924,-2.9487 2.6859,-6.8965 3.9155,-8.7731 z m 25.2261,-19.4153 c -0.9166,-0.3699 -2.4166,-0.3699 -3.3333,0 -0.9167,0.3699 -0.1667,0.6725 1.6667,0.6725 1.8333,0 2.5833,-0.3026 1.6666,-0.6725 z m -76.7558,-123.3669 c -0.4256,-1.0636 -0.7416,-0.7478 -0.8056,0.8056 -0.057,1.4054 0.2573,2.193 0.7004,1.75 0.443,-0.4431 0.4904,-1.5931 0.1053,-2.5556 z m 80.2706,-53.0907 c -2.1693,-9.1627 -6.27,-23.8593 -9.1126,-32.6593 -2.8426,-8.8 -5.84,-20.8 -6.661,-26.6667 -2.501,-17.8743 -5.5364,-30.2744 -9.4646,-38.6667 -2.9907,-6.389 -3.5634,-7.0602 -2.844,-3.3333 1.5838,8.2053 0.8816,24.3157 -1.5839,36.3345 -3.4596,16.866 -1.646,22.7251 11.8651,38.3322 10.0842,11.6486 14.8142,21.0766 19.2989,38.4678 0.8228,3.1908 1.7099,5.5875 1.9712,5.326 0.2613,-0.2613 -1.2996,-7.9718 -3.4691,-17.1345 z m 145.1022,-121.326 c 77.0509,-66.3667 139.9673,-120.8073 139.814,-120.9793 -0.48,-0.5388 -26.064,-7.9742 -42.4311,-12.3315 l -15.6668,-4.1709 -2.9999,3.267 c -1.6498,1.797 -54.4498,45.9787 -117.3332,98.1816 -66.0332,54.8179 -114.3588,95.855 -114.3934,97.1406 -0.035,1.309 -0.8366,0.5785 -1.9452,-1.7742 -1.6868,-3.579 -1.8259,-3.6493 -1.3218,-0.6666 2.1828,12.9164 5.5164,27.9196 8.809,39.6449 2.1182,7.544 3.8514,14.8611 3.8514,16.26 0,3.3859 1.4332,6.9701 2.5931,6.4848 0.5121,-0.2144 63.9728,-54.6897 141.0239,-121.0564 z m -150.1784,79.2223 c 0.064,-1.5534 0.38,-1.8692 0.8056,-0.8056 0.3852,0.9625 0.3378,2.1125 -0.1054,2.5556 -0.443,0.443 -0.7582,-0.3446 -0.7004,-1.75 z m -320.2075,2.0198 c 3.2437,-0.7477 11.3437,-3.792 18,-6.7652 6.6563,-2.9733 13.9755,-6.2005 16.2651,-7.1718 2.9177,-1.2378 5.2181,-3.8838 7.6912,-8.8466 l 3.5284,-7.0806 -6.7607,-2.298 c -9.5337,-3.2407 -31.8873,-7.9458 -33.3767,-7.0254 -0.6848,0.4232 -1.245,1.8587 -1.245,3.1899 0,8.0759 -7.2714,19.5383 -14.9338,23.5413 -16.5656,8.6543 -63.7125,-12.678 -71.1684,-32.201 -4.0542,-10.6159 1.0418,-21.5414 14.172,-30.3838 9.889,-6.6597 5.708,-7.2592 -4.9942,-0.7161 -11.7895,7.2077 -23.6062,15.2361 -26.1083,17.7383 -2.52,2.5201 -4.1535,1.0613 -1.9788,-1.7671 1.0293,-1.3387 0.5443,-1.1951 -1.3135,0.3888 -1.62,1.3815 -2.6662,2.9635 -2.3249,3.5156 0.3412,0.5523 -0.2663,1.7401 -1.3501,2.6396 -1.0839,0.8995 -1.6675,2.126 -1.297,2.7256 0.3706,0.5996 0.1054,1.4413 -0.5892,1.8707 -0.6946,0.4293 -1.697,0.079 -2.2277,-0.7806 -0.6432,-1.0406 -0.3831,-1.2014 0.7805,-0.4824 1.1882,0.7343 1.4246,0.5596 0.7403,-0.5474 -1.36,-2.2006 -5.1767,1.2977 -8.0715,7.3978 -3.5934,7.5728 -0.859,13.554 9.3312,20.4106 1.4667,0.9869 0.4676,-0.2431 -2.2201,-2.7334 -6.1684,-5.715 -8.1743,-9.718 -7.1519,-14.2725 0.8167,-3.6376 5.9902,-11.3735 5.9667,-8.9217 -0.013,0.7333 -0.8937,2.498 -1.9704,3.9214 -2.8516,3.7702 -2.4163,10.0851 0.9415,13.6592 1.5945,1.6974 3.5705,3.086 4.3912,3.086 0.8206,0 8.0661,2.6408 16.1009,5.8684 34.1629,13.7232 66.4427,23.3206 78.6088,23.3718 3.6667,0.016 9.3207,-0.5838 12.5644,-1.3314 z m 40.7689,-2.5754 c 1.3274,-1.4667 2.1134,-2.6667 1.7467,-2.6667 -0.3667,0 -1.7527,1.2 -3.08,2.6667 -1.3273,1.4666 -2.1133,2.6666 -1.7467,2.6666 0.3667,0 1.7527,-1.2 3.08,-2.6666 z m 120.4648,-16.6026 c 3.9224,-1.235 6.8944,-2.4826 6.6046,-2.7726 -0.2899,-0.2899 -3.4991,0.3694 -7.1316,1.465 -11.9342,3.5999 -23.8684,3.7908 -41.2711,0.6604 -19.7292,-3.5489 -33.5932,-6.9717 -49.7843,-12.2912 -8.9086,-2.9269 -12.8601,-3.6813 -13.8896,-2.6518 -1.7476,1.7476 -2.8157,1.3406 21.0072,8.0033 15.9711,4.4667 26.2007,6.8333 43.3334,10.0253 7.2684,1.3543 34.1476,-0.2392 41.1314,-2.4384 z m 68.9458,-10.3974 c 1.703,-3.8883 10.1149,-13.2547 26.8026,-29.8443 13.3763,-13.2977 23.9504,-24.5477 23.4982,-25 -1.4042,-1.4041 -11.0684,-0.9033 -14.1323,0.7323 -5.1304,2.7388 -31.6028,28.2353 -35.6709,34.356 -5.1116,7.6905 -9.8146,22.8996 -7.5299,24.3513 3.1153,1.9796 4.568,1.0303 7.0323,-4.5953 z m -65.3574,0.9436 c 17.3231,-4.483 32.3488,-17.7486 41.7131,-36.827 8.6488,-17.6206 21.5671,-52.7972 21.5671,-58.7276 0,-0.3076 -3.5438,-0.3029 -7.8751,0.013 -6.6864,0.4836 -8.8764,0.024 -14.5092,-3.0412 -3.6488,-1.9859 -7.9815,-5.433 -9.6281,-7.6602 -2.6116,-3.5324 -2.8104,-4.6473 -1.557,-8.7314 1.1996,-3.9084 1.0124,-5.4768 -1.1322,-9.4911 l -2.5694,-4.8089 0.6942,8 0.694,8 -3.9111,-7.3334 c -3.2404,-6.0757 -7.452,-20.5925 -10.3473,-35.6666 -0.5364,-2.7924 -1.2666,-3 -10.551,-3 -7.8781,0 -9.9745,0.4112 -9.9745,1.9562 0,1.0759 -2.9544,9.1434 -6.5652,17.9276 -3.7484,9.1191 -8.1249,23.0103 -10.2005,32.3772 -6.6075,29.8171 -11.2588,39.117 -25.9499,51.8836 -22.5521,19.5979 -22.8049,33.5283 -0.8309,45.767 18.8469,10.4969 35.0482,13.4758 50.933,9.3653 z m -112.3082,-7.7596 c 0.528,-1.3762 -1.456,-2.0122 -8.1907,-2.6254 -4.8881,-0.4452 -12.1876,-1.1101 -16.2209,-1.4777 -6.6962,-0.6104 -6.2907,-0.394 4.6666,2.4895 14.1098,3.7132 18.7924,4.0958 19.745,1.6136 z m -33.3863,-5.7252 c -0.9027,-0.3654 -2.7027,-0.3875 -4,-0.049 -1.2972,0.3382 -0.5587,0.637 1.6413,0.6642 2.2,0.027 3.2615,-0.2495 2.3587,-0.6147 z m 26.7483,-8.4887 c 5.1234,-2.4832 8.7344,-10.1241 10.1636,-21.5065 1.0666,-8.4951 1.7432,-10.0612 6.4682,-14.9755 4.9076,-5.1039 5.5274,-6.6551 8.8516,-22.1548 1.9662,-9.1667 5.9904,-27.3639 8.943,-40.4381 2.9524,-13.0744 5.1232,-24.0166 4.8237,-24.3159 -0.2995,-0.2995 -1.6251,4.0977 -2.946,9.7715 -1.3209,5.6737 -4.7908,17.67 -7.7109,26.6584 -8.5756,26.3962 -15.06,31.7678 -46.3148,38.3669 -22.7731,4.8083 -23.253,5.0323 -22.1099,10.3188 3.3761,15.6135 1.496,21.7361 -8.1016,26.3823 -5.2767,2.5544 -7.6876,2.8113 -22.4496,2.3922 -9.096,-0.2582 -15.6684,0.017 -14.6053,0.6112 4.9385,2.7615 18.4121,6.7355 30.5477,9.0102 16.0032,2.9996 48.1493,2.9282 54.4403,-0.1214 z m 17.5789,-26.3928 c -0.754,-0.7587 -3.2575,8.2811 -3.9941,14.4227 -0.5038,4.199 0.051,2.9984 1.8472,-4 1.4118,-5.5 2.378,-10.1903 2.1469,-10.4227 z m -299.6859,15.6492 c -4.0194,-2.3411 -2.8675,-8.1713 2.6667,-13.4967 11.4004,-10.9702 45.2161,-32.6065 67.3719,-43.1065 6.7621,-3.2047 11.7292,-5.856 11.038,-5.8917 -0.6911,-0.036 -13.5911,5.8698 -28.6666,13.1236 -15.0755,7.2536 -29.81,13.9356 -32.7433,14.8486 -8.1923,2.5502 -17.5768,7.6007 -23.0479,12.4039 -2.7236,2.3912 -6.6021,5.384 -8.6188,6.6507 -6.4488,4.0505 -4.477,8.4166 6.3334,14.024 5.3781,2.7896 9.9982,3.967 5.6666,1.4441 z m 528,-78.4604 c 36.1167,-28.0435 65.6667,-51.2633 65.6667,-51.6 0,-0.8269 -7.3237,3.4589 -43.3333,25.3589 -44.4591,27.0387 -75.5802,42.5339 -81.1408,40.4 -1.2066,-0.4629 -1.7986,1.0895 -2.0158,5.2863 -0.1692,3.2679 -1.8465,11.1572 -3.7273,17.5319 -5.3735,18.2117 -5.1595,17.1134 -3.014,15.4672 1.0439,-0.8011 31.4479,-24.401 67.5645,-52.4443 z m -488.3333,27.3885 c 3.2741,-1.0069 5.235,-2.383 5.0786,-3.5641 -0.1401,-1.0581 -2.4068,-7.6239 -5.0371,-14.5905 -10.5937,-28.0584 -15.5834,-35.3366 -26.8597,-39.1787 -10.296,-3.5083 -10.7428,-2.8469 -4.0272,5.9599 6.5141,8.5424 7.6783,13.1361 8.4875,33.4898 0.6075,15.281 1.0781,18.3651 2.8755,18.8454 4.2614,1.1386 14.2575,0.6453 19.4824,-0.9618 z m -50,-12.1546 c 0,-1.1 -0.6,-2 -1.3333,-2 -0.7334,0 -1.3334,0.9 -1.3334,2 0,1.1 0.6,2 1.3334,2 0.7333,0 1.3333,-0.9 1.3333,-2 z m 240.3333,-1.6528 c 1.2834,-1.1516 2.3334,-2.8079 2.3334,-3.6806 0,-2.4278 -4.2135,-5.6082 -8.6667,-6.5416 -3.7993,-0.7964 -7.2015,-0.073 -28.6667,6.0958 l -8.6666,2.4906 8,-1.0009 c 4.4,-0.5507 12.4896,-1.0107 17.9769,-1.0225 8.4604,-0.019 10.0461,0.3342 10.4323,2.3184 0.2812,1.4446 -0.7299,2.8565 -2.6436,3.6909 -2.5071,1.0932 -2.0803,1.1977 2.2344,0.5475 2.9333,-0.442 6.3833,-1.746 7.6666,-2.8976 z m -17.3333,0.1026 c -0.9167,-0.3698 -2.4167,-0.3698 -3.3333,0 -0.9167,0.3699 -0.1667,0.6726 1.6666,0.6726 1.8334,0 2.5834,-0.3027 1.6667,-0.6726 z m 249,-3.1165 c 0,-0.7333 -1.4645,-1.3333 -3.2547,-1.3333 -1.79,0 -3.6254,0.6 -4.0786,1.3333 -0.4808,0.7779 0.875,1.3333 3.2546,1.3333 2.2432,0 4.0787,-0.6 4.0787,-1.3333 z m 13.3333,-1.3333 c 2.4374,-1.5751 0.3322,-1.5751 -3.3333,0 -1.7583,0.7556 -1.9855,1.1709 -0.6667,1.2192 1.1,0.04 2.9,-0.5083 4,-1.2192 z m -32,-2 c -0.9129,-1.1 -2.9064,-2 -4.4298,-2 -3.2499,0 -1.5906,2.0822 2.4298,3.0492 1.4667,0.3528 2.8902,0.711 3.1632,0.7961 0.2732,0.085 -0.2502,-0.7453 -1.1632,-1.8453 z m 43.2198,-2.5599 c 10.7481,-4.7533 31.7957,-17.1213 64.4601,-37.878 39.9381,-25.3789 49.828,-31.1931 67.2336,-39.5257 27.8313,-13.324 45.7924,-17.8211 77.0865,-19.3011 l 20.6667,-0.9773 -15.8289,-0.2124 c -30.721,-0.412 -57.0296,5.8393 -86.2522,20.495 -18.0889,9.072 -25.5598,13.5391 -67.9189,40.6108 -29.7748,19.0292 -51.7028,31.9355 -64,37.669 -7.3787,3.4401 -3.5367,2.6973 4.5531,-0.8803 z m -298.7814,-2.6033 c 10.0411,-4.9127 20.1002,-16.1718 26.3591,-29.5035 8.4719,-18.0455 16.6315,-61.7537 18.5163,-99.1846 1.6609,-32.9886 6.8256,-47.7711 20.0326,-57.3383 10.4067,-7.5385 14.7467,-6.9467 27.2302,3.7134 17.5357,14.9746 26.1256,29.1213 27.1234,44.6698 0.759,11.8274 -0.5226,14.6663 -12.526,27.7461 -10.515,11.4581 -15.5126,19.8436 -19.7034,33.0603 -6.4706,20.4064 -5.8651,29.3333 1.9894,29.3333 8.2911,0 24.609,-19.4568 38.579,-46 3.8596,-7.3333 12.0885,-22.5295 18.2865,-33.7693 9.872,-17.9024 19.0079,-38.6351 19.0079,-43.1358 0,-0.8223 -1.8323,1.0343 -4.0716,4.1256 -4.4003,6.0745 -6.3443,6.3671 -8.9088,1.3409 -2.1144,-4.1443 -2.1734,-17.541 -0.087,-19.6281 1.2444,-1.2444 1.0889,-1.6 -0.6997,-1.6 -3.8586,0 -5.194,6.0972 -3.5942,16.4088 0.7882,5.0793 2.0596,10.4061 2.8256,11.8373 1.3008,2.4307 1.606,2.4623 4.6304,0.4806 4.281,-2.8049 4.035,-1.2115 -0.7992,5.1775 -2.1796,2.8807 -3.9629,6.6307 -3.9629,8.3334 0,1.7026 -0.5509,3.0958 -1.2243,3.0958 -2.657,0 -5.4424,-1.7065 -5.4424,-3.3343 0,-2.632 -25.3016,-33.9291 -32.6428,-40.3779 -3.5764,-3.1416 -10.9486,-7.9094 -16.3825,-10.595 -8.5543,-4.2278 -11.4295,-4.9554 -21.4273,-5.423 -14.7978,-0.6919 -20.0478,1.2691 -39.7896,14.8628 -24.0896,16.5874 -24.7339,18.1065 -17.4948,41.2429 3.8818,12.4066 4.262,15.1739 4.2521,30.9578 -0.017,27.0931 -8.9389,73.7336 -17.2373,90.1096 -9.7588,19.2581 -22.0331,23.9267 -49.3376,18.7656 -8.0338,-1.5185 -17.9068,-3.0955 -21.9402,-3.5043 -6.3696,-0.6456 -5.3181,-0.1306 8,3.9196 32.7471,9.9586 46.7059,10.9316 60.4384,4.213 z m 295.9608,-3.6775 c 11.4376,-5.7743 25.1618,-14.1839 59.6008,-36.5207 52.9267,-34.3274 70.0564,-43.7318 95.6747,-52.5261 33.9163,-11.6428 75.7944,-10.4708 135.4732,3.7916 9.4265,2.2527 17.4745,4.0959 17.8844,4.0959 5.6845,0 -42.5323,-13.2014 -65.4953,-17.9322 -41.4195,-8.533 -66.4968,-6.9958 -100.489,6.1596 -24.589,9.5163 -44.213,20.4683 -90.1626,50.3194 -32.4691,21.0936 -46.4432,29.5333 -61.0299,36.859 -11.3772,5.714 -12.8064,7.2312 -11.0713,11.7527 0.6888,1.7949 1.5881,1.7264 7.3992,-0.5641 3.6382,-1.4342 9.1354,-3.8799 12.2158,-5.4351 z m -144.6676,-25.4627 c 5.7226,-7.7462 23.203,-35.8862 22.628,-36.4265 -0.1977,-0.1859 -6.3596,-3.0423 -13.6929,-6.3475 -11.6933,-5.2702 -13.4516,-5.7376 -14.2951,-3.7993 -1.1597,2.6651 -15.7245,66.5759 -15.6585,68.7099 0.06,1.9517 14.3111,-13.057 21.0185,-22.1366 z m 115.6486,17.1316 c 2.0814,-2.8468 0.35,-8.7469 -6.4976,-22.1409 -3.591,-7.0241 -5.2272,-8.8776 -8.7222,-9.8799 -6.4974,-1.8634 -13.4937,1.8074 -13.4937,7.08 0,3.3792 6.5188,23.3039 8.868,27.105 0.4456,0.721 4.6459,1.052 9.4612,0.7454 6.2909,-0.4005 9.1316,-1.1965 10.3843,-2.9096 z m -337.9224,-2.2282 c 1.3809,-0.739 2.9026,-2.905 3.3816,-4.8132 1.1137,-4.4374 -3.0712,-18.213 -5.1438,-16.932 -0.9701,0.5996 -1.1784,0.124 -0.6029,-1.375 1.1628,-3.0305 -5.3167,-15.9108 -7.3667,-14.6438 -1.0043,0.6206 -1.2175,0.166 -0.6345,-1.3532 0.5683,-1.481 0.3627,-1.9695 -0.5829,-1.3851 -0.9443,0.5836 -1.1854,0.019 -0.6818,-1.5975 0.4284,-1.375 0.2019,-3.4002 -0.5035,-4.5002 -1.1399,-1.7778 -1.287,-1.7778 -1.3233,0 -0.036,1.7777 -0.1844,1.7777 -1.3333,0 -2.3064,-3.569 -1.4066,-0.037 1.3845,5.4336 1.6536,3.2413 3.3085,4.9621 4.2265,4.3948 1.0002,-0.6182 1.2128,-0.1612 0.6309,1.3554 -0.4904,1.2778 -0.3317,1.9503 0.3593,1.5232 0.6806,-0.4205 1.2161,0.2983 1.1901,1.5975 -0.026,1.2992 1.5568,6.7861 3.5174,12.1932 3.6808,10.1519 3.664,14.3391 -0.072,18.0757 -4.0303,4.0303 -5.6881,2.5626 -5.6204,-4.9757 0.047,-5.1739 -1.2867,-10.444 -4.9733,-19.6581 -2.7702,-6.924 -6.4034,-16.4931 -8.0737,-21.2644 -4.1711,-11.9151 -3.9517,-8.2212 0.7646,12.8728 4.6595,20.8401 4.9932,27.1398 1.6001,30.2105 -2.2311,2.0191 -3.3654,1.8475 -16.1199,-2.4395 -15.028,-5.0509 -30.0408,-8.0994 -45.4802,-9.235 l -10,-0.7356 13.9263,3.3066 c 7.6595,1.8187 17.1095,4.2154 21,5.3259 3.8905,1.1104 10.3814,2.9639 14.4241,4.1187 4.0428,1.1548 7.0312,2.6162 6.6409,3.2477 -0.3903,0.6315 1.852,1.482 4.9829,1.89 3.1308,0.4081 7.4924,0.9885 9.6924,1.2899 5.7014,0.7809 17.8319,-0.3435 20.7911,-1.9272 z m 334.7124,-34.1622 c 3.9334,-4.7906 21.057,-14.4504 59.2977,-33.4509 76.9784,-38.248 111.6231,-50.0735 151.8655,-51.8371 30.647,-1.3431 49.2062,3.2032 90.8932,22.2652 68.8341,31.4758 131.2462,53.6922 172.4401,61.3823 14.7269,2.7493 35.1691,2.1897 46.4399,-1.2712 14.4214,-4.4283 19.3953,-9.6244 30.8816,-32.2615 5.1398,-10.1296 9.3452,-18.8944 9.3452,-19.477 0,-0.5828 -3.613,5.4373 -8.0288,13.378 -9.9007,17.8037 -14.7122,24.8712 -19.9088,29.244 -11.5436,9.7132 -35.0755,12.6848 -61.0688,7.7117 -27.322,-5.2272 -67.6911,-19.7683 -94.5772,-34.0669 -14.0674,-7.4814 -26.7164,-16.0174 -53.0831,-35.8223 -34.3117,-25.7727 -46.36,-32.8192 -66.9379,-39.1489 -10.899,-3.3525 -13.4737,-3.6127 -36.3954,-3.6788 -26.6552,-0.077 -34.4679,1.0391 -60.9624,8.7073 -28.533,8.2582 -65.0595,24.9272 -120.371,54.9317 -29.2269,15.8546 -38.2752,21.7646 -47.6705,31.137 l -7.0039,6.9866 5.4862,8.7499 c 3.0173,4.8123 5.9456,8.7497 6.5073,8.7497 0.5616,0 1.8445,-1.0029 2.8511,-2.2288 z m -37.4852,-8.7712 c 0.013,-0.9166 0.4044,-3.1104 0.8765,-4.8749 0.8505,-3.1787 0.7897,-3.2001 -6.602,-2.3315 -8.0871,0.9506 -32.8351,-1.8502 -44.8975,-5.081 -3.9992,-1.0712 -7.4592,-1.7599 -7.6888,-1.5303 -0.567,0.5671 24.3135,11.5091 30.9602,13.6157 7.2445,2.296 27.327,2.4444 27.3516,0.202 z m 552.5133,-11.4696 c 7.3347,-3.2444 14.8039,-9.9814 26.2533,-23.6797 11.6487,-13.9365 17.2151,-22.7853 17.2151,-27.3663 0,-5.3788 -1.6907,-5.5385 -5.6817,-0.5366 -1.9502,2.444 -7.8504,7.3054 -13.1118,10.8032 -21.1353,14.0508 -35.003,16.1736 -51.5568,7.8921 -9.9613,-4.9833 -16.3824,-10.7531 -43.0249,-38.6604 -8.4103,-8.8095 -18.9616,-19.0671 -23.4472,-22.7946 -24.4112,-20.2852 -54.8825,-33.0962 -97.1776,-40.8562 -13.8876,-2.548 -20.6648,-2.936 -51.3333,-2.939 -38.4682,0 -47.3351,0.9854 -77.7579,8.6749 -39.2051,9.9092 -81.6699,29.5224 -142.9088,66.0051 -48.2941,28.771 -54.1329,32.6907 -65.398,43.905 -7.5925,7.5581 -7.8487,7.9253 -1.3333,1.9113 13.1453,-12.1338 17.649,-15.1225 60.4713,-40.1281 63.4717,-37.0637 99.356,-54.1894 135.1064,-64.4795 73.1704,-21.0606 146.5493,-13.1972 186.8203,20.0201 11.3878,9.3932 19.9836,19.8036 34.127,41.3318 19.1704,29.1795 41.0252,48.4991 65.5716,57.9652 18.5727,7.1624 35.2576,8.1995 47.1663,2.9317 z m -324.5316,-8.9884 c 21.2732,-7.406 37.5989,-10.1408 66.6667,-11.1674 l 26,-0.9183 -22.6667,-0.2203 c -33.0453,-0.3212 -57.9668,4.1922 -79.3333,14.3675 -4.7667,2.27 -7.4667,3.7271 -6,3.2379 1.4666,-0.4894 8.3666,-2.874 15.3333,-5.2994 z m 158,-5.8753 c -1.4667,-0.6303 -3.5667,-1.1459 -4.6667,-1.1459 -1.2606,0 -1.0141,0.4236 0.6667,1.1459 1.4667,0.6303 3.5667,1.1459 4.6667,1.1459 1.2606,0 1.0141,-0.4236 -0.6667,-1.1459 z m -851.3243,-57.9277 c 4.154,-26.293 4.3968,-28.2559 3.3682,-27.2273 -1.046,1.046 -16.7173,78.799 -16.6135,82.4279 0.2086,7.297 9.4678,-31.291 13.2453,-55.2006 z m 815.6299,55.7888 c -0.4431,-0.4431 -1.5931,-0.4904 -2.5556,-0.1054 -1.0636,0.4256 -0.7477,0.7416 0.8056,0.8056 1.4055,0.057 2.1931,-0.2573 1.75,-0.7004 z m -8.6389,-1.4108 c -0.9167,-0.3699 -2.4167,-0.3699 -3.3334,0 -0.9166,0.3698 -0.1666,0.6725 1.6667,0.6725 1.8333,0 2.5833,-0.3027 1.6667,-0.6725 z m -11.3334,-1.3694 c -1.2833,-0.3354 -3.3833,-0.3354 -4.6666,0 -1.2834,0.3354 -0.2334,0.6098 2.3333,0.6098 2.5667,0 3.6167,-0.2744 2.3333,-0.6098 z m -657.3275,-9.4142 c 0.4192,-1.271 -2.8801,-1.6291 -13.8947,-1.5083 l -14.4444,0.1584 6.6666,1.7424 c 8.2292,2.1509 20.9092,1.9212 21.6725,-0.3925 z m 10.5439,-4.6667 c -0.3699,-0.9167 -0.6725,-0.1667 -0.6725,1.6667 0,1.8333 0.3026,2.5833 0.6725,1.6666 0.3699,-0.9166 0.3699,-2.4166 0,-3.3333 z m -13.0243,-8.1848 c 4.2291,-1.3849 4.8022,-2.3109 8.7557,-14.1485 2.3267,-6.9667 6.7427,-17.5411 9.8134,-23.4987 l 5.5831,-10.832 -3.2455,-11.168 c -1.7851,-6.1424 -5.3779,-16.7442 -7.9841,-23.5596 -8.3155,-21.7457 -11.7061,-40.577 -14.071,-78.1492 l -1.251,-19.8742 6.1071,-6.7925 c 3.3588,-3.7359 6.4049,-6.6 6.7691,-6.3646 0.3642,0.2353 2.3645,-2.553 4.4453,-6.1962 7.028,-12.3056 15.5721,-16.1555 30.2005,-13.6081 9.7329,1.6949 27.0767,6.9612 37.0113,11.2383 5.7842,2.4902 8.5407,2.8014 20.674,2.334 l 14,-0.5393 -11.3333,-3.9094 c -6.2333,-2.1502 -20.5031,-6.5679 -31.7104,-9.8171 -19.5707,-5.6739 -21.2329,-5.9313 -42,-6.5029 l -21.6229,-0.5951 -1.5725,-3.8425 c -2.2263,-5.4402 -11.3647,-13.2696 -17.352,-14.8665 -7.9446,-2.1188 -31.9925,-3.0559 -43.7422,-1.7046 l -10.6667,1.2268 15,0.1773 c 8.25,0.098 14.9954,0.6274 14.9898,1.1774 -0.01,0.55 -2.4624,2.4006 -5.4595,4.1124 -4.5473,2.5973 -5.2914,3.5903 -4.4958,6 0.5244,1.5882 1.1076,4.3876 1.296,6.2209 0.1884,1.8334 1.0161,5.0224 1.8394,7.0868 1.8299,4.5889 1.9209,7.5799 0.2306,7.5799 -0.6965,0 -1.9686,-3.5699 -2.827,-7.9331 -1.8258,-9.2802 -4.9566,-11.283 -7.472,-4.78 -0.8609,2.2255 -1.6109,3.0396 -1.6667,1.809 -0.2216,-4.8876 -26.6171,-5.0386 -33.1567,-0.1896 -8.4067,6.2333 -14.1561,24.0061 -14.2318,43.9934 -0.054,14.2966 1.684,17.7947 11.3651,22.8739 5.5623,2.9183 6.8128,3.0485 20.5886,2.1433 8.0667,-0.53 20.9571,-1.0281 28.6453,-1.1069 13.9371,-0.1429 13.9837,-0.1326 15.7114,3.4648 0.953,1.9845 2.1026,7.5693 2.5547,12.4106 0.6333,6.7816 1.8842,10.5448 5.4488,16.3919 6.6692,10.9397 7.4214,21.9526 2.2818,33.4052 -3.4847,7.7651 -3.64,8.9313 -2.8225,21.2006 1.6041,24.0742 -2.4625,44.5934 -10.6293,53.6331 -2.6315,2.9127 -4.7942,6.9625 -5.25,9.8307 l -0.7752,4.8775 13.7508,-0.8637 c 7.563,-0.4751 15.7873,-1.5306 18.2763,-2.3455 z m -15.1477,-179.9512 c -2.3182,-1.6951 -2.2462,-1.8576 1.2061,-2.7241 2.173,-0.5453 4.4295,-0.2922 5.5291,0.6204 4.1517,3.4456 -2.1907,5.4267 -6.7352,2.1037 z m -22.711,-2.5404 c -2.2,-1.6089 -4.7636,-3.8399 -5.6967,-4.9577 -2.6346,-3.156 -6.9769,-11.7341 -6.9079,-13.6461 0.034,-0.9459 1.508,1.0563 3.2754,4.4492 1.7673,3.3929 6.0238,8.6429 9.4589,11.6667 6.6364,5.8415 6.5563,7.3774 -0.1297,2.4879 z m 6.962,-10.2532 c -4.46,-6.6227 -5.1635,-9.4037 -2.3788,-9.4037 0.6008,0 3.5654,3.2054 6.588,7.1231 5.508,7.1394 7.1277,10.5581 3.6251,7.6511 -1.434,-1.19 -2.0014,-1.1591 -2.432,0.1327 -0.3089,0.9267 -2.7399,-1.5497 -5.4023,-5.5031 z m 10.3165,3.8409 c -0.4834,-0.7821 -0.5587,-1.7422 -0.1674,-2.1335 0.9551,-0.9551 3.5555,0.7277 3.5555,2.3009 0,1.704 -2.3018,1.5902 -3.3881,-0.1674 z m 33.0577,-24.578 c 0.015,-2.9333 0.2879,-3.9763 0.6068,-2.3178 0.3189,1.6586 0.3068,4.0586 -0.027,5.3334 -0.3337,1.2748 -0.5946,-0.082 -0.5798,-3.0156 z m 13.6155,213.2423 c 4.6972,-3.0776 11.1071,-13.2869 13.7393,-21.8828 3.0742,-10.0393 3.1895,-32.3762 0.1827,-35.3874 -1.9469,-1.9497 -2.488,-1.7172 -6.4176,2.7585 -9.5298,10.8538 -22.6011,48.2212 -19.602,56.0368 1.0134,2.6408 6.8656,1.9032 12.0976,-1.5251 z m 294.1251,-14.0919 c -1.5035,-2.466 -2.7358,-5.2401 -2.7386,-6.1646 0,-2.0608 -14.7196,-26.0488 -15.4993,-25.2692 -0.81,0.8101 8.7875,23.5697 11.9268,28.2834 2.6867,4.0341 7.8329,8.8458 8.6195,8.0592 0.2338,-0.2338 -0.805,-2.4428 -2.3084,-4.9088 z m 66.6085,-3.817 -1.0183,-6 -0.1668,5.5576 c -0.092,3.0567 -0.5521,6.6567 -1.0229,8 -0.7629,2.177 -0.6341,2.225 1.1852,0.4424 1.5752,-1.5436 1.8087,-3.3692 1.0228,-8 z m -464.7719,-16.7844 c 7.8276,-5.1972 15.486,-7.5106 21.3457,-6.448 l 3.7271,0.6758 -3.8264,-6.6909 c -4.0717,-7.1196 -32.9754,-41.4866 -50.1598,-59.6407 -10.1301,-10.7017 -10.3362,-11.0561 -10.4795,-18.0142 l -0.146,-7.0976 -1.0603,5.3333 c -0.5831,2.9333 -1.2674,8.6333 -1.5206,12.6667 l -0.4603,7.3333 4.4627,0.2224 c 5.7842,0.2883 9.58,3.9448 17.6002,16.954 7.2284,11.7249 13.1154,26.8469 16.6354,42.7312 l 2.3433,10.5743 -3.5952,3.0924 c -5.2105,4.4819 -3.1342,3.7976 5.1337,-1.692 z m 975.4199,-2.6365 c 0,-1.9003 -60.9175,-29.4394 -62.2261,-28.1307 -0.2351,0.235 5.7197,3.0386 13.2328,6.2303 7.5129,3.1918 21.46,9.5505 30.9933,14.1306 19.8568,9.5398 18,8.7383 18,7.7698 z m -822.2864,-11.5691 c 10.1835,-5.4105 16.1301,-12.1021 14.9661,-16.8408 -1.7258,-7.0264 -4.3569,-9.5026 -10.0969,-9.5026 -9.8209,0 -20.388,7.7983 -24.7848,18.2905 -5.7596,13.7442 2.7373,17.1799 19.9156,8.0529 z m -207.4695,-19.9267 c -0.4256,-1.0636 -0.7415,-0.7477 -0.8055,0.8056 -0.058,1.4055 0.2572,2.193 0.7003,1.75 0.443,-0.4431 0.4904,-1.5931 0.1052,-2.5556 z m 103.7559,-1.8481 c 6.0116,-2.6454 8.1193,-4.7428 12.0341,-11.9752 2.9747,-5.4954 3.5182,-8.0366 3.2641,-15.26 -0.1677,-4.7667 -0.2814,-9.8667 -0.2526,-11.3334 0.098,-4.9988 -1.0934,-8.6666 -2.8152,-8.6666 -0.9454,0 -3.4707,-2.3289 -5.6118,-5.1754 -4.6207,-6.1429 -10.6954,-8.6575 -20.3328,-8.4168 -8.6599,0.2164 -16.8566,3.7206 -22.7338,9.719 -6.522,6.6567 -8.0663,10.4661 -8.3882,20.6914 -0.2588,8.2233 0.1448,9.8806 3.867,15.8769 9.4783,15.2688 25.9934,21.1301 40.9692,14.5401 z m 856.6667,2.0981 c -1.1,-0.7109 -2.6,-1.2925 -3.3334,-1.2925 -0.7333,0 -0.4333,0.5816 0.6667,1.2925 1.1,0.7109 2.6,1.2925 3.3333,1.2925 0.7334,0 0.4334,-0.5816 -0.6666,-1.2925 z m -548.0938,-8.5882 c 0.052,-0.6901 -0.753,-0.097 -1.788,1.3187 -1.035,1.4154 -1.5314,3.1402 -1.1033,3.833 0.7239,1.1714 2.6793,-2.3126 2.8913,-5.1517 z m -396.3565,-59.7451 c -0.3699,-0.9167 -0.6725,-0.1667 -0.6725,1.6666 0,1.8334 0.3026,2.5834 0.6725,1.6667 0.3699,-0.9167 0.3699,-2.4167 0,-3.3333 z m 217.6917,-9.3334 c -2.9612,-3.85 -8.4354,-13.1848 -12.165,-20.7441 -5.5015,-11.151 -6.8004,-15.1024 -6.8848,-20.9434 -0.1147,-7.9079 -2.1383,-7.0022 -2.1712,0.9715 -0.025,6.0268 3.9438,16.4344 10.1916,26.7264 4.7152,7.7673 14.6673,20.9896 15.7985,20.9896 0.3384,0 -1.8077,-3.15 -4.7691,-7 z m 61.9178,-34.0756 8.1741,-3.8302 -4.6667,-2.9026 c -9.2008,-5.7228 -36.9014,-12.1731 -52.3333,-12.1862 -9.0583,-0.01 -8.2397,2.4964 3.7713,11.5366 17.6215,13.263 28.6487,15.0698 45.0546,7.3824 z m 52.66,-21.2577 c -5.3534,-7.8683 -34.964,-37.4015 -51.8023,-51.6667 l -12.5908,-10.6666 6.9941,9.1326 c 3.8468,5.0229 8.1214,11.3419 9.499,14.0423 3.468,6.7978 5.333,18.2937 4.1736,25.7239 l -0.9727,6.2321 5.7733,1.4537 c 3.1752,0.7996 5.7732,1.98 5.7732,2.6231 0,0.6432 2.4122,2.1345 5.3603,3.3142 6.0092,2.4043 8.3175,2.7573 5.3064,0.8114 -1.5633,-1.0103 -1.2137,-1.297 1.6011,-1.3129 6.2286,-0.035 17.6866,2.8969 18.7985,4.8108 0.5864,1.0095 2.2652,1.8354 3.7307,1.8354 2.4329,0 2.29,-0.5503 -1.6444,-6.3333 z m -29.4026,-2.5775 c 0.9626,-0.3851 2.1126,-0.3378 2.5556,0.1052 0.4431,0.4431 -0.3445,0.7582 -1.75,0.7003 -1.5533,-0.064 -1.8692,-0.3799 -0.8056,-0.8055 z m -54.2265,-9.1875 c 2.2317,-1.1541 3.8519,-2.2928 3.6004,-2.5306 -0.2515,-0.2377 -7.6572,-2.3311 -16.4572,-4.6519 -8.8,-2.3208 -16.9708,-4.4974 -18.1575,-4.8368 -1.4524,-0.4154 -2.7093,0.7151 -3.8461,3.4597 -0.9288,2.2422 -1.3288,4.4366 -0.8891,4.8764 0.4399,0.4398 4.5706,1.8778 9.1795,3.1956 10.5679,3.0215 21.2895,3.2183 26.57,0.4876 z m -288.9968,-7.4616 c -0.6676,-1.0802 -0.1793,-1.2798 1.5879,-0.6491 5.771,2.0596 -4.706,-4.6634 -18.1146,-11.624 -20.121,-10.4452 -30.8893,-13.4931 -47.3333,-13.3974 -15.29,0.089 -18.0001,0.5938 -61.3333,11.4262 -30.4264,7.6059 -32.6682,7.9766 -45.5863,7.5377 -7.4725,-0.2538 -13.408,-0.2833 -13.1902,-0.065 0.2179,0.2178 4.7084,1.2952 9.9789,2.3941 12.8082,2.6706 23.3902,1.2797 61.538,-8.0887 45.3888,-11.1466 56.6708,-11.616 81.2523,-3.3805 12.4753,4.1796 31.4267,13.0987 30.2765,14.2489 -0.3689,0.3689 -3.612,-0.8197 -7.2069,-2.6414 -10.3349,-5.2371 -32.2305,-12.4293 -42.8601,-14.0785 -10.2738,-1.5941 -28.4311,-0.6 -25.3001,1.3851 1.3115,0.8315 1.0799,1.1793 -0.9021,1.3547 -1.4667,0.1297 6.0333,0.6769 16.6666,1.2158 21.614,1.0954 34.2824,3.8795 50.4745,11.0923 5.6057,2.4971 10.3776,4.6055 10.6042,4.6852 0.2266,0.08 -0.022,-0.5571 -0.552,-1.415 z m 214.4987,-1.9813 c -0.9027,-0.3652 -2.7027,-0.3875 -4,-0.05 -1.2972,0.3381 -0.5587,0.6369 1.6413,0.6641 2.2,0.027 3.2615,-0.2494 2.3587,-0.6147 z m -11.692,-1.9022 c -9.5786,-2.0418 -35.3334,-3.1229 -35.3334,-1.4833 0,1.4765 9.6301,2.2632 30.6667,2.5051 8.6319,0.099 9.2703,-0.041 4.6667,-1.0218 z m -139.3742,-8.5566 c 0,-0.7333 -0.5816,-0.4333 -1.2925,0.6667 -0.7109,1.1 -1.2925,2.6 -1.2925,3.3333 0,0.7334 0.5816,0.4334 1.2925,-0.6666 0.7109,-1.1 1.2925,-2.6 1.2925,-3.3334 z m 182.6023,-4.2273 c 2.2523,-4.1584 3.9473,-7.6699 3.7668,-7.8034 -3.0689,-2.2691 -7.2577,-2.8127 -17.534,-2.2751 -10.7647,0.563 -13.1943,0.2503 -20.2756,-2.61 -7.7215,-3.1189 -8.2841,-3.1658 -13.9771,-1.1669 -9.079,3.1878 -9.5024,3.6463 -7.3,7.9055 1.7403,3.3651 2.8879,3.803 13.7582,5.2503 6.5226,0.8685 17.2161,3.0179 23.7632,4.7765 6.547,1.7586 12.3086,3.2619 12.8036,3.3406 0.4949,0.079 2.7426,-3.2591 4.9949,-7.4175 z m -344.2559,4.0884 c -0.4431,-0.443 -1.5931,-0.4904 -2.5556,-0.1052 -1.0636,0.4257 -0.7477,0.7416 0.8056,0.8056 1.4055,0.058 2.193,-0.2573 1.75,-0.7003 z m 287.0278,-1.7056 c 0,-2.4633 -3.3335,-4.0991 -8.4311,-4.1373 -1.5982,-0.012 -2.2778,0.7778 -1.9837,2.3049 0.3776,1.9609 3.1642,3.1998 9.4148,4.1859 0.55,0.087 1,-0.9723 1,-2.3535 z m -281.6945,0.3723 c -0.443,-0.443 -1.593,-0.4904 -2.5555,-0.1052 -1.0637,0.4256 -0.7477,0.7416 0.8055,0.8056 1.4056,0.058 2.1931,-0.2573 1.75,-0.7003 z m 6.6667,-1.3333 c -0.4431,-0.4431 -1.5931,-0.4904 -2.5556,-0.1052 -1.0636,0.4256 -0.7477,0.7415 0.8056,0.8055 1.4055,0.058 2.193,-0.2572 1.75,-0.7003 z m 5.3333,-1.3334 c -0.443,-0.443 -1.593,-0.4904 -2.5555,-0.1052 -1.0637,0.4257 -0.7477,0.7416 0.8055,0.8056 1.4056,0.058 2.1931,-0.2573 1.75,-0.7003 z m 265.4495,-6.0613 c -1.18,-1.7771 -4.6629,-3.5698 -9.1626,-4.7161 -12.0912,-3.08 -23.9258,-10.3262 -23.9258,-14.6494 0,-2.5081 -2.6324,-2.1849 -7.7834,0.9555 l -4.4501,2.7131 -13.378,-12.8406 c -51.9266,-49.8404 -117.6765,-74.60072 -182.7218,-68.8099 -52.228,4.6497 -102.2112,23.5937 -124.3334,47.1235 l -6.6666,7.0908 6.6666,-6.1462 c 14.1209,-13.0184 34.0121,-23.6019 61.1291,-32.525 50.9426,-16.76302 99.2488,-17.64892 144.4178,-2.6485 31.7205,10.5342 57.9395,28.6124 67.5606,46.5834 2.37,4.4269 2.8926,7.6311 2.8926,17.7364 v 12.3334 l 4.6666,-0.012 c 5.2644,-0.013 30.0151,2.9087 62.6667,7.3979 12.1,1.6637 22.5232,3.0823 23.1627,3.1525 0.6394,0.07 0.306,-1.1623 -0.741,-2.7391 z m 101.0126,-6.203 c 1.5221,-1.2729 3.8422,-4.103 5.1558,-6.289 l 2.3884,-3.9744 -3.8225,4.161 c -2.1025,2.2886 -4.8727,4.5198 -6.156,4.9582 -1.2833,0.4384 -2.3333,1.4159 -2.3333,2.1723 0,1.9722 1.5898,1.6294 4.7676,-1.0281 z m -94.3754,-7.213 c 4.6002,-2.8209 4.9112,-3.4016 4.1334,-7.7171 -0.4627,-2.5667 -0.9203,-3.9167 -1.0168,-3 -0.096,0.9167 -1.34,1.6667 -2.7635,1.6667 -1.4233,0 -2.9588,0.6 -3.412,1.3333 -0.4532,0.7333 -1.9887,1.3333 -3.412,1.3333 -1.4235,0 -2.588,0.6 -2.588,1.3334 0,0.7333 -1.0074,1.3333 -2.2387,1.3333 -1.987,0 -10.8448,2.6116 -12.3309,3.6357 -1.0173,0.7009 4.7585,5.4075 7.367,6.0033 2.9566,0.6753 9.2266,-1.6081 16.2615,-5.9219 z m 42.9411,3.6162 c 0,-1.1 -1.1645,-2 -2.588,-2 -3.1013,0 -4.7817,2.1622 -2.4203,3.1142 3.1844,1.2839 5.0083,0.8781 5.0083,-1.1142 z m -21.3333,-3.3333 c -1.1,-0.7109 -2.6,-1.2925 -3.3334,-1.2925 -0.7333,0 -0.4333,0.5816 0.6667,1.2925 1.1,0.7109 2.6,1.2925 3.3333,1.2925 0.7334,0 0.4334,-0.5816 -0.6666,-1.2925 z m 80.9108,-6.9167 c -0.4256,-1.0636 -0.7416,-0.7477 -0.8056,0.8056 -0.057,1.4055 0.2573,2.193 0.7004,1.75 0.443,-0.4431 0.4904,-1.5931 0.1053,-2.5556 z m -137.025,-17.0833 c -0.048,-1.3187 -0.4636,-1.0917 -1.2192,0.6667 -1.5751,3.6654 -1.5751,5.7706 0,3.3333 0.7109,-1.1 1.2596,-2.9 1.2192,-4 z m 107.8184,-20.5654 c 3.8708,-7.9588 6.8279,-14.6802 6.5715,-14.9366 -0.2564,-0.2564 -4.4085,5.2596 -9.2269,12.2578 -5.9784,8.6828 -8.541,13.565 -8.0684,15.372 1.2449,4.7603 3.5792,1.9974 10.7238,-12.6932 z m -101.8622,11.8295 c 0.4554,-1.1866 0.2318,-1.7218 -0.524,-1.2547 -0.7249,0.4481 -1.318,1.3792 -1.318,2.0693 0,1.9179 0.9557,1.4953 1.842,-0.8146 z m 63.5456,-27.0697 c 4.5572,-8.0072 -1.2259,0.043 -8.3315,11.598 -3.4524,5.6142 -5.7361,10.3964 -5.0748,10.6271 0.6612,0.2307 0.9099,1.4307 0.5525,2.6666 -0.3573,1.236 1.7662,-2.7653 4.7187,-8.8917 2.9527,-6.1264 6.6133,-13.3264 8.1351,-16 z m -53.7851,8.6257 c 1.6147,-4.4327 2.769,-8.2264 2.5651,-8.4303 -0.4553,-0.4553 -10.1676,18.8025 -10.1676,20.1605 0,3.0147 5.095,-4.8466 7.6025,-11.7302 z m 474.5527,922.5695 c 7.4186,-1.0059 16.5946,-3.1651 20.3913,-4.7984 7.1537,-3.0775 17.0457,-12.8656 15.0345,-14.8768 -0.6105,-0.6105 -0.8261,-3.0449 -0.479,-5.4096 0.514,-3.5017 0.8001,-3.8175 1.5422,-1.7019 0.5158,1.47 0.9131,-0.8465 0.9155,-5.3358 0,-9.5692 1.6037,-14.8964 9.1835,-30.6004 13.6444,-28.2694 15.2568,-32.5819 15.2568,-40.8051 0,-8.2835 1.226,-9.8423 3.824,-4.8616 1.4512,2.7824 1.5072,2.7097 0.7717,-1 -0.4361,-2.2 -1.3141,-4.1885 -1.9512,-4.4189 -0.6371,-0.2304 -1.8845,-3.8304 -2.7721,-8 -1.2407,-5.8276 -2.8699,-8.8972 -7.0439,-13.2714 l -5.43,-5.6902 11.9673,-11.8146 c 6.5822,-6.498 185.0675,-177.567 396.6342,-380.1534 211.5666,-202.5864 390.5167,-374.098 397.6667,-381.1369 l 13,-12.7979 -0.049,59.3083 -0.049,59.3083 -150.8195,155.3334 c -82.9507,85.4333 -216.5784,223.111 -296.9507,305.9504 -80.3721,82.8393 -188.3618,194.1393 -239.977,247.3333 -51.6152,53.194 -94.5152,96.8795 -95.3334,97.0788 -0.8181,0.1995 -7.6292,-1.6253 -15.1357,-4.0551 l -13.6483,-4.4177 -1.2465,3.3884 c -0.6855,1.8637 -1.2731,2.4885 -1.3057,1.3885 -0.032,-1.1 1.7025,-6.4674 3.856,-11.9276 5.0738,-12.8648 4.2816,-13.6797 -1.0674,-1.0978 -2.2661,5.3306 -4.6046,9.5572 -5.1968,9.3922 -0.592,-0.1648 -3.947,-1.3648 -7.4557,-2.6666 -4.3104,-1.5992 -6.6887,-1.9115 -7.3333,-0.963 -2.3879,3.5138 -11.5559,9.0628 -18.5799,11.2458 -4.2391,1.3173 -13.1075,2.7344 -19.7075,3.1488 l -12,0.7534 z m 64.4706,-34.7229 c 0,-0.7334 -0.5816,-0.4334 -1.2925,0.6666 -0.7109,1.1 -1.2925,2.6 -1.2925,3.3334 0,0.7333 0.5816,0.4333 1.2925,-0.6667 0.7109,-1.1 1.2925,-2.6 1.2925,-3.3333 z m -88.2769,34.3902 c 1.6585,-0.3189 4.0585,-0.3068 5.3333,0.027 1.2747,0.3337 -0.083,0.5947 -3.0156,0.5799 -2.9333,-0.015 -3.9764,-0.2879 -2.3177,-0.6068 z m -9.3489,-1.2733 c 0.9166,-0.3699 2.4166,-0.3699 3.3333,0 0.9167,0.3699 0.1667,0.6725 -1.6667,0.6725 -1.8333,0 -2.5833,-0.3026 -1.6666,-0.6725 z m -48.1304,-17.2229 c -5.0062,-3.3584 -8.7774,-6.4307 -8.3807,-6.8275 0.3968,-0.3967 2.9991,1.0688 5.7829,3.2567 2.7838,2.188 7.0115,4.9757 9.3948,6.195 4.168,2.1323 5.4544,3.4818 3.3191,3.4818 -0.5577,0 -5.1101,-2.7478 -10.1161,-6.106 z m -16.8843,-16.894 c -1.4531,-2.3834 -2.6443,-4.8834 -2.6471,-5.5556 0,-1.5196 0.183,-1.2704 3.7092,4.8889 3.5062,6.124 2.6088,6.6872 -1.0621,0.6667 z m -416.3187,-138.1667 c -1.48,-6.6604 -1.3014,-10.3348 0.4189,-8.6145 0.7803,0.7804 1.2303,4.0504 1,7.2666 l -0.4189,5.8479 z m 22.184,-2.8785 c -8.2471,-1.634 -16.8487,-4.0679 -16.3035,-4.6131 0.2656,-0.2656 4.6761,0.4148 9.8012,1.512 11.1701,2.3913 32.6881,2.624 40.795,0.4409 8.7259,-2.3496 14.9564,-5.9172 19.6303,-11.2405 4.159,-4.7368 5.089,-7.0429 5.9369,-14.7208 l 0.4417,-4 1.6306,3.8587 c 4.3766,10.3574 -7.4067,23.4432 -25.4308,28.2413 -7.5419,2.0076 -27.5574,2.2936 -36.5014,0.5215 z m -33.2361,-5.9438 c 2.1714,-1.7745 4.2624,-2.9118 4.6468,-2.5276 0.8463,0.8464 -5.3827,5.798 -7.2613,5.7723 -0.7334,-0.013 0.4432,-1.4701 2.6145,-3.2447 z m 67.596,0.1968 c 13.8969,-4.9856 21.1228,-11.179 21.1228,-18.1045 0,-2.48 0.3803,-2.9231 1.5259,-1.7775 2.0421,2.0422 -0.506,8.1987 -5.2895,12.7794 -4.3421,4.1581 -13.6944,8.4021 -20.9031,9.4857 -4.2639,0.6409 -3.5532,0.1631 3.5439,-2.3831 z m -60.8068,-2.094 c -0.4293,-0.6946 -0.2122,-1.6141 0.4824,-2.0434 0.6946,-0.4294 1.6142,-0.2123 2.0435,0.4824 0.4293,0.6946 0.2122,1.6141 -0.4824,2.0434 -0.6946,0.4294 -1.6142,0.2123 -2.0435,-0.4824 z m 189.9296,-167.9865 c 7.7,-1.3835 15.6843,-3.1761 17.7428,-3.984 2.1656,-0.8497 3.4057,-0.9231 2.9428,-0.174 -1.3884,2.2464 -14.2981,5.4131 -24.6856,6.0551 l -10,0.6181 z m 102.3333,-26.3437 c 0.9167,-0.3699 2.4167,-0.3699 3.3334,0 0.9166,0.3698 0.1666,0.6725 -1.6667,0.6725 -1.8333,0 -2.5833,-0.3027 -1.6667,-0.6725 z m -6.6666,-1.3334 c 0.9166,-0.3698 2.4166,-0.3698 3.3333,0 0.9167,0.3699 0.1667,0.6726 -1.6667,0.6726 -1.8333,0 -2.5833,-0.3027 -1.6666,-0.6726 z m -157.6667,-64.4502 c 0.4532,-0.7334 1.424,-1.3334 2.1573,-1.3334 0.7334,0 0.9626,0.6 0.5094,1.3334 -0.4532,0.7333 -1.424,1.3333 -2.1574,1.3333 -0.7333,0 -0.9625,-0.6 -0.5093,-1.3333 z m 127.7051,-254.2693 c -3.1286,-0.6051 -5.6831,-6.9107 -5.6976,-14.0641 0,-3.1868 0.516,-3.6666 3.9925,-3.6666 3.786,0 4,0.2889 4,5.3995 0,2.9698 0.9155,7.1698 2.0343,9.3333 2.1468,4.1515 2.0352,4.2288 -4.3292,2.9979 z m 25.8053,-55.0641 c 0.4137,-9.9 0.1857,-21.4386 -0.5067,-25.6415 -1.3789,-8.3703 -0.1918,-19.8359 1.5556,-15.0251 0.5328,1.4666 1.53,3.7166 2.216,5 0.8042,1.5042 0.7695,2.3333 -0.097,2.3333 -0.7396,0 -1.3447,2.3518 -1.3447,5.2262 0,5.6513 -1.0425,4.9738 15.6184,10.1502 2.7728,0.8615 -0.4844,7.4809 -8.3357,16.9397 -4.2,5.0601 -7.2913,10.0953 -7.3031,11.8956 -0.013,1.7169 -0.5906,4.0216 -1.2876,5.1216 -0.8165,1.2886 -0.9996,-4.4026 -0.5149,-16 z m -10.7269,-41.1442 c -0.389,-0.6293 -5.3743,-1.8946 -11.0787,-2.8117 -11.9437,-1.9203 -19.1775,-4.961 -16.2323,-6.8233 1.0235,-0.6472 3.9608,-0.8339 6.5275,-0.4149 4.1565,0.6786 7.182,1.7436 16.6667,5.8672 1.4666,0.6376 4.0166,1.5375 5.6666,1.9997 1.65,0.4621 3,1.3998 3,2.0838 0,1.5613 -3.5977,1.6397 -4.5498,0.099 z m -34.3668,-11.7666 c 0.9625,-0.3851 2.1125,-0.3378 2.5556,0.1052 0.443,0.4431 -0.3446,0.7582 -1.75,0.7003 -1.5534,-0.064 -1.8692,-0.3799 -0.8056,-0.8055 z m -179.75,-104.4225 c 0,-0.7333 0.6,-1.3333 1.3333,-1.3333 0.7333,0 1.3333,0.6 1.3333,1.3333 0,0.7333 -0.6,1.3333 -1.3333,1.3333 -0.7333,0 -1.3333,-0.6 -1.3333,-1.3333 z M 0.0018,501.92058 V 0 h 1333.3334 1333.3334 v 31.333334 c 0,17.233334 -0.223,31.333334 -0.4954,31.333334 -0.2725,0 -34.3225,11.940364 -75.6667,26.534138 -73.0388,25.781374 -487.5393,172.143144 -919.838,324.798374 -116.9666,41.30379 -324.2666,114.50527 -460.6666,162.66995 -438.3298,154.78013 -577.9883,204.10164 -888.0001,313.60428 -167.2,59.05854 -308.05,108.77157 -313,110.47349 l -9,3.0943 z m 632.6667,69.25525 c 35.9333,-10.73436 65.7725,-19.9094 66.3092,-20.389 0.5368,-0.47958 -9.6632,-5.43204 -22.6666,-11.00544 -13.0035,-5.57341 -96.5752,-41.69238 -185.7151,-80.26441 l -162.0724,-70.13093 -12.2648,3.28228 c -56.3871,15.09017 -74.8837,35.99705 -50.6231,57.21965 9.4179,8.23856 16.925,11.91487 129.6994,63.51535 56.4667,25.83658 117.3667,53.75293 135.3334,62.03633 17.9666,8.2834 33.5666,15.10403 34.6666,15.15696 1.1,0.0529 31.4,-8.68643 67.3334,-19.42079 z m 198.6666,-71.15108 c 39.5133,-1.85133 64.004,-6.13077 82.1246,-14.3502 9.0127,-4.08814 16.4129,-10.39965 17.979,-15.33405 0.5159,-1.62557 2.1207,-4.55519 3.5661,-6.51025 2.2683,-3.06795 2.4198,-4.18595 1.1065,-8.16514 -0.8369,-2.53574 -3.6752,-7.12644 -6.3073,-10.20153 -2.6322,-3.07509 -4.4685,-5.9084 -4.0806,-6.29625 0.3878,-0.38784 15.6046,4.78436 33.8151,11.49376 l 33.1099,12.19893 50.4241,-15.09668 c 49.3756,-14.78275 50.3323,-15.13431 46.0101,-16.90712 -2.4277,-0.99575 -86.9141,-33.17697 -187.7474,-71.51384 C 800.5018,321.00551 691.6018,279.55899 659.3351,267.239 c -33.4195,-12.7602 -60.3262,-22.31032 -62.5229,-22.19162 -5.8614,0.3167 -25.4944,5.48201 -32.3305,8.50596 -8.6592,3.83036 -16.2279,11.08092 -17.249,16.52392 -1.2871,6.86057 3.5247,15.46142 12.8887,23.03824 6.967,5.63725 13.0173,8.2987 55.1837,24.27462 26.0474,9.86878 47.3598,18.4574 47.3611,19.08587 10e-4,0.62845 -1.0477,0.73293 -2.3311,0.23216 -8.7218,-3.40336 -92.0294,-1.46688 -115,2.67316 -53.842,9.70408 -79.8547,23.60659 -80.2945,42.91352 -0.6143,26.96638 41.209,54.58275 124.6808,82.32815 63.2321,21.01785 127.5445,33.08353 188.2804,35.32336 13.9333,0.51384 25.6333,1.02281 26,1.13105 0.3667,0.10827 12.6667,-0.36544 27.3333,-1.05264 z m -62.6666,-52.73013 c -19.3598,-2.27957 -48.1856,-8.81579 -67.9571,-15.40917 -22.1407,-7.38347 -67.4368,-29.73843 -76.0126,-37.51454 -5.89,-5.34074 -6.6364,-6.6287 -6.6364,-11.45237 0,-20.31316 45.0384,-27.22172 105.2727,-16.14807 19.3767,3.56227 43.4331,9.65624 54.8186,13.88666 5.0498,1.87632 16.6814,6.15089 25.8481,9.49904 23.9304,8.74065 38.9031,16.93644 46.8743,25.65821 9.4108,10.29693 11.0454,13.85077 8.5713,18.63519 -2.2003,4.25496 -12.5242,9.46217 -25.4186,12.82073 -9.7955,2.55139 -43.7913,2.56403 -65.3603,0.0243 z m 650.3334,18.062 c 26.2166,-9.03549 47.6666,-16.79343 47.6666,-17.23988 0,-1.27067 -384.3188,-229.85179 -387.5051,-230.47624 -2.1852,-0.42826 -96.2465,20.33333 -97.415,21.50181 -0.1443,0.14431 10.3537,6.52624 23.3289,14.18207 66.8296,39.4319 93.4395,54.72518 111.9988,64.36828 11.2241,5.83186 20.1844,10.82652 19.9117,11.09922 -0.2728,0.27272 -2.5016,-0.0793 -4.9531,-0.78245 -2.4514,-0.70307 -64.0558,-14.85929 -136.8987,-31.45831 l -132.4415,-30.18 -54.013,12.40734 c -29.7072,6.82404 -54.0115,12.74053 -54.0097,13.14777 0.001,0.40724 106.5917,22.64044 236.8663,49.40711 l 236.8631,48.66667 61.467,40.46305 c 33.8068,22.25468 65.367,43.05857 70.1337,46.23087 4.7666,3.1723 9.2666,5.6155 10,5.42933 0.7333,-0.18617 22.7833,-7.73116 49,-16.76664 z M 217.4135,385.50018 c 41.7003,-7.30831 52.7677,-20.24456 28.3399,-33.12559 -23.2173,-12.24277 -62.1015,-20.87561 -101.7516,-22.59029 -43.4809,-1.88035 -90.587,7.21477 -98.2066,18.96145 -1.5757,2.42916 -1.334,3.35156 2.0961,8 7.4968,10.15971 25.7196,18.28975 56.1719,25.0609 13.3466,2.96765 19.7076,3.97166 42.6053,6.72482 12.0534,1.44927 55.8991,-0.42945 70.745,-3.03129 z m 1282.6949,-75.64394 c 18.6415,-5.57908 34.7292,-10.6009 35.7507,-11.15962 1.1844,-0.64787 -3.6454,-2.8332 -13.3334,-6.03294 -56.4118,-18.63158 -158.8853,-53.95677 -172.1885,-59.35777 -20.8318,-8.45743 -26.637,-12.25112 -26.0835,-17.04544 1.1183,-9.68737 33.8658,-15.08195 61.9068,-10.19809 18.3467,3.1954 15.9296,2.4606 135.8414,41.29436 l 89.3333,28.93084 32.3333,-9.67162 c 17.7834,-5.31938 32.3334,-9.84413 32.3334,-10.05498 0,-0.37108 -87.327,-29.17704 -162.9822,-53.76184 -88.329,-28.7033 -126.8928,-36.56499 -179.0178,-36.49503 -39.9178,0.0536 -65.6771,4.16373 -74.1496,11.83129 -3.9066,3.53535 -3.0882,9.9508 2.6948,21.12619 2.8665,5.53945 4.8742,10.07175 4.4615,10.07175 -0.4128,0 -12.8695,-3.89399 -27.6816,-8.6533 l -26.9312,-8.65329 -7.197,2.11375 c -25.6368,7.52957 -22.8213,20.71232 8.6088,40.30764 6.0531,3.77385 35.3271,14.02913 128.6816,45.07976 66.4653,22.10701 121.494,40.25701 122.2859,40.33333 0.792,0.0764 16.692,-4.42592 35.3333,-10.00499 z m 300.0144,-90.9659 c 7.0332,-1.46348 15.8588,-3.57292 19.6125,-4.68766 14.0128,-4.16134 25.6087,-13.51302 25.5911,-20.63832 -0.029,-11.64149 -24.9367,-29.4608 -58.6579,-41.96425 -58.0354,-21.51887 -118.3734,-34.14983 -183.3333,-38.37839 -72.1005,-4.69338 -132.6667,7.30498 -132.6667,26.28172 0,7.02316 3.2828,11.97352 12.391,18.68503 36.2157,26.68633 130.0265,53.26452 220.2757,62.40788 27.3591,2.77181 79.7021,1.84919 96.7876,-1.70601 z m -89.8004,-25.59394 c -30.5329,-2.70313 -63.514,-9.92325 -97.7112,-21.39068 -28.5776,-9.58301 -45.652,-17.67468 -48.5776,-23.02121 -1.9173,-3.50371 -1.8556,-3.85755 1.0945,-6.28128 5.7332,-4.71024 13.1835,-5.94445 34.8738,-5.77717 28.1106,0.21678 60.3416,6.39136 101.2388,19.39457 34.2472,10.88881 58.2773,25.01144 54.089,31.78828 -3.1008,5.01723 -22.4216,7.28705 -45.0073,5.28749 z"
       id="path588" /></g></svg>
