<?xml version="1.0" encoding="UTF-8" standalone="no"?>
<!-- Created with Inkscape (http://www.inkscape.org/) -->

<svg
   version="1.1"
   id="svg9"
   width="2666.6667"
   height="2666.6667"
   viewBox="0 0 2666.6667 2666.6667"
   sodipodi:docname="hoodie_back0001.png"
   xml:space="preserve"
   xmlns:inkscape="http://www.inkscape.org/namespaces/inkscape"
   xmlns:sodipodi="http://sodipodi.sourceforge.net/DTD/sodipodi-0.dtd"
   xmlns="http://www.w3.org/2000/svg"
   xmlns:svg="http://www.w3.org/2000/svg"><defs
     id="defs13" /><sodipodi:namedview
     id="namedview11"
     pagecolor="#ffffff"
     bordercolor="#000000"
     borderopacity="0.25"
     inkscape:showpageshadow="2"
     inkscape:pageopacity="0.0"
     inkscape:pagecheckerboard="0"
     inkscape:deskcolor="#d1d1d1"
     showgrid="false" /><g
     inkscape:groupmode="layer"
     inkscape:label="Image"
     id="g15"><path
       style="fill:#000000;stroke-width:1.33333"
       d="m 24.7586,2602.8328 c 0.6966,-0.642 45.3666,-34.0572 99.2666,-74.256 113.8777,-84.9304 150.1447,-111.9999 350,-261.2381 81.4,-60.7839 201.4,-150.3787 266.6667,-199.0996 65.2667,-48.7208 145.0667,-108.3087 177.3333,-132.4174 32.2667,-24.1086 102.1556,-76.3056 155.3086,-115.9932 l 96.6419,-72.159 1.0066,4.8446 c 1.5576,7.497 21.2284,43.486 23.7684,43.486 2.8141,0 0.9194,-4.7882 -6.0241,-15.2236 -16.4685,-24.7506 -21.6506,-44.465 -15.1939,-57.8026 3.5681,-7.3708 21.4011,-22.8974 32.4926,-28.29 9.609,-4.672 17.7313,-5.9755 29.4294,-4.7227 l 8.732,0.9352 -0.8533,3.8852 c -0.649,2.9547 -0.3705,3.8852 1.1627,3.8852 1.1089,0 2.397,-1.2 2.8625,-2.6667 1.0203,-3.2148 2.4161,-3.3784 4.757,-0.5578 2.2532,2.715 16.4434,9.8934 19.5383,9.8838 1.3043,0 -1.5286,-2.3505 -6.2953,-5.2146 -4.7667,-2.8642 -10.1667,-6.8576 -12,-8.8744 -3.5491,-3.9043 -1.8822,-3.337 4.7046,1.6014 5.2205,3.9142 15.1976,8.4283 18.7107,8.4656 1.5117,0.016 4.0366,-1.1706 5.6109,-2.6373 3.3324,-3.1047 4.0337,-3.2823 3.9489,-1 -0.2633,7.0905 0.4943,8.7865 4.5572,10.2029 7.0187,2.4467 7.801,2.0126 7.801,-4.3296 0,-7.1268 1.6464,-8.7565 14.2738,-14.13 19.4582,-8.2801 33.2316,-10.0806 42.1872,-5.5149 2.9354,1.4967 4.8134,1.9124 4.5168,1 -2.0338,-6.2531 -21.3415,-7.3084 -36.3111,-1.9847 -14.8257,5.2727 -15.0151,5.3155 -8,1.8087 9.2752,-4.6364 24.5219,-7.8132 34.1555,-7.1163 9.3036,0.673 7.265,-1.3389 -2.4811,-2.4485 -8.4011,-0.9565 -23.3213,2.3113 -36.4309,7.9792 l -10.5768,4.5728 v -7.896 c 0,-11.3228 2.3601,-15.7216 12.9829,-24.1973 10.729,-8.5606 20.0832,-18.7507 21.1635,-23.0548 0.4137,-1.6486 2.523,-3.7308 4.6872,-4.6274 2.1642,-0.8964 4.5934,-2.8976 5.3982,-4.447 1.4499,-2.7911 1.434,-2.7903 -1.7176,0.095 -4.0862,3.7398 -9.573,5.7967 -14.9344,5.5987 -3.2864,-0.1213 -2.7585,-0.4059 2.335,-1.2583 7.1038,-1.1889 11.682,-3.9778 15.9801,-9.7346 3.1309,-4.1935 3.5032,-15.9071 0.7689,-24.1922 -0.878,-2.6602 -1.3253,-5.1078 -0.9941,-5.439 0.3313,-0.3312 5.9013,2.2166 12.3779,5.6621 11.2874,6.0045 12.346,6.2957 25.5312,7.0248 7.5656,0.4184 13.7553,0.3732 13.755,-0.1 -8e-4,-1.1996 -12.5544,-9.1389 -14.4505,-9.1389 -0.8525,0 -1.55,-0.4603 -1.55,-1.0228 0,-2.1156 59.6667,-45.6439 62.5665,-45.6439 8.0107,0 -3.2772,-9.1355 -13.8998,-11.2495 -3.2456,-0.646 -2.8684,-0.2356 2,2.176 l 6,2.9722 -5.3247,0.4838 c -8.7995,0.7996 -54.3775,-10.5624 -66.1919,-16.5008 -7.6017,-3.8208 -36.7656,-12.5696 -44.1557,-13.2461 -2.9795,-0.2727 -5.8175,-1.1433 -6.3065,-1.9347 -0.9965,-1.6122 -39.9292,-13.9041 -40.9155,-12.9177 -0.3464,0.3463 1.2132,1.0345 3.4656,1.5292 2.2524,0.4947 4.0953,1.3865 4.0953,1.982 0,0.5953 6.9333,3.2852 15.4072,5.9773 8.474,2.6923 15.7382,5.7575 16.1427,6.8116 0.4045,1.0542 1.5712,1.9167 2.5928,1.9167 1.0215,0 1.8573,0.6115 1.8573,1.3588 0,0.7687 -1.3907,1.0096 -3.2028,0.5548 -2.7419,-0.6881 -3.3303,-0.2233 -4.0888,3.2297 -1.4448,6.5782 2.9255,12.3234 5.6589,7.4391 1.6273,-2.9079 3.6984,-0.087 4.6933,6.3932 0.9748,6.3493 -0.7217,7.39 -4.4079,2.7037 -1.5918,-2.0236 -3.2898,-3.5693 -3.7734,-3.4348 -0.4836,0.1344 -5.6813,-4.3656 -11.5506,-10 -21.3443,-20.4906 -27.1159,-25.3192 -31.3852,-26.2569 -3.2785,-0.7201 -3.8609,-1.2517 -2.4543,-2.2404 1.2905,-0.9071 0.7099,-1.0476 -1.9342,-0.4683 -2.7455,0.6016 -3.5086,0.3915 -2.7915,-0.7688 0.6929,-1.1212 0.1305,-1.3729 -1.8883,-0.8449 -1.5813,0.4135 -2.8752,0.3177 -2.8752,-0.2129 0,-0.5306 -4.65,-2.056 -10.3333,-3.39 -5.6833,-1.3339 -11.2333,-2.7002 -12.3333,-3.0363 -1.5983,-0.4881 -1.6411,-0.354 -0.2131,0.6679 1.1941,0.8545 1.9572,5.2852 2.3002,13.355 0.595,13.9986 3.2315,27.854 7.9274,41.6604 1.8253,5.3668 3.3188,10.4852 3.3188,11.3744 0,0.8892 -27.75,21.0932 -61.6667,44.8979 -110.3895,77.4775 -905.5387,635.8303 -1092.6365,767.248 -51.5002,36.1728 -93.9502,65.7695 -94.3334,65.7695 -0.3832,0 -0.6804,-28.95 -0.6605,-64.3334 l 0.036,-64.3333 58.6315,-39.3333 c 63.0704,-42.3112 259.0064,-173.8836 467.2959,-313.7927 71.1334,-47.7805 151.6844,-101.8737 179.0024,-120.2072 27.318,-18.3335 90.918,-61.0352 141.3333,-94.8928 50.4154,-33.8576 115.6643,-77.6707 144.9977,-97.3621 248.1737,-166.5999 231.9709,-155.4304 228.7362,-157.6803 -7.3616,-5.1207 -13.8265,-11.6508 -16.4741,-16.6407 -4.6376,-8.74 -3.8102,-25.1236 2.799,-55.4242 5.5372,-25.3863 9.0632,-46.3202 7.9837,-47.3996 -0.337,-0.3371 -152.66,95.1753 -338.4955,212.2498 -185.8355,117.0742 -458.7008,288.977 -606.3673,382.0059 -147.6666,93.0289 -268.7166,169.1435 -269,169.1435 -0.2835,0 -0.4992,-29.25 -0.4795,-65 l 0.036,-65 58.9641,-35.1963 c 32.4303,-19.3579 264.7641,-158.5105 516.2975,-309.2279 251.5333,-150.7174 484.7833,-290.4457 518.3333,-310.5073 49.8508,-29.8088 61.0372,-37.0172 61.2034,-39.4387 0.1118,-1.6297 0.6515,0.6368 1.1994,5.0368 1.8242,14.6492 5.1183,22.6335 8.1142,19.6667 2.6824,-2.6563 16.9175,-2.0159 23.7123,1.0667 9.0651,4.1126 5.635,5.6976 -8.5231,3.9382 -6.4358,-0.7997 -11.9796,-1.176 -12.3195,-0.836 -1.4134,1.4134 6.4124,4.9724 12.5257,5.6964 5.1054,0.6047 7.7818,0.168 11.9245,-1.9453 6.5743,-3.354 7.0669,-4.0008 11.8712,-15.5867 2.1286,-5.1333 6.4192,-13.0588 9.5348,-17.612 l 5.6646,-8.2786 -3.271,-5.7214 c -2.2007,-3.8492 -3.2456,-7.6846 -3.1934,-11.7213 0.043,-3.3 0.4855,-5.1 0.984,-4 1.9236,4.2449 7.5548,2.151 16.9138,-6.2895 14.3583,-12.949 29.7264,-19.8433 34.2189,-15.3508 2.1205,2.1206 -0.282,5.3183 -4.645,6.1824 -4.98,0.9862 -29.4543,12.8803 -34.1473,16.5949 l -3.2326,2.5587 4.3625,5.5082 c 5.7619,7.2749 7.2801,7.845 17.1186,6.4281 6.5001,-0.9361 9.209,-2.0621 12.2308,-5.0839 2.1348,-2.1348 4.8276,-3.8814 5.984,-3.8814 1.1564,0 2.1026,-0.6312 2.1026,-1.4027 0,-0.7715 1.7403,-2.0094 3.8674,-2.7509 2.9758,-1.0374 4.0715,-2.4361 4.7526,-6.0669 0.4869,-2.5953 1.2177,-4.3863 1.624,-3.9799 1.4192,1.4191 0.5672,10.9055 -1.4003,15.5928 -2.2391,5.3344 -11.4194,15.9409 -13.7973,15.9409 -0.859,0 -2.4118,1.2135 -3.4506,2.6965 -1.187,1.6947 -2.7012,2.3848 -4.0756,1.8574 -2.9254,-1.1226 -2.8058,1.6154 0.1464,3.3554 2.0351,1.1995 2.0777,1.5462 0.3334,2.7126 -1.6144,1.0794 -1.3833,1.3412 1.198,1.3577 3.1807,0.02 3.1937,0.08 2.3923,11.0204 -1.0141,13.8449 -4.0323,23.9791 -8.6583,29.0719 -4.153,4.572 -7.5862,5.0992 -17.0892,2.6246 -5.0679,-1.3197 -8.2196,-1.4226 -12.2484,-0.4001 l -5.4245,1.3769 2.5817,-4.8169 c 1.5795,-2.9471 2.5817,-7.4384 2.5817,-11.57 0,-9.6001 -3.1481,-11.9595 -11.0571,-8.2864 -4.4908,2.0856 -4.5606,3.3772 -0.2411,4.4613 5.7197,1.4355 7.8347,9.6428 4.4175,17.1426 -1.2225,2.683 -2.5522,3.4182 -6.3333,3.5013 -4.4192,0.097 -4.5305,0.194 -1.4527,1.2616 1.8334,0.6359 5.9653,1.8337 9.1822,2.6619 l 5.8488,1.5056 -0.8872,9.546 c -0.9503,10.2238 -5.6673,35.4388 -10.9151,58.3468 -4.2687,18.6336 -4.3428,33.1952 -0.206,40.4986 3.8319,6.7651 8.7937,9.5744 20.091,11.3755 5.0125,0.7992 10.4125,2.2559 12,3.2372 5.12,3.1649 57.9456,20.1801 59.0921,19.0336 0.3284,-0.3284 -1.3309,-1.2691 -3.6872,-2.0905 -7.0113,-2.4442 -3.5285,-3.0803 8.1274,-1.4843 6.0088,0.8227 12.7844,1.0875 15.0568,0.5883 2.6785,-0.5883 8.666,-5.2463 17.0223,-13.2428 13.6885,-13.0991 24.9568,-21.2819 44.9416,-32.636 6.7833,-3.8539 12.3333,-7.3507 12.3333,-7.7707 0,-0.42 -3.712,-4.1987 -8.2489,-8.3971 l -8.2491,-7.6334 -7.7158,5.2397 c -10.1106,6.866 -60.0853,35.4869 -67.7862,38.8219 -3.3,1.4289 -12.4961,4.3108 -20.4359,6.4041 -14.3865,3.7928 -18.8576,5.8692 -17.4707,8.1132 1.3787,2.2308 -1.5775,1.1784 -7.8323,-2.7884 -3.4436,-2.1839 -6.2611,-4.5751 -6.2611,-5.3139 0,-0.7386 3.2138,-3.9018 7.1417,-7.0293 3.9279,-3.1273 12.6642,-10.6732 19.4139,-16.7685 18.557,-16.7579 41.1268,-30.6075 67.807,-41.6084 5.6672,-2.3368 10.8114,-4.7247 11.4314,-5.3063 0.62,-0.5817 -2.2458,-3.6044 -6.3686,-6.7172 -4.1228,-3.1127 -7.2531,-5.9024 -6.9562,-6.1993 0.2968,-0.297 3.4004,0.1805 6.8968,1.0609 4.8587,1.2235 8.5107,3.6324 15.4955,10.2215 7.3027,6.8889 9.1385,8.0713 9.1385,5.8854 0,-1.8082 1.0168,-2.8952 3,-3.2066 2.7818,-0.437 2.6604,-0.6938 -1.6666,-3.5292 -3.3606,-2.2023 -3.7918,-2.8063 -1.5404,-2.1584 7.5069,2.1606 27.941,5.9398 32.2037,5.9558 4.7744,0.017 28.6809,7.3286 31.6553,9.6802 2.3963,1.8946 0.8523,3.5492 -6.0876,6.5241 -9.9638,4.2709 -10.2572,4.8709 -4.9173,10.0569 5.5876,5.4267 5.8987,8.7916 1.2015,12.9987 -5.312,4.7577 -6.8724,6.362 -11.1115,11.4243 -3.8257,4.5686 -3.9505,4.6106 -5.9467,2 -1.1214,-1.4667 -2.058,-3.4167 -2.0813,-4.3334 -0.023,-0.9166 -0.7115,-1.6666 -1.5292,-1.6666 -0.8179,0 -3.5179,-2.2172 -6,-4.9272 -2.4823,-2.71 -4.5132,-4.3192 -4.5132,-3.5762 0,0.7431 -6.8975,5.4551 -15.3276,10.4712 -18.4624,10.9854 -28.9451,19.228 -35.5252,27.9342 -7.1253,9.4276 -7.2608,11.7962 -1.3711,23.9705 0.546,1.1287 -4.2732,0.7492 -15.7761,-1.2421 -8.8481,-1.5319 -1.0179,1.6098 18.2841,7.336 10.4228,3.0921 19.672,5.3816 20.5536,5.0877 0.8816,-0.2939 -2.8113,-3.5013 -8.2065,-7.1276 -17.9975,-12.0964 -18.8516,-17.6363 -4.892,-31.7269 4.5435,-4.5862 5.4379,-5.3072 1.9876,-1.6024 -3.4503,3.7049 -7.2177,9.0086 -8.3721,11.7861 -1.9247,4.6309 -1.9147,5.4383 0.12,9.7268 1.2206,2.5721 4.8841,6.5101 8.141,8.7511 7.4783,5.1452 27.5712,14.6252 33.7174,15.9082 2.5666,0.5358 8.2145,1.6803 12.5508,2.5435 4.3362,0.8631 19.3362,4.8727 33.3333,8.91 24.4369,7.0488 25.9265,7.3143 37.4492,6.6719 14.2717,-0.7956 26.7493,-4.4696 26.4969,-7.8022 -0.093,-1.2322 1.6974,-3.9322 3.9792,-6 2.2819,-2.0676 3.1995,-2.5593 2.0392,-1.0926 -1.1604,1.4666 -2.6161,3.5666 -3.2352,4.6666 -0.9836,1.7482 -0.8301,1.7604 1.2186,0.097 3.1561,-2.5624 7.0936,-10.0862 4.6114,-8.8116 -0.9772,0.5017 -0.7268,0.052 0.5566,-1.0003 1.2833,-1.0519 2.3333,-2.576 2.3333,-3.3869 0,-0.811 0.8561,-3.4448 1.9027,-5.8531 1.0464,-2.4081 2.2134,-5.3916 2.5933,-6.6299 0.6403,-2.0868 1.3856,-2.0546 10.1953,0.4384 5.2276,1.4794 10.3918,2.3494 11.4759,1.9332 1.2569,-0.4822 1.6291,-0.2026 1.0269,0.7718 -0.6424,1.0393 -0.024,1.2874 1.9326,0.7757 1.826,-0.4775 2.5601,-0.2396 2.0096,0.6511 -0.5738,0.9284 0.3658,1.0938 2.7765,0.4889 2.5795,-0.6475 3.3679,-0.4677 2.6987,0.6151 -0.6531,1.0565 -0.069,1.2514 1.8882,0.6301 1.5584,-0.4945 2.8336,-0.4089 2.8336,0.1905 0,0.5995 1.35,1.15 3,1.2234 4.393,0.1956 16.3338,1.578 27,3.1258 5.1334,0.745 13.2334,1.4658 18,1.6018 l 8.6667,0.2472 -10,0.804 -10,0.804 -84.2899,65.6418 c -46.3594,36.1031 -84.7948,65.6419 -85.4117,65.6419 -0.6169,0 -1.8676,-5.25 -2.7793,-11.6667 -0.9118,-6.4166 -2.7503,-14.0666 -4.0858,-17 L 1407.03,1614 l -1.0213,3.8293 c -1.7614,6.6042 0.5064,28.1414 4.1913,39.806 2.9389,9.3034 3.3721,12.7458 2.916,23.1734 -0.7997,18.284 -5.6051,25.0133 -26.416,36.9921 -5.4497,3.1368 -8.4364,6.0763 -11.6667,11.482 -2.388,3.9963 -4.3372,7.8924 -4.3316,8.6583 0,0.7657 2.4056,2.7601 5.3334,4.4321 2.9277,1.6719 5.323,3.9219 5.323,5 0,3.7113 2.3862,1.9356 9.9074,-7.3732 7.6898,-9.5176 11.9856,-13.1483 5.507,-4.6544 -2.5936,3.4004 -3.0922,4.8571 -1.8249,5.3309 0.9592,0.3587 18.5368,4.8168 39.0616,9.907 31.1672,7.7294 37.6499,8.968 39.3333,7.5146 1.7723,-1.5301 141.4159,-117.5649 197.343,-163.9793 l 20.6605,-17.1464 0.9429,3.8472 c 0.5187,2.1159 3.0412,16.7407 5.6055,32.4995 4.5885,28.1978 4.6223,28.6948 2.1261,31.3333 -1.395,1.4745 -36.4309,31.7809 -77.8577,67.3476 -41.4267,35.5667 -75.1615,65.2473 -74.9663,65.9571 0.1954,0.7097 15.5668,5.669 34.1588,11.0209 18.592,5.3519 51.7387,15.7308 73.6595,23.0643 l 39.8559,13.3334 8.9426,-7.9477 c 7.3142,-6.5004 9.4014,-9.2973 11.4618,-15.3588 1.3854,-4.076 2.7172,-7.2128 2.9594,-6.9707 0.2422,0.2423 -1.0558,7.5063 -2.8846,16.1424 -1.8288,8.6362 -3.3251,17.0836 -3.3251,18.7724 0,2.3315 -0.5939,2.9151 -2.4679,2.425 -1.3573,-0.355 -3.4573,0.3441 -4.6666,1.5534 -2.6234,2.6234 -3.0694,5.698 -0.5322,3.668 0.9167,-0.7333 2.9839,-1.7368 4.5936,-2.2298 2.7171,-0.8323 2.886,-0.5331 2.354,4.1701 l -0.5729,5.0667 1.454,-4.6667 c 0.7996,-2.5667 1.7805,-5.5667 2.1796,-6.6667 0.3991,-1.1 0.9539,-3.2 1.2327,-4.6666 1.8277,-9.6132 6.6054,-28.5963 9.9521,-39.542 2.1651,-7.0814 4.0971,-15.4814 4.2932,-18.6667 0.4219,-6.8503 3.1521,-12.6863 5.048,-10.7904 0.8273,0.8273 -0.598,7.4279 -3.9899,18.4764 -4.5774,14.9109 -7.6784,30.4547 -10.0792,50.5227 -0.3509,2.9333 -1.4609,9.0272 -2.4666,13.542 l -1.8286,8.2086 4.7483,-0.7493 c 2.6116,-0.412 4.9484,-1.256 5.1928,-1.8753 0.2445,-0.6194 1.0299,-1.126 1.7455,-1.126 0.7154,0 0.9566,0.5568 0.5361,1.2373 -0.4205,0.6805 0.294,1.5796 1.588,1.998 2.7913,0.9024 6.7511,6.5223 13.9041,19.7328 6.3423,11.7133 5.4311,7.2207 -1.6197,-7.9859 -6.3039,-13.5954 -10.3035,-19.3808 -12.7495,-18.4421 -1.1132,0.4272 -1.8489,-0.1607 -1.8489,-1.4769 0,-1.2027 -1.05,-3.4235 -2.3333,-4.9352 -2.0995,-2.4732 -2.1054,-2.5726 -0.059,-0.9903 3.2941,2.5464 4.58,1.0987 5.4349,-6.1193 0.4164,-3.5162 2.874,-13.8836 5.4615,-23.039 2.5873,-9.1553 5.3896,-20.1673 6.2272,-24.471 1.2727,-6.5391 1.8129,-7.5251 3.2876,-6 2.4279,2.5106 -1.7733,26.6045 -6.7116,38.4916 -1.9803,4.7666 -4.7611,12.4245 -6.1797,17.0174 l -2.5794,8.3507 5.7256,6.6487 c 3.1491,3.6566 6.4412,6.6488 7.3159,6.6492 0.8747,4e-4 8.3485,2.0496 16.6088,4.5538 l 15.0185,4.5534 5.3912,-2.7207 5.3912,-2.7205 -4.6666,4.2042 c -2.5667,2.3124 -8.2216,6.8878 -12.5664,10.1674 -8.7878,6.6334 -9.0179,8.0861 -0.3406,2.1505 10.5284,-7.2017 14.0422,-8.5173 18.5504,-6.9459 5.7598,2.0079 8.134,1.8175 7.1659,-0.5749 -0.4452,-1.1 -1.1399,-2.8124 -1.5439,-3.8052 -1.0218,-2.5113 12.6362,-6.1948 22.9694,-6.1948 6.3721,0 9.0758,0.6896 12.9125,3.2932 3.6056,2.4468 4.8527,2.7973 4.8527,1.364 0,-2.8759 -6.297,-6.4593 -13.2182,-7.522 l -6.1152,-0.9391 6.2062,0.2354 c 7.3402,0.2781 7.2968,-1.1639 -0.073,-2.409 -4.9364,-0.834 -16.4862,0.6272 -22.0654,2.7918 -2.5763,0.9994 -2.5763,0.9696 0,-3.4275 1.4833,-2.5317 7.7498,-7.9751 14.5989,-12.6813 12.0991,-8.3138 13.5631,-9.8982 27.8964,-30.192 7.9003,-11.1856 14.1036,-24.9795 14.1036,-31.3611 0,-8.8307 -12.5857,-18.9045 -30.6667,-24.5461 -6.8121,-2.1256 -7.3637,-2.6076 -7.7617,-6.7806 -0.4499,-4.7182 -2.9049,-8.7797 -2.9049,-4.806 0,5.2978 -10.6851,6.4387 -25.8464,2.7598 -7.8742,-1.9106 -11.0034,-2.012 -22,-0.7135 -7.0512,0.8327 -17.1531,2.8212 -22.4487,4.4189 -7.8743,2.3759 -9.9997,2.597 -11.6667,1.2135 -1.121,-0.9304 -2.0382,-2.3381 -2.0382,-3.1283 0,-0.9361 0.5576,-0.8792 1.6,0.1632 2.1554,2.1555 6.3194,2.0279 7.1821,-0.22 0.3841,-1.0009 -4.4791,-18.2509 -10.8069,-38.3333 -11.6952,-37.1161 -23.801,-81.7143 -22.904,-84.3792 0.2716,-0.8071 1.2773,1.8325 2.2348,5.8659 3.2629,13.7438 11.8114,36.6268 23.411,62.6666 6.37,14.3 13.557,31.4 15.9708,38 l 4.389,12 5.1282,-0.345 c 2.8206,-0.1898 15.2307,-0.3159 27.578,-0.2804 12.3475,0.036 23.678,-0.3252 25.1792,-0.8018 2.4836,-0.7882 2.6594,-1.6157 1.9516,-9.1945 -0.9618,-10.3005 -7.4734,-36.3989 -13.024,-52.2011 -11.3882,-32.4208 -25.0958,-50.5786 -51.0828,-67.6665 -25.3717,-16.6833 -34.0256,-28.7225 -46.9973,-65.3817 -3.8711,-10.9399 -7.6619,-20.5144 -8.424,-21.2766 -0.9588,-0.9588 -1.3857,1.4354 -1.3857,7.7699 0,5.0355 -0.3011,8.8544 -0.6691,8.4864 -0.596,-0.596 -5.6751,-26.4653 -6.6944,-34.0969 -0.5512,-4.1272 3.7775,-17.8754 7.7768,-24.6998 3.3288,-5.6801 30.9848,-32.5028 36.574,-35.472 3.4456,-1.8304 11.1944,-2.3757 13.5009,-0.9502 1.0123,0.6256 -6.9421,9.3842 -22.2877,24.5414 -17.2555,17.0438 -24.8445,25.5204 -27.4119,30.6182 -1.9526,3.8772 -4.1289,6.6917 -4.8361,6.2546 -3.2073,-1.9822 0.4689,5.4586 4.6257,9.3627 1.5616,1.4667 6.7066,9.5667 11.4332,18 11.7924,21.0399 23.357,32.5557 42.7019,42.5217 24.4672,12.605 31.2363,18.7246 39.3735,35.5958 5.7958,12.0166 15.3172,45.3576 21.2896,74.5492 2.5505,12.4666 5.1904,23.8666 5.8662,25.3333 0.676,1.4667 1.4402,3.4685 1.6983,4.4487 0.2691,1.0218 17.5171,-14.0575 40.4308,-35.3474 21.9789,-20.4212 86.7616,-80.6125 143.9616,-133.7584 57.2,-53.1458 141.8,-131.7546 188,-174.686 46.2,-42.9313 160.5,-149.1115 254,-235.9559 93.5,-86.8444 182.6956,-169.77954 198.2123,-184.30012 15.5168,-14.5206 28.5668,-26.401 29,-26.401 0.4333,0 0.7877,9.8116 0.7877,21.8036 v 21.80368 l -14.3333,14.0073 c -7.8833,7.704 -187.7334,180.06474 -399.6667,383.02364 -211.9333,202.959 -389.8183,373.4339 -395.2999,378.8331 l -9.9665,9.8168 5.4992,5.6893 c 3.2376,3.3496 5.9016,7.6086 6.4776,10.356 0.5381,2.5667 2.0985,6.7578 3.4673,9.3136 1.369,2.5558 2.451,6.1558 2.4044,8 -0.081,3.2186 -0.1306,3.2382 -1.2398,0.4895 -0.6355,-1.5749 -1.8922,-3.3188 -2.7927,-3.8753 -1.2537,-0.775 -1.4381,0.6681 -0.7873,6.163 0.7594,6.4126 0.3756,8.0994 -3.612,15.8754 -2.4539,4.7853 -5.2223,11.0541 -6.152,13.9306 -0.9296,2.8766 -3.9822,9.4791 -6.7834,14.6722 -5.9702,11.0685 -9.3518,24.1256 -8.4641,32.6814 0.4825,4.6494 0.3167,5.4544 -0.7035,3.4163 -1.1774,-2.3524 -1.3208,-2.1953 -1.2164,1.3333 0.1876,6.345 0.035,6.7707 -3.8134,10.619 -4.927,4.9268 -12.4026,8.5761 -22.2024,10.8381 l -8.1484,1.8809 7.3333,-0.7521 c 8.6131,-0.8833 21.1957,-6.1815 25.4597,-10.7204 3.6468,-3.8819 6.3998,-4.0049 13.102,-0.5857 l 5.1222,2.6132 3.473,-7.739 c 1.9102,-4.2565 5.0322,-11.8824 6.9378,-16.9465 1.9054,-5.0641 3.7625,-9.5063 4.1266,-9.8715 1.5087,-1.5128 -1.6696,8.2419 -7.1224,21.8602 -3.1997,7.9912 -5.5608,14.7865 -5.2466,15.1005 0.314,0.314 0.9316,-0.5656 1.3725,-1.9547 0.7623,-2.4016 1.4728,-2.3074 14.4551,1.9152 7.5094,2.4427 14.3061,4.284 15.1038,4.0919 0.7978,-0.192 81.7748,-83.1491 179.9491,-184.3491 98.1743,-101.2 255.6177,-263.5 349.8744,-360.6666 94.2565,-97.1667 189.6795,-195.496 212.0508,-218.5097 l 40.6754,-41.843 0.3662,21.4861 0.3663,21.4861 -316.3584,335.0235 c -173.9971,184.263 -338.1119,358.0448 -364.6996,386.1818 -26.5876,28.137 -48.3412,51.6393 -48.3412,52.2274 0,0.588 1.95,1.4903 4.3333,2.005 11.2961,2.4392 21.1227,6.3208 24.8751,9.826 5.6062,5.2372 5.4654,10.3464 -0.5298,19.2241 -5.0608,7.4943 -25.4988,30.6836 -29.5214,33.4959 -9.4088,6.5776 -31.3707,16.1125 -53.4546,23.2076 -10.3198,3.3156 -13.842,5.5225 -8.8137,5.5225 4.4272,0 0.7772,1.2524 -11.5989,3.9797 -6.9428,1.5299 -13.6734,3.1008 -14.9567,3.4908 -1.5324,0.4658 -2.3333,-0.013 -2.3333,-1.3838 0,-1.8196 -2.4818,-2.0491 -19,-1.7566 -10.45,0.1851 -20.3655,-0.1588 -22.0343,-0.7641 -2.6093,-0.9467 -3.2344,-0.5267 -4.4637,3 -0.7863,2.2553 -1.952,4.1007 -2.5906,4.1007 -0.6386,0 -0.8386,-0.8403 -0.4445,-1.8674 0.8084,-2.1066 -8.0579,-4.3298 -14.5799,-3.6558 -2.1153,0.2186 -4.4637,-0.4583 -5.3333,-1.5374 -2.0433,-2.5354 -28.7148,-7.9994 -33.7001,-6.9038 -2.6467,0.5816 -3.284,0.4457 -2.0351,-0.4336 1.3125,-0.9242 -2.2115,-2.5963 -12.6667,-6.0106 -39.8214,-13.0037 -44.3489,-12.8998 -42.5617,0.9776 0.8399,6.5207 0.7928,6.6543 -1.3071,3.7092 -1.6224,-2.2756 -2.064,-5.2949 -1.7305,-11.8333 l 0.4475,-8.7781 -15.3334,-5.7559 c -84.5276,-31.7297 -153.5922,-56.0153 -200,-70.3268 -51.896,-16.0045 -141.8708,-40.9177 -147.774,-40.9177 -1.5904,0 -2.8917,-0.535 -2.8917,-1.1888 0,-0.6539 -1.4735,-1.5587 -3.2745,-2.0107 -1.801,-0.452 -4.8199,-1.4093 -6.7086,-2.1275 -3.3267,-1.2648 -3.3654,-1.4104 -1.2388,-4.656 2.8431,-4.339 1.0603,-4.3521 -2.3496,-0.017 -1.4422,1.8333 -3.4445,3.3333 -4.4497,3.3333 -1.0052,0 -2.6116,1.0963 -3.5699,2.4362 -0.9582,1.3397 -2.9415,3.0972 -4.4072,3.9052 -2.1791,1.2013 -1.5768,1.3644 3.3042,0.8942 6.1951,-0.5968 15.1954,1.5412 14.0808,3.3447 -0.3508,0.5677 0.921,2.4693 2.8262,4.2259 3.3957,3.1308 7.1204,10.1553 7.1204,13.4286 0,0.9096 -2.55,-0.8428 -5.6666,-3.8941 -6.8253,-6.6821 -13.5129,-9.674 -21.6239,-9.674 -6.2753,0 -7.0596,-0.942 -4.6042,-5.5301 1.3851,-2.588 1.1661,-2.654 -5.887,-1.7728 -6.6969,0.8368 -27.2316,-1.4616 -25.805,-2.8882 0.3231,-0.323 4.1462,-0.015 8.4958,0.6862 4.3495,0.7005 9.9744,0.787 12.4996,0.1924 4.2426,-0.9991 4.0343,-1.093 -2.742,-1.2359 -8.9236,-0.1883 -13.5725,-1.3192 -12.5072,-3.0429 1.9231,-3.1116 -17.557,-16.4388 -27.5301,-18.8346 -1.8539,-0.4453 -6.6962,-3.392 -10.7607,-6.5481 -8.847,-6.8699 -17.5541,-11.0212 -20.6359,-9.8385 -1.7937,0.6882 -2.0932,1.9934 -1.4923,6.5034 0.5447,4.0886 0.3903,4.9999 -0.5606,3.3091 -0.7218,-1.2833 -1.8952,-2.3333 -2.6075,-2.3333 -1.1616,0 -66.0267,50.2481 -428.5724,331.9961 -57.2,44.4523 -182.3,141.6499 -278,215.9948 -95.7,74.3448 -203.1858,157.8607 -238.8574,185.5908 l -64.8574,50.4186 h -81.7426 c -46.8181,0 -81.2014,-0.4987 -80.4759,-1.1674 z m 1769.5723,-707.6383 c -0.4431,-0.443 -1.5931,-0.4904 -2.5556,-0.1053 -1.0636,0.4256 -0.7478,0.7416 0.8056,0.8056 1.4054,0.057 2.193,-0.2573 1.75,-0.7004 z m -16,-1.3333 c -0.4431,-0.4431 -1.5931,-0.4904 -2.5556,-0.1053 -1.0636,0.4256 -0.7478,0.7416 0.8056,0.8056 1.4054,0.057 2.193,-0.2574 1.75,-0.7004 z m -10.6667,-1.3333 c -0.4431,-0.4431 -1.5931,-0.4904 -2.5556,-0.1054 -1.0636,0.4256 -0.7477,0.7416 0.8056,0.8056 1.4055,0.057 2.1931,-0.2573 1.75,-0.7004 z m -42.4167,-13.0746 c -2.2741,-2.2381 -14.9196,-10.2004 -15.4142,-9.7056 -0.3419,0.3419 2.8426,2.7886 7.0768,5.437 6.842,4.2797 9.9822,5.8876 8.3374,4.2686 z m -24.7621,-22.844 c -0.4343,-1.1316 -1.0755,-1.7716 -1.4251,-1.4221 -0.3494,0.3496 -0.24,1.2755 0.2435,2.0576 1.3147,2.1272 2.0832,1.714 1.1816,-0.6355 z m -415.7445,-141.4837 c -0.4882,-2.6021 -1.2085,-4.4104 -1.6007,-4.0183 -0.3921,0.3923 -0.2648,3.3036 0.2829,6.4696 0.5478,3.1662 1.2681,4.9743 1.6007,4.0183 0.3326,-0.956 0.2053,-3.8673 -0.2829,-6.4696 z m 57.3376,1.4956 c 16.1209,-4.1497 25.9468,-13.266 25.9468,-24.0729 0,-7.9703 -2.1999,-8.5419 -2.9471,-0.7656 -0.8279,8.6162 -5.2037,14.1384 -15.0167,18.9501 -13.3869,6.5643 -37.6905,7.7235 -55.2813,2.6368 -4.8708,-1.4084 -7.5048,-0.8771 -2.8987,0.5849 14.6069,4.636 37.7666,5.8664 50.197,2.6667 z m -66.8172,-5.3164 c 1.4131,-1.0691 2.3041,-2.2089 1.98,-2.5331 -0.324,-0.324 -2.0802,0.5564 -3.9026,1.9567 -1.8224,1.4001 -2.7134,2.54 -1.9801,2.5331 0.7333,-0.013 2.4895,-0.8875 3.9027,-1.9567 z m 73.4852,-1.1272 c 6.1134,-2.8468 13.9454,-10.0564 13.9454,-12.8373 0,-0.6172 0.3642,-2.0711 0.8094,-3.2311 0.445,-1.16 0.145,-2.1091 -0.6667,-2.1091 -0.8119,0 -1.476,1.2088 -1.476,2.6863 0,4.3956 -8.0656,11.8091 -16.6667,15.3191 -4.4,1.7956 -6.8,3.273 -5.3333,3.2833 1.4667,0.013 5.6912,-1.3897 9.3879,-3.1112 z m 122.6121,-167.4343 c 4.6397,-0.9597 4.8132,-1.1132 1.3333,-1.1797 -2.2,-0.043 -6.4,0.42 -9.3333,1.0267 -4.6397,0.9597 -4.8132,1.1132 -1.3333,1.1797 2.2,0.043 6.4,-0.42 9.3333,-1.0267 z m 9.6389,-2.2154 c -0.443,-0.4431 -1.593,-0.4904 -2.5556,-0.1054 -1.0636,0.4256 -0.7477,0.7416 0.8056,0.8056 1.4055,0.057 2.1931,-0.2573 1.75,-0.7004 z M 457.3586,2603.4015 c 0,-0.552 96.1386,-80.5695 646.3553,-537.9704 l 199.0219,-165.4491 7.107,0.8353 c 8.3002,0.9755 14.3805,-1.3305 20.99,-7.9605 5.2509,-5.2672 7.8591,-11.2648 7.8591,-18.0716 0,-3.7873 0.7606,-5.8332 2.6642,-7.1665 2.3726,-1.6619 6.6936,-0.727 39.5153,8.5509 20.2683,5.7293 37.0471,10.6127 37.2863,10.8519 0.2392,0.239 -65.3832,57.1072 -145.8276,126.3733 -152.62,131.4129 -285.8463,246.1544 -536.6837,462.2207 l -149.0455,128.3847 h -64.6212 c -35.5416,0 -64.6211,-0.2694 -64.6211,-0.5987 z m 401.3333,1e-4 c 0,-0.6305 65.4016,-61.5064 413.3375,-384.7348 50.9156,-47.3 139.5384,-129.65 196.9395,-183 57.4012,-53.35 105.3516,-97 106.5566,-97 1.9983,0 50.9422,17.7265 54.8347,19.8601 1.0713,0.5871 -62.8659,62.7438 -178.6667,173.6912 -99.1842,95.0272 -250.5349,240.0491 -336.3349,322.2707 l -156,149.4939 -50.3334,0.013 c -27.6833,0 -50.3333,-0.2606 -50.3333,-0.5898 z m 336.8725,-1.0677 c 0.9461,-1.5309 423.5866,-437.4768 518.0255,-534.3338 35.8222,-36.7394 40.6784,-42.2088 38.7719,-43.6666 -1.96,-1.4988 -1.9021,-1.6667 0.5753,-1.6667 1.5151,0 4.7798,-0.3495 7.2548,-0.7767 l 4.5,-0.7765 -3.2836,2.6629 -3.2837,2.6631 4.9403,0.9268 c 6.5012,1.2196 9.3841,0.069 8.3098,-3.3153 -0.6642,-2.0932 -0.072,-2.7962 2.9082,-3.4502 2.0582,-0.4517 5.482,-1.3716 7.608,-2.0444 5.2553,-1.6628 6.1344,-1.5514 6.1344,0.777 0,5.3196 6.5718,0.1481 9.7689,-7.6872 l 1.7597,-4.3128 18.7848,-0.075 18.7848,-0.075 -4.8825,5.5974 c -2.6853,3.0785 -129.3515,137.3621 -281.4803,298.4078 l -276.5978,292.8109 h -39.8142 c -31.5068,0 -39.5993,-0.3478 -38.7843,-1.6663 z m 277.9643,-0.6515 c 1.9067,-2.4149 99.9182,-113.6152 245.9231,-279.0156 120.336,-136.3215 477.4499,-540.9265 673.1476,-762.6667 90.9325,-103.0333 187.7897,-212.8333 215.2383,-244 27.4485,-31.1666 51.9197,-58.7566 54.3804,-61.3111 l 4.4739,-4.6444 v 20.721 20.7209 l -164.2661,190.5902 c -149.2472,173.1645 -293.5485,340.5818 -798.376,926.2694 l -168.642,195.6541 h -31.8545 c -30.0688,0 -31.752,-0.1294 -30.0247,-2.3178 z m 265.9458,-2.6521 c 2.0964,-2.7665 65.9565,-82.7302 141.9113,-177.6968 75.9549,-94.9667 152.2079,-190.3667 169.4512,-212 17.2433,-21.6334 157.0221,-196.5334 310.6197,-388.6667 153.5976,-192.1333 284.961,-356.4681 291.9185,-365.1885 l 12.6501,-15.8552 0.3685,19.4404 0.3686,19.4404 -70.2921,89.7481 c -88.4197,112.8933 -385.6804,492.4901 -514.5578,657.0815 -53.6887,68.5666 -142.2574,181.6666 -196.8192,251.3333 l -99.2034,126.6667 -25.1134,0.3635 -25.1136,0.3633 z m 228.4936,-0.6968 c 2.2953,-3.1167 160.2972,-220.3411 351.1153,-482.721 l 346.9419,-477.0541 0.37,17.9049 0.37,17.9051 -230.9444,323.1492 c -127.0195,177.732 -276.504,386.8992 -332.1882,464.8159 l -101.2436,141.6667 h -19.2973 -19.2972 z m 208.8798,4 c 1.6359,-2.7821 380.5246,-576.6304 455.3588,-689.6667 l 34.4261,-52 0.029,16.4611 0.029,16.4612 -227.5737,349.5388 c -125.1655,192.2464 -229.1155,352.07 -231,355.1635 l -3.4263,5.6245 -14.412,0.043 c -11.1721,0.032 -14.1917,-0.3326 -13.432,-1.6246 z m 183.3802,0.5752 c 0.255,-0.6645 69.1638,-115.1963 153.1305,-254.5148 l 152.6667,-253.3066 0.3784,13.7815 0.3783,13.7815 -102.2513,171.6749 c -56.2381,94.4212 -120.6453,202.5749 -143.1272,240.3416 l -40.876,68.6667 -10.3817,0.3917 c -5.8297,0.22 -10.1783,-0.138 -9.9177,-0.8165 z m 185.8944,-10.5004 c 3.517,-6.4577 32.084,-58.8372 63.4821,-116.3988 l 57.0874,-104.6574 v 11.5432 11.5432 l -56.4893,104.4475 -56.489,104.4475 -6.993,0.4081 -6.993,0.4083 z m -847.2464,-565.9558 c -7.3459,-3.636 -11.031,-9.3676 -10.5474,-16.4046 0.3344,-4.867 0.7328,-5.3623 5.0299,-6.254 6.3253,-1.3128 18.6667,4.064 18.6667,8.1325 0,1.5072 -0.6735,2.7404 -1.4966,2.7404 -1.0384,0 -0.9916,0.6085 0.1526,1.9871 0.9992,1.204 2.8277,1.6913 4.6396,1.2366 2.6821,-0.6732 2.9673,-0.2885 2.7669,3.7311 -0.1227,2.4649 -0.6728,5.2085 -1.2217,6.0968 -1.593,2.5773 -11.6563,1.8693 -17.99,-1.2659 z m -0.8508,-18.4524 c -0.4532,-0.7333 -1.424,-1.3333 -2.1574,-1.3333 -0.7333,0 -0.9625,0.6 -0.5093,1.3333 0.4532,0.7334 1.424,1.3334 2.1573,1.3334 0.7334,0 0.9626,-0.6 0.5094,-1.3334 z m 37.6633,5.6039 c 0.7645,-10.7876 1.4417,-11.66 1.5648,-2.0159 0.057,4.54 -0.3919,8.5618 -0.9993,8.9372 -0.6075,0.3755 -0.8619,-2.739 -0.5655,-6.9213 z m 3.4788,0.4137 c 0.4719,-1.2296 0.8579,-3.0302 0.8579,-4.0014 0,-1.1312 2.5162,-2.078 7,-2.6342 3.85,-0.4774 10,-1.489 13.6666,-2.248 5.0802,-1.0514 8.4002,-0.937 13.9507,0.4806 l 7.284,1.8602 -12.6173,3.4899 c -6.9396,1.9195 -16.7534,3.8945 -21.8086,4.3892 -8.2604,0.8083 -9.1044,0.6729 -8.3333,-1.3363 z m 53.5245,-3.3509 c 0.4532,-0.7333 1.0887,-1.3333 1.412,-1.3333 0.3235,0 0.588,0.6 0.588,1.3333 0,0.7333 -0.6354,1.3333 -1.412,1.3333 -0.7766,0 -1.0412,-0.6 -0.588,-1.3333 z m -490.0086,-115.9124 c -6.8978,-2.0983 -12.15,-5.6644 -13.4783,-9.1515 -2.5032,-6.5713 -1.8653,-11.1508 2.0187,-14.4916 4.3678,-3.757 6.5974,-4.0024 5.5199,-0.6073 -0.6067,1.9116 0,2.6551 2.5455,3.1425 1.8371,0.3512 3.6697,0.309 4.0725,-0.093 1.0582,-1.0581 5.997,-1.6795 5.997,-0.7545 0,0.4297 -1.2599,2.376 -2.7997,4.325 l -2.7997,3.5436 4.7997,0.4139 c 4.6985,0.4051 4.7997,0.5341 4.7997,6.1193 0,4.82 -0.527,5.9456 -3.3961,7.2528 -1.8678,0.8511 -3.5178,1.4958 -3.6666,1.4327 -0.1489,-0.063 -1.7745,-0.572 -3.6126,-1.1311 z m -52.2414,-44.9984 c 0.9625,-0.3852 2.1125,-0.3379 2.5556,0.1053 0.443,0.4431 -0.3445,0.7583 -1.75,0.7004 -1.5533,-0.064 -1.8692,-0.38 -0.8056,-0.8056 z m -1.134,-7.1839 c -1.4437,-2.6977 -1.3987,-2.7096 1.9531,-0.5133 3.9235,2.5708 4.2412,3.2747 1.4778,3.2747 -1.0742,0 -2.6181,-1.2427 -3.4309,-2.7614 z m -6.616,-1.3173 c 0,-0.7767 0.6,-1.0412 1.3334,-0.588 0.7333,0.4532 1.3333,1.0887 1.3333,1.412 0,0.3235 -0.6,0.588 -1.3333,0.588 -0.7334,0 -1.3334,-0.6355 -1.3334,-1.412 z M 0.346,1771.9609 l 0.3459,-65.4798 30.6667,-16.384 c 27.9834,-14.9506 252.8919,-134.6996 908.6666,-483.806 130.9001,-69.6855 238.4007,-127.3142 238.8903,-128.0637 0.5065,-0.7754 4.3541,2.0425 8.9274,6.5383 l 8.0371,7.9011 -2.5623,11.3333 c -2.9965,13.2537 -3.0472,13.7512 -1.2924,12.6667 0.7333,-0.4532 1.3333,-0.1938 1.3333,0.5766 0,2.1515 -14.2312,67.8933 -18.9246,87.4234 -5.857,24.3716 -6.2394,18.6017 -0.4964,-7.4893 2.6171,-11.8898 4.4819,-21.8942 4.1441,-22.2321 -0.3379,-0.3378 -77.2888,42.5856 -171.002,95.3854 C 494.1295,1559.3367 5.6501,1834.464 3.0126,1835.8536 L 0,1837.4408 Z m 1217.6793,62.865 c -2.9334,-1.3471 -6.5095,-3.7706 -7.947,-5.3855 -2.2279,-2.5031 -2.3263,-3.1181 -0.6667,-4.1679 3.142,-1.9874 4.1816,-1.5573 13.1039,5.4208 7.935,6.2059 8.2402,6.6383 4.6667,6.6108 -2.103,-0.016 -6.2236,-1.1313 -9.1569,-2.4782 z m 546.0086,-50.6234 c 11.2216,-3.799 26.4136,-14.3672 38.9914,-27.1238 5.6833,-5.7642 10.3333,-9.8875 10.3333,-9.1628 0,0.7246 -1.2824,4.7901 -2.8499,9.0342 -5.4013,14.6252 -12.7549,22.6223 -23.66,25.7302 -5.9878,1.7065 -27.623,3.15 -22.8148,1.5222 z m -13.2784,-9.9972 c -0.1026,-6.0968 3.7858,-17.6532 7.1664,-21.3009 3.1442,-3.3927 18.4192,-9.0087 23.9104,-8.7909 1.5728,0.063 -0.1404,0.8798 -3.807,1.8165 -10.4704,2.6748 -13.5955,4.2975 -16.9106,8.7815 -1.6992,2.2982 -2.9688,4.5785 -2.8212,5.067 0.1476,0.4886 -0.5412,2.1236 -1.5304,3.6335 -0.9893,1.5099 -2.7313,5.4099 -3.8713,8.6667 -1.8105,5.1728 -2.0807,5.4417 -2.1363,2.1266 z m -450.7302,-81.4446 c 0,-0.3667 1.2,-1.309 2.6666,-2.0939 1.4667,-0.7849 2.6667,-1.1272 2.6667,-0.7605 0,0.3666 -1.2,1.3089 -2.6667,2.0938 -1.4666,0.785 -2.6666,1.1272 -2.6666,0.7606 z m 402.8772,-76.7606 c 0,-1.8333 0.3026,-2.5833 0.6725,-1.6666 0.3699,0.9166 0.3699,2.4166 0,3.3333 -0.3699,0.9167 -0.6725,0.1667 -0.6725,-1.6667 z m -408.8258,-0.4264 c -2.5644,-1.9121 -2.5399,-2.0588 1.2636,-7.5472 5.1824,-7.4782 13.4544,-14.5953 24.7924,-21.3312 5.2896,-3.1424 10.979,-7.805 13.1048,-10.7397 l 3.757,-5.1861 2.0334,5.1766 2.0334,5.1767 -11.1847,11.9863 c -6.1515,6.5925 -11.1858,12.4898 -11.1872,13.1053 0,0.6155 -2.8934,3.0892 -6.4267,5.4973 -7.6314,5.201 -14.4486,6.6487 -18.186,3.862 z m 407.3871,-5.6846 c 0.064,-1.5534 0.38,-1.8692 0.8056,-0.8056 0.3852,0.9625 0.3379,2.1125 -0.1053,2.5556 -0.4431,0.443 -0.7583,-0.3446 -0.7004,-1.75 z m 84.6209,-32.1234 c -4.876,-17.3121 -9.2728,-25.701 -19.598,-37.3918 -7.3369,-8.3072 -13.0966,-19.0146 -13.111,-24.3738 0,-1.8333 1.2381,-9.6333 2.7624,-17.3333 2.6677,-13.4769 2.8124,-27.2771 0.3586,-34.2215 -0.6106,-1.7285 -0.4346,-2.054 0.6006,-1.1104 3.3258,3.0316 8.5716,20.903 11.1189,37.8804 1.6601,11.0646 4.9477,25.1258 8.4447,36.1182 3.1493,9.9 6.4362,21 7.3041,24.6666 0.868,3.6667 2.4827,10.1706 3.5884,14.453 2.6376,10.2158 1.3605,11.3573 -1.4687,1.3126 z m 0.6072,-13.2854 c 0,-1.936 -2.6246,-14.086 -5.8324,-27 -5.152,-20.7408 -8.6506,-38.5239 -6.6524,-33.8135 0.3888,0.9167 1.2847,1.6667 1.9907,1.6667 1.2335,0 226.5124,-186.6939 232.9915,-193.0855 3.7134,-3.6633 0.9173,-4.1189 37.0497,6.0372 23.9823,6.7408 26.5476,7.7283 23.7927,9.1575 -1.6983,0.881 -65.5124,55.3669 -141.8091,121.0797 -76.2967,65.7128 -139.3533,119.4777 -140.1259,119.4777 -0.7726,0 -1.4048,-1.584 -1.4048,-3.5198 z M 0.0313,1497.7567 l 0.01,-65.0899 174.9939,-81.9135 c 244.0872,-114.2554 423.9542,-198.4861 623.6606,-292.0566 94.2333,-44.1521 172.2333,-80.62574 173.3333,-81.05244 1.1,-0.4267 -0.803,2.2529 -4.229,5.9546 -11.891,12.8484 -18.7864,32.67704 -16.5396,47.56204 1.0817,7.1661 2.2743,6.8757 4.7682,-1.1609 2.8559,-9.2031 9.617,-20.7014 14.7599,-25.1013 5.4032,-4.6227 28.8217,-16.66384 42.5739,-21.89034 25.7389,-9.7821 45.7838,-13.8021 69.3333,-13.9047 28.6831,-0.1249 43.9384,5.2204 59.3334,20.7903 10.7052,10.82684 16.985,21.85304 27.355,48.03034 8.2887,20.9234 10.4185,25.1652 19.4986,38.8332 3.9305,5.9166 7.1464,11.2548 7.1464,11.8626 0,0.6079 -5.55,-4.236 -12.3334,-10.7642 -13.0999,-12.6072 -32.0251,-28.202 -46.5284,-38.3406 -13.4887,-9.4293 -26.9579,-15.2977 -39.2097,-17.0835 -17.8439,-2.6007 -48.7454,2.4813 -103.2619,16.9822 -14.4259,3.8373 -19.7208,4.6762 -26.6667,4.2252 -4.7666,-0.3096 -9.8666,-1.0434 -11.3333,-1.6308 -5.8283,-2.3342 8.0185,9.9645 14.5235,12.8996 6.0051,2.7096 8.9016,3.0739 24.5099,3.0824 l 17.7002,0.01 -95.0335,47.3147 C 866.1275,1131.3379 639.4625,1244.5052 414.6958,1356.7976 189.9291,1469.0901 4.6791,1561.3889 3.0291,1561.9061 l -3,0.9404 z m 1254.1587,60.1918 c -1.2867,-3.3529 -0.9071,-4.218 0.6647,-1.515 0.7782,1.3384 1.1341,2.7142 0.7908,3.0574 -0.3433,0.3434 -0.9983,-0.3508 -1.4555,-1.5424 z m -4,-10.6666 c -0.4573,-1.1916 -0.7934,-2.8675 -0.7469,-3.7242 0.047,-0.8566 0.6594,-0.12 1.362,1.636 0.7026,1.7564 1.0387,3.4323 0.7469,3.7242 -0.2919,0.2918 -0.9048,-0.4444 -1.362,-1.636 z m -2.7362,-9.377 c -0.4904,-1.954 -0.6345,-3.81 -0.3202,-4.1242 0.3143,-0.3143 0.9727,1.0273 1.4631,2.9813 0.4904,1.954 0.6345,3.81 0.3202,4.1243 -0.3142,0.3142 -0.9726,-1.0274 -1.4631,-2.9814 z m 223.5968,-2.8288 c 1.2973,-0.338 3.0973,-0.3158 4,0.049 0.9028,0.3652 -0.1587,0.6417 -2.3587,0.6146 -2.2,-0.027 -2.9385,-0.326 -1.6413,-0.6641 z m -225.5867,-5.187 c 0.064,-1.5534 0.3799,-1.8692 0.8055,-0.8056 0.3852,0.9625 0.3378,2.1125 -0.1052,2.5556 -0.443,0.443 -0.7582,-0.3446 -0.7003,-1.75 z m 183.8947,-3.2316 c -15.326,-4.1122 -37.4291,-11.6016 -57.5584,-19.5032 -10.0239,-3.9348 -19.1399,-7.1542 -20.2577,-7.1542 -2.8559,0 -6.1839,-5.2184 -6.1839,-9.6962 0,-5.4436 2.9133,-10.2959 10.2305,-17.0396 3.5394,-3.2619 6.4355,-6.3508 6.4356,-6.8642 3e-4,-0.5133 0.8386,-1.7133 1.8628,-2.6666 1.5362,-1.4298 1.6788,-1.4112 0.8144,0.1066 -0.7133,1.2524 -0.4565,1.6426 0.8044,1.2223 1.0188,-0.3396 1.8523,-1.2675 1.8523,-2.0619 0,-0.7944 0.5461,-1.9444 1.2137,-2.5556 0.7052,-0.6454 0.8119,-0.4126 0.2547,0.5556 -1.3797,2.3978 0.2445,2.0616 5.3825,-1.1138 2.4744,-1.5294 4.1855,-3.2879 3.8023,-3.9079 -0.3832,-0.62 0,-1.5615 0.8644,-2.0921 0.9749,-0.6026 1.2039,-0.3868 0.6097,0.5745 -1.1824,1.9131 -0.071,1.9595 3.331,0.1391 1.439,-0.7702 2.2898,-1.9287 1.8906,-2.5746 -0.3992,-0.6458 -0.023,-1.6084 0.8354,-2.139 0.9749,-0.6026 1.2038,-0.3868 0.6097,0.5745 -1.4081,2.2784 0.34,1.88 5.3576,-1.2211 7.9409,-4.9077 7.4681,-1.2344 -0.6061,4.7095 -7.9559,5.8568 -14.9156,16.4705 -14.8495,22.646 0.053,5.028 4.8392,13.3477 10.8535,18.8693 15.7486,14.4584 46.737,25.0615 60.23,20.6084 6.3381,-2.0918 13.4901,-10.589 15.5388,-18.462 0.8984,-3.4525 1.9236,-7.3708 2.2781,-8.7072 0.4451,-1.6778 1.3293,-2.1345 2.8573,-1.4756 1.2172,0.5248 6.713,1.9819 12.213,3.2379 12.2378,2.7948 25.3377,6.8876 25.3208,7.9109 -0.013,0.4162 -1.7635,3.8094 -3.9036,7.5406 -3.5046,6.11 -4.8611,7.1892 -13.6542,10.8618 -5.3697,2.243 -13.663,5.7412 -18.4297,7.774 -11.6669,4.9756 -26.0083,5.6583 -40,1.9042 z m -186.5614,-10.1018 c 0.064,-1.5533 0.3799,-1.8692 0.8055,-0.8056 0.3852,0.9626 0.3378,2.1126 -0.1052,2.5556 -0.443,0.4431 -0.7581,-0.3445 -0.7002,-1.75 z m 364.8947,-2.772 c 0.9167,-0.3698 2.4167,-0.3698 3.3334,0 0.9166,0.3699 0.1666,0.6726 -1.6667,0.6726 -1.8333,0 -2.5833,-0.3027 -1.6667,-0.6726 z m -39,-4.5325 c -18.1349,-3.3972 -53.0381,-13.6989 -53.761,-15.8676 -0.7363,-2.2087 1.182,-1.8168 21.0944,4.3093 25.6964,7.9058 48.0453,12.1151 64,12.0543 13.4837,-0.052 15.6364,-0.4685 32.6666,-6.332 1.5036,-0.5177 1.151,-0.033 -0.8085,1.1089 -12.7357,7.429 -38.4859,9.3552 -63.1915,4.7271 z m -326.9201,-5.9177 c 0.01,-4.4 0.2564,-6.0392 0.5531,-3.6428 0.2968,2.3965 0.2906,5.9965 -0.014,8 -0.3042,2.0036 -0.547,0.043 -0.5395,-4.3572 z m 394.2535,-1.2395 c 0,-0.3667 1.2,-1.3089 2.6666,-2.0939 1.4667,-0.7849 2.6667,-1.1272 2.6667,-0.7605 0,0.3667 -1.2,1.3089 -2.6667,2.0939 -1.4666,0.7849 -2.6666,1.1272 -2.6666,0.7605 z m -43.3334,-3.9315 c -22.8021,-7.4554 -35.3333,-17.507 -35.3333,-28.3418 0,-6.6896 5.2977,-14.8824 15.5668,-24.0731 16.6995,-14.946 20.7968,-22.7932 27.2257,-52.1432 2.2764,-10.3928 6.5919,-24.4619 10.429,-34 3.6001,-8.9489 6.8201,-17.1709 7.1558,-18.2709 0.4852,-1.5904 2.5572,-1.9094 10.1186,-1.5572 8.5244,0.397 9.5646,0.742 10.0536,3.3333 2.595,13.7544 6.6985,27.8923 10.0734,34.706 l 4.0539,8.1845 -0.6928,-8.6666 -0.6928,-8.6667 2.7097,5.3333 c 2.9364,5.7795 2.7036,4.7759 -2.141,-9.2336 -1.7563,-5.0784 -3.1932,-10.2848 -3.1932,-11.5698 0,-3.4644 6.392,-7.8632 11.4264,-7.8632 8.7301,0 10.6794,1.7152 15.1632,13.3417 7.8181,20.2732 7.1756,21.8439 -9.0944,22.2335 -9.6722,0.2314 -10.1514,0.393 -11.2886,3.8048 -1.4662,4.3988 1.449,8.7877 9.7112,14.62 5.078,3.5845 6.6727,3.9918 15.3546,3.9221 l 9.688,-0.077 -3.2758,10.7445 c -4.2664,13.9936 -12.4401,34.5811 -19.2668,48.5279 -15.3492,31.3585 -44.2564,45.3561 -73.7512,35.7124 z m -351.0734,-6.829 c 0.027,-2.2 0.326,-2.9386 0.6641,-1.6414 0.338,1.2974 0.3158,3.0974 -0.05,4 -0.3652,0.9028 -0.6418,-0.1586 -0.6146,-2.3586 z m 247.0734,-2.0266 c -18.3786,-4.3298 -17.5117,-4.8793 2.9112,-1.8452 7.879,1.1706 16.2982,1.808 18.7094,1.4168 4.0089,-0.6506 4.2657,-0.4905 3.0014,1.8718 -1.805,3.3729 -4.966,3.1876 -24.622,-1.4434 z m -22.3333,-4.8565 c 0.9167,-0.3699 2.4167,-0.3699 3.3333,0 0.9167,0.3699 0.1667,0.6725 -1.6666,0.6725 -1.8334,0 -2.5834,-0.3026 -1.6667,-0.6725 z m -12.3333,-6.3368 c -13.495,-2.2281 -20.559,-4.1764 -29.5332,-8.1453 -7.9972,-3.5367 -9.3528,-5.0852 -2.809,-3.2084 6.6828,1.9166 29.7575,1.5258 34.7183,-0.5879 7.3953,-3.1511 10.9557,-8.1635 10.8479,-15.2715 -0.052,-3.4285 -0.575,-8.4696 -1.162,-11.2024 -0.9947,-4.6297 -0.8135,-5.065 2.657,-6.3845 2.0484,-0.7788 10.9746,-2.9396 19.836,-4.8016 19.1008,-4.0137 26.4063,-6.982 33.0036,-13.4095 6.6788,-6.5068 10.6827,-16.082 18.3943,-43.9905 3.6137,-13.0783 6.6029,-23.1785 6.6427,-22.4452 0.04,0.7333 -2.5975,13.3333 -5.8604,28 -3.263,14.6667 -7.5379,34.0647 -9.4999,43.1067 -3.3503,15.4394 -3.8832,16.7378 -8.7563,21.3333 -4.7218,4.4528 -5.2937,5.7475 -6.3534,14.3815 -1.3675,11.1424 -4.5228,18.5036 -9.2624,21.6092 -4.4815,2.9362 -37.401,3.569 -52.8632,1.0161 z m 64.8685,-10.7801 c -0.04,-4.107 4.7729,-20.2654 4.9643,-16.6667 0.059,1.1 -1.0259,6.2 -2.4096,11.3333 -1.6626,6.168 -2.5291,7.9768 -2.5547,5.3334 z m -302.2019,-2.9063 c -13.2345,-6.8464 -12.4632,-8.7812 9.788,-24.5515 2.6833,-1.9017 10.8787,-5.7409 18.212,-8.5314 7.3334,-2.7906 21.4334,-9.1232 31.3334,-14.0727 17.3195,-8.6589 27.441,-13.2715 29.1217,-13.2715 0.4379,0 -6.6854,3.7698 -15.8295,8.3774 -18.395,9.2688 -38.009,21.3318 -52.8678,32.5149 -14.7077,11.0693 -17.5076,15.5609 -12.8844,20.6695 2.9807,3.2936 1.0805,2.98 -6.8734,-1.1347 z m 462.6667,-11.0937 c 1.3273,-1.4667 2.7133,-2.6667 3.08,-2.6667 0.3667,0 -0.4193,1.2 -1.7467,2.6667 -1.3273,1.4666 -2.7133,2.6666 -3.08,2.6666 -0.3666,0 0.4194,-1.2 1.7467,-2.6666 z m 6.3221,-23.6192 c 2.1043,-6.4428 4.1678,-15.3142 4.5855,-19.7142 0.7545,-7.9466 0.7889,-8.0016 5.1569,-8.2314 2.4184,-0.1267 9.2108,-2.3174 15.0942,-4.867 11.0605,-4.793 42.1344,-22.1817 51.508,-28.8234 2.9333,-2.0784 9.5333,-6.0222 14.6666,-8.7638 5.1334,-2.7417 9.9334,-5.4513 10.6667,-6.0213 5.2061,-4.0471 36.6411,-22.1439 34,-19.5736 -4.2441,4.1304 -135.794,106.2852 -137.9188,107.1005 -0.9555,0.3667 -0.065,-4.0445 2.2409,-11.1058 z m -441.9888,-13.2999 c -2.0074,-0.5247 -2.3347,-2.3187 -2.3434,-12.8453 -0.018,-21.4304 -2.8345,-32.4196 -10.9063,-42.5471 -3.7484,-4.7031 -2.7077,-5.5577 4.4485,-3.6532 8.2628,2.1989 13.3479,6.5604 18.1472,15.5648 4.0912,7.6759 14.9338,35.1351 15.4126,39.0325 0.4649,3.7856 -15.9849,6.7411 -24.7586,4.4483 z m -33,-13.0809 c 0,-1.1 0.6,-2 1.3334,-2 0.7333,0 1.3333,0.9 1.3333,2 0,1.1 -0.6,2 -1.3333,2 -0.7334,0 -1.3334,-0.9 -1.3334,-2 z m 233,0.744 c 1.65,-0.7286 3,-2.2327 3,-3.3423 0,-2.8253 -5.5364,-3.9019 -15.1401,-2.9439 -15.2243,1.5186 -22.8768,2.072 -19.5265,1.412 1.8333,-0.361 9.5222,-2.4968 17.0866,-4.7458 14.4872,-4.3075 19.9346,-4.3598 24.4926,-0.2348 1.3314,1.2049 2.4208,2.9048 2.4208,3.7774 0,2.8482 -4.8932,6.1004 -10.168,6.7582 -4.2262,0.5269 -4.6199,0.4032 -2.1654,-0.6808 z m -133.6666,-2.1255 c 2.2,-1.0073 4.9,-1.8131 6,-1.7903 1.1,0.023 -0.1,0.85 -2.6667,1.8384 -6.0876,2.3443 -8.4827,2.3098 -3.3333,-0.048 z m 122.3586,-0.2092 c 1.2974,-0.338 3.0974,-0.3159 4,0.049 0.9028,0.3652 -0.1586,0.6418 -2.3586,0.6147 -2.2,-0.027 -2.9386,-0.326 -1.6414,-0.6641 z m 245.0995,-2.2589 c -1.2515,-1.508 -0.6509,-1.953 3.2511,-2.4084 4.853,-0.5666 6.7876,0.5028 5.2908,2.9246 -1.211,1.9592 -6.766,1.6235 -8.5419,-0.5162 z m 17.8752,-2.0598 c 16.1593,-5.7718 36.6227,-17.3912 80,-45.4253 31.0384,-20.0596 43.4681,-27.4623 60.6667,-36.1304 30.2648,-15.2536 55.6612,-21.3551 87.3333,-20.9815 l 17.3333,0.2046 -20.6666,0.9405 c -48.9994,2.2299 -70.1626,10.8439 -147.3334,59.9691 -16.8666,10.737 -36.9333,23.0585 -44.5925,27.3812 -14.1351,7.9774 -33.7643,16.6346 -37.4075,16.498 -1.1,-0.041 1,-1.1466 4.6667,-2.4562 z m -33.3333,-2.0425 -4,-1.8316 3.5034,-0.108 c 1.9268,-0.06 4.2503,0.7917 5.1632,1.8917 2.0306,2.4466 0.6035,2.4614 -4.6666,0.048 z m -294.6667,-4.6911 c -34.2807,-9.0105 -39.3358,-12.1002 -11.0677,-6.7648 21.738,4.103 25.6169,4.4263 33.4932,2.7912 9.3086,-1.9325 14.8197,-5.6476 20.3692,-13.7312 6.2761,-9.142 9.6208,-19.0358 13.9458,-41.253 9.2634,-47.586 9.7448,-62.8023 2.7124,-85.7326 -5.6156,-18.3104 -5.4789,-22.8086 0.8804,-28.9691 7.5094,-7.2746 34.4732,-24.7858 40.7896,-26.4902 3.0491,-0.8227 10.6438,-1.2484 16.8771,-0.946 20.648,1.0017 34.5227,10.484 57.1176,39.0355 6.98,8.8201 13.334,16.4773 14.12,17.0161 2.5641,1.7576 4.7624,1.073 4.7624,-1.483 0,-1.3769 0.9396,-3.2832 2.0879,-4.2362 1.1484,-0.9531 3.0305,-3.5765 4.1824,-5.83 l 2.0945,-4.0971 -2.9695,2.649 c -2.8614,2.5526 -3.0342,2.5605 -4.7484,0.2162 -0.9784,-1.338 -2.4984,-6.6984 -3.3777,-11.9121 -1.766,-10.4696 -0.7124,-15.9719 3.2023,-16.7259 2.1108,-0.4064 2.2152,-0.089 0.8257,2.507 -1.978,3.696 -1.1269,17.5911 1.2531,20.459 2.5485,3.0707 6.144,0.6006 10.052,-6.9055 1.8004,-3.4582 3.3014,-5.6502 3.3356,-4.8711 0.1922,4.3847 -9.1098,27.1785 -16.7814,41.1215 -4.8806,8.8707 -13.1577,24.2286 -18.3933,34.1286 -18.1163,34.256 -32.5544,51.9673 -42.3829,51.9912 -6.8652,0.017 -7.8403,-5.788 -3.7146,-22.1112 3.9912,-15.7915 10.4312,-27.6731 21.8298,-40.2753 5.5029,-6.0842 10.7178,-13.221 11.5886,-15.8597 2.4222,-7.339 0.8764,-19.9363 -3.5752,-29.137 -4.4781,-9.2556 -22.1297,-28.4346 -30.9009,-33.5749 -5.1693,-3.0294 -6.3372,-3.2367 -10.7636,-1.9106 -10.8744,3.2581 -20.546,15.5546 -24.8892,31.644 -1.2407,4.5961 -2.6359,17.9377 -3.336,31.9002 -1.242,24.7706 -3.9101,43.1317 -10.5416,72.5421 -4.9995,22.1728 -10.2071,32.9483 -21.3836,44.2465 -15.1673,15.3324 -28.8588,17.8847 -56.694,10.5684 z m 320.1175,1.8015 c -1.7223,-4.488 -0.2026,-5.9076 14.7102,-13.7403 8.5219,-4.476 26.3719,-15.1312 39.6667,-23.6781 63.1059,-40.5697 81.6785,-51.3128 104.3827,-60.3784 40.3498,-16.1115 68.7008,-16.7185 124.753,-2.6713 18.1688,4.5533 54.4624,14.9949 53.9391,15.5181 -0.268,0.268 -8.7257,-1.6241 -18.7949,-4.2049 -51.8106,-13.2788 -96.5892,-17.1479 -125.441,-10.8384 -26.2029,5.7301 -52.2712,17.9434 -90,42.1662 -9.9,6.356 -28.8,18.4834 -42,26.9495 -25.4797,16.3421 -42.3056,25.8417 -53.5492,30.2329 -6.0324,2.356 -6.9794,2.4356 -7.6666,0.6447 z m -146.1519,-9.2303 c -0.067,-2.4356 15.1665,-69.273 16.0185,-70.2845 0.646,-0.7668 25.591,9.7168 27.7196,11.6497 0.8787,0.7978 -20.5897,34.1482 -27.062,42.0399 -8.2869,10.1043 -16.6268,18.4036 -16.6761,16.5949 z m -230.483,-6.239 c -5.7727,-0.884 -7.9211,-1.682 -6.6667,-2.4763 1.0179,-0.6447 1.4414,-1.1813 0.941,-1.1925 -0.5004,-0.013 -8.0321,-2.051 -16.7371,-4.5328 -8.705,-2.4819 -22.2455,-5.882 -30.0899,-7.5559 -7.8445,-1.6739 -14.0905,-3.2156 -13.88,-3.4261 0.2105,-0.2104 8.1604,0.5098 17.6664,1.6005 16.9531,1.9453 36.1305,6.3608 49.2109,11.3304 6.11,2.3215 6.7704,2.3455 9,0.3277 3.3876,-3.0657 3.0619,-9.0885 -1.5781,-29.1793 -5.1999,-22.5156 -4.9509,-25.5447 0.8151,-9.9183 2.5707,6.9667 6.4415,17.4667 8.6018,23.3334 2.9055,7.8901 3.7203,11.9681 3.1304,15.6666 -0.9289,5.8239 1.4121,6.7807 5.5104,2.2522 3.3807,-3.7356 2.91,-10.9959 -1.3725,-21.1706 -1.8983,-4.5102 -3.0399,-8.8665 -2.5369,-9.6804 0.5438,-0.8798 0.3086,-1.1053 -0.5798,-0.5562 -1.5844,0.9792 -10.3731,-14.8339 -9.0049,-16.2022 0.4147,-0.4146 0.7632,0.096 0.7744,1.135 0.016,1.4718 0.2581,1.5144 1.0972,0.1922 1.4007,-2.2069 17.1096,30.2827 18.3018,37.8523 0.507,3.2187 0.2478,6.6415 -0.6265,8.2751 -2.7975,5.2272 -14.2747,6.636 -31.977,3.9252 z m 18.2486,-42.9934 c -1.5955,-3.2838 -3.1295,-5.742 -3.409,-5.4625 -0.6032,0.6032 4.7843,11.4333 5.6876,11.4333 0.3422,0 -0.6832,-2.6868 -2.2786,-5.9708 z m 217.7073,10.5264 c 0.064,-1.5533 0.38,-1.8692 0.8056,-0.8056 0.3852,0.9626 0.3379,2.1126 -0.1053,2.5556 -0.4431,0.4431 -0.7583,-0.3445 -0.7004,-1.75 z m 121.1615,-4.7314 c -1.6216,-3.2034 -4.11,-7.4731 -5.53,-9.4886 l -2.5817,-3.6644 7.0892,-7.0721 c 9.4505,-9.4276 18.5717,-15.4347 46.626,-30.7071 67.994,-37.0147 104.272,-52.572 142.4632,-61.0934 18.8092,-4.1967 57.9686,-4.5525 72.6666,-0.6603 20.5344,5.4379 38.6363,15.8779 73.6244,42.4622 38.6208,29.3445 62.8274,42.4825 104.9584,56.9658 27.7912,9.5537 43.2043,12.6325 63.4172,12.6673 32.5292,0.056 39.0502,-4.784 60.943,-45.2336 7.5105,-13.8768 4.7516,-6.0754 -3.943,11.149 -13.4458,26.6372 -20.8485,32.8772 -42.9333,36.1906 -16.6771,2.5022 -38.4056,-0.4236 -70.7333,-9.5245 -32.0411,-9.0201 -89.3794,-31.1156 -135.4336,-52.1896 -43.8452,-20.0633 -54.8524,-22.9463 -87.2331,-22.8486 -24.8808,0.075 -38.7779,2.5488 -66.6667,11.8667 -24.5808,8.2127 -44.9902,17.1619 -90.2632,39.5786 -40.9484,20.2756 -52.0781,26.5461 -59.296,33.4084 l -4.226,4.0177 z m -119.8281,-0.6019 c 0.064,-1.5533 0.38,-1.8692 0.8056,-0.8056 0.3852,0.9625 0.3378,2.1125 -0.1054,2.5556 -0.443,0.4431 -0.7582,-0.3445 -0.7004,-1.75 z m 1.3333,-5.3333 c 0.064,-1.5534 0.38,-1.8692 0.8056,-0.8056 0.3852,0.9625 0.3379,2.1125 -0.1053,2.5556 -0.4431,0.443 -0.7583,-0.3446 -0.7004,-1.75 z m 68.5565,0.8457 c -3.6694,-0.5665 -10.2694,-2.5115 -14.6666,-4.322 -14.6228,-6.0207 -28.5855,-12.2668 -28.2258,-12.6264 0.1954,-0.1953 3.3271,0.5427 6.9596,1.6401 11.1407,3.3658 31.3004,6.1695 44.3486,6.1678 h 12.4108 l -0.8999,4.2036 c -0.4949,2.3121 -0.9799,4.2976 -1.0775,4.4124 -0.8438,0.9912 -13.5406,1.3454 -18.8492,0.526 z m 26.0458,-7.4013 c 0,-0.7334 0.5816,-2.2334 1.2925,-3.3334 0.7109,-1.1 1.2925,-1.4 1.2925,-0.6666 0,0.7333 -0.5816,2.2333 -1.2925,3.3333 -0.7109,1.1 -1.2925,1.4 -1.2925,0.6667 z m 513.9592,-3.9204 c -32.6454,-7.614 -57.1911,-26.7867 -81.471,-63.637 -14.4522,-21.9346 -22.4744,-31.4444 -34.7618,-41.2089 -18.1778,-14.4451 -41.9655,-23.9218 -71.8071,-28.607 -21.388,-3.3579 -62.8352,-2.1227 -85.6732,2.5532 -32.872,6.7304 -58.6963,15.9636 -95.6203,34.1881 -26.6853,13.171 -90.5065,49.6457 -110.7612,63.3016 -9.9102,6.6816 -21.8077,17.8557 -27.6797,25.997 -1.698,2.3543 -1.6197,1.9771 0.2667,-1.2842 3.933,-6.7998 16.7738,-19.2151 27.4666,-26.5566 11.1686,-7.6682 75.101,-45.6467 96.4464,-57.2932 40.9843,-22.3617 81.7698,-37.3685 120.2612,-44.2493 23.3768,-4.1789 67.3258,-5.1407 91.9119,-2.0113 31.3144,3.9857 58.5913,11.8075 80.6409,23.1242 21.2607,10.9118 32.034,20.0383 68.7852,58.2704 19.1171,19.8874 28.1384,25.7823 41.2799,26.9739 11.138,1.01 19.8207,-1.5845 33.0624,-9.8795 13.4979,-8.4554 17.4456,-11.823 19.2044,-16.3825 1.03,-2.6702 1.5008,-2.9208 2.5048,-1.3334 3.54,5.5971 0.6811,12.0034 -12.8065,28.6977 -12.5108,15.4853 -21.7366,24.0712 -29.6052,27.5518 -7.888,3.4892 -21.1339,4.2364 -31.6444,1.785 z m -315.3334,-2.6206 c 0,-1.2301 18.3178,-8.9825 30.272,-12.8118 18.8907,-6.0512 34.5732,-7.9991 62.3947,-7.7499 l 24,0.2151 -26.6667,0.9425 c -34.6462,1.2247 -56.8356,5.7769 -81.8325,16.7884 -7.4564,3.2847 -8.1675,3.5124 -8.1675,2.6157 z m -529.228,-4.2368 c 0.064,-1.5533 0.3799,-1.8692 0.8055,-0.8056 0.3852,0.9626 0.3378,2.1126 -0.1052,2.5556 -0.443,0.4431 -0.7582,-0.3445 -0.7003,-1.75 z M 0.346,1250.4037 l 0.3459,-65.54 607.1956,-249.09862 c 333.9575,-137.0041 607.3083,-249.09841 607.446,-249.09841 0.1377,0 -0.2909,3.75 -0.9525,8.33334 -2.7551,19.08704 -1.2733,78.1365 1.9114,76.16822 0.8793,-0.54344 1.0143,0.73678 0.3864,3.66496 -0.5308,2.47508 -1.1088,4.664 -1.2845,4.86428 -0.1758,0.20027 -26.9557,12.12114 -59.5109,26.4908 C 654.2072,1027.6245 5.3432,1313.8691 3.0127,1314.774 l -3.0126,1.1697 z m 1321.1179,63.4854 c 0.064,-1.5534 0.3799,-1.8692 0.8055,-0.8056 0.3852,0.9625 0.3378,2.1125 -0.1052,2.5556 -0.443,0.443 -0.7582,-0.3446 -0.7003,-1.75 z m 684.978,-5.4664 c 0.9626,-0.3852 2.1126,-0.3379 2.5556,0.1053 0.4431,0.4431 -0.3445,0.7583 -1.75,0.7004 -1.5533,-0.064 -1.8692,-0.38 -0.8056,-0.8056 z m -847.6756,-4.4226 c -0.029,-2.5666 1.4752,-11.8666 3.3432,-20.6666 1.8681,-8.8 5.188,-25.1645 7.3777,-36.3656 3.6759,-18.804 6.2476,-28.637 6.4535,-24.676 0.047,0.8939 -1.7064,12.8939 -3.8953,26.6667 -4.1446,26.0777 -13.1823,63.5386 -13.2791,55.0415 z m 161.5189,0.6667 c 0.027,-2.2 0.326,-2.9385 0.6641,-1.6413 0.338,1.2973 0.3158,3.0973 -0.05,4 -0.3653,0.9028 -0.6418,-0.1587 -0.6147,-2.3587 z m 679.4901,2.4225 c 0.9625,-0.3852 2.1125,-0.3378 2.5556,0.1054 0.443,0.443 -0.3446,0.7582 -1.75,0.7004 -1.5534,-0.064 -1.8692,-0.38 -0.8056,-0.8056 z m -6.6667,-1.3333 c 0.9625,-0.3852 2.1125,-0.3379 2.5556,0.1053 0.4431,0.4431 -0.3445,0.7583 -1.75,0.7004 -1.5533,-0.064 -1.8692,-0.38 -0.8056,-0.8056 z m -433.4619,-1.3445 c -0.3477,-0.593 0.3452,-4.978 1.5398,-9.7447 l 2.1721,-8.6667 15.924,-1.1454 c 16.2593,-1.1696 34.2879,0.5842 51.2595,4.9866 8.679,2.2514 10.1102,1.3187 7.5137,-4.8958 -1.1168,-2.6728 -2.0305,-6.0418 -2.0305,-7.4863 0,-1.5943 -2.4103,-4.3576 -6.1318,-7.0301 -6.984,-5.0156 -10.5593,-10.5783 -16.558,-25.7623 -2.3177,-5.8667 -5.3606,-13.1837 -6.7621,-16.2602 -1.4015,-3.0764 -2.5481,-6.0292 -2.5481,-6.5617 0,-0.5324 -0.9031,-1.966 -2.007,-3.1857 -1.8217,-2.0131 -1.0986,-3.1528 7.8398,-12.356 11.1257,-11.4554 16.8402,-21.4995 16.8208,-29.5649 -0.023,-9.6361 -8.011,-22.8905 -24.4983,-40.6506 l -5.4887,-5.9123 7.3334,6.3081 c 25.3634,21.8176 33.7478,29.6916 42.5914,39.9992 5.4587,6.3621 10.2775,11.4063 10.7084,11.2092 0.8755,-0.4005 147.7886,-98.9605 191.3668,-128.383 15.4,-10.3974 115.6,-77.71044 222.6667,-149.58421 107.0667,-71.87379 284.5753,-191.06475 394.4639,-264.8688 109.8884,-73.80407 200.0384,-134.18922 200.3333,-134.18922 0.2948,0 0.516,10.65 0.4914,23.66667 L 2666.6022,558 2436.3137,719.60531 c -126.6587,88.88291 -346.0175,242.87147 -487.4639,342.19679 l -257.1752,180.5915 -7.1837,-14.2071 c -3.9512,-7.8139 -8.6655,-16.0024 -10.4763,-18.1967 -2.9253,-3.545 -2.7753,-2.8508 1.3457,6.2274 7.852,17.2967 10.2759,30.0248 7.2423,38.0295 -0.7823,2.0644 -6.6608,9.1534 -13.0635,15.7534 -6.4025,6.6 -13.5665,14.3918 -15.92,17.315 -3.7956,4.7145 -4.5773,5.1288 -6.9184,3.6666 -4.2626,-2.662 -4.4789,-1.925 -0.7393,2.5192 1.9287,2.292 3.2348,4.4392 2.9027,4.7715 -0.3323,0.3321 -8.9046,-0.12 -19.0496,-1.0056 -22.2803,-1.9443 -36.8764,-0.9981 -50.731,3.2885 -13.4281,4.1547 -18.6537,5.1915 -19.4369,3.8562 z m 69.3798,-44.078 c -3.894,-8.3598 -16.649,-29.6667 -17.7595,-29.6667 -0.2703,0 -0.1093,1.05 0.3563,2.3333 0.9438,2.5981 20.657,36.3334 21.2314,36.3334 0.2,0 -1.5226,-4.05 -3.8282,-9 z m 355.3574,44.076 c 1.2974,-0.338 3.0974,-0.3159 4,0.049 0.9028,0.3652 -0.1586,0.6417 -2.3586,0.6147 -2.2,-0.027 -2.9386,-0.326 -1.6414,-0.6642 z m -9.3586,-1.3284 c 1.2833,-0.3355 3.3833,-0.3355 4.6666,0 1.2834,0.3353 0.2334,0.6097 -2.3333,0.6097 -2.5667,0 -3.6167,-0.2744 -2.3333,-0.6097 z m -11.9818,-1.3711 c 2.0268,-0.3064 5.0268,-0.2983 6.6667,0.019 1.64,0.3164 -0.019,0.5672 -3.6849,0.5572 -3.6667,-0.013 -5.0084,-0.269 -2.9818,-0.5755 z m -14.6596,-5.3005 c 1.2974,-0.338 3.0974,-0.3159 4,0.049 0.9028,0.3652 -0.1586,0.6417 -2.3586,0.6147 -2.2,-0.027 -2.9386,-0.326 -1.6414,-0.6642 z m -659.6128,-3.2419 c -2.8898,-0.6773 -5.5398,-1.5171 -5.8889,-1.8661 -0.3491,-0.3491 6.1388,-0.6347 14.4174,-0.6347 13.2285,0 14.8511,0.2423 13.3923,2 -1.8868,2.2735 -13.2492,2.5331 -21.9208,0.5008 z m 31.5635,-3.8341 c 0,-2.5667 0.2744,-3.6167 0.6098,-2.3334 0.3353,1.2834 0.3353,3.3834 0,4.6667 -0.3354,1.2833 -0.6098,0.2333 -0.6098,-2.3333 z m -43.8772,-11.4798 c 0.4699,-2.8958 2.4619,-6.6728 4.7855,-9.0738 8.3735,-8.6523 11.0452,-20.292 10.9684,-47.7849 -0.054,-19.5421 0.1682,-21.4923 3.198,-28 3.5956,-7.7231 4.1694,-15.9224 1.7026,-24.3282 l -1.5652,-5.3333 -0.7847,4 c -0.4316,2.2 -0.3901,7.8588 0.092,12.5752 0.802,7.8433 0.5382,9.209 -3.0901,16 -4.8429,9.0641 -7.7085,11.4934 -16.7386,14.1901 -14.0824,4.2056 -29.2696,-2.7199 -37.443,-17.0744 -3.6814,-6.4655 -3.94,-7.7509 -3.2516,-16.1593 0.6027,-7.3621 1.5747,-10.338 5.0083,-15.3333 11.0548,-16.0833 36.394,-19.032 46.6086,-5.4239 4.9568,6.6036 8.8751,7.2995 5.0234,0.8922 -1.5395,-2.561 -2.9265,-8.0112 -3.3912,-13.3259 -0.7744,-8.8571 -2.5397,-14.0631 -5.4209,-15.987 -2.3351,-1.5592 -20.3391,-1.0972 -34.1338,0.8759 -33.4206,4.7803 -44.5145,-6.8634 -38.2392,-40.1347 2.526,-13.393 6.551,-22.9524 11.7632,-27.9382 3.9428,-3.7715 4.214,-3.8236 19.9609,-3.8379 11.4731,-0.011 16.2588,-0.492 17.0127,-1.7119 2.185,-3.5353 5.2006,-0.044 6.7456,7.8087 0.8567,4.3547 2.1275,7.9177 2.8239,7.9177 1.8799,0 1.52,-4.1487 -0.7349,-8.4721 -1.0916,-2.093 -1.6301,-4.3792 -1.1967,-5.0805 0.4334,-0.7013 0.021,-3.1278 -0.9174,-5.3924 -1.6056,-3.8762 -1.4765,-4.3006 2.2049,-7.2462 2.1507,-1.7209 4.6604,-3.132 5.577,-3.1356 0.9167,0 1.6667,-0.6066 1.6667,-1.34 0,-0.8064 -6.4544,-1.4051 -16.3333,-1.515 l -16.3334,-0.1817 11.3334,-1.2117 c 14.8855,-1.5916 41.5501,-0.2659 47.82,2.3774 2.6657,1.1239 7.7915,2.298 11.3908,2.6093 3.5993,0.3111 6.8993,0.9554 7.3333,1.4316 0.4341,0.4763 -2.2108,0.4948 -5.8775,0.041 l -6.6666,-0.8246 3.6205,3.1998 c 1.9914,1.7599 4.3914,5.0787 5.3334,7.375 l 1.7127,4.1753 20.6667,0.4128 c 22.998,0.4593 24.7677,0.8123 62.6667,12.5022 l 24.6666,7.6084 -14.6666,0.6927 c -13.7412,0.649 -15.2136,0.4653 -23.3334,-2.91 -14.635,-6.0838 -32.0794,-10.6224 -41.5344,-10.8064 -7.5858,-0.1475 -9.6601,0.352 -14.3506,3.456 -3.2116,2.1253 -6.9948,6.3698 -9.1323,10.2455 -2.0071,3.6394 -4.2493,6.6527 -4.9827,6.6963 -0.7333,0.044 -3.7808,2.9023 -6.7722,6.3526 l -5.4389,6.2733 1.0735,19.9719 c 2,37.2088 5.8345,57.4742 15.7734,83.3614 2.9562,7.7 6.109,17.15 7.0061,21 0.8971,3.85 2.1492,7 2.7823,7 0.6331,0 -1.6989,5.25 -5.1822,11.6667 -3.4834,6.4166 -8.1974,17.3666 -10.4756,24.3333 -3.9198,11.9861 -4.3919,12.7465 -8.7877,14.1531 -2.5549,0.8174 -10.8792,1.9006 -18.4984,2.4072 l -13.8532,0.9208 0.8051,-4.9608 z m 22.8262,-177.3426 c 1.6587,-0.6365 1.7971,-1.2392 0.6124,-2.6667 -1.795,-2.1628 -3.7647,-2.3106 -6.5374,-0.4905 -1.7778,1.167 -1.7778,1.4588 0,2.6258 2.3684,1.5548 3.0896,1.6194 5.925,0.5314 z m -28.4848,-5.3955 c -3.1386,-2.6865 -7.4352,-7.6365 -9.548,-11 -4.4184,-7.0338 -5.1185,-6.4129 -1.2715,1.1277 2.5735,5.0446 12.5726,14.7568 15.1926,14.7568 0.7334,0 -1.2346,-2.198 -4.3731,-4.8845 z m 10.3854,-10.368 c -5.8118,-7.4415 -7.8256,-8.9034 -7.8256,-5.681 0,3.0254 7.2229,13.0054 8.9366,12.3478 0.9046,-0.3471 2.024,-0.018 2.4875,0.7327 0.4636,0.7501 1.1465,1.0602 1.5175,0.6892 0.371,-0.371 -1.9312,-4.0109 -5.116,-8.0887 z m 9.2022,5.6692 c -0.2903,-0.8708 -1.2407,-1.821 -2.112,-2.1114 -0.9744,-0.3248 -1.2724,0.2848 -0.7741,1.5833 0.9301,2.4236 3.686,2.9279 2.8861,0.5281 z m 30.5497,-25.3333 c -0.4256,-1.0637 -0.7416,-0.7477 -0.8056,0.8055 -0.058,1.4056 0.2573,2.1931 0.7003,1.75 0.4431,-0.443 0.4904,-1.593 0.1052,-2.5555 z m 0.2214,214.5833 c -0.4155,-6.1996 0.5508,-11.1959 3.7979,-19.6378 1.8395,-4.7826 4.6885,-12.9513 6.3312,-18.1528 1.6426,-5.2016 4.1308,-10.6068 5.5293,-12.0117 1.3984,-1.4048 3.8562,-4.3491 5.4615,-6.5427 2.8067,-3.8351 3.0116,-3.8967 5.3333,-1.6044 3.4142,3.3709 3.433,26.6371 0.029,36.4227 -5.0919,14.6396 -14.195,24.5103 -22.615,24.5218 -2.8556,0 -3.7111,-0.6587 -3.8677,-2.9951 z m 371.3451,-10.7757 c 0.4708,-1.3433 0.9231,-5.2433 1.0051,-8.6667 l 0.1492,-6.2243 1.2517,6.5516 c 1.0516,5.5045 0.8909,6.8896 -1.0052,8.6667 -2.0724,1.9424 -2.1868,1.9156 -1.4008,-0.3273 z m -467.9208,-22.6834 3.8898,-3.1124 -2.8531,-12.2338 c -4.7753,-20.4757 -13.1816,-38.7981 -23.7576,-51.7823 -3.6454,-4.4755 -5.5417,-5.6698 -9.5268,-6 l -4.9755,-0.4124 0.4185,-7.3333 c 0.2302,-4.0334 1.211,-11.2334 2.1795,-16 l 1.761,-8.6667 -0.7012,10.2471 -0.7012,10.2471 11.1898,11.7529 c 17.1647,18.0285 45.4021,51.664 49.7116,59.215 l 3.8581,6.7597 -3.8581,-0.3119 c -8.623,-0.6974 -12.4839,0.331 -20.3629,5.4234 -9.1429,5.9094 -12.2767,7.0124 -6.2719,2.2076 z m 962.1101,-12.2845 c -11.3666,-5.4137 -28.2978,-12.98 -37.6248,-16.8139 -9.3269,-3.8339 -16.7426,-7.1861 -16.4794,-7.4493 1.6056,-1.6057 75.4376,31.27 75.4376,33.5907 0,0.9366 2.6462,2.0937 -21.3334,-9.3275 z m -941.5833,6.4995 c 0.9625,-0.3852 2.1125,-0.3378 2.5556,0.1052 0.443,0.443 -0.3445,0.7581 -1.75,0.7002 -1.5533,-0.064 -1.8692,-0.3799 -0.8056,-0.8055 z m 296.3391,-17.7635 c -12.9268,-17.4834 -20.1044,-25.4029 -28.0891,-30.9926 l -3.3333,-2.3335 5,0.8152 c 2.75,0.4484 5,0.4686 5,0.045 0,-0.4237 -4.5515,-7.6919 -10.1146,-16.1517 -7.1246,-10.8348 -11.0762,-15.6227 -13.3682,-16.198 -3.6902,-0.9261 -8.3571,0.2238 -24.5172,6.0412 -6.2334,2.2439 -13.1334,4.097 -15.3334,4.1181 -2.2728,0.022 -3.326,0.467 -2.439,1.0312 0.8585,0.5461 1.9968,2.7295 2.5296,4.8521 1.0932,4.3556 3,4.3334 -16.0906,0.1874 -13.5134,-2.9349 -35.2197,-2.6753 -47.9202,0.573 -10.0314,2.5656 -34.0798,14.0371 -34.0798,16.2566 0,0.6034 -0.4961,1.0971 -1.1026,1.0971 -0.6064,0 -1.8475,-4.95 -2.7578,-11 -2.1954,-14.5906 -7.021,-33.5321 -12.68,-49.7709 -6.6226,-19.0048 -6.6309,-19.0326 -4.862,-16.2911 3.1954,4.9521 11.9491,29.1765 15.4491,42.7527 4.2968,16.6662 2.7096,16.152 20.62,6.6795 6.2333,-3.2967 18.0833,-9.5697 26.3333,-13.9399 8.25,-4.3703 15,-8.4119 15,-8.9815 0,-0.5695 -1.2605,-2.1763 -2.8012,-3.5706 -4.8276,-4.3689 -18.1184,-25.2844 -21.0556,-33.1348 -3.284,-8.7774 -3.6109,-16.508 -0.8522,-20.1552 2.288,-3.0251 2.5566,-2.1144 0.7657,2.5959 -2.8827,7.5821 6.0864,28.911 19.7511,46.9689 17.7562,23.4651 35.781,34.8813 49.3177,31.2363 9.352,-2.5182 16.7533,-10.5295 25.0955,-27.1633 11.5681,-23.0661 16.1029,-25.5864 26.7966,-14.8927 3.3,3.3 6.4744,6 7.0544,6 1.0258,0 2.9183,-5.153 4.4371,-12.0812 1.1165,-5.0935 -1.3417,-12.2735 -5.5985,-16.3518 -3.6408,-3.4881 -3.9578,-3.5497 -9.0402,-1.7565 -7.0682,2.4938 -15.297,1.0773 -24.6449,-4.2425 -8.4348,-4.8002 -10.6341,-5.3345 -7.4428,-1.8081 2.0823,2.3009 1.7727,2.629 -5.9777,6.3334 -11.0763,5.2939 -21.452,5.3918 -31.805,0.3 -8.2562,-4.0606 -23.3137,-15.6904 -22.9512,-17.7266 0.6746,-3.7877 24.82,-1.4571 44.1583,4.2624 6.3028,1.864 12.3596,3.3667 13.4596,3.3391 1.1,-0.028 8.7219,1.1009 16.9375,2.5076 20.4021,3.4932 20.7409,3.4732 18.7277,-1.1091 -2.2164,-5.0448 -2.6576,-5.2459 -15.5775,-7.1 -6.2816,-0.9015 -10.5934,-1.9236 -9.5818,-2.2715 1.8262,-0.628 8.5534,0.15 45.2914,5.2382 10.5219,1.4573 19.3943,2.3861 19.7164,2.064 0.3222,-0.3221 -3.345,-3.7749 -8.1493,-7.6729 -4.8044,-3.8979 -8.2767,-7.4927 -7.7164,-7.9884 0.5603,-0.4958 106.0187,-63.7653 234.352,-140.59882 128.3333,-76.83354 310.1333,-185.72827 404,-241.98833 93.8667,-56.26004 243.3956,-145.87905 332.2864,-199.15336 88.8908,-53.27425 161.9408,-96.86232 162.3334,-96.86232 0.3925,0 0.7084,10.65 0.702,23.66667 l -0.013,23.66666 -7.6549,4.88048 c -4.2087,2.68426 -158.5535,99.92999 -342.9868,216.10163 -184.4334,116.17164 -422.1702,265.92543 -528.304,332.78615 -106.1338,66.86094 -193.5838,121.56524 -194.3334,121.56524 -0.7494,0 -1.3626,-0.492 -1.3626,-1.0932 0,-0.6013 -1.8,-3.1093 -4,-5.5735 -4.8696,-5.4543 -5.1672,-4.505 -0.6667,2.1269 2.6269,3.871 3.3333,6.5845 3.3333,12.8045 0,4.9222 0.5019,7.5825 1.3334,7.0686 1.8281,-1.1298 1.6666,1.4413 -1.2979,20.6667 -2.2696,14.7181 -6.0907,32.814 -11.4024,54 -1.4291,5.6998 -1.6929,6.0592 -1.8189,2.4778 -0.1638,-4.652 -0.8507,-4.9789 -13.6927,-6.5175 -7.0124,-0.8401 -7.6956,-0.6743 -9.6755,2.3472 -1.9313,2.9476 -1.9432,4.2987 -0.128,14.4718 3.5584,19.9368 3.7076,21.2207 2.4667,21.2207 -0.6721,0 -7.4355,-8.4035 -15.0295,-18.6743 z m -2.0739,-29.6591 c -0.5295,-1.65 -1.3495,-5.7 -1.8223,-9 -0.7594,-5.3014 -1.2865,-6.0491 -4.5262,-6.4219 -3.2334,-0.372 -3.6658,0.022 -3.6592,3.3334 0,2.0653 0.6217,5.9671 1.3725,8.6704 1.0769,3.8775 2.1311,5.0317 4.9925,5.4669 1.9952,0.3034 3.8475,0.6416 4.1163,0.7515 0.2689,0.1098 0.056,-1.1503 -0.4736,-2.8003 z m 23.2977,-43.2942 c 0.013,-1.654 2.6642,-5.7737 6.0099,-9.3334 6.3477,-6.7536 11.9521,-16.404 10.3203,-17.7706 -0.5371,-0.4497 -4.6758,-1.8987 -9.1972,-3.2201 l -8.2208,-2.4024 0.7614,-4.823 c 0.4187,-2.6526 1.2464,-5.0157 1.8394,-5.2513 0.5929,-0.2357 0.5434,-1.4357 -0.1094,-2.6667 -0.6533,-1.2311 -1.6342,-3.4383 -2.18,-4.9049 -1.7124,-4.6026 -2.7265,5.6443 -1.4516,14.6666 0.6219,4.4 0.8204,15.7736 0.4414,25.2747 -0.4298,10.7708 -0.2268,16.5438 0.5388,15.3333 0.6754,-1.0677 1.2373,-3.2737 1.2485,-4.9022 z m -7.9796,-50.4198 c 0,-0.3927 -2.8488,-1.9352 -6.3306,-3.4277 -3.4819,-1.4925 -8.1319,-3.5208 -10.3334,-4.5073 -5.0132,-2.2463 -12.6693,-3.2785 -12.6693,-1.708 0,0.6496 -0.6,0.8103 -1.3333,0.357 -0.7334,-0.4532 -1.3334,-0.2351 -1.3334,0.4846 0,1.6783 6.2995,3.6743 17.6734,5.6 4.9536,0.8386 9.3389,2.0627 9.7453,2.7201 0.7895,1.2775 4.5813,1.6758 4.5813,0.4813 z m 16.63,-2.3938 c -3.2898,-2.2198 -13.4649,-6.2392 -15.6569,-6.185 -2.1105,0.052 2.2179,2.6832 9.0269,5.4869 6.7502,2.7795 10.2631,3.1493 6.63,0.6981 z m -207.63,137.7149 c -2.8853,-1.7389 -2.9812,-6.4753 -0.2626,-12.9832 4.3697,-10.4605 15.3302,-18.0674 25.018,-17.3629 4.9752,0.3619 5.845,0.9523 8.0489,5.4639 2.0477,4.1919 2.2048,5.701 0.9165,8.811 -3.6276,8.7579 -27.2081,19.9963 -33.7208,16.0712 z m 812.3334,-10.5813 c -4.0334,-2.1126 -14.6934,-6.7012 -23.689,-10.1968 -12.8437,-4.991 -15.993,-6.6962 -14.6666,-7.9413 1.548,-1.4533 521.5031,-433.53909 526.7323,-437.71771 2.1469,-1.71564 2.2882,-0.38326 2.2625,21.33333 l -0.027,23.16325 L 2425.8745,1020 c -132.4195,114.0335 -241.1572,207.4535 -241.6392,207.6002 -0.482,0.1467 -4.1764,-1.4618 -8.2097,-3.5743 z m -1002.4793,-8.0258 c 0,-1.1 0.5157,-3.2 1.1459,-4.6666 0.7223,-1.6809 1.1459,-1.9273 1.1459,-0.6667 0,1.1 -0.5156,3.2 -1.1459,4.6667 -0.7223,1.6808 -1.1459,1.9273 -1.1459,0.6666 z m 411.4309,-8.8723 c -0.3934,-0.6364 0.132,-2.3151 1.1666,-3.7305 1.3292,-1.8179 1.8758,-2.0093 1.8614,-0.652 -0.028,2.6875 -2.1648,5.7793 -3.028,4.3825 z m 436.2734,-28.9921 c -1.556,-1.4961 -43.1253,-4.8539 -61.0086,-4.9281 -11.2476,-0.047 -20.2476,-0.2749 -20,-0.5073 0.2476,-0.2324 63.7502,-47.6751 141.1169,-105.4282 77.3667,-57.7532 168.5667,-125.84872 202.6667,-151.32336 34.1,-25.47465 134,-100.06613 222,-165.75884 l 160,-119.44128 0.3648,23.47808 c 0.3297,21.21324 0.1368,23.63835 -2,25.13945 -1.3007,0.91375 -62.0648,48.04548 -135.0315,104.73716 -72.9667,56.6917 -216.0667,167.84887 -318,247.01589 -101.9333,79.1672 -186.282,144.7532 -187.4416,145.7468 -1.1595,0.9936 -2.3595,1.565 -2.6667,1.2697 z m -499.8917,-95.8688 c 0,-1.7724 -12.5707,-5.0176 -18.7469,-4.8397 -3.0475,0.088 -3.0846,0.1734 -0.5864,1.3538 2.2285,1.0531 2.0738,1.1455 -0.9412,0.5623 -5.783,-1.1185 -10.3922,-3.1695 -10.3922,-4.6243 0,-0.7409 -2.55,-1.9892 -5.6666,-2.774 l -5.6667,-1.4269 v -12.259 c 0,-10.7808 -0.4491,-13.1432 -3.7248,-19.5924 -2.0485,-4.0333 -6.998,-11.3833 -10.9987,-16.3333 -4.0008,-4.95 -6.8246,-9.0234 -6.2753,-9.052 0.5493,-0.028 -2.4753,-3.1786 -6.7213,-7 -7.1816,-6.46324 -7.9023,-7.65944 -10.3291,-17.14264 -2.7165,-10.6148 -8.7728,-25.6266 -7.1835,-17.8054 5.5412,27.2675 5.9374,30.52584 4.5942,37.79184 -0.7511,4.0627 -2.1147,7.8385 -3.0302,8.3908 -0.9156,0.5523 -3.4214,2.3871 -5.5685,4.0774 -2.1471,1.6903 -4.5471,3.101 -5.3333,3.1349 -0.7863,0.034 -2.8606,0.8484 -4.6096,1.81 -2.5107,1.3803 -2.7914,1.9946 -1.3334,2.918 2.4495,1.5512 -10.3414,1.3494 -14.8198,-0.2339 -2.653,-0.9379 -2.1767,-1.0727 2.3333,-0.6606 6.7077,0.6129 7.3447,-0.6771 1.4355,-2.9075 -3.0906,-1.1666 -4.7079,-1.2014 -6,-0.1291 -1.2908,1.0714 -1.7688,1.0636 -1.7688,-0.028 0,-1.7627 -4.847,-2.029 -5.9006,-0.3242 -0.3985,0.6448 -2.0838,1.5149 -3.7453,1.9337 -2.9648,0.7471 -2.9713,0.7237 -0.3541,-1.2637 1.4666,-1.1138 3.5666,-2.5729 4.6666,-3.2427 1.7603,-1.0717 1.764,-1.3723 0.031,-2.5079 -1.3808,-0.9046 -2.6932,-0.6353 -4.3907,0.9009 -2.1986,1.9897 -2.345,1.993 -1.594,0.036 0.455,-1.1856 1.7188,-2.4977 2.8086,-2.9159 1.0897,-0.4181 1.5826,-1.4054 1.0953,-2.1939 -0.4873,-0.7886 -1.7921,-1.086 -2.8996,-0.661 -1.3237,0.508 -1.7769,0.156 -1.3228,-1.0273 0.3799,-0.99 0.2245,-3.8468 -0.3452,-6.3485 l -1.0359,-4.5484 -0.9836,5.5007 c -0.8662,4.8443 -1.563,5.6807 -5.8397,7.0084 -8.0933,2.5127 -16.1895,3.9356 -16.1895,2.8453 0,-2.3617 4.1356,-10.6878 5.3087,-10.6878 0.7,0 2.168,-1.65 3.262,-3.6666 1.0941,-2.0167 2.0132,-2.8813 2.0427,-1.9213 0.1053,3.455 2.3888,0.1997 4.069,-5.80174 1.1282,-4.0294 2.0783,-5.5369 2.7771,-4.4062 0.5843,0.9452 1.4585,1.3223 1.9428,0.838 0.9716,-0.9716 4.8119,-43.93908 3.9997,-44.75128 -1.7886,-1.7887 -14.891,11.3954 -26.6633,26.82948 -3.6305,4.76 -3.7261,5.2237 -1.8808,9.1203 l 1.9443,4.1054 6.9136,-11.8397 c 10.8654,-18.60728 12.9092,-19.94128 4.5774,-2.9881 -4.1946,8.5351 -7.9706,14.9709 -8.3913,14.3018 -0.4207,-0.669 -1.7404,-0.1385 -2.9325,1.1789 -1.4858,1.6416 -1.7759,3.015 -0.9223,4.3648 0.6849,1.0833 1.2547,3.5696 1.2659,5.5251 0.013,1.95564 0.6993,3.78194 1.529,4.05854 2.2783,0.7594 2.4847,9.1979 0.3271,13.3703 -1.2496,2.4165 -2.9683,3.6823 -4.9993,3.6823 -1.7023,0 -4.4787,1.2 -6.1698,2.6667 -3.8542,3.3428 -4.4597,3.3666 -2.4165,0.095 0.8833,-1.4144 3.1072,-3.2557 4.9419,-4.0916 2.689,-1.2252 2.9613,-1.7546 1.405,-2.7311 -1.0617,-0.6662 -3.1304,-0.9305 -4.597,-0.5873 -1.4667,0.3431 -1.9879,0.3031 -1.1583,-0.089 1.0027,-0.4738 1.2768,-3.5994 0.8175,-9.3211 -0.5731,-7.13884 -0.3428,-8.60834 1.3489,-8.60834 1.122,0 2.4183,-0.9858 2.8805,-2.1908 1.1434,-2.9794 0.1546,-3.6618 -2.0752,-1.4322 -1.0105,1.0105 -2.5818,1.5891 -3.492,1.2857 -0.9101,-0.3033 -1.6738,0.2484 -1.6972,1.2262 -0.027,1.1333 -0.7521,0.8395 -2,-0.8104 -1.0766,-1.4235 -1.9997,-2.0235 -2.0513,-1.3333 -0.052,0.6902 -0.6093,0.055 -1.2396,-1.4118 l -1.1459,-2.6667 -0.2266,2.6667 c -0.1926,2.2652 -0.3874,2.1649 -1.2942,-0.6667 l -1.0674,-3.3333 -0.1334,3.5576 c -0.2026,5.4229 -1.4962,7.77574 -4.2756,7.77574 -1.3882,0 -2.524,0.6 -2.524,1.3333 0,0.7334 -0.8265,1.3334 -1.8367,1.3334 -1.0102,0 -2.5782,0.8934 -3.4844,1.9853 -0.9062,1.0919 -2.1117,1.6985 -2.6789,1.348 -0.5671,-0.3505 -1.7726,0.2561 -2.6788,1.348 -0.9062,1.0919 -2.493,1.9853 -3.5263,1.9853 -1.0332,0 -2.2239,0.9 -2.646,2 -0.4221,1.1 -1.6221,2 -2.6667,2 -1.0446,0 -2.2432,0.8966 -2.6637,1.9924 -0.4205,1.0958 -1.3017,1.6604 -1.9582,1.2546 -1.6124,-0.9966 -1.5247,-5.9137 0.1056,-5.9137 0.7145,0 2.2299,-1.8 3.3676,-4 1.1377,-2.2 2.9531,-4 4.0342,-4 1.0812,0 1.9658,-0.6007 1.9658,-1.3348 0,-0.7342 2.3198,-3.58614 5.1551,-6.33774 2.8354,-2.7516 5.5755,-6.9167 6.0893,-9.2558 0.6239,-2.8409 1.5414,-4.0198 2.7635,-3.5508 1.2809,0.4915 2.0825,-0.8305 2.6734,-4.4095 0.4642,-2.8113 1.3824,-6.3114 2.0406,-7.7781 0.6581,-1.4666 1.3936,-4.7666 1.6345,-7.33328 l 0.438,-4.6667 3.7005,7.66668 c 4.0102,8.308 5.4094,9.7389 3.9888,4.0791 l -0.9004,-3.5875 3.875,3.9988 c 2.1313,2.1993 3.7985,3.7872 3.705,3.5286 -0.093,-0.2586 2.6951,-5.2373 6.197,-11.06378 10.3217,-17.1738 11.5502,-28.5245 4.57,-42.22595 l -3.2583,-6.39592 4.3307,5.20803 c 2.3818,2.86441 9.8457,11.43148 16.5862,19.03794 13.7572,15.5245 25.7123,30.98328 25.7316,33.27298 0.013,0.8354 -1.1334,2.9346 -2.5345,4.6648 l -2.5475,3.1459 -3.282,-7.3315 c -2.9861,-6.6703 -3.3569,-7.0309 -4.1114,-3.9982 -1.0458,4.2033 2.1629,24.6505 3.8782,24.714 3.5991,0.1332 7.1702,3.5828 7.2155,6.9702 0.027,2.00704 0.3053,5.74924 0.6191,8.31584 0.3136,2.5667 0.6164,6.6167 0.6728,9 0.1106,4.7004 1.4834,5.4288 4.5153,2.3969 1.0651,-1.0651 2.3529,-1.5201 2.862,-1.0111 0.5089,0.5089 1.5101,-0.1196 2.2249,-1.3969 0.7148,-1.2772 2.131,-2.3222 3.1471,-2.3222 1.016,0 2.6148,-2.1222 3.5527,-4.7159 1.6368,-4.5264 1.754,-4.5934 2.9142,-1.6667 1.1888,2.999 1.23,2.9833 2.4912,-0.9507 1.857,-5.7926 1.9976,-48.72562 0.1699,-51.90262 -1.3711,-2.3833 -2.0508,-2.0229 -9.3944,4.9817 l -7.9164,7.55098 -3.8013,-3.9678 c -2.0908,-2.18228 -3.5423,-4.22698 -3.2256,-4.54368 0.556,-0.5561 154.2116,-82.41454 859.8964,-458.10152 182.2333,-97.01596 347.3833,-184.94982 367,-195.40858 l 35.6667,-19.01592 -0.013,24.2037 -0.013,24.20368 -122.9932,69.29317 c -67.6463,38.11124 -171.5932,96.67009 -230.9932,130.13077 -59.4,33.4607 -250.5,141.11681 -424.6667,239.23582 -174.1667,98.119 -340.9667,192.08036 -370.6667,208.80296 -29.7,16.7227 -54.8197,30.89944 -55.8217,31.50394 -1.3328,0.8041 1.5297,3.948 10.6667,11.7152 17.2854,14.6941 38.634,35.5486 47.0306,45.9421 9.4716,11.724 9.6182,12.0428 5.5364,12.0428 -1.9105,0 -3.412,-0.7626 -3.412,-1.7332 z m -24.3611,-7.0723 c -0.443,-0.4431 -1.593,-0.4904 -2.5556,-0.1052 -1.0636,0.4256 -0.7477,0.7415 0.8056,0.8055 1.4055,0.058 2.1931,-0.2572 1.75,-0.7003 z m -158.3056,-92.52794 c 0,-0.7333 -0.6,-1.3333 -1.3333,-1.3333 -0.7333,0 -1.3333,0.6 -1.3333,1.3333 0,0.7333 0.6,1.3333 1.3333,1.3333 0.7333,0 1.3333,-0.6 1.3333,-1.3333 z m -168.17,88.33344 c -1.6585,-2.1147 -1.6114,-2.1619 0.5034,-0.5034 1.2833,1.0065 2.3333,2.0565 2.3333,2.3334 0,1.0973 -1.0949,0.391 -2.8367,-1.83 z m -1170.176,-65.1963 0.346,-64.86292 328,-115.82923 c 180.4,-63.70608 416.2,-146.97303 524,-185.03766 107.8,-38.06461 412.6,-145.69216 677.3334,-239.17229 C 1794.7586,307.42155 2158.5142,178.97679 2338.371,115.46889 2518.2278,51.961002 2665.6778,0 2666.0377,0 c 0.3599,0 0.6543,10.735807 0.6543,23.857348 0,17.847734 -0.4199,24.022304 -1.6667,24.512204 -5.3397,2.09806 -672.6659,258.348108 -1139.6667,437.626558 -113.3,43.49511 -344.6,132.29422 -514,197.33134 -169.4,65.03713 -438.5,168.34981 -598,229.58373 C 253.8586,974.14506 96.172,1034.6904 62.943899,1047.4563 29.7158,1060.2221 1.9601,1070.6668 1.2646,1070.6668 c -0.7848,0 -1.1334,-24.6136 -0.9187,-64.863 z m 1415.4524,60.3833 c -5.6248,-1.5747 -10.6556,-3.2917 -11.1794,-3.8156 -1.754,-1.754 2.252,-9.1572 4.5822,-8.468 1.1867,0.3509 8.2312,2.1574 15.6548,4.0143 7.4235,1.857 14.9103,3.899 16.6374,4.5379 l 3.14,1.1615 -3.9707,2.0061 c -6.874,3.4728 -13.904,3.6322 -24.8643,0.5638 z m -256.3693,-2.0731 c -0.4293,-0.6946 -0.2122,-1.6142 0.4824,-2.0435 0.6946,-0.4293 1.6142,-0.2122 2.0435,0.4824 0.4293,0.6946 0.2122,1.6142 -0.4824,2.0435 -0.6946,0.4293 -1.6142,0.2122 -2.0435,-0.4824 z m -2.9593,-3.3885 c 0,-1.0678 0.5098,-1.6263 1.1329,-1.2412 0.623,0.385 0.7876,1.2586 0.3657,1.9413 -1.0781,1.7445 -1.4986,1.5481 -1.4986,-0.7001 z m -8.8535,-2.8515 c -9.5262,-4.9575 -28.4292,-10.7939 -40.8333,-12.6077 -6.0216,-0.8804 -17.6555,-1.3362 -25.853,-1.0127 -8.1976,0.3235 -13.4046,0.1904 -11.5713,-0.2958 3.0191,-0.8006 3.0819,-0.949 0.6667,-1.5742 -1.4667,-0.3797 -0.9869,-0.4804 1.0662,-0.2237 2.0532,0.2567 3.4105,-0.055 3.0163,-0.693 -1.3052,-2.1119 16.1581,-3.0473 26.7935,-1.4351 11.0243,1.6711 29.0012,7.5177 39.5899,12.8758 3.5562,1.7995 6.8011,2.9366 7.2109,2.5268 1.0816,-1.0815 -20.3355,-10.7303 -31.8383,-14.3438 -8.4413,-2.6517 -12.4895,-3.0737 -28.5052,-2.9716 -18.0907,0.1152 -19.5725,0.349 -48.0243,7.5759 -34.8539,8.8531 -49.2509,11.0727 -59.4612,9.1672 -14.0858,-2.6287 -13.2785,-3.5273 3.2391,-3.6057 15.4696,-0.073 17.7659,-0.471 48.0265,-8.3157 40.3739,-10.4666 55.963,-12.4405 71.7632,-9.0869 16.728,3.5506 51.3456,20.7033 51.3456,25.4412 0,1.1212 -0.05,2.0105 -0.1111,1.9764 -0.061,-0.034 -2.9951,-1.563 -6.5201,-3.3974 z m 4.4091,-0.5405 c -1.1,-0.7109 -2.6,-1.2925 -3.3334,-1.2925 -0.7333,0 -0.4333,0.5816 0.6667,1.2925 1.1,0.7108 2.6,1.2925 3.3333,1.2925 0.7334,0 0.4334,-0.5817 -0.6666,-1.2925 z m 187.4417,-1.279 c -14.1968,-0.5146 -20.0499,-1.1982 -20.4445,-2.3877 -0.8298,-2.5018 17.4884,-2.017 34.3361,0.9086 7.7,1.3371 12.2,2.3792 10,2.3157 -2.2,-0.063 -12.9512,-0.44 -23.8916,-0.8366 z m -315.6917,-3.6318 c 0.9625,-0.3852 2.1125,-0.3378 2.5555,0.1052 0.4431,0.443 -0.3444,0.7581 -1.75,0.7002 -1.5532,-0.064 -1.8692,-0.3799 -0.8055,-0.8055 z m 5.3333,-1.3334 c 0.9625,-0.3851 2.1125,-0.3378 2.5556,0.1052 0.443,0.4431 -0.3445,0.7582 -1.75,0.7003 -1.5533,-0.064 -1.8692,-0.3799 -0.8056,-0.8055 z m 5.3333,-1.3333 c 0.9625,-0.3852 2.1125,-0.3378 2.5556,0.1052 0.443,0.443 -0.3445,0.7582 -1.75,0.7003 -1.5533,-0.064 -1.8692,-0.3799 -0.8056,-0.8056 z m 177.6242,0.2441 c 0,-0.7333 0.5816,-2.2333 1.2925,-3.3333 0.7109,-1.1 1.2925,-1.4 1.2925,-0.6667 0,0.7334 -0.5816,2.2334 -1.2925,3.3334 -0.7109,1.1 -1.2925,1.4 -1.2925,0.6666 z m -172.2908,-1.5774 c 0.9625,-0.3852 2.1125,-0.3378 2.5555,0.1052 0.4431,0.443 -0.3444,0.7581 -1.75,0.7002 -1.5532,-0.064 -1.8692,-0.3799 -0.8055,-0.8055 z m 339.1972,-2.4819 c -6.0791,-1.6879 -16.4764,-3.8365 -23.1054,-4.7748 -11.0041,-1.5574 -12.2169,-2.0237 -13.9422,-5.3602 -1.4916,-2.8844 -1.5396,-3.8771 -0.228,-4.7112 3.1329,-1.9923 15.6266,-6.7831 14.986,-5.7465 -0.3522,0.5698 1.9058,2.1404 5.0177,3.4902 4.3135,1.8709 9.1435,2.4717 20.3247,2.528 8.0666,0.041 15.7746,0.7062 17.1289,1.479 2.3253,1.3269 2.2257,1.8241 -1.794,8.9465 -2.3409,4.148 -4.9489,7.4688 -5.7956,7.3797 -0.8467,-0.089 -6.5131,-1.5429 -12.5921,-3.2307 z m -333.8639,1.1485 c 0.9625,-0.3851 2.1125,-0.3378 2.5556,0.1052 0.443,0.4431 -0.3445,0.7582 -1.75,0.7003 -1.5533,-0.064 -1.8692,-0.3799 -0.8056,-0.8055 z m 10.25,-2.516 c 3.6667,-1.0203 7.5667,-1.813 8.6667,-1.7616 1.1,0.052 -1,0.9283 -4.6667,1.9486 -3.6667,1.0203 -7.5667,1.813 -8.6667,1.7616 -1.1,-0.051 1,-0.9283 4.6667,-1.9486 z m 277.8024,1.1516 c -2.0838,-0.3201 -3.8086,-1.6043 -4.2085,-3.1336 -0.5529,-2.1145 0.015,-2.5913 3.0885,-2.5913 2.0715,0 4.7152,0.3642 5.8752,0.8094 2.4844,0.9533 2.8751,5.9492 0.4424,5.6576 -0.9167,-0.1098 -3.2556,-0.4438 -5.1976,-0.7421 z m -99.4437,-6.6489 c 1.2973,-0.338 3.0973,-0.3158 4,0.05 0.9027,0.3653 -0.1587,0.6418 -2.3587,0.6147 -2.2,-0.027 -2.9386,-0.326 -1.6413,-0.6641 z m 87.6413,-2.5361 c -22.3655,-3.1899 -56.3656,-7.321 -66.8429,-8.1217 l -10.1762,-0.7777 1.3177,-4.7722 c 1.904,-6.8957 0.6675,-17.3484 -2.9504,-24.94064 -6.5048,-13.6506 -28.3647,-30.7248 -52.8051,-41.24478 -40.7371,-17.5346 -91.0056,-20.3655 -140.7332,-7.9253 -33.3907,8.3532 -61.1818,21.62728 -79.1433,37.80178 l -6.6666,6.0035 6.6666,-7.0722 c 12.3674,-13.1195 31.6578,-24.12158 58.5545,-33.39588 90.0253,-31.04206 179.5408,-11.2827 248.1227,54.76972 l 13.3571,12.8644 4.6495,-2.4752 c 4.9247,-2.6217 9.9849,-3.4143 8.7188,-1.3657 -2.1862,3.5375 19.2128,16.112 27.4191,16.112 2.0373,0 6.5117,3.9659 6.5117,5.7717 0,1.0603 0.1551,1.0723 -16,-1.2318 z m 109.6475,-4.8157 c 0.295,-0.885 2.263,-2.5661 4.3736,-3.7358 2.1104,-1.1697 5.219,-4.74 6.908,-7.9339 1.689,-3.194 3.0686,-4.9629 3.066,-3.9308 0,1.032 -1.221,3.8708 -2.7072,6.3084 -4.1774,6.8518 -13.2379,14.0844 -11.6404,9.2921 z m -104.3142,-3.3464 c -4.1978,-1.2021 -8,-3.5524 -8,-4.9451 0,-1.4459 8.8093,-4.766 12.6457,-4.766 1.1115,0 2.021,-0.6 2.021,-1.3333 0,-0.7334 0.9081,-1.3334 2.0181,-1.3334 2.1699,0 6.5899,-2.2198 10.2504,-5.148 2.0647,-1.6516 2.2496,-1.3382 2.0574,3.4846 -0.1927,4.8305 -0.7554,5.6051 -6.3606,8.7559 -7.9759,4.4835 -12.1574,5.9939 -14.632,5.2853 z m 52.9252,-1.2304 c -1.3901,-1.3901 0.3706,-3.1474 3.1535,-3.1474 1.4235,0 2.588,0.9 2.588,2 0,1.9777 -4.0932,2.7957 -5.7415,1.1474 z m -18.9252,-4.4807 c -1.0429,-1.6875 0.7222,-1.6875 3.3334,0 1.7236,1.1139 1.6884,1.2953 -0.2547,1.3129 -1.24,0.011 -2.6255,-0.5796 -3.0787,-1.3129 z m -54.6693,-20.2533 c 0.6197,-3.26894 8.368,-17.08004 9.5822,-17.08004 0.6739,0 -2.0214,5.1214 -4.9118,9.3333 -1.2581,1.8333 -2.9767,5.1333 -3.8189,7.33334 -1.421,3.7115 -1.4824,3.7413 -0.8515,0.4134 z m 98.8439,-10.71864 c -0.6264,-2.3197 1.4409,-6.352 8.8372,-17.2365 5.3102,-7.8146 9.8129,-14.05658 10.006,-13.87108 0.7669,0.7366 -14.0716,30.85648 -15.982,32.44088 -1.7186,1.4254 -2.1734,1.2134 -2.8612,-1.3333 z m -88.8412,-8.5001 c 0,-1.4773 9.6225,-20.68318 10.1156,-20.19008 0.9156,0.91558 -5.5882,16.68018 -7.7823,18.86378 -1.2833,1.2772 -2.3333,1.874 -2.3333,1.3263 z m -106.938,-25.93338 c -6.5333,-3.8094 -30.4004,-12.152 -45.062,-15.7512 -34.6352,-8.5025 -66.869,-8.9734 -103.3276,-1.5096 -6.5968,1.3505 -12.1133,2.3365 -12.2587,2.191 -0.1455,-0.1454 41.8519,-19.97099 93.3276,-44.05678 51.4756,-24.08578 93.6973,-43.87462 93.8259,-43.97521 0.1287,-0.10053 -1.8718,-7.07761 -4.4455,-15.50451 -4.8034,-15.72761 -11.1436,-41.75867 -11.0387,-45.32164 0.032,-1.1 1.562,3.08671 3.3992,9.3038 9.1847,31.08162 16.594,34.31191 52.53,22.90192 15.4154,-4.89453 16.9049,-5.14029 20.0206,-3.30352 3.8575,2.27405 -35.3688,20.23295 349.3005,-159.91956 C 2333.0649,340.24187 2645.918,193.74543 2655.692,189.21772 l 11,-5.09563 v 24.38188 24.38188 l -109.0001,54.13427 c -59.95,29.77386 -357.2157,178.07454 -660.5904,329.55709 -303.3746,151.48253 -552.1393,275.4228 -552.8101,275.4228 -0.6709,0 -5.9552,-6.62337 -11.7429,-14.71861 l -10.5232,-14.71862 -0.7166,7.05195 c -0.3941,3.87857 -1.7501,8.98393 -3.0135,11.34524 -1.2633,2.36131 -10.3343,12.30276 -20.1577,22.09209 -14.0981,14.04931 -18.2141,18.97856 -19.5385,23.39908 -1.815,6.05784 -0.8598,12.44454 3.2727,21.88224 3.745,8.5526 1.2373,5.509 -5.2179,-6.3334 -3.3978,-6.2333 -6.7347,-11.3333 -7.4153,-11.3333 -0.6806,0 -13.8266,6.3 -29.2132,14 -15.3867,7.7 -28.1312,13.9818 -28.3212,13.9594 -0.19,-0.022 -1.3676,-0.6365 -2.6168,-1.3648 z m 9.8152,-169.26127 c 0,-1.83334 0.3026,-2.58334 0.6725,-1.66667 0.3699,0.91667 0.3699,2.41667 0,3.33333 -0.3699,0.91667 -0.6725,0.16667 -0.6725,-1.66666 z m -1.4386,-7.44444 c 0.064,-1.55327 0.3799,-1.8692 0.8055,-0.80556 0.3852,0.96249 0.3378,2.1125 -0.1052,2.55556 -0.443,0.44305 -0.7582,-0.34446 -0.7003,-1.75 z m 56.1257,-5.86164 c -1.9139,-2.5887 -8.0548,-6.40282 -17.9053,-11.12112 -8.2458,-3.94964 -16.82,-8.71966 -19.0538,-10.60003 -5.6635,-4.76751 -11.0482,-15.25873 -13.3099,-25.93225 -5.6307,-26.57226 1.0387,-78.94204 14.0266,-110.14034 5.846,-14.04264 9.5033,-18.25056 15.7966,-18.17458 l 4.8815,0.0589 -4.7821,2.52776 c -9.1076,4.81427 -14.7227,23.36749 -14.653,48.41575 0.047,16.83726 2.9841,28.69892 12.7738,51.58457 3.926,9.17807 9.0968,23.42151 11.4906,31.65209 2.3938,8.23058 4.5846,14.73246 4.8685,14.4486 0.2838,-0.28385 -0.724,-6.71796 -2.2396,-14.29802 -7.3325,-36.67147 -10.5571,-77.41258 -8.2341,-104.03495 2.4799,-28.42171 4.1361,-27.31387 3.3682,2.25301 -0.3809,14.66667 -1.0375,29.00431 -1.4592,31.86143 -0.6801,4.60843 -0.4864,5.11484 1.7168,4.48665 1.3659,-0.38945 317.1834,-129.85703 701.8167,-287.70571 384.6334,-157.84868 700.3834,-287.287649 701.6667,-287.642159 2.1596,-0.59656 2.3334,1.13929 2.3334,23.306359 v 23.95093 l -222.3334,98.09158 c -122.2833,53.95036 -378.9333,167.19473 -570.3333,251.65416 -191.4,84.45942 -405.4362,178.86027 -475.636,209.77967 -87.242,38.42564 -127.6456,56.85188 -127.6666,58.22287 -0.017,1.10318 1.4724,6.15001 3.3096,11.21517 1.8372,5.06517 3.1446,9.40519 2.9053,9.64449 -0.2393,0.23931 -1.7459,-1.33788 -3.348,-3.50485 z M 426.0252,464.89324 c -75.5333,-34.64294 -141.1866,-65.0547 -145.8963,-67.5817 -11.9548,-6.41443 -23.6512,-17.86607 -24.8224,-24.30278 -1.3752,-7.55868 0.2893,-11.72829 7.4374,-18.63044 9.8397,-9.50109 29.4077,-18.26865 55.8295,-25.01473 l 10.3616,-2.64556 132.5451,57.36447 c 72.8998,31.55045 156.3889,67.66509 185.5313,80.25476 29.1425,12.58968 52.5425,23.297 52,23.79405 -1.4646,1.34221 -130.4624,39.87865 -133.2571,39.80889 -1.3177,-0.0329 -64.1957,-28.40402 -139.7291,-63.04696 z m 347.3334,-27.54925 c -57.298,-2.70399 -123.4891,-15.34243 -181.3334,-34.6236 -60.085,-20.02808 -94.475,-36.98208 -113.3966,-55.90367 -24.0589,-24.05894 -16.7011,-45.12128 20.4599,-58.56769 12.5574,-4.5438 42.9669,-11.45575 59.3215,-13.48352 15.7808,-1.95664 81.6874,-3.22104 93.9486,-1.80239 5.6833,0.65759 10.3265,0.85989 10.3183,0.44957 -0.01,-0.4103 -21.2755,-8.78897 -47.2604,-18.61925 -39.368,-14.89317 -48.4489,-18.81787 -54.4639,-23.53877 -8.1625,-6.40652 -12.7205,-12.94688 -13.843,-19.8636 -1.9112,-11.77796 13.4633,-22.00248 42.1631,-28.03967 l 9.1816,-1.93141 140.4521,53.39758 c 77.2487,29.36868 187.8522,71.41105 245.7855,93.42749 57.9334,22.01645 106.0847,40.44262 107.003,40.94706 0.9182,0.50444 -20.9822,7.71482 -48.6676,16.02306 l -50.3372,15.10589 -33.1728,-12.20901 c -18.2451,-6.71495 -33.4144,-11.96751 -33.7095,-11.67235 -0.2952,0.29515 1.4853,2.95676 3.9565,5.91467 2.4713,2.95792 5.2979,7.32057 6.2813,9.6948 1.5474,3.73564 1.4989,4.78576 -0.3596,7.80046 -1.1813,1.91603 -3.3494,6.02232 -4.8181,9.1251 -5.9889,12.65216 -30.3543,21.93998 -68.8849,26.25813 -22.3731,2.50737 -60.8205,3.42323 -88.6244,2.11112 z m 61.886,-53.31485 c 12.6189,-3.22736 22.6214,-8.48923 24.6654,-12.9754 1.3315,-2.92235 0.9853,-4.20891 -2.6628,-9.89387 -8.9752,-13.98676 -23.0751,-22.54029 -59.222,-35.92648 -40.6328,-15.04747 -74.0267,-22.74512 -110.3626,-25.43979 -25.3358,-1.8789 -40.303,-0.70252 -53.3248,4.1912 -18.7792,7.0574 -21.7084,17.79383 -8.007,29.3487 5.1813,4.3696 48.9832,26.4472 64.3631,32.4411 13.0794,5.09735 30.2579,9.81675 51.8698,14.25003 24.109,4.94552 36.5604,6.23868 62.2483,6.46487 16.1102,0.14186 22.1753,-0.34847 30.4326,-2.46036 z m 463.4473,-10.30071 -70,-46.17551 -18,-3.69281 c -252.4914,-51.80015 -454.44,-93.46028 -456,-94.06862 -1.1,-0.42894 22.77,-6.49136 53.0445,-13.47204 l 55.0444,-12.69214 121.6223,27.64301 c 66.8922,15.20367 127.4309,29.08752 134.5305,30.85301 7.0995,1.76551 13.9995,3.1987 15.3333,3.18487 1.3338,-0.0139 -7.175,-5.01903 -18.9083,-11.12267 -18.3022,-9.52073 -41.2799,-22.7683 -120.2898,-69.35169 -7.4927,-4.41763 -13.4617,-8.19344 -13.2645,-8.39069 0.1973,-0.19727 22.1662,-5.39935 48.8198,-11.56018 l 48.4612,-11.20152 19.47,11.62164 c 20.0472,11.96619 152.5242,90.8478 251.47,149.73438 30.8,18.33032 70.0388,41.73317 87.1973,52.00636 l 31.1973,18.67851 -49.1973,17.09472 c -27.0585,9.4021 -49.4973,17.09296 -49.864,17.0908 -0.3667,-0.003 -32.1667,-20.7829 -70.6667,-46.17943 z M 135.6898,324.6424 c -36.4161,-4.40757 -68.125,-13.73897 -81.5929,-24.01146 -2.5833,-1.97039 -6.018,-5.72009 -7.6327,-8.33266 l -2.9357,-4.75012 4.9233,-4.25588 c 12.4416,-10.75488 53.3973,-17.74261 94.9068,-16.19269 45.9828,1.71696 94.1338,13.96594 111.1346,28.27117 8.3727,7.04518 4.3109,15.22196 -10.2878,20.71023 -25.0992,9.43587 -71.2242,13.07492 -108.5156,8.56141 z m 1206.2208,-107.83121 -121.4481,-40.3024 -12.4072,-8.59056 c -26.0631,-18.04564 -27.3261,-28.3577 -4.4098,-36.00575 l 8.2869,-2.76567 25.0465,7.96387 c 13.7755,4.38012 26.356,8.34972 27.9567,8.82132 2.6789,0.78927 2.4934,0.0516 -2.3333,-9.27569 -5.6282,-10.87616 -6.6328,-17.74342 -3.1108,-21.26535 11.0657,-11.06573 75.1688,-15.923089 121.8671,-9.23437 32.1211,4.60078 71.3671,14.35321 117.3333,29.15669 106.3051,34.23567 177.7807,58.49621 175.3334,59.51243 -1.4667,0.60902 -16.132,5.11705 -32.5896,10.01786 l -29.923,8.91055 -16.7437,-5.46424 c -93.0511,-30.36683 -182.1769,-58.67367 -194.6931,-61.83549 -20.4706,-5.17134 -39.4552,-6.29372 -54.5885,-3.22734 -14.9555,3.03039 -20.682,5.80123 -21.1996,10.25772 -0.9135,7.86614 17.2909,15.3355 131.5169,53.96194 47.532,16.07333 81.0343,28.05978 80,28.62244 -2.6853,1.46085 -69.1069,21.28076 -70.8936,21.1543 -0.8538,-0.0604 -56.2041,-18.24594 -123.0005,-40.41226 z m 367.448,-58.24248 c -94.9108,-9.09111 -188.5097,-35.20072 -226.4427,-63.166549 -10.8716,-8.01499 -14.8336,-15.65751 -11.6137,-22.40233 11.7399,-24.592299 112.7028,-31.122779 208.7231,-13.500619 65.6484,12.048149 129.3237,34.522119 153.0782,54.028458 14.0598,11.54537 15.8846,18.88308 6.7484,27.13696 -7.757,7.00805 -16.6317,10.66246 -35.8266,14.75265 -14.9948,3.1952 -19.9435,3.59225 -49.3334,3.95809 -17.9666,0.22364 -38.3666,-0.13936 -45.3333,-0.80666 z m 41.0188,-29.999 c 6.8371,-2.80052 6.9716,-5.62487 0.5395,-11.33283 -12.474,-11.06976 -40.1542,-22.110269 -81.3367,-32.442089 -50.8888,-12.76695 -89.4023,-14.85727 -103.5036,-5.6177 -6.7477,4.42127 -2.9436,9.35819 13.3276,17.2962 48.0829,23.457589 146.814,41.992159 170.9732,32.096419 z"
       id="path613" /></g></svg>
