<?xml version="1.0" encoding="UTF-8" standalone="no"?>
<!-- Created with Inkscape (http://www.inkscape.org/) -->

<svg
   version="1.1"
   id="svg307"
   width="2666.6667"
   height="2666.6667"
   viewBox="0 0 2666.6667 2666.6667"
   xml:space="preserve"
   xmlns="http://www.w3.org/2000/svg"
   xmlns:svg="http://www.w3.org/2000/svg"><defs
     id="defs311" /><g
     id="g313"><path
       style="fill:#000000;stroke-width:1.33333"
       d="m 1079.2912,1504.3187 c 0,-0.5548 54.5182,-66.1214 71.4433,-85.9216 1.4435,-1.6887 -4.0319,-15.2263 -34.2439,-84.6667 -19.7792,-45.4612 -36.3074,-84.0141 -36.7294,-85.6733 l -0.7674,-3.0165 49.0591,0.3499 49.0591,0.3499 14.8205,48 c 8.1513,26.4 15.4093,50.0831 16.1288,52.6291 l 1.3082,4.6292 4.4673,-7.9626 c 5.6482,-10.0673 13.2389,-20.9254 44.4818,-63.629 l 25.119,-34.3334 h 48.5935 c 32.5675,0 48.5935,0.4546 48.5935,1.3785 0,0.7582 -6.0396,9.0082 -13.4212,18.3333 -16.9807,21.4515 -42.7366,54.031 -62.4181,78.9549 -8.3967,10.6333 -18.3682,23.2333 -22.1588,28 -14.3023,17.9852 -63.5736,80.3648 -83.9886,106.3333 l -21.226,27 h -49.0603 c -26.9832,0 -49.0604,-0.3397 -49.0604,-0.755 z m -439.99885,-86.2275 c 6e-4,-0.1929 6.83801,-28.8508 15.19424,-63.6841 16.92889,-70.5689 18.14264,-73.9081 30.79304,-84.7156 14.88717,-12.7185 38.87929,-20.8927 68.214,-23.2406 7.95393,-0.6367 14.71195,-0.9073 15.01783,-0.6014 0.30586,0.3059 -4.12923,21.4065 -9.85576,46.8902 -5.72655,25.4837 -14.38987,64.034 -19.25184,85.6674 l -8.83995,39.3333 -45.63633,0.3508 c -25.09999,0.1929 -45.63585,0.1929 -45.63523,0 z m 211.60384,-1.7367 c -33.67596,-6.6968 -59.67929,-26.5138 -67.12275,-51.154 -3.02434,-10.0116 -2.97257,-32.4717 0.10147,-44.0316 9.30676,-34.9975 43.67924,-63.4548 88.08296,-72.9247 13.33693,-2.8444 44.57092,-3.9241 56.02163,-1.9365 12.65917,2.1973 31.93187,8.7519 39.73364,13.5134 3.53205,2.1556 6.57895,3.9193 6.77087,3.9193 0.19193,0 2.10206,-10.0466 4.24474,-22.3259 l 3.89579,-22.3259 6.10721,-7.3407 c 17.74945,-21.3347 50.39065,-35.9816 80.22615,-35.9996 10.8558,-0.01 13,0.3329 13,2.0585 0,1.7452 -45.1358,215.4832 -49.471,234.2669 l -1.4617,6.3334 h -43.20031 c -40.25814,0 -43.19967,-0.159 -43.19028,-2.3334 0.0107,-2.5538 2.28405,-17.911 3.34634,-22.6086 0.55684,-2.4624 -0.84665,-1.8047 -8.60938,4.0352 -7.02562,5.2852 -13.09065,8.3313 -25.01086,12.5617 -8.65489,3.0715 -19.29637,6.2056 -23.64772,6.9648 -10.58439,1.8465 -28.68721,1.5409 -39.81684,-0.6723 z m 70.66101,-42.1248 c 11.16994,-2.1221 28.0629,-15.081 34.0867,-26.1488 3.80788,-6.9964 6.95856,-22.2654 6.67325,-32.3405 -0.62049,-21.9112 -22.29578,-35.5992 -47.84859,-30.2164 -25.13913,5.2957 -38.70384,19.1553 -46.43705,47.4467 -4.55835,16.6764 1.57783,30.6732 17.0514,38.895 9.50324,5.0495 19.07372,5.6698 36.47429,2.364 z m 444.4086,43.1774 c 0,-0.55 4.7788,-27.5606 10.61,-60.0234 l 10.6021,-59.0234 6.39,-7.4189 c 19.5574,-22.7066 46.5994,-36.2867 76.9286,-38.6324 l 11.8718,-0.9182 -0.8957,6.5081 c -0.4927,3.5795 -1.2799,9.7625 -1.7493,13.7399 l -0.8536,7.2318 7.2108,-4.2521 c 43.5416,-25.6757 63.4266,-31.6032 95.2096,-28.381 16.3797,1.6606 34.4386,6.299 44.4112,11.407 8.0712,4.1341 16.7528,13.1568 19.9776,20.7626 3.5044,8.265 4.6098,20.2377 2.9596,32.0547 -1.088,7.7916 -16.7256,74.4578 -24.1474,102.9453 l -1.3026,5 h -43.4266 -43.4264 l 0.7268,-3 c 0.3998,-1.65 4.9248,-24.3 10.0558,-50.3334 11.3117,-57.3934 11.2694,-58.9922 -1.7307,-65.6244 -4.6536,-2.374 -7.7619,-2.7525 -22.0892,-2.6897 -13.8108,0.061 -17.9327,0.5673 -24.0069,2.9511 -12.9208,5.0706 -20.9803,15.3053 -26.742,33.9596 -2.1071,6.8221 -19.9247,82.0649 -19.9247,84.1412 0,0.3276 -19.5,0.5956 -43.3333,0.5956 -23.8334,0 -43.3298,-0.45 -43.3255,-1 z m 423.9921,0.091 c -43.3428,-3.1992 -77.9742,-22.4722 -90.6074,-50.4245 -4.2311,-9.3619 -5.24,-27.9041 -2.108,-38.7462 15.6489,-54.1731 88.1209,-88.3868 173.5078,-81.9124 39.0472,2.9607 69.2424,14.3361 88.7672,33.4412 11.2928,11.05 15.0362,19.7944 15.076,35.2174 0.035,13.3476 -1.8457,21.546 -7.597,33.1255 -9.5375,19.2022 -24.298,32.534 -53.0386,47.9045 -31.3946,16.7901 -77.8326,24.8023 -124,21.3945 z m 60.5066,-44.2461 c 12.3438,-6.0769 26.3673,-19.5637 31.7862,-30.57 4.0278,-8.1807 4.3711,-9.8887 4.3378,-21.5794 -0.033,-11.5238 -0.3862,-13.2881 -3.8284,-19.1143 -6.817,-11.5385 -17.4844,-15.9512 -38.1355,-15.7755 -21.5203,0.1832 -34.09,4.9327 -45.5888,17.2258 -21.2245,22.6908 -20.7403,55.0105 1.0153,67.7601 10.0012,5.8612 16.087,7.245 29.5672,6.7238 10.567,-0.4086 13.5435,-1.0756 20.8462,-4.6705 z M 723.95791,1225.477 c -22.26657,-2.9533 -37.04761,-15.5382 -37.04761,-31.5433 0,-8.3032 2.6417,-13.8603 10.15609,-21.3643 7.35324,-7.343 16.48389,-10.3728 33.63869,-11.1622 29.10635,-1.3393 48.55503,9.7516 50.83336,28.9885 2.73474,23.0906 -24.21066,39.5072 -57.58053,35.0813 z"
       id="path1072" /></g></svg>
