<?xml version="1.0" encoding="UTF-8" standalone="no"?>
<!-- Created with Inkscape (http://www.inkscape.org/) -->

<svg
   version="1.1"
   id="svg997"
   width="2666.6667"
   height="2666.6667"
   viewBox="0 0 2666.6667 2666.6667"
   sodipodi:docname="pattern10001.png"
   xml:space="preserve"
   xmlns:inkscape="http://www.inkscape.org/namespaces/inkscape"
   xmlns:sodipodi="http://sodipodi.sourceforge.net/DTD/sodipodi-0.dtd"
   xmlns="http://www.w3.org/2000/svg"
   xmlns:svg="http://www.w3.org/2000/svg"><defs
     id="defs1001" /><sodipodi:namedview
     id="namedview999"
     pagecolor="#ffffff"
     bordercolor="#000000"
     borderopacity="0.25"
     inkscape:showpageshadow="2"
     inkscape:pageopacity="0.0"
     inkscape:pagecheckerboard="0"
     inkscape:deskcolor="#d1d1d1"
     showgrid="false" /><g
     inkscape:groupmode="layer"
     inkscape:label="Image"
     id="g1003"><path
       style="fill:#000000;stroke-width:1.33333"
       d="m 1.5929802,2648.7791 v -22.6667 H 14.92628 28.25968 v 22.6667 22.6666 H 14.92628 1.5929802 Z m 101.3332998,0 v -22.6667 h 35.3334 35.3333 v 22.6667 22.6666 h -35.3333 -35.3334 z m 145.3334,0 v -22.6667 h 36 36 v 22.6667 22.6666 h -36 -36 z m 146.6666,0 v -22.6667 h 36 36 v 22.6667 22.6666 h -36 -36 z m 146.6667,0 v -22.6667 h 36 36 v 22.6667 22.6666 h -36 -36 z m 145.3333,0 v -22.6667 h 36 36 v 22.6667 22.6666 h -36 -36 z m 146.6667,0 v -22.6667 h 36 36 v 22.6667 22.6666 h -36 -36 z m 146.6667,0 v -22.6667 h 36.00002 36 v 22.6667 22.6666 h -36 -36.00002 z m 146.18772,1.6666 c 0.1032,-11.55 0.2533,-21.75 0.3334,-22.6666 0.1125,-1.2878 8.1787,-1.6667 35.4789,-1.6667 h 35.3333 v 22.6667 22.6666 h -35.6667 -35.6666 z m 145.8123,-1.6666 v -22.6667 h 36 36 v 22.6667 22.6666 h -36 -36 z m 146.6667,0 v -22.6667 h 36 36 v 22.6667 22.6666 h -36 -36 z m 146.6666,0 v -22.6667 h 36 36 v 22.6667 22.6666 h -36 -36 z m 145.3334,0 v -22.6667 h 36 36 v 22.6667 22.6666 h -36 -36 z m 146.6666,0 v -22.6667 h 36 36 v 22.6667 22.6666 h -36 -36 z m 146.6667,0 v -22.6667 h 36 36 v 22.6667 22.6666 h -36 -36 z m 145.3333,0 v -22.6667 h 36 36 v 22.6667 22.6666 h -36 -36 z m 146.6667,0 v -22.6667 h 36 36 v 22.6667 22.6666 h -36 -36 z m 146.6667,0 v -22.6667 h 36 36 v 22.6667 22.6666 h -36 -36 z m 146.6666,0 v -22.6667 h 35.3334 c 19.4333,0 35.3898,0.45 35.4589,1 0.069,0.55 0.2333,10.75 0.3652,22.6667 l 0.2396,21.6666 h -35.6985 -35.6986 z m -2560.00002,-60 v -36 h 36 36 v 36 36 h -36 -36 z m 145.3333,0 v -36 h 36 36 v 36 36 h -36 -36 z m 146.6667,0 v -36 h 36 36 v 36 36 h -36 -36 z m 146.6667,0 v -36 h 36 36 v 36 36 h -36 -36 z m 146.6666,0 v -36 h 35.3334 35.3333 v 36 36 h -35.3333 -35.3334 z m 145.3334,0 v -36 h 36 36 v 36 36 h -36 -36 z m 146.6666,0 v -36 h 36 36 v 36 36 h -36 -36 z m 146.66672,0 v -36 h 36 36 v 36 36 h -36 -36 z m 145.3333,0 v -36 h 36 36 v 36 36 h -36 -36 z m 146.6667,0 v -36 h 36 36 v 36 36 h -36 -36 z m 146.6667,0 v -36 h 36 36 v 36 36 h -36 -36 z m 145.3333,0 v -36 h 36 36 v 36 36 h -36 -36 z m 146.6667,0 v -36 h 36 36 v 36 36 h -36 -36 z m 146.6667,0 v -36 h 36 36 v 36 36 h -36 -36 z m 146.6666,0 v -36 h 36 36 v 36 36 h -36 -36 z m 145.3334,0 v -36 h 36 36 v 36 36 h -36 -36 z m 146.6666,0 v -36 h 36 36 v 36 36 h -36 -36 z m 146.6667,0 v -36 h 36 36 v 36 36 h -36 -36 z m 145.3333,0 v -36 h 3.3334 3.3333 v 36 36 h -3.3333 -3.3334 z M 1.5929802,2515.4457 v -36 H 14.92628 28.25968 v 36 36 H 14.92628 1.5929802 Z m 101.3332998,0 v -36 h 35.3334 35.3333 v 36 36 h -35.3333 -35.3334 z m 145.3334,0 v -36 h 36 36 v 36 36 h -36 -36 z m 146.6666,0 v -36 h 36 36 v 36 36 h -36 -36 z m 146.6667,0 v -36 h 36 36 v 36 36 h -36 -36 z m 145.3333,0 v -36 h 36 36 v 36 36 h -36 -36 z m 146.6667,0 v -36 h 36 36 v 36 36 h -36 -36 z m 146.6667,0 v -36 h 36.00002 36 v 36 36 h -36 -36.00002 z m 146.55542,35.6667 c -0.1546,-0.4636 -0.167,-60.5291 -0.014,-66.6667 l 0.1249,-5 h 35.3334 35.3333 v 36 36 h -35.3333 c -19.4334,0 -35.3834,-0.15 -35.4446,-0.3333 z m 145.4446,-35.6667 v -36 h 36 36 v 36 36 h -36 -36 z m 146.6667,0 v -36 h 36 36 v 36 36 h -36 -36 z m 146.6666,-0.021 v -36.0219 l 35.6667,0.3552 35.6667,0.3551 0.355,35.6667 0.3552,35.6666 h -36.0218 -36.0218 z m 145.3334,0.021 v -36 h 36 36 v 36 36 h -36 -36 z m 146.6666,0 v -36 h 36 36 v 36 36 h -36 -36 z m 146.6667,0 v -36 h 36 36 v 36 36 h -36 -36 z m 145.6449,0.3334 0.3551,-35.6667 35.6667,-0.3551 35.6666,-0.3552 v 36.0219 36.0217 h -36.0217 -36.0219 z m 146.3551,-0.3334 v -36 h 36 36 v 36 36 h -36 -36 z m 146.6667,0 v -36 h 36 36 v 36 36 h -36 -36 z m 146.6666,-0.021 v -36.0219 l 35.6667,0.3552 35.6667,0.3551 -0.2583,34.6667 c -0.1421,19.0666 -0.2921,35.1166 -0.3333,35.6666 -0.041,0.55 -15.9751,1 -35.4084,1 H 2589.593 Z M 29.59298,2442.0911 v -36.0219 l 35.6667,0.3552 35.6666,0.3551 0.3551,35.6666 0.3552,35.6667 h -36.0218 l -36.0218,-4e-4 v -36.0217 z m 145.3333,0.021 v -36 h 36 36 v 36 36 h -36 -36 z m 146.6667,0 v -36 h 36 36 v 36 36 h -36 -36 z m 146.6667,0 v -36 h 36 36 v 36 36 h -36 -36 z m 146.6666,0 v -36 h 35.3334 35.3333 v 36 36 h -35.3333 -35.3334 z m 145.3334,0 v -36 h 36 36 v 36 36 h -36 -36 z m 146.6666,0 v -36 h 36 36 v 36 36 h -36 -36 z m 146.66672,-0.021 v -36.0219 l 35.6667,0.3552 35.6666,0.3551 0.3552,35.6666 0.3551,35.6667 h -36.0218 -36.0218 z m 145.3333,0.021 v -36 h 36 36 v 36 36 h -36 -36 z m 146.6667,0 v -36 h 36 36 v 36 36 h -36 -36 z m 146.6667,-0.021 v -36.0219 l 35.6667,0.3552 35.6666,0.3551 0.3551,35.6666 0.3552,35.6667 h -36.0219 -36.0217 z m 145.6449,0.355 0.3551,-35.6666 35.6667,-0.3551 35.6666,-0.3552 v 36.0219 36.0217 h -36.0217 -36.0219 z m 146.3551,-0.3337 v -36 h 36 36 v 36 36 h -36 -36 z m 146.6667,0 v -36 h 36 36 v 36 36 h -36 -36 z m 146.6666,-0.021 v -36.0219 l 35.6667,0.3552 35.6667,0.3551 0.355,35.6666 0.3552,35.6667 h -36.0218 -36.0218 z m 145.3334,0.021 v -36 h 36 36 v 36 36 h -36 -36 z m 146.6666,0 v -36 h 36 36 v 36 36 h -36 -36 z m 146.6667,-0.021 v -36.0219 l 35.6667,0.3552 35.6666,0.3551 0.3551,35.6666 0.3552,35.6667 h -36.0219 -36.0217 z m 145.6449,0.355 0.3551,-35.6666 3,-0.4262 3,-0.426 v 36.0927 36.0928 h -3.3551 -3.3552 z M 1.9045802,2369.3495 l 0.3551,-35.4299 H 13.59298 c 6.2333,0 12.0833,0.041 13,0.096 1.2889,0.077 1.6667,8.1099 1.6667,35.434 v 35.3334 H 14.90458 1.5493802 l 0.3552,-35.4299 z m 101.0216998,0.097 c 0,-27.3137 0.3783,-35.3607 1.6667,-35.4535 1.9513,-0.1408 56.6582,-0.1213 64,0.023 l 5,0.097 v 35.3334 35.3333 h -35.3333 -35.3334 v -35.3333 z m 145.3334,0 v -35.3333 l 3,-0.1214 c 1.65,-0.067 17.7,-0.1706 35.6666,-0.2306 l 32.6667,-0.1094 0.3551,35.5642 0.3551,35.564 h -36.0218 -36.0217 v -35.3334 z m 146.9782,-0.1372 0.3551,-35.4705 h 27.3333 c 15.0334,-5e-4 31.0834,0.061 35.6667,0.1372 l 8.3333,0.1382 v 35.3333 35.3334 h -36.0217 -36.0218 z m 146.3551,0.1372 v -35.3333 l 3,-0.1054 c 3.8781,-0.1369 57.4497,-0.1358 64,0 l 5,0.1054 v 35.3333 35.3334 h -36 -36 z m 145.3333,0 c 0,-27.3199 0.378,-35.358 1.6667,-35.4419 6.9971,-0.4553 67.3559,-0.5965 68.6667,-0.1605 1.2772,0.4248 1.6666,8.7771 1.6666,35.7451 v 35.1907 h -36 -36 z m 146.6666,-0.3333 v -35.6667 l 32.3334,0.2536 c 17.7834,0.1396 33.9834,0.2896 36,0.3333 l 3.6667,0.08 v 35.3334 35.3333 h -36 -36 l -10e-5,-35.6667 z m 146.6668,0.3333 v -35.3333 l 5,-0.128 c 18.78542,-0.4798 63.96482,-0.5658 65.33332,-0.124 1.2777,0.412 1.6667,8.751 1.6667,35.7281 v 35.1907 h -36 -36.00002 v -35.3334 z m 146.11792,-0.2881 0.118,-35.6216 35.5487,-0.045 35.5486,-0.045 10e-5,35.6667 10e-5,35.6666 -35.6667,2e-4 h -35.6667 l 0.118,-35.6216 z m 146.1936,0.032 0.3551,-35.5898 32,-0.083 c 17.6,-0.045 33.6501,0.138 35.6667,0.4077 l 3.6667,0.4904 v 35.182 35.182 h -36.0218 -36.0218 z m 146.3552,0.3906 v -35.199 l 5.9868,-0.4762 c 3.2928,-0.2618 19.3428,-0.4528 35.6666,-0.4242 l 29.6799,0.052 0.3551,35.6233 0.3552,35.6234 h -36.0219 -36.0217 v -35.1991 z m 146.9782,-0.3806 0.3551,-35.5796 34,0.1468 c 18.7,0.08 34.75,0.1914 35.6667,0.2462 1.2889,0.077 1.6666,8.1083 1.6666,35.433 v 35.3333 h -36.0217 -36.0219 z m 145.0218,0.2461 c 0,-27.3067 0.3786,-35.3636 1.6666,-35.4667 0.9167,-0.073 17.1167,-0.2233 35.9999,-0.3333 l 34.3333,-0.2 v 35.6667 l 2e-4,35.6667 h -36 -36 z m 146.6666,0 v -35.3333 l 4.3334,-0.139 c 4.67,-0.1498 65.0104,-0.108 66.6666,0.045 0.55,0.051 1,15.993 1,35.4264 v 35.3333 h -36 -36 v -35.3337 z m 146.6667,0 v -35.3333 l 4.3333,-0.095 c 2.3834,-0.052 18.4334,-0.1549 35.6667,-0.2293 l 31.3333,-0.1354 0.3551,35.5627 0.3552,35.5627 h -36.0219 -36.0217 v -35.3334 z m 145.3333,0 c 0,-19.4333 0.45,-35.3917 1,-35.4632 0.55,-0.071 16.75,-0.2213 36,-0.3333 l 35.0002,-0.2035 -2e-4,35.6667 v 35.6667 h -36 -36 z m 146.6666,-0.3333 -2e-4,-35.6667 35.0002,0.2451 c 19.2501,0.1346 35.4501,0.2846 36.0001,0.3333 0.55,0.048 1,15.9883 1,35.4216 v 35.3334 h -36 -36 z m 146.667,0 4e-4,-35.6667 34.333,0.1789 c 18.8832,0.099 35.083,0.2484 35.9997,0.3334 1.2875,0.12 1.6667,8.1922 1.6667,35.4877 v 35.3334 h -36 -36 z m 146.6663,0.021 v -35.6884 l 35.5219,0.108 35.5218,0.108 0.108,35.2255 0.108,35.2254 -35.6298,0.3551 -35.6299,0.3552 -1e-4,-35.6885 z M 29.59298,2296.8013 v -36.0218 h 36.0218 36.0218 l -0.3552,35.6667 -0.3551,35.6667 -35.6666,0.355 -35.6667,0.3552 z m 146.2222,35.0893 c -0.4889,-0.4888 -0.8889,-16.6888 -0.8889,-36 v -35.1111 h 36 36 v 36 36 h -35.1111 c -19.3111,0 -35.5111,-0.4 -36,-0.8889 z m 145.7778,-35.1111 v -36 h 36 36 v 36 36 h -36 -36 z m 146.6667,0.021 v -36.0218 h 36.0217 36.0218 l -0.3551,35.6667 -0.3551,35.6667 -35.6667,0.355 -35.6666,0.3552 z m 146.6666,-0.021 v -36 h 35.3334 35.3333 v 36 36 h -35.3333 -35.3334 z m 146.2223,35.1111 c -0.4889,-0.4888 -0.8889,-16.6888 -0.8889,-36 v -35.1111 h 36 36 v 36 36 h -35.1111 c -19.3112,0 -35.5112,-0.4 -36,-0.8889 z m 145.7777,-35.1111 v -36 h 36 36 v 36 36 h -36 -36 z m 146.66672,0.021 v -36.0218 h 36.0218 36.0218 l -0.3551,35.6667 -0.3552,35.6667 -35.6666,0.355 -35.6667,0.3552 z m 146.2222,35.0893 c -0.4889,-0.4884 -0.8889,-16.6884 -0.8889,-35.9996 v -35.1111 h 36 36 v 36 36 h -35.1111 c -19.3111,0 -35.5111,-0.4 -36,-0.8889 z m 145.7778,-35.1107 v -36 h 36 36 v 36 36 h -36 -36 z m 146.6667,0.021 v -36.0218 h 36.0217 36.0219 l -0.3552,35.6667 -0.3551,35.6667 -35.6666,0.355 -35.6667,0.3552 z m 146.2223,35.0893 c -0.489,-0.4888 -0.889,-16.6888 -0.889,-36 v -35.1111 h 36 36 v 36 36 h -35.111 c -19.3112,0 -35.5112,-0.4 -36,-0.8889 z m 146.6666,0 c -0.4889,-0.4888 -0.8889,-16.6888 -0.8889,-36 v -35.1111 h 36 36 v 36 36 h -35.1111 c -19.3112,0 -35.5112,-0.4 -36,-0.8889 z m 145.7778,-35.0889 v -36.0218 h 36.0217 36.0219 l -0.3552,35.6667 -0.3551,35.6667 -35.6667,0.355 -35.6666,0.3552 z m 146.6666,0 v -36.0218 h 36.0218 36.0218 l -0.3552,35.6667 -0.355,35.6667 -35.6667,0.355 -35.6667,0.3552 z m 146.2223,35.0893 c -0.4889,-0.4888 -0.8889,-16.6888 -0.8889,-36 v -35.1111 h 36 36 v 36 36 h -35.1111 c -19.3112,0 -35.5112,-0.4 -36,-0.8889 z m 145.7777,-35.1111 v -36 h 36 36 v 36 36 h -36 -36 z m 146.6667,0.021 v -36.0218 h 36.0217 36.0219 l -0.3552,35.6667 -0.3551,35.6667 -35.6666,0.355 -35.6667,0.3552 z m 146.2223,35.0893 c -0.489,-0.4888 -0.889,-16.6888 -0.889,-36 v -35.1111 h 3.3334 3.3333 v 36 c 0,34.0203 -0.1344,36 -2.4444,36 -1.3445,0 -2.8445,-0.4 -3.3333,-0.8889 z M 1.5929802,2223.4457 v -36 H 14.92628 28.25968 v 36 36 H 14.92628 1.5929802 Z m 101.3332998,0 v -36 h 35.3334 35.3333 v 36 36 h -35.3333 -35.3334 z m 145.3334,0 v -36 h 36 36 v 36 36 h -36 -36 z m 146.6666,0 v -36 h 36 36 v 36 36 h -36 -36 z m 146.6667,0 v -36 h 36 36 v 36 36 h -36 -36 z m 145.3333,0 v -36 h 36 36 v 36 36 h -36 -36 z m 146.6667,0 v -36 h 36 36 v 36 36 h -36 -36 z m 146.6667,0 v -36 h 36.00002 36 v 36 36 h -36 -36.00002 z m 146.37192,35 c -0.3803,-0.8411 -0.2469,-55.92 0.163,-67.3333 l 0.1317,-3.6667 h 35.3334 35.3333 v 36 36 h -35.2546 c -19.3901,0 -35.4581,-0.45 -35.7068,-1 z m 145.6281,-35 v -36 h 36 36 v 36 36 h -36 -36 z m 146.6667,0 v -36 h 36 36 v 36 36 h -36 -36 z m 146.6666,0 v -36 h 36 36 v 36 36 h -36 -36 z m 145.3334,0 v -36 h 36 36 v 36 36 h -36 -36 z m 146.6666,0 v -36 h 36 36 v 36 36 h -36 -36 z m 146.6667,0 v -36 h 36 36 v 36 36 h -36 -36 z m 145.3333,0 v -36 h 36 36 v 36 36 h -36 -36 z m 146.6667,0 v -36 h 36 36 v 36 36 h -36 -36 z m 146.6667,0 v -36 h 36 36 v 36 36 h -36 -36 z m 146.6666,0 v -36 h 35.3334 35.3333 l 0.1479,7.6667 c 0.4688,24.3141 0.5024,59.9969 0.059,62 -0.4767,2.1501 -3.2784,2.3333 -35.6951,2.3333 h -35.1779 v -36 z M 29.59298,2150.1124 v -36 h 36 36 v 36 36 h -36 -36 z m 145.3333,0 v -36 h 36 36 v 36 36 h -36 -36 z m 146.6667,0 v -36 h 36 36 v 36 36 h -36 -36 z m 146.6667,0 v -36 h 36 36 v 36 36 h -36 -36 z m 146.6666,0 v -36 h 35.3334 35.3333 v 36 36 h -35.3333 -35.3334 z m 145.3334,0 v -36 h 36 36 v 36 36 h -36 -36 z m 146.6666,0 v -36 h 36 36 v 36 36 h -36 -36 z m 146.66672,0 v -36 h 36 36 v 36 36 h -36 -36 z m 145.3333,0 v -36 h 36 36 v 36 36 h -36 -36 z m 146.6667,0 v -36 h 36 36 v 36 36 h -36 -36 z m 146.6667,0 v -36 h 36 36 v 36 36 h -36 -36 z m 146.2223,35.111 c -0.489,-0.4888 -0.889,-16.6888 -0.889,-36 v -35.111 h 36 36 v 36 36 h -35.111 c -19.3112,0 -35.5112,-0.4 -36,-0.889 z m 145.7777,-35.111 v -36 h 36 36 v 36 36 h -36 -36 z m 146.6667,0 v -36 h 36 36 v 36 36 h -36 -36 z m 146.6666,0.021 v -36.0217 h 36.0218 36.0218 l -0.3552,35.6666 -0.355,35.6667 -35.6667,0.3551 -35.6667,0.3552 z m 145.3334,-0.021 v -36 h 36 36 v 36 36 h -36 -36 z m 146.6666,0 v -36 h 36 36 v 36 36 h -36 -36 z m 146.6667,0 v -36 h 36 36 v 36 36 h -36 -36 z m 145.3333,0 v -36 h 3.3334 3.3333 v 36 36 h -3.3333 -3.3334 z M 1.5929802,2076.779 v -36 H 14.92628 28.25968 v 36 36 H 14.92628 1.5929802 Z m 101.3332998,0 v -36 h 35.3334 35.3333 v 36 36 h -35.3333 -35.3334 z m 145.3334,0 v -36 h 36 36 v 36 36 h -36 -36 z m 146.6666,0 v -36 h 36 36 v 36 36 h -36 -36 z m 146.6667,0 v -36 h 36 36 v 36 36 h -36 -36 z m 145.3333,0 v -36 h 36 36 v 36 36 h -36 -36 z m 146.6667,0 v -36 h 36 36 v 36 36 h -36 -36 z m 146.6667,0 v -36 h 36.00002 36 v 36 36 h -36 -36.00002 z m 146.58412,35 c -0.4819,-5.841 -0.6876,-65.7484 -0.2334,-68 l 0.605,-3 h 35.1888 35.1888 v 36 36 h -35.3333 c -19.4334,0 -35.3705,-0.45 -35.4159,-1 z m 145.4159,-35 v -36 h 36 36 v 36 36 h -36 -36 z m 146.6667,0 v -36 h 36 36 v 36 36 h -36 -36 z m 146.6666,0 v -36 h 36 36 v 36 36 h -36 -36 z m 145.3334,0 v -36 h 36 36 v 36 36 h -36 -36 z m 146.6666,0 v -36 h 36 36 v 36 36 h -36 -36 z m 146.6667,0 v -36 h 36 36 v 36 36 h -36 -36 z m 145.3333,0 v -36 h 36 36 v 36 36 h -36 -36 z m 146.6667,0 v -36 h 36 36 v 36 36 h -36 -36 z m 146.6667,0 v -36 h 36 36 v 36 36 h -36 -36 z m 146.6666,0 v -36 h 35.1907 c 26.9764,0 35.3164,0.3891 35.7293,1.6667 0.4444,1.3748 0.3639,43.2056 -0.124,64.6667 l -0.1293,5.6666 h -35.3333 -35.3334 z M 29.59298,2003.4457 v -36 h 36 36 v 36 36 h -36 -36 z m 145.3333,0 v -36 h 36 36 v 36 36 h -36 -36 z m 146.6667,0 v -36 h 36 36 v 36 36 h -36 -36 z m 146.6667,0 v -36 h 36 36 v 36 36 h -36 -36 z m 146.6666,0 v -36 h 35.3334 35.3333 v 36 36 h -35.3333 -35.3334 z m 145.3334,0 v -36 h 36 36 v 36 36 h -36 -36 z m 146.6666,0 v -36 h 36 36 v 36 36 h -36 -36 z m 146.66672,0 v -36 h 36 36 v 36 36 h -36 -36 z m 145.3333,0 v -36 h 36 36 v 36 36 h -36 -36 z m 146.6667,0 v -36 h 36 36 v 36 36 h -36 -36 z m 146.6667,0 v -36 h 36 36 v 36 36 h -36 -36 z m 145.6449,0.3333 0.3551,-35.6666 35.6667,-0.3551 35.6666,-0.3552 v 36.0219 36.0217 h -36.0217 -36.0219 z m 146.3551,-0.3333 v -36 h 36 36 v 36 36 h -36 -36 z m 146.6667,0 v -36 h 36 36 v 36 36 h -36 -36 z m 146.6666,-0.021 v -36.0219 l 35.6667,0.3552 35.6667,0.3551 0.355,35.6666 0.3552,35.6667 h -36.0218 -36.0218 z m 145.3334,0.021 v -36 h 36 36 v 36 36 h -36 -36 z m 146.6666,0 v -36 h 36 36 v 36 36 h -36 -36 z m 146.6667,0 v -36 h 36 36 v 36 36 h -36 -36 z m 145.3333,0 v -36 h 3.3334 3.3333 v 36 36 h -3.3333 -3.3334 z M 1.5929802,1930.1124 v -36 H 14.92628 28.25968 v 36 36 H 14.92628 1.5929802 Z m 101.3332998,0 v -36 h 35.3334 35.3333 v 36 36 h -35.3333 -35.3334 z m 145.3334,0 v -36 h 36 36 v 36 36 h -36 -36 z m 146.6666,0 v -36 h 36 36 v 36 36 h -36 -36 z m 146.6667,-0.021 v -36.0218 l 35.6667,0.3552 35.6666,0.355 0.3551,35.6667 0.3552,35.6667 h -36.0218 -36.0218 z m 145.3333,0.021 v -36 h 36 36 v 36 36 h -36 -36 z m 146.6667,0 v -36 h 36 36 v 36 36 h -36 -36 z m 146.6667,0 v -36 h 36.00002 36 v 36 36 h -36 -36.00002 z m 146.20732,2.3333 c 0.114,-18.5167 0.264,-34.7167 0.3333,-36 0.1167,-2.1604 2.7455,-2.3333 35.4594,-2.3333 h 35.3333 v 36 36 h -35.6667 -35.6666 z m 145.7927,-2.3333 v -36 h 36 36 v 36 36 h -36 -36 z m 146.6667,0 v -36 h 36 36 v 36 36 h -36 -36 z m 146.6666,-0.021 v -36.0218 l 35.6667,0.3552 35.6667,0.355 0.355,35.6667 0.3552,35.6667 h -36.0218 -36.0218 z m 145.3334,0.021 v -36 h 36 36 v 36 36 h -36 -36 z m 146.6666,0 v -36 h 36 36 v 36 36 h -36 -36 z m 146.6667,0 v -36 h 36 36 v 36 36 h -36 -36 z m 145.6449,0.3333 0.3551,-35.6667 35.6667,-0.355 35.6666,-0.3552 v 36.0218 36.0218 h -36.0217 -36.0219 z m 146.3551,-0.3333 v -36 h 36 36 v 36 36 h -36 -36 z m 146.6667,0 v -36 h 36 36 v 36 36 h -36 -36 z m 146.6666,0.021 v -36.0217 h 35.3334 c 32.7141,0 35.3426,0.1729 35.4586,2.3333 0.069,1.2833 0.1722,17.3333 0.2294,35.6667 l 0.104,33.3333 -35.5627,0.3551 -35.5625,0.3552 v -36.0219 z M 29.59298,1857.4454 v -35.3333 h 36 36 v 35.3333 35.3333 h -36 -36 z m 145.3333,0 v -35.3333 h 36 36 v 35.3333 35.3333 h -36 -36 z m 146.6658,-0.3333 -9e-4,-35.6667 36.0009,0.3752 36.0009,0.3752 v 35.2915 35.2914 h -36 -36 z m 146.6676,0.3333 v -35.3333 h 36 36 v 35.3333 35.3333 h -36 -36 z m 146.6666,0 v -35.3333 h 35.3334 35.3333 v 35.3333 35.3333 h -35.3333 -35.3334 z m 145.3334,0 v -35.3333 h 36 36 v 35.3333 35.3333 h -36 -36 z m 146.6666,0 v -35.3333 h 36 36 v 35.3333 35.3333 h -36 -36 z m 146.66672,0 v -35.3333 h 36 36 v 35.3333 35.3333 h -36 -36 z m 145.3333,0 v -35.3333 h 36 36 v 35.3333 35.3333 h -36 -36 z m 146.6667,0 v -35.3333 h 36 36 v 35.3333 35.3333 h -36 -36 z m 146.6667,0 v -35.3333 h 36 36 v 35.3333 35.3333 h -36 -36 z m 145.3333,0 v -35.3333 h 36 36 v 35.3333 35.3333 h -36 -36 z m 146.6667,0 v -35.3333 h 36 36 v 35.3333 35.3333 h -36 -36 z m 146.6667,0 v -35.3333 h 36 36 v 35.3333 35.3333 h -36 -36 z m 146.6666,0 v -35.3333 h 36 36 v 35.3333 35.3333 h -36 -36 z m 145.3334,0 v -35.3333 h 36 36 v 35.3333 35.3333 h -36 -36 z m 146.6666,0 v -35.3333 h 36 36 v 35.3333 35.3333 h -36 -36 z m 146.6667,0 v -35.3333 h 36 36 v 35.3333 35.3333 h -36 -36 z m 145.3333,0 v -35.3333 h 3.3334 3.3333 v 35.3333 35.3333 h -3.3333 -3.3334 z M 1.5929802,1784.8273 V 1748.779 H 14.94808 28.30318 l -0.3551,35.6667 -0.3551,35.6667 -13,0.3816 -12.9999998,0.3816 z m 101.3332998,-0.048 v -36 h 35.3334 35.3333 v 36 36 h -35.3333 -35.3334 z m 145.3334,0 v -36 h 36 36 v 36 36 h -36 -36 z m 146.6666,0 v -36 h 36 36 v 36 36 h -36 -36 z m 146.6667,0.021 v -36.0217 h 36.0218 36.0218 l -0.3552,35.6667 -0.3551,35.6666 -35.6666,0.3551 -35.6667,0.3552 z m 146.2222,35.0894 c -0.4889,-0.4887 -0.8889,-16.6887 -0.8889,-35.9999 v -35.1111 h 36 36 v 36 36 h -35.1111 c -19.3111,0 -35.5111,-0.4 -36,-0.8889 z m 145.7778,-35.111 v -36 h 36 36 v 36 36 h -36 -36 z m 146.6667,0.021 v -36.0218 h 36.02182 36.0217 l -0.3551,35.6667 -0.3551,35.6667 -35.6667,0.355 -35.66662,0.3552 z m 146.41842,34.3116 c -0.4248,-1.3272 -0.3257,-45.3802 0.1486,-66 l 0.1,-4.333 h 35.3334 35.3333 v 36 36 h -35.1907 c -26.9791,0 -35.3151,-0.3889 -35.7242,-1.6666 z m 145.5816,-34.333 v -36 h 36 36 v 36 36 h -36 -36 z m 146.6667,0 v -36 h 36 36 v 36 36 h -36 -36 z m 146.6666,0.021 v -36.0218 h 36.0218 36.0218 l -0.3552,35.6667 -0.355,35.6667 -35.6667,0.355 -35.6667,0.3552 z m 146.2223,35.0893 c -0.4889,-0.4888 -0.8889,-16.6888 -0.8889,-36 v -35.1111 h 36 36 v 36 36 h -35.1111 c -19.3112,0 -35.5112,-0.4 -36,-0.8889 z m 145.7777,-35.1107 v -36 h 36 36 v 36 36 h -36 -36 z m 146.6667,0.021 v -36.0218 h 36.0217 36.0219 l -0.3552,35.6667 -0.3551,35.6667 -35.6666,0.355 -35.6667,0.3552 z m 146.2223,35.0893 c -0.489,-0.4888 -0.889,-16.6888 -0.889,-36 v -35.1111 h 36 36 v 36 36 h -35.111 c -19.3112,0 -35.5112,-0.4 -36,-0.8889 z m 145.7777,-35.1107 v -36 h 36 36 v 36 36 h -36 -36 z m 146.6667,0.021 v -36.0218 h 36.0217 36.0219 l -0.3552,35.6667 -0.3551,35.6667 -35.6667,0.355 -35.6666,0.3552 z m 146.6666,-0.021 v -36 h 35.3334 c 27.3314,0 35.353,0.3775 35.4202,1.6667 0.4507,8.6435 0.6071,67.3923 0.1827,68.6667 -0.4252,1.2772 -8.7779,1.6666 -35.7456,1.6666 H 2589.593 Z M 29.59298,1711.4457 v -36 h 36 36 v 36 36 h -36 -36 z m 145.3333,0 v -36 h 36 36 v 36 36 h -36 -36 z m 146.6667,0 v -36 h 36 36 v 36 36 h -36 -36 z m 146.6667,0 v -36 h 36 36 v 36 36 h -36 -36 z m 146.6666,0 v -36 h 35.3334 35.3333 v 36 36 h -35.3333 -35.3334 z m 145.3334,0 v -36 h 36 36 v 36 36 h -36 -36 z m 146.6666,0 v -36 h 36 36 v 36 36 h -36 -36 z m 146.66672,0 v -36 h 36 36 v 36 36 h -36 -36 z m 145.3333,0 v -36 h 36 36 v 36 36 h -36 -36 z m 146.6667,0 v -36 h 36 36 v 36 36 h -36 -36 z m 146.6667,0 v -36 h 36 36 v 36 36 h -36 -36 z m 146.2223,35.1111 c -0.489,-0.4888 -0.889,-16.6888 -0.889,-36 v -35.1111 h 36 36 v 36 36 h -35.111 c -19.3112,0 -35.5112,-0.4 -36,-0.8889 z m 145.7777,-35.1111 v -36 h 36 36 v 36 36 h -36 -36 z m 146.6667,0 v -36 h 36 36 v 36 36 h -36 -36 z m 146.6666,0.021 v -36.0217 h 36.0218 36.0218 l -0.3552,35.6667 -0.355,35.6666 -35.6667,0.3551 -35.6667,0.3552 z m 145.3334,-0.021 v -36 h 36 36 v 36 36 h -36 -36 z m 146.6666,0 v -36 h 36 36 v 36 36 h -36 -36 z m 146.6667,0 v -36 h 36 36 v 36 36 h -36 -36 z m 145.3333,0 v -36 h 3.3334 3.3333 v 36 36 h -3.3333 -3.3334 z M 1.5929802,1638.1124 v -36 H 14.92628 28.25968 v 36 36 H 14.92628 1.5929802 Z m 101.3332998,0 v -36 h 35.3334 35.3333 v 36 36 h -35.3333 -35.3334 z m 145.3334,0 v -36 h 36 36 v 36 36 h -36 -36 z m 146.6666,0 v -36 h 36 36 v 36 36 h -36 -36 z m 146.6667,0 v -36 h 36 36 v 36 36 h -36 -36 z m 145.3333,0 v -36 h 36 36 v 36 36 h -36 -36 z m 146.6667,0 v -36 h 36 36 v 36 36 h -36 -36 z m 146.6667,0 v -36 h 36.00002 36 v 36 36 h -36 -36.00002 z m 146.18222,1.6664 c 0.1003,-18.8832 0.2503,-35.0831 0.3334,-35.9998 0.1152,-1.2714 6.3387,-1.6666 26.2418,-1.6666 h 26.0908 l -2.6613,3.7374 c -1.4637,2.0556 -2.8546,6.1056 -3.0908,9 -0.3493,4.2806 -0.9883,5.3419 -3.4244,5.688 -2.0206,0.287 -4.9486,3.4454 -9,9.7082 -3.3028,5.1056 -6.0051,9.8641 -6.0051,10.5746 0,0.7104 4.2,1.2918 9.3334,1.2918 h 9.3333 v 5.3333 5.3333 h 10.6667 10.6666 v -5.3333 -5.3333 h 9.3334 9.3333 v 4.6666 c 0,4.1723 -0.3884,4.6796 -3.6667,4.7892 -2.0166,0.068 -5.4666,0.2174 -7.6666,0.3334 l -4,0.2108 -0.3873,11 -0.3872,11 -35.6128,-3e-4 -35.6127,-10e-5 z m 27.1087,8.0002 c -0.04,-4.7712 -0.1365,-4.878 -2.0977,-2.3333 -4.634,6.0125 -4.8574,7.3333 -1.2401,7.3333 3.0247,0 3.3757,-0.5258 3.3378,-5 z m 118.7091,-9.6666 v -36 h 36 36 v 36 36 h -36 -36 z m 146.6667,0 v -36 h 36 36 v 36 36 h -36 -36 z m 146.6666,0 v -36 h 36 36 v 36 36 h -36 -36 z m 145.3334,0 v -36 h 36 36 v 36 36 h -36 -36 z m 146.6666,0 v -36 h 36 36 v 36 36 h -36 -36 z m 146.6667,0 v -36 h 36 36 v 36 36 h -36 -36 z m 145.3333,0 v -36 h 36 36 v 36 36 h -36 -36 z m 146.6667,0 v -36 h 36 36 v 36 36 h -36 -36 z m 146.6667,0 v -36 h 36 36 v 36 36 h -36 -36 z m 146.6666,0 v -36 h 35.3334 c 27.3012,0 35.366,0.3789 35.4769,1.6666 0.079,0.9167 0.2289,17.1167 0.3333,36 l 0.1898,34.3334 h -35.6667 -35.6667 z m -1415.4472,0.8506 c -0.3833,-0.9988 -0.5144,-5.3488 -0.2915,-9.6666 l 0.4054,-7.8507 h 9.3333 9.3333 l 0.3918,9.6667 0.3917,9.6666 h -9.4336 c -6.7305,0 -9.6332,-0.5204 -10.1304,-1.816 z m 40.7805,-8.2449 v -10.0609 l 9,0.3942 9,0.3943 0.4164,5.0417 c 0.2807,3.4006 -0.5142,6.5472 -2.4421,9.6667 -2.635,4.2633 -3.3711,4.6249 -9.4163,4.6249 h -6.558 z m -20,-19.9391 v -10 h 9.3334 9.3333 v 10 10 h -9.3333 -9.3334 z m 40,0 v -10 h 8.8201 8.82 l -1.9631,3 c -1.0797,1.65 -3.9002,6.15 -6.2677,10 -2.7718,4.5074 -5.2135,7 -6.8569,7 -2.2874,0 -2.5524,-1.0382 -2.5524,-10 z m -1205.33332,-46 v -36 h 36 36 v 36 36 h -36 -36 z m 145.3333,0 v -36 h 36 36 v 36 36 h -36 -36 z m 146.6667,0 v -36 h 36 36 v 36 36 h -36 -36 z m 146.6667,0 v -36 h 36 36 v 36 36 h -36 -36 z m 146.3751,-9e-4 -0.3751,-36.0008 35.6666,8e-4 35.6667,9e-4 v 36 36 h -35.2915 -35.2915 z m 145.6249,9e-4 v -36 h 29.1543 29.1543 l -0.9686,5.2968 c -0.5327,2.9134 -0.6522,5.6134 -0.2654,6 0.3867,0.3868 3.3032,0.7032 6.4809,0.7032 h 5.7778 v 9.2698 9.2697 l -8.3333,0.3969 c -7.4847,0.3566 -8.3767,0.7024 -8.7594,3.397 -0.4074,2.8684 -0.012,3 9,3 8.5372,0 9.426,-0.2515 9.426,-2.6667 0,-2.4127 0.8889,-2.6667 9.3334,-2.6667 7.2711,0 9.3333,0.4279 9.3333,1.9364 0,1.444 -2.1187,2.0374 -8.3333,2.3334 l -8.3334,0.3969 -0.372,17.6667 -0.372,17.6666 h -35.9613 -35.9613 z m 146.6666,0 v -36 h 10.6667 c 5.8667,0 10.6667,-0.2609 10.6667,-0.5798 0,-0.319 -0.5852,-2.119 -1.3004,-4 -1.1238,-2.9559 -0.9428,-3.4202 1.3334,-3.4202 2.2739,0 2.6336,0.917 2.6336,6.7136 0,3.9346 0.8914,8.0739 2.1534,10 1.8813,2.8712 3.1358,3.2864 9.9303,3.2864 h 7.777 l 0.403,6.965 c 0.3807,6.5789 0.6985,7.1318 5.7363,9.978 2.9334,1.6573 7.2834,3.023 9.6667,3.035 2.3833,0.013 4.3333,0.5634 4.3333,1.225 0,0.6616 1.8,1.8304 4,2.5973 l 4,1.3944 v 17.4027 17.4026 h -36 -36 z m 146.66672,18.6667 v -17.3333 h 10 c 9.1111,0 10,-0.2371 10,-2.6667 0,-2.4127 0.8889,-2.6667 9.3333,-2.6667 8.4445,0 9.3334,0.254 9.3334,2.6667 0,2.4084 0.8889,2.6667 9.1778,2.6667 7.9653,0 9.2673,-0.3422 9.855,-2.5895 0.9717,-3.7159 0.1516,-4.0772 -9.255,-4.0772 h -8.4445 v -9.3333 -9.3334 h 9.3333 9.3334 l 0.02,4.3334 c 0.014,3.0694 0.3684,3.7836 1.2134,2.4486 0.6562,-1.0366 0.8589,-7.4866 0.4504,-14.3333 -0.6213,-10.414 -0.4215,-12.4487 1.2223,-12.4487 1.4249,0 1.8036,1.0995 1.3779,4 -0.5599,3.8148 -0.364,4 4.2309,4 h 4.818 v 36 36 h -36 -36 v -17.3333 z m 201.1053,7.3364 0.4387,-10.0031 h 5.2476 c 4.4895,0 5.6293,-0.626 7.8897,-4.3333 l 2.6421,-4.3333 0.01,14.3333 0.01,14.3333 h -8.3333 -8.3333 l 0.4386,-10.0032 z m 90.8947,-26.0031 v -36 h 22.6412 22.6411 l -0.8224,6 c -0.7531,5.4951 -0.5827,6 2.0256,6 2.6371,0 2.8479,0.691 2.8479,9.3334 v 9.3333 h -3.8574 c -2.2961,0 -4.1866,0.8583 -4.671,2.1203 -1.2488,3.2546 0.2496,4.5464 5.2737,4.5464 3.6991,0 4.588,-0.5167 4.588,-2.6667 0,-2.4127 0.8889,-2.6667 9.3333,-2.6667 8.4444,0 9.3334,0.254 9.3334,2.6667 0,1.4667 0.6,2.6667 1.3333,2.6667 0.8205,0 1.3333,6.6666 1.3333,17.3333 v 17.3333 h -36 -36 z m 146.6667,0 v -36 h 15.2273 15.2275 l 0.8785,-4 c 0.8146,-3.7086 1.3078,-4 6.7727,-4 h 5.894 v 9.3334 9.3333 h -7.8555 c -8.8773,0 -8.6326,-0.3265 -10.2838,13.7224 l -0.8946,7.6109 h 9.517 c 8.628,0 9.5169,0.2491 9.5169,2.6667 0,2.4444 0.8889,2.6667 10.6667,2.6667 9.7777,0 10.6666,-0.2223 10.6666,-2.6667 0,-2.4127 0.889,-2.6667 9.3334,-2.6667 7.4074,0 9.3333,0.4127 9.3333,2 0,1.4815 -1.5556,2 -6,2 h -6 v 18 18 h -36 -36 z m 145.6449,0.3334 0.3551,-35.6667 4.4405,-0.4259 c 4.5508,-0.4362 4.5147,-0.3148 1.9556,-6.5741 -0.4936,-1.2073 1.2342,-1.6667 6.2691,-1.6667 h 6.9505 l -0.4745,10.3334 -0.4745,10.3333 10.3333,-0.4745 10.3333,-0.4746 v 8.2092 c 0,8.1072 0.057,8.2334 4.6239,10.1412 2.5431,1.0627 6.786,1.932 9.4285,1.932 2.6427,0 5.7048,0.9 6.8048,2 1.1,1.1 4.0571,2 6.5714,2 h 4.5714 v 18 18 h -36.0217 -36.0219 z m 146.3551,12.3752 c 0,-20.1558 -0.2692,-23.1882 -2,-22.524 -1.6312,0.6258 -2,-0.6111 -2,-6.7086 v -7.476 h 9.2448 c 8.8807,0 9.2613,0.132 9.6667,3.3607 l 0.4218,3.3608 4.3103,-3.0275 c 5.3787,-3.7777 5.4673,-5.0273 0.3564,-5.0273 h -4 v -9.3333 -9.3334 h 9.3333 9.3334 v 5.3334 c 0,5.0621 1.5369,6.9065 3.3333,4 0.4779,-0.7734 7.7916,-1.3334 17.412,-1.3334 h 16.588 v 36 36 h -36 -36 z m 146.6667,-12.7086 v -36 h 36 36 v 36 36 h -36 -36 z m 146.6666,-0.021 v -36.0219 l 35.6667,0.3552 35.6667,0.3551 0.355,35.6667 0.3552,35.6666 h -36.0218 -36.0218 z m 145.3334,0.021 v -36 h 36 36 v 36 36 h -36 -36 z m 146.6666,0 v -36 h 36 36 v 36 36 h -36 -36 z m 146.6667,0 v -36 h 36 36 v 36 36 h -36 -36 z m 145.3333,0 v -36 h 3.3334 3.3333 v 36 36 h -3.3333 -3.3334 z m -1478.6667,33.9795 c 0,-0.9173 9.5784,-15.3128 10.1888,-15.3128 0.2629,0 0.4779,3.6 0.4779,8 v 8 h -5.3333 c -2.9334,0 -5.3334,-0.3092 -5.3334,-0.6872 z m 32,-8.6461 v -9.3334 h 9.3334 9.3333 v 9.3334 9.3333 h -9.3333 -9.3334 z m -18.0756,-13.63 c 1.4026,-2.0024 2.1098,-6.2179 2.1809,-13 0.088,-8.3402 0.3316,-9.417 1.4445,-6.37 1.1849,3.2444 2.0173,3.6666 7.228,3.6666 h 5.8889 v 9.3334 9.3333 h -9.4089 -9.409 z m 38.0756,-6.37 v -9.3334 h 9.3334 9.3333 v 9.3334 9.3333 h -9.3333 -9.3334 z m -364.00002,-7.2528 c 0,-1.5455 1.4003,-2.0806 5.4445,-2.0806 6.947,0 6.4863,3.1528 -0.5475,3.7472 -3.725,0.3148 -4.897,-0.084 -4.897,-1.6666 z m 121.3334,-0.08 c 0,-1.6067 1.9008,-1.9726 9.66662,-1.8602 l 9.6667,0.1398 -5.3333,1.7577 c -7.53432,2.4831 -14.00002,2.4659 -14.00002,-0.037 z m 53.33332,0 c 0,-1.2444 1.2593,-2 3.3333,-2 2.0741,0 3.3334,0.7556 3.3334,2 0,1.2444 -1.2593,2 -3.3334,2 -2.074,0 -3.3333,-0.7556 -3.3333,-2 z m 390.6667,0.067 c 0,-1.64 1.674,-2.0665 8.1111,-2.0665 10.7706,0 10.3054,3.1592 -0.5498,3.7332 -6.1125,0.3232 -7.5613,0 -7.5613,-1.6667 z m 282.6667,-0.067 c 0,-1.6 2,-2 10,-2 8,0 10,0.4 10,2 0,1.6 -2,2 -10,2 -8,0 -10,-0.4 -10,-2 z m -868.00012,-12.6667 v -9.3333 h 9.3334 9.3333 v 9.3333 9.3333 h -9.3333 -9.3334 z m 121.3334,0 v -9.3333 h 9.3333 9.3333 v 9.3333 9.3333 h -9.3333 -9.3333 z m 40.00002,0 v -9.3333 h 10.0766 10.0767 l -0.41,5.5866 c -0.3894,5.3067 -0.7774,5.7715 -7.7433,9.2764 -11.407,5.7395 -12,5.4663 -12,-5.5297 z m 41.3333,0 v -9.3333 h 9.3333 9.3334 v 9.3333 9.3333 h -9.3334 -9.3333 z m 161.3333,0 v -9.3333 h 9.3334 9.3333 v 9.3333 9.3333 h -9.3333 -9.3334 z m 40,0 v -9.3333 h 9.3334 9.3333 v 9.3333 9.3333 h -9.3333 -9.3334 z m 161.3334,0 v -9.3333 h 9.3333 9.3334 v 9.3333 9.3333 h -9.3334 -9.3333 z m 121.3333,0 v -9.3333 h 9.3334 9.3333 v 9.3333 9.3333 h -9.3333 -9.3334 z m 40,0 v -9.3333 h 4 c 4.5438,0 4.6334,0.4013 2.4826,11.1109 -1.1923,5.9368 -2.0494,7.5557 -4,7.5557 -2.1848,0 -2.4826,-1.1196 -2.4826,-9.3333 z m 121.3334,0 v -9.3333 h 9.3333 9.3333 v 9.3333 9.3333 h -9.3333 -9.3333 z m 40,0 v -9.3333 h 10 10 v 9.3333 9.3333 h -10 -10 z m -908.00012,-20 v -9.3333 h 9.3334 9.3333 v 9.3333 9.3333 h -9.3333 -9.3334 z m 40,0 v -9.3333 h 9.1667 9.1667 l 0.8333,-4.1667 c 0.4583,-2.2916 0.8333,-6.7563 0.8333,-9.9213 0,-3.1651 0.5212,-6.0768 1.1582,-6.4704 0.637,-0.3938 1.5531,-3.2791 2.0358,-6.412 0.4826,-3.133 1.2126,-7.563 1.6221,-9.8444 0.6181,-3.4435 0.2616,-4.2744 -2.0991,-4.8918 -2.6049,-0.6812 -2.8104,-1.5086 -2.447,-9.8518 l 0.3967,-9.1088 4.3333,-0.4179 c 2.6842,-0.2588 4.3334,-1.1468 4.3334,-2.3333 0,-1.0535 1.2,-1.9155 2.6666,-1.9155 2.6009,0 2.6667,0.8889 2.6667,36 v 36 h -9.2516 -9.2517 l -0.8997,6 -0.8998,6 h -7.1819 -7.182 v -9.3333 z m 81.3334,0 v -9.3333 h 9.3333 9.3333 v 9.3333 9.3333 h -9.3333 -9.3333 z m 40,0 c 0,-8.4444 0.254,-9.3333 2.6666,-9.3333 3.3205,0 3.4018,-1.5882 0.2284,-4.46 -3.2002,-2.8967 -4.2284,-2.7848 -4.2284,0.4594 0,2.4127 -0.8888,2.6667 -9.3333,2.6667 h -9.3333 v -9.3333 -9.3334 h 6.6666 6.6667 v -8.5576 c 0,-4.7066 0.3642,-9.5066 0.8093,-10.6666 0.6787,-1.7687 -0.3973,-2.1091 -6.6666,-2.1091 h -7.476 v -10 -10 h 10 10 v -10 -10 l 7,0.1053 c 3.85002,0.057 6.23562,0.4128 5.30142,0.7886 -1.9587,0.7877 -10.96812,12.2585 -10.96812,13.9646 0,0.6279 13.20002,1.1416 29.33332,1.1416 h 29.3334 v 21.8 21.7999 l -3.8345,5.2001 c -2.1089,2.86 -6.0089,7.2678 -8.6667,9.795 -2.6577,2.5272 -4.8322,5.0772 -4.8322,5.6666 0,0.5895 3.9,1.0718 8.6667,1.0718 h 8.6667 v 9.3333 c 0,7.4075 -0.4127,9.3333 -2,9.3333 -1.1,0 -2,-0.72 -2,-1.6 0,-1.2444 -0.3556,-1.2444 -1.6,0 -0.88,0.88 -4.48,1.6 -8,1.6 h -6.4 v -9.476 c 0,-8.4897 -0.2429,-9.3793 -2.3334,-8.547 -1.2833,0.5108 -6.0833,1.5637 -10.6666,2.3397 l -8.3334,1.4109 v 7.1362 7.1362 h -9.3333 -9.33332 v -9.3333 z m 81.33332,0 v -9.3333 h 9.3333 9.3334 v 9.3333 9.3333 h -9.3334 -9.3333 z m 122.1427,7.2243 c -0.4452,-1.16 -0.8094,-5.36 -0.8094,-9.3334 v -7.2242 h 9.3334 9.3333 v 9.3333 9.3333 h -8.524 c -6.5428,0 -8.7121,-0.4902 -9.3333,-2.109 z m 39.1906,-7.2248 v -9.3334 h 9.3334 9.3333 v 9.3334 9.3333 h -9.3333 -9.3334 z m 40,0 v -9.3334 h 9.3334 9.3333 v 5.3996 c 0,2.9698 -0.9154,7.1698 -2.0342,9.3334 -1.8769,3.6293 -2.5991,3.9337 -9.3334,3.9337 h -7.2991 z m 121.3334,0 v -9.3334 h 9.3333 9.3334 v 9.3334 9.3333 h -9.3334 -9.3333 z m 40,0 v -9.3334 h 10 10 v 9.3334 9.3333 h -10 -10 z m 121.3333,0 v -9.3334 h 9.3334 9.3333 v 9.3334 9.3333 h -9.3333 -9.3334 z m 121.3334,0 v -9.3334 h 9.3333 9.3333 v 9.3334 9.3333 h -9.3333 -9.3333 z m 40,-0.6083 v -10.0584 h -10 -10 v -9.3333 c 0,-8.3699 0.2688,-9.3334 2.6042,-9.3334 1.7882,0 3.564,1.9847 5.6667,6.3334 l 3.0624,6.3333 0.6667,-27.3333 c 0.3666,-15.0334 1.1521,-28.0834 1.7453,-29 0.8173,-1.2628 9.4605,-1.6667 35.6667,-1.6667 29.856,0 34.588,0.2736 34.588,2 0,1.5556 1.7777,2 8,2 h 8 v 10 10 h -7.9054 -7.9054 l -2.0946,7.2052 c -1.1521,3.9629 -2.0946,8.4629 -2.0946,10 0,1.5372 -0.5056,2.7948 -1.1235,2.7948 -0.618,0 -4.2815,3.75 -8.1412,8.3333 -8.6215,10.2376 -17.5827,16.5832 -25.0687,17.7518 -5.8534,0.9134 -5.9148,1.0046 -6.2288,9.2482 l -0.1524,4 -9.6426,0.3918 -9.6428,0.3917 z m 65.5885,-61.6084 c -1.3627,-3.7413 -1.3792,-3.7248 -1.4833,1.4833 -0.077,3.8662 0.2892,4.8723 1.3781,3.7834 1.0527,-1.0527 1.0832,-2.5819 0.1053,-5.2667 z m -24.2552,62.2167 v -9.3334 h 9.3333 9.3334 v 9.3334 9.3333 h -9.3334 -9.3333 z M 1.5929802,1491.4457 v -36 H 14.92628 28.25968 v 36 36 H 14.92628 1.5929802 Z m 101.3332998,0 v -36 h 35.3334 35.3333 v 36 36 h -35.3333 -35.3334 z m 145.3334,0 v -36 h 36 36 v 36 36 h -36 -36 z m 146.6666,0 v -36 h 36 36 v 36 36 h -36 -36 z m 146.6667,0 v -36 h 36 36 v 36 36 h -36 -36 z m 145.3333,0 v -36 h 36 36 v 36 36 h -36 -36 z m 439.88062,35 c -0.2521,-2.1105 0.178,-59.8705 0.4741,-63.6667 0.3067,-3.9312 0.1917,-4.0069 -6.688,-4.403 l -7,-0.403 v -9.2637 -9.2636 h 8.1309 8.1309 l -0.9285,8 -0.9284,8 h 20.1309 c 11.072,0 20.1309,-0.2061 20.1309,-0.4579 0,-0.2518 -1.1798,-3.8869 -2.6216,-8.0778 l -2.6217,-7.6199 4.955,0.4111 4.9549,0.4112 0.3904,8.8296 c 0.3477,7.863 0.1006,8.9053 -2.257,9.5218 -2.5843,0.6759 -2.5936,0.8623 -0.3904,7.8202 l 2.257,7.1277 0.6667,-6.6497 0.6667,-6.6496 h 9.3333 9.3333 v 9.3333 9.3333 l -8.83,0.6667 -8.8302,0.6667 3.4968,10 3.4968,10 5.6666,0.41 5.6667,0.41 v 9.2566 c 0,8.3291 -0.2639,9.2567 -2.6337,9.2567 -2.2761,0 -2.4571,0.4643 -1.3333,3.4201 0.7152,1.8811 1.3003,3.6811 1.3003,4 0,1.0326 -63.996,0.6132 -64.1194,-0.4201 z m 172.6435,-1 c 0.4451,-1.1 1.1735,-2.9 1.6186,-4 0.5962,-1.4733 -0.1061,-2 -2.6667,-2 -3.4126,0 -3.476,-0.1691 -3.476,-9.2749 v -9.275 l 9.6667,-0.3917 9.6667,-0.3917 0.6666,-10 0.6667,-10 5.6152,-0.4075 c 5.2711,-0.3825 5.9043,-0.8835 10.3333,-8.1744 2.595,-4.2719 4.7182,-8.4923 4.7182,-9.3788 0,-1.6444 5.1876,-6.5812 7,-6.6616 0.55,-0.024 1,16.1556 1,35.9556 v 36 h -22.8093 c -19.7458,0 -22.7007,-0.2687 -22,-2 z m 160.1426,-2 c 0.6868,-3.1269 0.419,-4 -1.2273,-4 -1.7167,0 -2.106,-1.7093 -2.106,-9.2448 0,-9.0893 0.061,-9.2519 3.6593,-9.6667 3.4207,-0.3944 3.7963,-1.0914 5.7599,-10.6902 l 2.1005,-10.2684 -5.4265,-0.3983 -5.4265,-0.3983 v -9.3333 -9.3333 l 8.885,-0.3916 c 5.7506,-0.2535 9.4538,-1.0767 10.4967,-2.3334 1.0079,-1.2144 4.0475,-1.9417 8.1148,-1.9417 h 6.5035 v 36 36 h -16.106 -16.1059 z m 130.8667,0 0.8,-4 h -6.8333 -6.8334 v -9.3333 -9.3334 h 8.5147 8.5148 l 2.8701,-15.6666 c 1.5787,-8.6167 3.2319,-17.7127 3.6738,-20.2135 0.5997,-3.3932 0.2313,-4.9652 -1.4522,-6.1961 -1.7928,-1.311 -2.1733,-3.3872 -1.855,-10.1199 0.4886,-10.3347 2.9108,-10.7011 3.4658,-0.5241 l 0.3988,7.3104 17.6012,0.3716 17.6014,0.3716 0.2846,35.6666 0.2846,35.6667 h -23.9179 -23.918 z m 267.1333,-32 v -36 h 36 36 v 36 36 h -36 -36 z m 146.6667,0 v -36 h 36 36 v 36 36 h -36 -36 z m 145.6449,0.3333 0.3551,-35.6666 35.6667,-0.3551 35.6666,-0.3552 v 36.0219 36.0217 h -36.0217 -36.0219 z m 146.3551,-0.3333 v -36 h 36 36 v 36 36 h -36 -36 z m 146.6667,0 v -36 h 36 36 v 36 36 h -36 -36 z m 146.6666,-0.021 v -36.0219 l 35.6667,0.3552 35.6667,0.3551 -0.2583,34.6666 c -0.1421,19.0667 -0.2921,35.1167 -0.3333,35.6667 -0.041,0.55 -15.9751,1 -35.4084,1 h -35.3334 z m -1767.45222,24.6874 c 0.4602,-1.8338 1.2068,-6.0338 1.6591,-9.3333 0.6401,-4.6703 1.3728,-5.9991 3.3077,-5.9991 2.1883,0 2.4854,1.1158 2.4854,9.3334 v 9.3333 h -4.1445 c -3.7554,0 -4.066,-0.3131 -3.3077,-3.3343 z m 28.7855,-5.9994 v -9.3334 h 9.3334 9.3333 v 9.3334 9.3333 h -9.3333 -9.3334 z m 81.3334,0 v -9.3334 h 9.3333 9.3333 v 9.3334 9.3333 h -9.3333 -9.3333 z m 121.33332,0 v -9.3334 h 9.3333 9.3334 v 9.3334 9.3333 h -9.3334 -9.3333 z m 40,0 v -9.3334 h 9.3333 9.3334 v 9.3334 9.3333 h -9.3334 -9.3333 z m 121.3333,0 v -9.3334 h 9.3334 9.3333 v 9.3334 9.3333 h -9.3333 -9.3334 z m 40,0 v -9.3334 h 9.3334 9.3333 v 9.3334 9.3333 h -9.3333 -9.3334 z m 138.9266,6 c 0.027,-2.2 0.326,-2.9386 0.6641,-1.6414 0.338,1.2974 0.3159,3.0974 -0.049,4 -0.3652,0.9028 -0.6417,-0.1586 -0.6147,-2.3586 z m 22.4068,-6 v -9.3334 h 9.3333 9.3334 v 9.3334 9.3333 h -9.3334 -9.3333 z m 121.3333,0 v -9.3334 h 9.3334 9.3333 v 9.3334 9.3333 h -9.3333 -9.3334 z m 121.3334,0 v -9.3334 h 9.3333 9.3333 v 9.3334 9.3333 h -9.3333 -9.3333 z m 121.3333,0 v -9.3334 h 9.3333 9.3334 v 9.3334 9.3333 h -9.3334 -9.3333 z m 40,0 v -9.3334 h 9.3333 c 8.7646,0 9.3334,0.1812 9.3334,2.9724 0,1.635 -1.95,5.8338 -4.3334,9.3308 -3.8756,5.6867 -4.8614,6.3586 -9.3333,6.361 h -5 v -9.3334 z M 830.92628,1489.446 v -10 h 9.3334 9.3333 v 10 10 h -9.3333 -9.3334 z m 40.2738,0.3929 0.3929,-9.7262 h 9.3333 9.3334 v 9.3333 9.3333 l -9.7263,0.393 -9.7263,0.3929 z m 50.3929,-0.4774 v -10.0844 l 4.3333,0.4177 4.3334,0.4179 0.3917,9.6666 0.3918,9.6667 h -4.7251 -4.7251 z m 30.6667,0.084 v -10 h 9.3333 9.3333 v 10 10 h -9.3333 -9.3333 z m 121.33332,-0.061 v -10.0609 l 9,0.3943 9,0.3942 0.3918,9.6667 0.3917,9.6667 h -9.3917 -9.3918 z m 40,0.061 v -10 h 4.8389 4.8389 l -0.9153,8.09 c -1.2057,10.6568 -1.792,11.91 -5.5718,11.91 -3.0817,0 -3.1907,-0.3415 -3.1907,-10 z m 81.3333,-0.061 v -10.0609 l 9,0.3943 9,0.3942 0.3918,9.6667 0.3917,9.6667 h -9.3917 -9.3918 z m 40,0.061 c 0,-9.6864 0.1011,-10 3.2229,-10 2.807,0 3.4159,0.9002 4.7191,6.9768 0.823,3.8373 1.8377,8.3373 2.255,10 0.6964,2.7745 0.3083,3.0232 -4.7191,3.0232 h -5.4779 z m 14.0764,7 c 0.5075,-1.65 1.7239,-4.5 2.7031,-6.3334 1.706,-3.194 1.7827,-3.0686 1.8338,3 0.047,5.5306 -0.296,6.3334 -2.7031,6.3334 -2.2431,0 -2.5847,-0.5588 -1.8338,-3 z m 25.9236,-6.9995 v -10 h 9.3334 9.3333 v 10 10 h -9.3333 -9.3334 z m 121.971,4.3333 c 2.4347,-15.8224 1.3773,-14.3333 10.1775,-14.3333 h 7.8516 v 10 10 h -9.4506 -9.4505 z m 39.3624,-4.3333 v -10.1168 l 9.6667,0.3917 9.6666,0.3918 v 9.3333 9.3333 l -9.6666,0.3918 -9.6667,0.3917 z m 92.6265,0.3333 c 1.2654,-8.4406 1.8248,-9.7206 4.4112,-10.0928 2.8375,-0.408 2.9623,-6e-4 2.9623,9.6667 v 10.0928 h -4.4112 -4.4112 z m 28.7068,-0.3333 v -10 h 9.3334 9.3333 v 10 10 h -9.3333 -9.3334 z m 81.3334,-0.061 v -10.061 l 9,0.3943 9,0.3943 0.3917,9.6666 0.3917,9.6667 h -9.3917 -9.3917 z m 40,0.061 v -10 h 9.3333 9.3333 v 10 10 h -9.3333 -9.3333 z m 121.3333,0 v -10 h 9.3333 9.3334 v 10 10 h -9.3334 -9.3333 z m 40,-0.088 v -10.0885 l 3.6667,0.4218 c 3.0418,0.35 3.5985,0.9899 3.2666,3.7552 -0.5972,4.976 -4.637,16 -5.8633,16 -0.5885,0 -1.07,-4.5398 -1.07,-10.0885 z m -989.33342,-19.912 v -10 h 9.3334 9.3333 v 10 10 h -9.3333 -9.3334 z m 81.3334,0 v -10 h 9.3333 9.3333 v 10 10 h -9.3333 -9.3333 z m 126.99022,0.077 0.3431,-10.0692 h 6.3918 6.3917 l -0.3917,9.6667 -0.3918,9.6667 -6.3431,0.4068 -6.3431,0.4068 0.3431,-10.0692 z m 34.3431,-0.077 v -10 h 9.3333 9.3334 v 10 10 h -9.3334 -9.3333 z m 121.3333,0 v -10 h 9.3334 9.3333 v 10 10 h -9.3333 -9.3334 z m 42.6667,9.1949 c 0,-0.4426 2.1743,-4.9426 4.8318,-10 3.9073,-7.4356 5.4381,-9.1949 8,-9.1949 3.0538,0 3.1682,0.3612 3.1682,10 v 10 h -8 c -4.4,0 -8,-0.3623 -8,-0.8051 z m 38.2768,-0.029 c -0.5189,-0.5188 -0.9435,-5.0696 -0.9435,-10.1129 v -9.1695 l 9.6667,0.3917 9.6667,0.3918 v 9.3333 9.3333 l -8.7232,0.388 c -4.7977,0.2134 -9.1477,-0.036 -9.6667,-0.5556 z m 120.3899,-9.1656 v -10 h 9.3333 9.3334 v 10 10 h -9.3334 -9.3333 z m 121.3333,0 v -10 h 9.3334 9.3333 v 10 10 h -9.3333 -9.3334 z m 40.9435,9.1657 c -0.5189,-0.5189 -0.9435,-5.0697 -0.9435,-10.113 v -9.1695 l 9.6667,0.3917 9.6667,0.3918 v 9.3333 9.3333 l -8.7232,0.388 c -4.7978,0.2134 -9.1478,-0.036 -9.6667,-0.5556 z m 80.3899,-9.1657 v -10 h 9.3333 9.3333 v 10 10 h -9.3333 -9.3333 z m 40,0.097 v -10.0977 h 5.4232 c 4.5582,0 5.305,0.3721 4.6824,2.3333 -4.7956,15.1056 -5.6447,17.0078 -7.7723,17.4154 -2.0561,0.3937 -2.3333,-0.7527 -2.3333,-9.651 z m 121.3333,-0.097 v -10 h 9.3333 9.3334 v 10 10 h -9.3334 -9.3333 z m -987.66672,-13 c 0.2588,-1.2939 -7.7941,-1.746 -36,-2.0215 l -36.3333,-0.3546 v -35.9787 -35.9785 h 36 36 l 0.09,35 c 0.083,32.2582 0.7163,37.4452 3.1734,26 0.7308,-3.4039 1.2632,-3.6667 7.4285,-3.6667 h 6.6412 v 9.3333 9.3334 h -8.6666 c -6.2223,0 -8.5727,-0.4702 -8.3334,-1.6667 z m 38.3333,-7.7251 v -9.3917 l 9.6667,0.3917 9.6667,0.3918 0.3942,9 0.3943,9 h -10.0609 -10.061 z m 56,7.3918 c 0,-1.6 -2,-2 -10,-2 h -10 l -0.041,-17 c -0.041,-17.1383 -1.4298,-19.6876 -3.2691,-6 l -0.9406,7 h -5.8749 -5.8748 v -9.3334 -9.3333 h 7.8554 c 8.8774,0 8.6327,0.3265 10.2839,-13.7224 l 0.8945,-7.6109 h -9.7836 c -11.0116,0 -11.4604,-2.2456 -0.5836,-2.92 l 6.6667,-0.4134 0.4064,-6.3333 0.4064,-6.3333 h 35.9269 35.927 v 8.6324 c 0,8.243 -0.1805,8.7257 -4,10.7009 -3.7055,1.9161 -4,2.606 -4,9.3676 v 7.2991 h -10 -10 v 10 10 h -8.6198 c -10.2429,0 -11.3802,1.2572 -11.3802,12.579 0,5.7075 -0.4618,7.421 -2,7.421 -1.1,0 -2,-0.9 -2,-2 z m 25.3334,-7.3334 v -9.3333 h 9.3333 9.3333 v 9.3333 9.3334 h -9.3333 -9.3333 z m 121.33332,0 v -9.3333 h 9.3333 9.3334 v 9.3333 9.3334 h -9.3334 -9.3333 z m 121.3333,0 v -9.3333 h 9.3334 9.3333 v 9.3333 9.3334 h -9.3333 -9.3334 z m 39.7595,1.1392 c -0.4199,-4.8734 -1.1729,-9.5234 -1.6734,-10.3333 -0.5117,-0.8279 -4.6699,-1.4725 -9.4981,-1.4725 h -8.588 v -9.3334 -9.3333 h 6.6334 6.6333 l -0.8616,-4.3333 c -2.9095,-14.6319 -3.7155,-16.3154 -8.0148,-16.741 -2.7466,-0.272 -4.3439,-1.271 -4.796,-3 -0.5695,-2.1778 -1.8706,-2.5924 -8.1361,-2.5924 h -7.4582 v -5.3333 -5.3333 h 36 36 v 33.8909 c 0,18.64 -0.3641,34.84 -0.8093,36 -0.6774,1.7653 -3.4869,2.1091 -17.2355,2.1091 -14.5636,0 -16.4833,0.2645 -16.9293,2.3333 -0.2767,1.2833 -0.8466,-1.654 -1.2664,-6.5275 z m 40.2405,2.257 c 0,-3.2656 0.6964,-7.4656 1.5474,-9.3334 1.401,-3.0749 2.2838,-3.3961 9.3333,-3.3961 h 7.786 v 9.3333 9.3334 h -9.3333 -9.3334 z m 40,-3.3962 v -9.3333 h 10 10 v 9.3333 9.3334 h -10 -10 z m 86.6667,7.3334 c 0,-1.7143 -4,-2 -28,-2 h -28 l 0.013,-3 c 0,-1.65 1.2008,-4.8 2.6578,-7 1.4571,-2.2 2.6531,-4.45 2.6579,-5 0,-0.55 -3.2912,-1 -7.3245,-1 h -7.3334 v -9.3334 -9.3333 h 9.2603 9.2603 l 0.4064,6.3333 0.4064,6.3334 3.6666,-6.2375 c 4.4754,-7.6129 4.4818,-7.7625 0.3334,-7.7625 -3.2362,0 -3.3334,-0.2706 -3.3334,-9.275 v -9.2749 l 9.6667,-0.3917 c 8.6472,-0.3504 9.6667,-0.673 9.6667,-3.0584 0,-2.4038 -1.0187,-2.7051 -10.3334,-3.0562 -9.6425,-0.3633 -10.3333,-0.2073 -10.3333,2.3334 0,2.4821 -0.8248,2.7228 -9.3333,2.7228 -7.4075,0 -9.3334,-0.4127 -9.3334,-2 0,-1.3968 1.4075,-2 4.6667,-2 4.642,0 4.6667,-0.032 4.6667,-6 v -6 h 36 36 v 22.2494 22.2495 l 3.7396,-3.5828 c 2.6794,-2.5672 5.1364,-3.5828 8.6666,-3.5828 h 4.9271 v 9.3333 9.3334 h -9.3333 -9.3334 v -4.6667 c 0,-5.9671 -1.3681,-5.8885 -5.8114,0.3333 l -3.5707,5 4.0244,0.4179 4.0244,0.4177 v 9.249 9.2488 h -6.6667 c -5.037,0 -6.6666,-0.489 -6.6666,-2 z m 34.6667,-7.3918 v -9.3917 l 9.6667,0.3917 9.6666,0.3918 0.3943,9 0.3943,9 h -10.061 -10.0609 z m 95.5179,7.3918 c -0.6335,-1.6508 -4.1503,-2 -20.1427,-2 h -19.3752 v -4.6667 c 0,-2.5667 -0.3297,-4.6667 -0.7329,-4.6667 -1.3903,0 -9.2731,4.327 -11.6004,6.3675 -2.1851,1.9159 -2.3334,1.6091 -2.3334,-4.8275 v -6.8733 h 9.3334 c 8.2253,0 9.3333,0.2957 9.3333,2.4912 0,2.2252 1.1393,2.4912 10.6667,2.4912 9.5273,0 10.6666,-0.266 10.6666,-2.4912 0,-2.1955 1.108,-2.4912 9.3334,-2.4912 h 9.3333 v 9.3333 c 0,7.0888 -0.4467,9.3334 -1.8573,9.3334 -1.0216,0 -2.2027,-0.9 -2.6248,-2 z m 25.8154,-7.3334 v -9.3333 h 9.3334 9.3333 v 9.3333 9.3334 h -9.3333 -9.3334 z m 88.3334,7.6667 c 0.1998,-0.9992 -1.411,-1.8347 -4.0216,-2.0861 l -4.355,-0.4194 0.355,-35.5806 0.3549,-35.5806 35.6667,-0.355 35.6666,-0.3552 v 9.3881 c 0,9.0377 -0.1369,9.4367 -3.6666,10.6877 -6.8398,2.4242 -7.656,3.412 -8.0731,9.771 l -0.4064,6.1968 h -10.2603 -10.2602 l 0.4437,10.1493 0.4439,10.1493 -10.4439,-0.4796 -10.4437,-0.4794 0.4745,10.3333 0.4745,10.3333 h -6.1412 c -4.2018,0 -6.036,-0.5262 -5.8078,-1.6666 z m 33,-7.6667 v -9.3333 h 9.3333 9.3333 v 9.3333 9.3334 h -9.3333 -9.3333 z m 121.3333,0 v -9.3333 h 9.3333 9.3334 v 9.3333 9.3334 h -9.3334 -9.3333 z m 40,0 c 0,-8.4444 0.254,-9.3333 2.6667,-9.3333 3.2284,0 3.2324,-0.056 0.4197,-5.9548 -2.8523,-5.9812 -4.4197,-5.9972 -4.4197,-0.045 v 4.6666 h -9.3334 -9.3333 v -9.2566 -9.2567 l 5.6484,-0.41 5.6483,-0.41 -5.9816,-4.3984 -5.9818,-4.3984 -0.4178,4.0651 -0.4178,4.065 h -9.2489 -9.2488 v -8.6997 c 0,-8.1116 -0.2312,-8.7875 -3.4201,-10 -1.8811,-0.7151 -6.5311,-1.3699 -10.3334,-1.4549 -3.8022,-0.085 -5.8632,-0.4291 -4.5798,-0.7644 1.8606,-0.4863 2.3333,-2.0755 2.3333,-7.8454 v -7.2356 h 36 36 v 36 36 h -3.3333 c -2.0742,0 -3.3334,0.7556 -3.3334,2 0,1.3968 -1.4074,2 -4.6666,2 h -4.6667 v -9.3333 z M 29.59298,1418.0912 v -36.0218 l 35.6667,0.3552 35.6666,0.355 0.3551,35.6667 0.3552,35.6667 h -36.0218 -36.0218 z m 145.6449,0.3551 0.3551,-35.6667 35.6667,-0.355 35.6666,-0.3552 v 36.0218 36.0218 h -36.0217 -36.0218 z m 146.3551,-0.3333 v -36 h 36 36 v 36 36 h -36 -36 z m 146.6667,0 v -36 h 36 36 v 36 36 h -36 -36 z m 146.6666,0 v -36 h 35.3334 35.3333 v 36 36 h -35.3333 -35.3334 z m 438.76042,31.6666 c 0.079,-3.6313 0.2794,-3.9013 1.2396,-1.6666 1.5829,3.6836 1.5829,6 0,6 -0.7333,0 -1.2911,-1.95 -1.2396,-4.3334 z m 877.2397,-31.6666 v -36 h 36 36 v 36 36 h -36 -36 z m 146.6666,-0.021 v -36.0218 l 35.6667,0.3552 35.6667,0.355 0.355,35.6667 0.3552,35.6667 h -36.0218 -36.0218 z m 145.3334,0.021 v -36 h 36 36 v 36 36 h -36 -36 z m 146.6666,0 v -36 h 36 36 v 36 36 h -36 -36 z m 146.6667,-0.021 v -36.0218 l 35.6667,0.3552 35.6666,0.355 0.3551,35.6667 0.3552,35.6667 h -36.0219 -36.0217 z m 145.6449,0.3551 0.3551,-35.6667 3,-0.4261 3,-0.426 v 36.0927 36.0928 h -3.3551 -3.3552 z m -942.9782,23.6663 c 0,-1.8418 0.8889,-2.6667 2.8733,-2.6667 2.7888,0 2.8024,0.079 0.46,2.6667 -1.3273,1.4666 -2.6203,2.6666 -2.8733,2.6666 -0.253,0 -0.46,-1.2 -0.46,-2.6666 z m 57.3333,-0.6667 c -1.3595,-1.638 -1.2683,-2 0.5035,-2 1.1897,0 2.1632,0.9 2.1632,2 0,1.1 -0.2266,2 -0.5035,2 -0.2768,0 -1.2503,-0.9 -2.1632,-2 z M 850.92628,1428.78 v -9.3333 h 9.3334 9.3333 v 9.3333 9.3334 h -9.3333 -9.3334 z m 121.3334,0 v -9.3333 h 9.3333 9.3333 v 9.3333 9.3334 h -9.3333 -9.3333 z m 81.33332,0 v -9.3333 h 9.3333 9.3334 v 9.3333 9.3334 h -9.3334 -9.3333 z m 40,0 v -9.3333 h 9.3333 9.3334 v 9.3333 9.3334 h -9.3334 -9.3333 z m 80,0 v -9.3333 h 10 10 v 9.3333 9.3334 h -10 -10 z m 121.3333,0 v -9.3333 h 10 10 v 9.3333 9.3334 h -10 -10 z m 161.3334,0 v -9.3333 h 7.7323 7.7322 l -0.5448,4.6667 c -0.56,4.7966 0.6682,5.8788 3.4803,3.0666 1.2444,-1.2444 1.6,-0.2074 1.6,4.6667 v 6.2667 h -10 -10 z m 41.3333,0 v -9.3333 h 9.3334 9.3333 v 9.3333 9.3334 h -9.3333 -9.3334 z m 40,0 v -9.3333 h 9.3334 9.3333 v 9.3333 9.3334 h -9.3333 -9.3334 z m 40,0 v -9.3333 h 9.1907 c 10.5525,0 10.8093,0.2719 10.8093,11.4424 v 7.2243 h -10 -10 z m 121.3334,0 v -9.3333 h 9.3333 9.3333 v 9.3333 9.3334 h -9.3333 -9.3333 z m 81.3333,0 v -9.3333 h 9.3333 9.3334 v 9.3333 9.3334 h -9.3334 -9.3333 z m -768,-1.3664 v -7.9669 h 10.0766 10.0767 l -0.41,5.6568 c -0.4061,5.6035 -0.4666,5.6652 -6.41,6.5389 -3.3,0.4851 -7.65,1.5247 -9.6667,2.3102 l -3.6666,1.4281 z m 727.2165,5.4775 c -0.3024,-0.3055 -0.5498,-3.4555 -0.5498,-7 v -6.4444 h 10 10 v 6.5572 6.5573 l -9.4502,0.4427 c -5.1974,0.2436 -9.6974,0.1928 -10,-0.1133 z m -868.54992,-22.8108 c 0,-7.396 0.2712,-8.136 3.4202,-9.3333 1.881,-0.7151 6.381,-1.3003 10,-1.3003 h 6.5798 v 9.3333 9.3334 h -10 -10 z m 121.3334,-1.3003 v -9.3333 h 9.33332 9.3333 v 9.3333 9.3334 h -9.3333 -9.33332 z m 40.00002,0 v -9.3333 h 5.801 c 3.1906,0 7.6906,0.6587 10,1.4637 4.0701,1.419 4.199,1.7054 4.199,9.3334 v 7.8696 h -10 -10 z m 41.3333,0 v -9.3333 h 9.3333 9.3334 v 9.3333 9.3334 h -9.3334 -9.3333 z m 40,0 v -9.3333 h 9.3333 9.3334 v 9.3333 9.3334 h -9.3334 -9.3333 z m 41.3003,5.9132 c -0.7151,-1.881 -1.3003,-6.081 -1.3003,-9.3333 v -5.9132 h 10 10 v 9.3333 9.3334 h -8.6997 c -8.1116,0 -8.7875,-0.2312 -10,-3.4202 z m 40.033,-5.9132 v -9.3333 h 9.3334 9.3333 v 9.3333 9.3334 h -9.3333 -9.3334 z m 96,8.0787 c 0,-0.69 0.6,-1.6255 1.3334,-2.0787 0.7333,-0.4532 1.3333,0.1107 1.3333,1.2547 0,1.1432 -0.6,2.0787 -1.3333,2.0787 -0.7334,0 -1.3334,-0.5646 -1.3334,-1.2547 z m 24,-8.0787 v -9.3333 h 10 10 v 9.3333 9.3334 h -10 -10 z m 121.3334,5.5076 c 0,-3.4061 0.8871,-4.2104 8.0879,-7.3333 11.49,-4.9831 11.9121,-4.8475 11.9121,3.8257 v 7.3334 h -10 -10 z m 53.1009,0.7398 c 2.6204,-2.7892 2.8991,-4.5219 2.8991,-18.0218 v -14.9358 l 35.6667,0.3552 35.6666,0.355 0.3954,6.7782 0.3953,6.7782 -4.062,-0.5962 c -2.4521,-0.3599 -4.062,-0.013 -4.062,0.8885 0,0.9469 -3.3245,1.4847 -9.1779,1.4847 -7.8414,0 -9.2726,-0.3628 -9.8293,-2.4916 -0.5903,-2.2571 -1.3893,-2.3776 -8.4888,-1.2811 -8.0253,1.2396 -21.6056,6.8605 -28.5889,11.8332 -3.0292,2.1569 -3.9151,3.8232 -3.9151,7.3636 0,4.382 -0.2076,4.5759 -4.8991,4.5759 h -4.899 z m 28.2324,-6.2474 v -9.3333 h 9.3334 9.3333 v 9.3333 9.3334 h -9.3333 -9.3334 z m 40,0 v -9.3333 h 5.9372 c 3.2656,0 7.4656,0.6963 9.3334,1.5473 3.0749,1.4011 3.3961,2.2839 3.3961,9.3334 v 7.786 h -9.3333 -9.3334 z m 161.3334,0 v -9.3333 h 9.8534 9.8536 l 0.142,9.3333 0.1422,9.3334 h -9.9956 -9.9956 z m 41.3333,0 v -9.3333 h 9.3333 9.3334 v 9.3333 9.3334 h -9.3334 -9.3333 z m -699.6667,-2.5062 -7,-4.7236 v -9.7184 -9.7184 h 9.3333 9.3334 v 7.8889 c 0,4.3388 -0.6297,8.0988 -1.3994,8.3553 -0.7696,0.2566 -1.8196,3.2054 -2.3333,6.5531 l -0.934,6.0865 z m -48.3333,-10.1604 c 0,-1.5526 1.7656,-2 7.8909,-2 8.3778,0 12.1091,0.8656 12.1091,2.8093 0,0.6548 -4.5,1.1907 -10,1.1907 -8,0 -10,-0.4 -10,-2 z m 81.3333,-7.3334 v -9.3333 h 9.3333 9.3334 v 9.3333 9.3334 h -9.3334 -9.3333 z m 40,0 v -9.3333 h 3.8631 c 3.7005,0 3.9251,-0.3556 5.3334,-8.4425 2.2439,-12.8859 2.2424,-12.8908 -3.8632,-12.8908 h -5.3333 v -10 -10 h 7.1589 7.1589 l 0.8264,-5 c 1.6485,-9.9735 1.7572,-9.8369 -7.4775,-9.397 l -8.3334,0.397 -0.403,7 -0.403,7 h -9.2636 c -9.2564,0 -9.2637,0 -9.2637,-3.7322 0,-3.109 0.8348,-4.0277 5,-5.5027 7.4457,-2.6365 7.9885,-3.4423 7.7092,-11.4422 l -0.2557,-7.3229 h 35.795 35.7951 l -0.3551,35.5429 -0.3552,35.5428 -27.3333,0.246 c -15.0333,0.1353 -28.0244,0.3409 -28.8691,0.4571 -0.8446,0.116 -1.9535,3.8112 -2.4642,8.2112 -0.642,5.5316 -1.5052,8 -2.7976,8 -1.4252,0 -1.8691,-2.2166 -1.8691,-9.3334 z m 15.5556,8.4444 c -1.5342,-1.5341 -0.971,-3.111 1.1111,-3.111 1.1,0 2,0.9 2,2 0,2.0821 -1.577,2.6453 -3.1111,1.111 z m 24.7733,-0.7777 c 0.3555,-1.0752 3.944,-1.8057 10.1111,-2.0584 7.8986,-0.3237 9.56,-0.035 9.56,1.6667 0,1.6746 -1.8848,2.0584 -10.1111,2.0584 -7.4939,0 -9.9685,-0.4315 -9.56,-1.6667 z m 128.5485,-0.4017 c 0.9702,-2.5283 11.2789,-2.1868 12.1301,0.4017 0.3899,1.1857 -1.3957,1.6667 -6.1879,1.6667 -5.5387,0 -6.5948,-0.3676 -5.9422,-2.0684 z m 436.456,0.735 c 0,-0.7333 1.35,-1.3385 3,-1.3449 1.65,0 6.15,-0.39 10,-0.8524 5.9396,-0.7135 7,-0.5097 7,1.3449 0,1.8311 -1.6224,2.1858 -10,2.1858 -5.7778,0 -10,-0.563 -10,-1.3334 z M 2.9431802,1381.0023 c -0.8661,-0.2851 -1.3502,-13.0743 -1.3502,-35.6667 v -35.2222 H 14.92628 28.25968 v 35.3333 35.3333 l -3.6667,0.145 c -11.0041,0.4349 -20.4606998,0.4686 -21.6497998,0.077 z m 101.3282998,0 c -0.8595,-0.284 -1.3452,-13.162 -1.3452,-35.6667 v -35.2222 h 35.3334 35.3333 v 35.3333 35.3333 l -7,0.1658 c -17.5878,0.4164 -61.113,0.4558 -62.3215,0.056 z m 145.3209,0 c -0.8432,-0.2812 -1.3327,-13.3819 -1.3327,-35.6667 v -35.2222 h 36 36 v 35.3333 35.3333 l -3,0.1214 c -9.5774,0.3868 -66.5556,0.4718 -67.6673,0.1013 z m 145.891,-0.1107 c -0.3064,-0.306 -0.5571,-16.356 -0.5571,-35.6672 v -35.111 h 36 36 v 35.3333 c 0,27.2836 -0.3797,35.3736 -1.6666,35.5099 -4.5011,0.4768 -69.2935,0.416 -69.7763,-0.065 z m 146.1094,-35.1116 2e-4,-35.6666 h 36 36 v 35.3333 c 0,19.4333 -0.45,35.3656 -1,35.4049 -0.55,0.04 -16.7501,0.1895 -36.0002,0.3334 l -35.0002,0.2617 z m 154.3335,35.2724 -9,-0.3942 v -35.2724 -35.2724 h 36 36 l -9e-4,35.6666 -8e-4,35.6667 h -26.9992 c -14.8495,0 -31.0491,-0.1775 -35.9991,-0.3943 z m 144.6667,-0.013 -7,-0.4029 v -35.2638 -35.2636 h 18.4818 18.4818 l -0.6373,3.3334 c -0.5469,2.8611 -1.3571,3.3333 -5.7198,3.3333 -5.7069,0 -8.1524,1.9093 -11.9304,9.3149 -3.1755,6.2245 -4.9272,21.32 -2.8825,24.8404 1.1803,2.0322 1.4664,1.0484 1.4992,-5.1553 l 0.041,-7.6621 h 9.3334 9.3333 v 10 10 h -8 c -4.4,0 -8,0.5301 -8,1.1781 0,1.4904 10.2567,10.8219 11.8948,10.8219 0.6713,0 2.1695,0.3641 3.3295,0.8093 1.7351,0.6659 2.109,-0.2799 2.109,-5.3333 v -6.1427 h 10 10 v 6.6667 c 0,7.5812 1.5286,8.2922 10.1144,4.7048 l 4.6953,-1.9619 -0.4048,6.2073 -0.4049,6.2074 -28.6666,0.088 c -15.7667,0.048 -31.8167,-0.093 -35.6667,-0.3152 z m 139.6667,-35.2353 v -35.6904 h 36.00002 36 v 35.3333 35.3333 l -3.6667,0.089 c -2.0167,0.049 -18.2167,0.2096 -36,0.3572 l -32.33332,0.2682 v -35.6905 z m 293.33282,35.1985 c -0.8434,-0.2813 -1.3328,-13.3797 -1.3328,-35.6667 v -35.2222 h 36 36 v 35.3333 c 0,19.4333 -0.45,35.3741 -1,35.424 -3.9761,0.3603 -68.6152,0.4824 -69.6672,0.132 z m 146.8144,0.049 c -1.0353,-0.3452 -1.4805,-11.0857 -1.4805,-35.7157 v -35.2223 h 36 36 v 35.3334 c 0,32.7201 -0.1726,35.3414 -2.3334,35.4429 -8.9388,0.4199 -66.9986,0.5575 -68.1861,0.1617 z m 145.1867,-35.2713 -6e-4,-35.6667 h 36 36 v 35.3334 c 0,27.289 -0.3794,35.3712 -1.6666,35.4997 -0.9167,0.092 -17.1164,0.2415 -35.9995,0.3333 l -34.3329,0.167 z m 148.3328,35.2405 -3,-0.426 v -35.2406 -35.2406 h 36 36 l 10e-5,35.6667 v 35.6667 h -33 c -18.1501,0 -34.3501,-0.1918 -36.0001,-0.4262 z m 144.2222,-0.1293 c -0.3056,-0.3055 -0.5556,-16.3555 -0.5556,-35.6667 v -35.111 h 36.0218 36.0218 l -0.3552,35.5758 -0.355,35.5758 -35.1111,0.091 c -19.3111,0.049 -35.3611,-0.1592 -35.6667,-0.4648 z m 149.7778,0.1337 -3.6667,-0.4218 v -35.2448 -35.2448 h 36 36 v 35.3333 c 0,19.4333 -0.45,35.3939 -1,35.4677 -2.774,0.3728 -64.1779,0.4735 -67.3333,0.1107 z m 142.222,-0.1337 c -0.3055,-0.3055 -0.5554,-16.3555 -0.5554,-35.6667 v -35.111 h 36 36 v 35.3333 c 0,19.4333 -0.45,35.3789 -1,35.4347 -4.2749,0.4332 -70.0122,0.4422 -70.4446,0.013 z m 148.3789,0.124 c -2.0665,-0.3929 -2.2676,-3.5559 -2.2676,-35.6667 v -35.2356 h 36 36 l 10e-5,35.6667 v 35.6667 h -33.7324 c -18.5528,0 -34.7529,-0.194 -36.0001,-0.4311 z m 146.6405,0 c -2.0322,-0.3909 -2.2414,-3.7189 -2.2414,-35.6667 v -35.2356 h 36 36 v 35.3334 c 0,32.7164 -0.1728,35.3421 -2.3334,35.4526 -7.3529,0.3759 -65.5533,0.4763 -67.4252,0.116 z m 146.6544,0 c -2.0162,-0.39 -2.2292,-3.7971 -2.2292,-35.6667 v -35.2356 l 35.6667,4e-4 35.6667,3e-4 -0.043,34.5983 c -0.024,19.029 -0.3875,34.9426 -0.8084,35.3636 -0.806,0.806 -64.4158,1.6817 -68.2527,0.9397 z m -1517.5287,-8.5688 c 0.5142,-3.1167 1.8963,-7.3167 3.0713,-9.3333 1.8596,-3.1914 2.9634,-3.6667 8.5157,-3.6667 h 6.3792 v 9.3333 9.3334 h -9.4506 -9.4505 z m 39.2995,-3.6667 v -9.3333 h 9.3333 9.3334 v 9.3333 9.3334 h -9.3334 -9.3333 z m -222.11392,-12.4826 c -0.3832,-0.9988 -0.5144,-5.3488 -0.2914,-9.6667 l 0.4053,-7.8507 h 9.3333 9.3334 l 0.3917,9.6667 0.3918,9.6667 h -9.4336 c -6.7305,0 -9.6333,-0.5204 -10.1305,-1.816 z m 202.11392,-5.8966 c 0,-7.099 0.3081,-7.8945 3.8724,-10 2.1298,-1.2581 6.3298,-2.2874 9.3333,-2.2874 h 5.461 v 10 10 h -9.3334 -9.3333 z m -221.72322,-13.1217 c -0.5189,-0.5189 -0.9435,-5.0698 -0.9435,-10.113 v -9.1696 l 9.6667,0.3918 9.6667,0.3917 v 9.3334 9.3333 l -8.7232,0.3879 c -4.7977,0.2134 -9.1477,-0.037 -9.6667,-0.5555 z m 40.4123,-8.1657 0.022,-9 2.7118,4.2333 c 1.4915,2.3283 3.0599,6.3783 3.4854,9 0.7229,4.4548 0.544,4.7667 -2.7343,4.7667 -3.4439,0 -3.5074,-0.1639 -3.4853,-9 z m -21.3558,-15.6667 c 0,-3.1428 0.4104,-3.3333 7.1779,-3.3333 6.5977,0 7.2295,0.2694 7.8151,3.3333 0.6211,3.2489 0.4393,3.3333 -7.1778,3.3333 -7.4473,0 -7.8152,-0.1569 -7.8152,-3.3333 z M 29.59298,1272.8018 V 1236.78 h 36.0218 36.0218 l -0.3552,35.6667 -0.3551,35.6667 -35.6666,0.3551 -35.6667,0.3551 z m 146.2222,35.0893 c -0.4889,-0.4888 -0.8889,-16.6888 -0.8889,-36 V 1236.78 h 36 36 v 36 36 h -35.1111 c -19.3111,0 -35.5111,-0.4 -36,-0.8889 z m 145.7778,-35.1111 v -36 h 36 36 v 36 36 h -36 -36 z m 146.6667,0 v -36 h 36 36 v 36 36 h -36 -36 z m 146.6666,0 v -36 h 35.3334 35.3333 v 36 36 h -35.3333 -35.3334 z m 145.3334,0 v -36 h 36 36 v 36 36 h -36 -36 z m 146.6666,0 v -36 h 36 36 v 36 36 h -36 -36 z m 146.66672,0.022 v -36.0218 h 36.0218 36.0218 l -0.3551,35.6667 -0.3552,35.6666 -35.6666,0.3551 -35.6667,0.3552 z m 146.2222,35.0893 c -0.4889,-0.4888 -0.8889,-16.6888 -0.8889,-36 v -35.1111 h 36 36 v 36 36 h -35.1111 c -19.3111,0 -35.5111,-0.4 -36,-0.8889 z m 145.7778,-35.1111 v -36 h 36 36 v 36 36 h -36 -36 z m 146.6667,0.022 v -36.0218 h 36.0217 36.0219 l -0.3552,35.6667 -0.3551,35.6666 -35.6666,0.3551 -35.6667,0.3552 z m 146.2223,35.0893 c -0.489,-0.4888 -0.889,-16.6888 -0.889,-36 v -35.1111 h 36 36 v 36 36 h -35.111 c -19.3112,0 -35.5112,-0.4 -36,-0.8889 z m 145.7777,-35.1111 v -36 h 36 36 v 36 36 h -36 -36 z m 146.6667,0 v -36 h 36 36 v 36 36 h -36 -36 z m 146.6666,0.022 v -36.0218 h 36.0218 36.0218 l -0.3552,35.6667 -0.355,35.6666 -35.6667,0.3551 -35.6667,0.3552 z m 145.3334,-0.022 v -36 h 36 36 v 36 36 h -36 -36 z m 146.6666,0 v -36 h 36 36 v 36 36 h -36 -36 z m 146.6667,0.022 v -36.0218 h 36.0217 36.0219 l -0.3552,35.6667 -0.3551,35.6666 -35.6666,0.3551 -35.6667,0.3552 z m 146.2223,35.0893 c -0.489,-0.4888 -0.889,-16.6888 -0.889,-36 v -35.1111 h 3.3334 3.3333 v 36 c 0,34.0202 -0.1344,36 -2.4444,36 -1.3445,0 -2.8445,-0.4 -3.3333,-0.8889 z M 1.5929802,1199.4457 v -36 H 14.92628 28.25968 v 36 36 H 14.92628 1.5929802 Z m 101.3332998,0 v -36 h 35.3334 35.3333 v 36 36 h -35.3333 -35.3334 z m 145.3334,0 v -36 h 36 36 v 36 36 h -36 -36 z m 146.6666,0 v -36 h 36 36 v 36 36 h -36 -36 z m 146.6667,0 v -36 h 36 36 v 36 36 h -36 -36 z m 145.3333,0 v -36 h 36 36 v 36 36 h -36 -36 z m 146.6667,0 v -36 h 36 36 v 36 36 h -36 -36 z m 146.6667,0 v -36 h 36.00002 36 v 36 36 h -36 -36.00002 z m 146.37192,35 c -0.3803,-0.8411 -0.2469,-55.92 0.163,-67.3333 l 0.1317,-3.6667 h 35.3334 35.3333 v 36 36 h -35.2546 c -19.3901,0 -35.4581,-0.45 -35.7068,-1 z m 145.6281,-35 v -36 h 36 36 v 36 36 h -36 -36 z m 146.6667,0 v -36 h 36 36 v 36 36 h -36 -36 z m 146.6666,0 v -36 h 36 36 v 36 36 h -36 -36 z m 145.3334,0 v -36 h 36 36 v 36 36 h -36 -36 z m 146.6666,0 v -36 h 36 36 v 36 36 h -36 -36 z m 146.6667,0 v -36 h 36 36 v 36 36 h -36 -36 z m 145.3333,0 v -36 h 36 36 v 36 36 h -36 -36 z m 146.6667,0 v -36 h 36 36 v 36 36 h -36 -36 z m 146.6667,0 v -36 h 36 36 v 36 36 h -36 -36 z m 146.6666,0 v -36 h 35.3334 35.3333 l 0.1479,7.6667 c 0.4688,24.3141 0.5024,59.9969 0.059,62 -0.4767,2.1502 -3.2784,2.3333 -35.6951,2.3333 h -35.1779 v -36 z M 29.59298,1126.1123 v -36 h 36 36 v 36 36.0001 h -36 -36 z m 145.3333,0 v -36 h 36 36 v 36 36.0001 h -36 -36 z m 146.6667,0 v -36 h 36 36 v 36 36.0001 h -36 -36 z m 146.6667,0 v -36 h 36 36 v 36 36.0001 h -36 -36 z m 146.6666,0 v -36 h 35.3334 35.3333 v 36 36.0001 h -35.3333 -35.3334 z m 145.3334,0 v -36 h 36 36 v 36 36.0001 h -36 -36 z m 146.6666,0 v -36 h 36 36 v 36 36.0001 h -36 -36 z m 146.66672,0 v -36 h 36 36 v 36 36.0001 h -36 -36 z m 145.3333,0 v -36 h 36 36 v 36 36.0001 h -36 -36 z m 146.6667,0 v -36 h 36 36 v 36 36.0001 h -36 -36 z m 146.6667,0 v -36 h 36 36 v 36 36.0001 h -36 -36 z m 145.3333,0 v -36 h 36 36 v 36 36.0001 h -36 -36 z m 146.6667,0 v -36 h 36 36 v 36 36.0001 h -36 -36 z m 146.6667,0 v -36 h 36 36 v 36 36.0001 h -36 -36 z m 146.6666,0 v -36 h 36 36 v 36 36.0001 h -36 -36 z m 145.3334,0 v -36 h 36 36 v 36 36.0001 h -36 -36 z m 146.6666,0 v -36 h 36 36 v 36 36.0001 h -36 -36 z m 146.6667,0 v -36 h 36 36 v 36 36.0001 h -36 -36 z m 145.3333,0 v -36 h 3.3334 3.3333 v 36 36.0001 h -3.3333 -3.3334 z M 1.5929802,1052.779 v -36 H 14.92628 28.25968 v 36 36 H 14.92628 1.5929802 Z m 101.3332998,0 v -36 h 35.3334 35.3333 v 36 36 h -35.3333 -35.3334 z m 145.3334,0 v -36 h 36 36 v 36 36 h -36 -36 z m 146.6666,0 v -36 h 36 36 v 36 36 h -36 -36 z m 146.6667,0 v -36 h 36 36 v 36 36 h -36 -36 z m 145.3333,0 v -36 h 36 36 v 36 36 h -36 -36 z m 146.6667,0 v -36 h 36 36 v 36 36 h -36 -36 z m 146.6667,0 v -36 h 36.00002 36 v 36 36 h -36 -36.00002 z m 146.58412,35 c -0.4819,-5.841 -0.6876,-65.7484 -0.2334,-68 l 0.605,-3 h 35.1888 35.1888 v 36 36 h -35.3333 c -19.4334,0 -35.3705,-0.45 -35.4159,-1 z m 145.4159,-35 v -36 h 36 36 v 36 36 h -36 -36 z m 146.6667,0 v -36 h 36 36 v 36 36 h -36 -36 z m 146.6666,0 v -36 h 36 36 v 36 36 h -36 -36 z m 145.3334,0 v -36 h 36 36 v 36 36 h -36 -36 z m 146.6666,0 v -36 h 36 36 v 36 36 h -36 -36 z m 146.6667,0 v -36 h 36 36 v 36 36 h -36 -36 z m 145.3333,0 v -36 h 36 36 v 36 36 h -36 -36 z m 146.6667,0 v -36 h 36 36 v 36 36 h -36 -36 z m 146.6667,0 v -36 h 36 36 v 36 36 h -36 -36 z m 146.6666,0 v -36 h 35.1907 c 26.9764,0 35.3164,0.389 35.7293,1.6667 0.4444,1.3747 0.3639,43.2056 -0.124,64.6666 l -0.1293,5.6667 h -35.3333 -35.3334 z M 29.59298,979.44569 v -36 h 36 36 v 36 36.00001 h -36 -36 z m 145.3333,0 v -36 h 36 36 v 36 36.00001 h -36 -36 z m 146.6667,0 v -36 h 36 36 v 36 36.00001 h -36 -36 z m 146.6667,0 v -36 h 36 36 v 36 36.00001 h -36 -36 z m 146.6666,0 v -36 h 35.3334 35.3333 v 36 36.00001 h -35.3333 -35.3334 z m 145.3334,0 v -36 h 36 36 v 36 36.00001 h -36 -36 z m 146.6666,0 v -36 h 36 36 v 36 36.00001 h -36 -36 z m 146.66672,-0.022 v -36.0218 l 35.6667,0.3551 35.6666,0.3551 0.3552,35.6667 0.3551,35.66661 h -36.0218 -36.0218 v -36.02181 z m 145.3333,0.022 v -36 h 36 36 v 36 36.00001 h -36 -36 z m 146.6667,0 v -36 h 36 36 v 36 36.00001 h -36 -36 z m 146.6667,0 v -36 h 36 36 v 36 36.00001 h -36 -36 z m 145.6449,0.3333 0.3551,-35.6667 35.6667,-0.3551 35.6666,-0.3551 v 36.0218 36.02181 h -36.0217 -36.0219 z m 146.3551,-0.3333 v -36 h 36 36 v 36 36.00001 h -36 -36 z m 146.6667,0 v -36 h 36 36 v 36 36.00001 h -36 -36 z m 146.6666,-0.022 v -36.0218 l 35.6667,0.3551 35.6667,0.3551 0.355,35.6667 0.3552,35.66661 h -36.0218 -36.0218 z m 145.3334,0.022 v -36 h 36 36 v 36 36.00001 h -36 -36 z m 146.6666,0 v -36 h 36 36 v 36 36.00001 h -36 -36 z m 146.6667,0 v -36 h 36 36 v 36 36.00001 h -36 -36 z m 145.3333,0 v -36 h 3.3334 3.3333 v 36 36.00001 h -3.3333 -3.3334 z M 1.5929802,906.06409 v -36.0483 l 12.9999998,0.3816 13,0.3816 0.3551,35.6667 0.3551,35.6666 H 14.94808 1.5929802 Z m 101.3332998,0.048 v -36 h 35.3334 35.3333 v 36 36 h -35.3333 -35.3334 z m 145.3334,0 v -36 h 36 36 v 36 36 h -36 -36 z m 146.6666,-0.022 v -36.0218 l 35.6667,0.3551 35.6667,0.3551 0.3551,35.6667 0.3551,35.6666 h -36.0218 -36.0218 z m 146.6667,0 v -36.0218 l 35.6667,0.3551 35.6666,0.3551 0.3551,35.6667 0.3552,35.6666 h -36.0218 -36.0218 v -36.0218 z m 145.6449,0.355 0.3551,-35.6666 35.6667,-0.3552 35.6666,-0.3551 v 36.0218 36.0218 h -36.0217 -36.0218 z m 146.3551,-0.3333 v -36 h 36 36 v 36 36 h -36 -36 z m 146.6667,-0.022 v -36.0218 l 35.66662,0.3551 35.6667,0.3551 0.3551,35.6667 0.3551,35.6667 h -36.0217 -36.02182 z m 146.20732,2.3551 c 0.114,-18.5167 0.264,-34.7167 0.3333,-36 0.1167,-2.1604 2.7455,-2.3333 35.4594,-2.3333 h 35.3333 v 36 36 h -35.6667 -35.6666 z m 145.7927,-2.3334 v -36 h 36 36 v 36 36 h -36 -36 z m 146.6667,-0.022 v -36.0218 l 35.6666,0.3551 35.6667,0.3552 0.3551,35.6666 0.3552,35.6667 h -36.0219 -36.0217 z m 146.6666,0 v -36.0218 l 35.6667,0.3551 35.6667,0.3552 0.355,35.6666 0.3552,35.6667 h -36.0218 -36.0218 z m 145.645,0.3551 0.355,-35.6666 35.6667,-0.3552 35.6667,-0.3551 v 36.0218 36.0218 h -36.0218 -36.0218 z m 146.355,-0.3334 v -36 h 36 36 v 36 36.0001 h -36 -36 z m 146.6667,-0.022 v -36.0217 l 35.6667,0.3551 35.6666,0.3551 0.3551,35.6667 0.3552,35.6666 h -36.0219 -36.0217 z m 145.6449,0.3552 0.3551,-35.6667 35.6667,-0.3551 35.6666,-0.3551 v 36.0217 36.0218 h -36.0217 -36.0219 z m 146.3551,-0.3334 v -36 h 36 36 v 36 36 h -36 -36 z m 146.6667,-0.022 v -36.0218 l 35.6666,0.3551 35.6667,0.3551 0.3551,35.6667 0.3552,35.6667 h -36.0219 -36.0217 z m 146.6666,0.044 v -36.0218 h 35.3334 c 32.7141,0 35.3426,0.173 35.4586,2.3333 0.069,1.2834 0.1722,17.3334 0.2294,35.6667 l 0.104,33.3333 -35.5627,0.3551 -35.5625,0.3552 v -36.0218 z m -2560.00022,-72.3552 2e-4,-35.6667 h 36 36 v 35.3333 c 0,27.3481 -0.3767,35.346 -1.6667,35.3891 -0.9166,0.031 -17.1167,0.1807 -36.0002,0.3333 l -34.3335,0.2776 z m 145.8892,35.1111 c -0.3056,-0.3056 -0.5557,-16.3556 -0.5557,-35.6667 v -35.1111 h 36 36 v 35.3333 c 0,32.7097 -0.1732,35.3435 -2.3333,35.4704 -7.7383,0.4546 -68.6533,0.4317 -69.111,-0.026 z m 150.4443,0.1377 -4.3333,-0.4178 v -35.2488 -35.2489 h 36 36 v 35.3333 35.3334 l -9.6667,0.1156 c -38.4338,0.4594 -54.2409,0.4957 -58,0.1333 z m 142.8897,-0.1377 c -0.306,-0.3056 -0.5563,-16.3556 -0.5563,-35.6667 v -35.1111 h 36 36 v 35.3333 35.3334 l -7.6667,0.1346 c -26.2033,0.4603 -63.3063,0.4466 -63.777,-0.024 z m 148.3522,0.1244 c -2.0328,-0.3909 -2.2419,-3.7167 -2.2419,-35.6666 v -35.2356 h 35.3334 35.3333 v 35.3333 35.3334 l -3,0.1305 c -8.8299,0.3843 -63.5159,0.4721 -65.4248,0.1051 z m 146.0915,0 -3,-0.4261 v -35.2406 -35.2406 h 36 36 v 35.3334 35.3333 l -5.6667,0.094 c -24.7091,0.411 -60.8811,0.4946 -63.3333,0.1463 z m 145.8998,0 c -2.0214,-0.39 -2.2332,-3.7712 -2.2332,-35.6664 v -35.2356 h 36 36 v 35.3334 35.3333 l -4.3333,0.085 c -20.2276,0.3951 -63.6498,0.4953 -65.4335,0.1509 z m 144.98922,-0.1244 c -0.3056,-0.3053 -0.5557,-16.3553 -0.5557,-35.6664 v -35.1112 h 36 36 v 35.3334 c 0,32.7062 -0.1735,35.3442 -2.3333,35.4794 -7.3353,0.4592 -68.6477,0.4282 -69.111,-0.035 z m 148.4443,0.1339 -3.6667,-0.4219 v -35.2448 -35.2448 h 36 36 v 35.3334 35.3333 l -4.3333,0.094 c -18.0708,0.3914 -61.0298,0.4927 -64,0.1509 z m 143.556,-0.1337 c -0.3058,-0.3055 -0.556,-16.3555 -0.556,-35.6666 v -35.1112 h 36 36 v 35.3334 35.3333 l -3,0.1362 c -10.013,0.4547 -67.9852,0.4335 -68.444,-0.025 z m 149.1107,0.1295 -3,-0.4261 v -35.2406 -35.2406 h 36 36 v 35.3334 c 0,32.7017 -0.1737,35.345 -2.3333,35.4912 -5.7834,0.3912 -63.9856,0.4634 -66.6667,0.083 z m 143.6673,-0.018 c -0.8449,-0.2815 -1.334,-13.3586 -1.334,-35.6666 v -35.2223 h 36 36 v 35.3334 c 0,27.3109 -0.3784,35.3618 -1.6666,35.4588 -5.0702,0.3815 -67.8802,0.4696 -68.9994,0.097 z m 145.8887,-0.1111 c -0.3057,-0.3055 -0.556,-16.3555 -0.556,-35.6666 v -35.1112 h 36.0217 36.0219 l -0.3552,35.6149 -0.3551,35.6148 -35.1106,0.052 c -19.3108,0.028 -35.3608,-0.1981 -35.6667,-0.5037 z m 149.1107,0.1295 -3,-0.4261 v -35.2406 -35.2406 h 36 36 v 35.3334 35.3333 l -5,0.1583 c -12.645,0.4004 -61.3198,0.4629 -64,0.082 z m 144.2222,-0.1295 c -0.3056,-0.3055 -0.5556,-16.3555 -0.5556,-35.6666 v -35.1112 h 36 36 v 35.3334 c 0,32.7106 -0.1732,35.3433 -2.3333,35.4679 -7.8572,0.4533 -68.6551,0.4326 -69.1111,-0.024 z m 146.1159,0.1111 c -0.8503,-0.2824 -1.3381,-13.2844 -1.3381,-35.6667 v -35.2222 h 36 36 v 35.3334 c 0,27.3134 -0.3783,35.3607 -1.6667,35.4539 -5.2401,0.3792 -67.8816,0.4715 -68.9952,0.1016 z m 145.8843,-0.1111 c -0.3056,-0.3055 -0.5558,-16.3555 -0.5558,-35.6666 v -35.1112 h 36 36 v 35.3334 c 0,32.7197 -0.1725,35.3415 -2.3333,35.444 -9.3197,0.4419 -68.6688,0.4423 -69.1109,4e-4 z m 147.4428,0.1111 c -0.8422,-0.281 -1.3319,-13.3954 -1.3319,-35.6666 v -35.2223 h 36 36 v 35.3334 c 0,19.4333 -0.45,35.3766 -1,35.4296 -3.7704,0.363 -68.6063,0.4802 -69.6681,0.1259 z m 145.6681,0.1369 c -1.2767,-0.4453 -1.6667,-8.8248 -1.6667,-35.8036 v -35.2222 h 3.3334 3.3333 v 35.1907 c 0,35.9108 -0.222,37.5018 -5,35.8352 z M 1.5929802,760.77899 v -36 H 14.92628 28.25968 v 36 36 H 14.92628 1.5929802 Z m 101.3332998,0 v -36 h 35.3334 35.3333 v 36 36 h -35.3333 -35.3334 z m 145.3334,0 v -36 h 36 36 v 36 36 h -36 -36 z m 146.6666,0 v -36 h 36 36 v 36 36 h -36 -36 z m 146.6667,0.022 v -36.0218 h 36.0218 36.0218 l -0.3552,35.6667 -0.3551,35.6667 -35.6666,0.3551 -35.6667,0.3551 z m 145.3333,-0.022 v -36 h 36 36 v 36 36 h -36 -36 z m 146.6667,0 v -36 h 36 36 v 36 36 h -36 -36 z m 146.6667,0 v -36 h 36.00002 36 v 36 36 h -36 -36.00002 z m 146.41842,34.3333 c -0.4248,-1.3272 -0.3257,-45.38 0.1486,-66 l 0.1,-4.3333 h 35.3334 35.3333 v 36 36 h -35.1907 c -26.9791,0 -35.3151,-0.3889 -35.7242,-1.6667 z m 145.5816,-34.3333 v -36 h 36 36 v 36 36 h -36 -36 z m 146.6667,0 v -36 h 36 36 v 36 36 h -36 -36 z m 146.6666,0.022 v -36.0218 h 36.0218 36.0218 l -0.3552,35.6667 -0.355,35.6667 -35.6667,0.3551 -35.6667,0.3551 z m 145.3334,-0.022 v -36 h 36 36 v 36 36 h -36 -36 z m 146.6666,0 v -36 h 36 36 v 36 36 h -36 -36 z m 146.6667,0 v -36 h 36 36 v 36 36 h -36 -36 z m 146.2223,35.1111 c -0.489,-0.4889 -0.889,-16.6889 -0.889,-36 v -35.1111 h 36 36 v 36 36 h -35.111 c -19.3112,0 -35.5112,-0.4 -36,-0.8889 z m 145.7777,-35.1111 v -36 h 36 36 v 36 36 h -36 -36 z m 146.6667,0 v -36 h 36 36 v 36 36 h -36 -36 z m 146.6666,0 v -36 h 35.3334 c 27.3314,0 35.353,0.3775 35.4202,1.6667 0.4507,8.6434 0.6071,67.3922 0.1827,68.6666 -0.4252,1.2773 -8.7779,1.6667 -35.7456,1.6667 H 2589.593 Z M 29.59298,687.44569 v -36 h 36 36 v 36 36 h -36 -36 z m 145.3333,0 v -36 h 36 36 v 36 36 h -36 -36 z m 146.6667,0 v -36 h 36 36 v 36 36 h -36 -36 z m 146.6667,0 v -36 h 36 36 v 36 36 h -36 -36 z m 146.6666,0 v -36 h 35.3334 35.3333 v 36 36 h -35.3333 -35.3334 z m 145.3334,0 v -36 h 36 36 v 36 36 h -36 -36 z m 146.6666,0 v -36 h 36 36 v 36 36 h -36 -36 z m 146.66672,0 v -36 h 36 36 v 36 36 h -36 -36 z m 145.3333,0 v -36 h 36 36 v 36 36 h -36 -36 z m 146.6667,0 v -36 h 36 36 v 36 36 h -36 -36 z m 146.6667,0 v -36 h 36 36 v 36 36 h -36 -36 z m 146.2223,35.1111 c -0.489,-0.4889 -0.889,-16.6889 -0.889,-36 v -35.1111 h 36 36 v 36 36 h -35.111 c -19.3112,0 -35.5112,-0.4 -36,-0.8889 z m 145.7777,-35.1111 v -36 h 36 36 v 36 36 h -36 -36 z m 146.6667,0 v -36 h 36 36 v 36 36 h -36 -36 z m 146.6666,0.022 v -36.0218 h 36.0218 36.0218 l -0.3552,35.6667 -0.355,35.6666 -35.6667,0.3551 -35.6667,0.3552 z m 145.3334,-0.022 v -36 h 36 36 v 36 36 h -36 -36 z m 146.6666,0 v -36 h 36 36 v 36 36 h -36 -36 z m 146.6667,0 v -36 h 36 36 v 36 36 h -36 -36 z m 145.3333,0 v -36 h 3.3334 3.3333 v 36 36 h -3.3333 -3.3334 z M 1.5929802,614.11229 v -36 H 14.92628 28.25968 v 36 36 H 14.92628 1.5929802 Z m 101.3332998,0 v -36 h 35.3334 35.3333 v 36 36 h -35.3333 -35.3334 z m 145.3334,0 v -36 h 36 36 v 36 36 h -36 -36 z m 146.6666,0 v -36 h 36 36 v 36 36 h -36 -36 z m 146.6667,0 v -36 h 36 36 v 36 36 h -36 -36 z m 145.3333,0 v -36 h 36 36 v 36 36 h -36 -36 z m 146.6667,0 v -36 h 36 36 v 36 36 h -36 -36 z m 146.6667,0 v -36 h 36.00002 36 v 36 36 h -36 -36.00002 z m 146.18222,1.6665 c 0.1003,-18.8832 0.2503,-35.0831 0.3334,-35.9998 0.1166,-1.2876 8.1872,-1.6667 35.4844,-1.6667 h 35.3333 v 36 36 l -35.6667,-2e-4 -35.6666,-2e-4 z m 145.8178,-1.6665 v -36 h 36 36 v 36 36 h -36 -36 z m 146.6667,0 v -36 h 36 36 v 36 36 h -36 -36 z m 146.6666,0 v -36 h 36 36 v 36 36 h -36 -36 z m 145.3334,0 v -36 h 36 36 v 36 36 h -36 -36 z m 146.6666,0 v -36 h 36 36 v 36 36 h -36 -36 z m 146.6667,0 v -36 h 36 36 v 36 36 h -36 -36 z m 145.3333,0 v -36 h 36 36 v 36 36 h -36 -36 z m 146.6667,0 v -36 h 36 36 v 36 36 h -36 -36 z m 146.6667,0 v -36 h 36 36 v 36 36 h -36 -36 z m 146.6666,0 v -36 h 35.3334 c 27.3012,0 35.366,0.3789 35.4769,1.6667 0.079,0.9167 0.2289,17.1167 0.3333,36 l 0.1898,34.3333 h -35.6667 -35.6667 z M 29.59298,540.77899 v -36 h 36 36 v 36 36 h -36 -36 z m 145.3333,0 v -36 h 36 36 v 36 36 h -36 -36 z m 146.6667,0 v -36 h 36 36 v 36 36 h -36 -36 z m 146.6667,0 v -36 h 36 36 v 36 36 h -36 -36 z m 146.3751,-9e-4 -0.3751,-36.0009 35.6666,9e-4 35.6667,9e-4 v 36 36 h -35.2915 -35.2915 z m 145.6249,9e-4 v -36 h 36 36 v 36 36 h -36 -36 z m 146.6666,0 v -36 h 36 36 v 36 36 h -36 -36 z m 146.66672,0 v -36 h 36 36 v 36 36 h -36 -36 z m 145.3333,0 v -36 h 36 36 v 36 36 h -36 -36 z m 146.6667,0 v -36 h 36 36 v 36 36 h -36 -36 z m 146.6667,0 v -36 h 36 36 v 36 36 h -36 -36 z m 145.6449,0.3333 0.3551,-35.6666 35.6667,-0.3551 35.6666,-0.3552 v 36.0218 36.0218 h -36.0217 -36.0219 z m 146.3551,-0.3333 v -36 h 36 36 v 36 36 h -36 -36 z m 146.6667,0 v -36 h 36 36 v 36 36 h -36 -36 z m 146.6666,-0.022 v -36.0218 l 35.6667,0.3551 35.6667,0.3551 0.355,35.6667 0.3552,35.6667 h -36.0218 -36.0218 z m 145.3334,0.022 v -36 h 36 36 v 36 36 h -36 -36 z m 146.6666,0 v -36 h 36 36 v 36 36 h -36 -36 z m 146.6667,0 v -36 h 36 36 v 36 36 h -36 -36 z m 145.3333,0 v -36 h 3.3334 3.3333 v 36 36 h -3.3333 -3.3334 z M 1.5929802,467.44569 v -36 H 14.92628 28.25968 v 36 36 H 14.92628 1.5929802 Z m 101.3332998,0 v -36 h 35.3334 35.3333 v 36 36 h -35.3333 -35.3334 z m 145.3334,0 v -36 h 36 36 v 36 36 h -36 -36 z m 146.6666,0 v -36 h 36 36 v 36 36 h -36 -36 z m 146.6667,-0.022 v -36.0218 l 35.6667,0.3551 35.6666,0.3551 0.3551,35.6667 0.3552,35.6666 h -36.0218 -36.0218 v -36.0218 z m 145.6449,0.355 0.3551,-35.6666 35.6667,-0.3551 35.6666,-0.3552 v 36.0218 36.0218 h -36.0217 -36.0218 z m 146.3551,-0.3333 v -36 h 36 36 v 36 36 h -36 -36 z m 146.6667,0 v -36 h 36.00002 36 v 36 36 h -36 -36.00002 z m 146.55542,35.6667 c -0.1546,-0.4637 -0.167,-60.5291 -0.014,-66.6667 l 0.1249,-5 h 35.3334 35.3333 v 36 36 h -35.3333 c -19.4334,0 -35.3834,-0.15 -35.4446,-0.3333 z m 145.4446,-35.6667 v -36 h 36 36 v 36 36 h -36 -36 z m 146.6667,0 v -36 h 36 36 v 36 36 h -36 -36 z m 146.6666,-0.022 v -36.0218 l 35.6667,0.3551 35.6667,0.3551 0.355,35.6667 0.3552,35.6667 h -36.0218 -36.0218 z m 145.3334,0.022 v -36 h 36 36 v 36 36 h -36 -36 z m 146.6666,0 v -36 h 36 36 v 36 36 h -36 -36 z m 146.6667,0 v -36 h 36 36 v 36 36 h -36 -36 z m 145.6449,0.3333 0.3551,-35.6666 35.6667,-0.3551 35.6666,-0.3552 v 36.0218 36.0218 h -36.0217 -36.0219 z m 146.3551,-0.3333 v -36 h 36 36 v 36 36 h -36 -36 z m 146.6667,0 v -36 h 36 36 v 36 36 h -36 -36 z m 146.6666,-0.022 v -36.0218 l 35.6667,0.3551 35.6667,0.3551 -0.2583,34.6667 c -0.1421,19.0667 -0.2921,35.1167 -0.3333,35.6667 -0.041,0.55 -15.9751,1 -35.4084,1 H 2589.593 Z M 29.59298,394.08999 v -36.0218 l 35.6667,0.3551 35.6666,0.3551 0.3551,35.6667 0.3552,35.6666 h -36.0218 -36.0218 z m 145.6449,0.3551 0.3551,-35.6667 35.6667,-0.3551 35.6666,-0.3551 v 36.0218 36.0217 h -36.0217 -36.0218 z m 146.3551,-0.3334 v -36 h 36 36 v 36 36 h -36 -36 z m 146.6667,-0.022 v -36.0217 l 35.6666,0.3551 35.6667,0.3551 0.3551,35.6666 0.3551,35.6667 h -36.0218 -36.0217 z m 146.6666,0.022 v -36 h 35.3334 35.3333 v 36 36 h -35.3333 -35.3334 z m 145.3334,0 v -36 h 36 36 v 36 36 h -36 -36 z m 146.6666,0 v -36 h 36 36 v 36 36 h -36 -36 z m 146.66672,-0.022 v -36.0217 l 35.6667,0.3551 35.6666,0.3551 0.3552,35.6666 0.3551,35.6667 h -36.0218 -36.0218 z m 145.3333,0.022 v -36 h 36 36 v 36 36 h -36 -36 z m 146.6667,0 v -36 h 36 36 v 36 36 h -36 -36 z m 146.6667,-0.022 v -36.0217 l 35.6667,0.3551 35.6666,0.3551 0.3551,35.6666 0.3552,35.6667 h -36.0219 -36.0217 z m 145.6449,0.3551 0.3551,-35.6666 35.6667,-0.3551 35.6666,-0.3551 v 36.0217 36.0218 h -36.0217 -36.0219 z m 146.3551,-0.3333 v -36 h 36 36 v 36 36 h -36 -36 z m 146.6667,-0.022 v -36.0218 l 35.6666,0.3551 35.6667,0.3551 0.3551,35.6667 0.3552,35.6667 h -36.0219 -36.0217 z m 146.6666,0 v -36.0218 l 35.6667,0.3551 35.6667,0.3551 0.355,35.6667 0.3552,35.6667 h -36.0218 -36.0218 z m 145.3334,0.022 v -36 h 36 36 v 36 36 h -36 -36 z m 146.6666,0 v -36 h 36 36 v 36 36 h -36 -36 z m 146.6667,-0.022 v -36.0218 l 35.6667,0.3551 35.6666,0.3551 0.3551,35.6667 0.3552,35.6667 h -36.0219 -36.0217 z m 145.6449,0.3551 0.3551,-35.6667 3,-0.426 3,-0.4261 v 36.0927 36.0928 h -3.3551 -3.3552 z M 1.5929802,322.15939 v -36.0483 H 14.94808 28.30318 l -0.3551,35.6667 -0.3551,35.6667 -13,0.3816 -12.9999998,0.3816 z m 101.3332998,-0.048 v -36 h 35.3334 35.3333 v 36 36 h -35.3333 -35.3334 z m 146.2223,35.1111 c -0.4889,-0.4889 -0.8889,-16.6889 -0.8889,-36 v -35.1111 h 36 36 v 36 36 h -35.1111 c -19.3112,0 -35.5112,-0.4 -36,-0.8889 z m 145.7777,-35.0893 v -36.0218 h 36.0218 36.0218 l -0.3551,35.6667 -0.3551,35.6666 -35.6667,0.3552 -35.6667,0.3551 z m 146.6667,0 v -36.0218 h 36.0218 36.0218 l -0.3552,35.6667 -0.3551,35.6666 -35.6666,0.3552 -35.6667,0.3551 z m 146.2222,35.0893 c -0.4889,-0.4889 -0.8889,-16.6889 -0.8889,-36 v -35.1111 h 36 36 v 36 36 h -35.1111 c -19.3111,0 -35.5111,-0.4 -36,-0.8889 z m 146.6667,0 c -0.4889,-0.4889 -0.8889,-16.6889 -0.8889,-36 v -35.1111 h 36 36 v 36 36 h -35.1111 c -19.3111,0 -35.5111,-0.4 -36,-0.8889 z m 145.7778,-35.0893 v -36.0218 h 36.02182 36.0217 l -0.3551,35.6667 -0.3551,35.6666 -35.6667,0.3552 -35.66662,0.3551 z m 146.53842,34.9782 c -0.071,-0.55 -0.2206,-16.75 -0.3334,-35.9999 l -0.205,-35 h 35.6666 l 35.6667,-1e-4 v 36 36 h -35.3333 c -19.4334,0 -35.3911,-0.45 -35.4616,-1 z m 146.3505,0.1111 c -0.4889,-0.4889 -0.8889,-16.6889 -0.8889,-36 v -35.1111 h 36 36 v 36 36 h -35.1111 c -19.3111,0 -35.5111,-0.4 -36,-0.8889 z m 145.7778,-35.0893 v -36.0218 h 36.0217 36.0219 l -0.3552,35.6667 -0.3551,35.6666 -35.6667,0.3552 -35.6666,0.3551 z m 146.6666,0 v -36.0218 h 36.0218 36.0218 l -0.3552,35.6667 -0.355,35.6666 -35.6667,0.3552 -35.6667,0.3551 z m 146.2223,35.0893 c -0.4889,-0.4889 -0.8889,-16.6889 -0.8889,-36 v -35.1111 h 36 36 v 36 36 h -35.1111 c -19.3112,0 -35.5112,-0.4 -36,-0.8889 z m 145.7777,-35.0893 v -36.0218 h 36.0218 36.0218 l -0.3552,35.6667 -0.355,35.6666 -35.6667,0.3552 -35.6667,0.3551 z m 146.6667,0 v -36.0218 h 36.0217 36.0219 l -0.3552,35.6667 -0.3551,35.6666 -35.6666,0.3552 -35.6667,0.3551 z m 146.2223,35.0893 c -0.489,-0.4889 -0.889,-16.6889 -0.889,-36 v -35.1111 h 36 36 v 36 36 h -35.111 c -19.3112,0 -35.5112,-0.4 -36,-0.8889 z m 146.6666,0 c -0.4889,-0.4889 -0.8889,-16.6889 -0.8889,-36 v -35.1111 h 36 36 v 36 36 h -35.1111 c -19.3112,0 -35.5112,-0.4 -36,-0.8889 z m 145.7778,-35.0893 v -36.0218 h 36.0217 36.0219 l -0.3552,35.6667 -0.3551,35.6666 -35.6667,0.3552 -35.6666,0.3551 z m 146.6666,-0.022 v -36 l 35.6667,3e-4 35.6667,4e-4 -0.1886,34.333 c -0.104,18.8831 -0.2537,35.0829 -0.3333,35.9996 -0.112,1.2878 -8.1776,1.6667 -35.4781,1.6667 H 2589.593 Z M 29.59298,248.77788 v -36 h 36 36 v 36 36.00001 h -36 -36 z m 146.2222,35.11111 c -0.4889,-0.4889 -0.8889,-16.68888 -0.8889,-36 v -35.11111 h 36 36 v 36 36.00001 h -35.1111 c -19.3111,0 -35.5111,-0.4 -36,-0.8889 z m 145.7778,-35.11111 v -36 h 36 36 v 36 36.00001 h -36 -36 z m 146.6667,0 v -36 h 36 36 v 36 36.00001 h -36 -36 z m 146.6666,0 v -36 h 35.3334 35.3333 v 36 36.00001 h -35.3333 -35.3334 z m 145.3334,0 v -36 h 36 36 v 36 36.00001 h -36 -36 z m 146.6666,0 v -36 h 36 36 v 36 36.00001 h -36 -36 z m 146.66672,0.0217 v -36.02174 h 36.0218 36.0218 l -0.3551,35.66667 -0.3552,35.66668 -35.6666,0.3551 -35.6667,0.3551 z m 145.3333,-0.0217 v -36 h 36 36 v 36 36.00001 h -36 -36 z m 146.6667,0 v -36 h 36 36 v 36 36.00001 h -36 -36 z m 146.6667,0 v -36 h 36 36 v 36 36.00001 h -36 -36 z m 146.2223,35.11111 c -0.489,-0.4889 -0.889,-16.68888 -0.889,-36 v -35.11111 h 36 36 v 36 36.00001 h -35.111 c -19.3112,0 -35.5112,-0.4 -36,-0.8889 z m 145.7777,-35.11111 v -36 h 36 36 v 36 36.00001 h -36 -36 z m 146.6667,0 v -36 h 36 36 v 36 36.00001 h -36 -36 z m 146.6666,0.0217 v -36.02174 h 36.0218 36.0218 l -0.3552,35.66667 -0.355,35.66668 -35.6667,0.3551 -35.6667,0.3551 z m 145.3334,-0.0217 v -36 h 36 36 v 36 36.00001 h -36 -36 z m 146.6666,0 v -36 h 36 36 v 36 36.00001 h -36 -36 z m 146.6667,0 v -36 h 36 36 v 36 36.00001 h -36 -36 z m 146.2223,35.11111 c -0.489,-0.4889 -0.889,-16.68888 -0.889,-36 v -35.11111 h 3.3334 3.3333 v 36 c 0,34.02021 -0.1344,36.00001 -2.4444,36.00001 -1.3445,0 -2.8445,-0.4 -3.3333,-0.8889 z M 1.5929802,175.44565 v -36 H 14.92628 28.25968 v 36 36 H 14.92628 1.5929802 Z m 101.3332998,0 v -36 h 35.3334 35.3333 v 36 36 h -35.3333 -35.3334 z m 145.3334,0 v -36 h 36 36 v 36 36 h -36 -36 z m 146.6666,0 v -36 h 36 36 v 36 36 h -36 -36 z m 146.6667,0 v -36 h 36 36 v 36 36 h -36 -36 z m 145.3333,0 v -36 h 36 36 v 36 36 h -36 -36 z m 146.6667,0 v -36 h 36 36 v 36 36 h -36 -36 z m 146.6667,0 v -36 h 36.00002 36 v 36 36 h -36 -36.00002 z m 146.37192,35 c -0.3803,-0.84105 -0.2469,-55.91996 0.163,-67.33333 l 0.1317,-3.66667 h 35.3334 35.3333 v 36 36 h -35.2546 c -19.3901,0 -35.4581,-0.45 -35.7068,-1 z m 145.6281,-35 v -36 h 36 36 v 36 36 h -36 -36 z m 146.6667,0 v -36 h 36 36 v 36 36 h -36 -36 z m 146.6666,0 v -36 h 36 36 v 36 36 h -36 -36 z m 145.3334,0 v -36 h 36 36 v 36 36 h -36 -36 z m 146.6666,0 v -36 h 36 36 v 36 36 h -36 -36 z m 146.6667,0 v -36 h 36 36 v 36 36 h -36 -36 z m 145.3333,0 v -36 h 36 36 v 36 36 h -36 -36 z m 146.6667,0 v -36 h 36 36 v 36 36 h -36 -36 z m 146.6667,0 v -36 h 36 36 v 36 36 h -36 -36 z m 146.6666,0 v -36 h 35.3334 35.3333 l 0.1479,7.66667 c 0.4688,24.31414 0.5024,59.99696 0.059,62 -0.4767,2.15018 -3.2784,2.33333 -35.6951,2.33333 h -35.1779 v -36 z M 29.59298,102.11232 V 66.112311 h 36 36 v 36.000009 36 h -36 -36 z m 145.3333,0 V 66.112311 h 36 36 v 36.000009 36 h -36 -36 z m 146.6667,0 V 66.112311 h 36 36 v 36.000009 36 h -36 -36 z m 146.6667,0 V 66.112311 h 36 36 v 36.000009 36 h -36 -36 z m 146.6666,0 V 66.112311 h 35.3334 35.3333 v 36.000009 36 h -35.3333 -35.3334 z m 145.3334,0 V 66.112311 h 36 36 v 36.000009 36 h -36 -36 z m 146.6666,0 V 66.112311 h 36 36 v 36.000009 36 h -36 -36 z m 146.66672,0 V 66.112311 h 36 36 v 36.000009 36 h -36 -36 z m 145.3333,0 V 66.112311 h 36 36 v 36.000009 36 h -36 -36 z m 146.6667,0 V 66.112311 h 36 36 v 36.000009 36 h -36 -36 z m 146.6667,0 V 66.112311 h 36 36 v 36.000009 36 h -36 -36 z m 145.3333,0 V 66.112311 h 36 36 v 36.000009 36 h -36 -36 z m 146.6667,0 V 66.112311 h 36 36 v 36.000009 36 h -36 -36 z m 146.6667,0 V 66.112311 h 36 36 v 36.000009 36 h -36 -36 z m 146.6666,0 V 66.112311 h 36 36 v 36.000009 36 h -36 -36 z m 145.3334,0 V 66.112311 h 36 36 v 36.000009 36 h -36 -36 z m 146.6666,0 V 66.112311 h 36 36 v 36.000009 36 h -36 -36 z m 146.6667,0 V 66.112311 h 36 36 v 36.000009 36 h -36 -36 z m 145.3333,0 V 66.112311 h 3.3334 3.3333 v 36.000009 36 h -3.3333 -3.3334 z M 1.5929802,34.778981 V 4.7789815 H 14.92628 28.25968 v 29.9999995 30 H 14.92628 1.5929802 Z m 101.3332998,0 V 4.7789815 h 35.3334 35.3333 v 29.9999995 30 h -35.3333 -35.3334 z m 145.3334,0 V 4.7789815 h 36 36 v 29.9999995 30 h -36 -36 z m 146.6666,0 V 4.7789815 h 36 36 v 29.9999995 30 h -36 -36 z m 146.6667,0 V 4.7789815 h 36 36 v 29.9999995 30 h -36 -36 z m 145.3333,0 V 4.7789815 h 36 36 v 29.9999995 30 h -36 -36 z m 146.6667,0 V 4.7789815 h 36 36 v 29.9999995 30 h -36 -36 z m 146.6667,0 V 4.7789815 h 36.00002 36 v 29.9999995 30 h -36 -36.00002 z m 146.58602,29 c -0.044,-0.55 -0.1957,-14.05 -0.3364,-30 l -0.2559,-28.9999995 h 35.6698 35.6698 v 29.9999995 30 h -35.3333 c -19.4334,0 -35.3696,-0.45 -35.414,-1 z m 145.414,-29 V 4.7789815 h 36 36 v 29.9999995 30 h -36 -36 z m 146.6667,0 V 4.7789815 h 36 36 v 29.9999995 30 h -36 -36 z m 146.6666,0 V 4.7789815 h 36 36 v 29.9999995 30 h -36 -36 z m 145.3334,0 V 4.7789815 h 36 36 v 29.9999995 30 h -36 -36 z m 146.6666,0 V 4.7789815 h 36 36 v 29.9999995 30 h -36 -36 z m 146.6667,0 V 4.7789815 h 36 36 v 29.9999995 30 h -36 -36 z m 145.3333,0 V 4.7789815 h 36 36 v 29.9999995 30 h -36 -36 z m 146.6667,0 V 4.7789815 h 36 36 v 29.9999995 30 h -36 -36 z m 146.6667,0 V 4.7789815 h 36 36 v 29.9999995 30 h -36 -36 z m 146.6666,0 V 4.7789815 h 35.671 35.6708 l -0.2339,24.3333295 c -0.128,13.38334 -0.2807,26.88334 -0.3376,30 l -0.1036,5.66667 h -35.3333 -35.3334 z"
       id="path1035" /></g></svg>
