<?xml version="1.0" encoding="UTF-8" standalone="no"?>
<!-- Created with Inkscape (http://www.inkscape.org/) -->

<svg
   version="1.1"
   id="svg339"
   width="2666.6667"
   height="2666.6667"
   viewBox="0 0 2666.6667 2666.6667"
   sodipodi:docname="pocket0001.png"
   xmlns:inkscape="http://www.inkscape.org/namespaces/inkscape"
   xmlns:sodipodi="http://sodipodi.sourceforge.net/DTD/sodipodi-0.dtd"
   xmlns="http://www.w3.org/2000/svg"
   xmlns:svg="http://www.w3.org/2000/svg">
  <defs
     id="defs343" />
  <sodipodi:namedview
     id="namedview341"
     pagecolor="#ffffff"
     bordercolor="#000000"
     borderopacity="0.25"
     inkscape:showpageshadow="2"
     inkscape:pageopacity="0.0"
     inkscape:pagecheckerboard="0"
     inkscape:deskcolor="#d1d1d1"
     showgrid="false" />
  <g
     inkscape:groupmode="layer"
     inkscape:label="Image"
     id="g345">
    <path
       style="fill:#000000;stroke-width:1.33333"
       d="m 149.85269,2617.2633 v -65.3334 H 1342.5194 2535.186 v 65.3334 65.3333 H 1342.5194 149.85269 Z m -146.6666959,-1258 V 167.92991 H 77.199294 151.21269 l -0.6876,891.66669 c -0.3782,490.4167 -0.9801,931.5667 -1.3377,980.3333 -0.3575,48.7667 -0.6541,183.6167 -0.6591,299.6667 l -0.01,211 H 75.851694 3.1849941 Z M 2536.474,2237.5966 c -0.025,-172.15 -0.2633,-330.1 -0.5296,-351 -0.2664,-20.9 -0.696,-416 -0.9546,-878 l -0.4704,-840.00002 67.6666,-0.34555 67.6667,-0.34556 V 1359.251 2550.5966 h -66.6667 -66.6666 z M 875.85269,2211.8333 c -136.9391,-5.2238 -244.7754,-24.903 -339.4489,-61.9468 -18.2715,-7.1494 -77.5562,-35.5088 -83.2178,-39.8083 -1.4667,-1.1137 7.7112,2.4515 20.3954,7.9227 21.8931,9.4433 54.3364,20.3084 55.9182,18.7266 0.4041,-0.4041 -0.4011,-1.1428 -1.7894,-1.6416 -14.794,-5.3141 -39.6745,-16.4737 -61.1909,-27.4456 -73.6848,-37.5744 -152.3084,-100.0337 -202,-160.4712 -4.8323,-5.8773 -2.7858,-2.7082 5.9291,9.1814 10.3044,14.058 16.3777,20.909 38.5296,43.4646 10.3811,10.5702 16.4747,17.3806 13.5413,15.1343 -15.8525,-12.1397 -52.511,-53.7712 -66.798,-75.8597 -27.0825,-41.871 -38.8658,-89.0894 -43.212,-173.1598 -3.0152,-58.3264 -1.2916,-311.6342 2.7083,-398 3.3404,-72.1284 19.057,-292.7294 24.7455,-347.3333 8.1246,-77.98785 19.2743,-114.14371 44.9466,-145.75221 6.9004,-8.496 23.5244,-23.54931 26.0604,-23.59812 0.4854,-0.009 6.8826,-3.08271 14.2159,-6.82968 14.8277,-7.57626 31.3229,-13.21692 53.3333,-18.2378 29.7378,-6.78359 65.0263,-8.8861 149.4358,-8.90346 l 58.769,-0.012 -0.5881,-4.00701 c -1.5139,-10.31536 7.6892,-52.21456 17.9445,-81.69607 8.4933,-24.41596 21.1777,-54.48805 35.2753,-83.63025 20.9719,-43.35262 37.4977,-72.51078 33.8168,-59.66667 -1.2488,4.35765 3.5715,-3.52109 10.1078,-16.521 7.3485,-14.61557 27.464,-50.52268 42.9833,-76.72747 7.0298,-11.86998 13.9554,-23.86998 15.3902,-26.66666 1.4348,-2.79668 4.1701,-6.88487 6.0784,-9.08487 1.9084,-2.2 3.8416,-5.2 4.2962,-6.66667 2.208,-7.12482 50.702,-73.11567 61.5473,-83.75389 l 6.5456,-6.42058 6.8678,6.25003 c 11.2868,10.27157 44.8594,56.82183 71.5859,99.25778 22.4801,35.69352 41.44057,69.82457 64.44028,116 46.66683,93.6908 68.55613,151.27245 78.81633,207.33333 l 2.6842,14.66667 -0.7602,-11.98421 c -0.4182,-6.59131 -0.4806,-11.69131 -0.1388,-11.33334 0.5798,0.60723 3.6969,15.80087 5.5074,26.84459 l 0.7968,4.86039 -14.9688,0.18537 c -8.2329,0.102 -15.2483,0.46479 -15.5898,0.80629 -0.3415,0.3415 132.5291,0.49878 295.268,0.34951 162.7389,-0.14927 290.9389,-0.47352 284.8889,-0.72059 l -11,-0.44918 v -8.94608 c 0,-10.91415 2.1544,-29.04714 4.6172,-38.94608 l 1.8246,-7.33334 -0.5357,12.66667 -0.5356,12.66667 1.8957,-11.46602 c 9.9902,-60.4222 32.1868,-120.13828 80.7758,-217.31261 8.9529,-17.9051 20.1898,-39.75471 24.971,-48.55471 31.557,-58.08223 89.3143,-144.40888 110.1407,-164.62112 l 7.5092,-7.28779 7.3955,7.28779 c 7.1345,7.03072 15.2956,17.43474 38.139,48.62112 14.1722,19.34808 38.543,56.37065 38.1274,57.92047 -0.1807,0.67356 0.8714,2.21149 2.3381,3.41764 1.4667,1.20613 1.9236,1.81732 1.0153,1.35818 -1.0854,-0.54868 -1.3802,-0.12826 -0.8604,1.2268 0.4352,1.13388 1.2606,1.7715 1.8343,1.41694 0.5737,-0.35456 0.9608,0.39888 0.8603,1.67432 -0.1,1.27544 0.5456,2.17618 1.4358,2.00165 0.8903,-0.17455 1.2994,0.51477 0.9091,1.5318 -0.3903,1.01701 0.024,2.30253 0.9207,2.85668 1.1112,0.68673 1.2868,0.45181 0.5516,-0.73781 -0.6987,-1.1304 -0.5568,-1.42284 0.4024,-0.82998 0.8146,0.50346 1.1053,1.89459 0.6461,3.0914 -0.6031,1.57143 -0.3444,1.87279 0.9309,1.08463 1.1786,-0.72841 1.4476,-0.57648 0.8091,0.45677 -0.53,0.85746 1.9873,6.45202 5.642,12.53935 11.2595,18.7538 25.3376,44.40215 41.8939,76.32449 8.7477,16.86667 15.5533,29.61667 15.1236,28.33334 -2.4636,-7.3574 -2.4531,-7.14812 -0.2235,-4.41183 1.1599,1.42349 2.1088,3.10891 2.1088,3.74536 0,0.63644 0.5931,0.7906 1.318,0.34257 0.7829,-0.48386 0.9616,0.1144 0.4401,1.47338 -0.5917,1.54188 -0.3742,1.97666 0.6667,1.33333 1.0409,-0.64335 1.2584,-0.20856 0.6667,1.33333 -0.5918,1.54188 -0.3743,1.97667 0.6666,1.33334 1.041,-0.64335 1.2584,-0.20856 0.6667,1.33333 -0.6428,1.67517 -0.4049,1.99565 0.888,1.19657 1.1537,-0.7131 1.4468,-0.57517 0.8455,0.39795 -0.8599,1.39125 5.0866,14.92267 6.558,14.92267 0.3692,0 -0.5531,-2.4 -2.0496,-5.33334 -1.4966,-2.93333 -2.4154,-5.33333 -2.042,-5.33333 1.5072,0 11.4974,21.75861 10.8113,23.54671 -0.4064,1.05882 -0.2267,1.60865 0.3991,1.22185 1.8786,-1.16101 19.8922,38.72443 31.4654,69.66994 14.3608,38.39973 21.6795,70.59216 23.089,101.5615 0.7782,17.10211 1.0736,19.17186 1.712,12 l 0.7716,-8.66666 0.2301,9 c 0.1643,6.4247 -0.2468,9.00584 -1.4365,9.02041 -1.1111,0.0136 -1,0.45125 0.3333,1.31292 1.2248,0.79152 28.874,1.30071 71.3333,1.31369 112.6363,0.0344 146.0684,3.03531 187.9914,16.87418 12.9204,4.26508 31.9088,13.58 38.1277,18.70386 2.6169,2.1562 3.6985,2.64287 2.5476,1.14635 -1.7176,-2.23341 -1.3883,-2.17155 2.3333,0.43813 2.3834,1.6713 4.3334,3.37132 4.3334,3.77784 0,0.40652 -1.05,-0.0844 -2.3334,-1.0908 -2.1114,-1.65594 -2.1605,-1.60949 -0.5156,0.48874 0.9998,1.27525 2.2792,2.03344 2.8434,1.68482 3.53,-2.1817 22.7906,21.21603 32.3757,39.32986 19.6056,37.0511 25.6848,69.77521 34.9249,188.00003 14.934,191.0777 19.6864,271.3413 22.1447,374 1.7876,74.6509 0.8863,300.7981 -1.3019,326.6666 -6.1118,72.2538 -17.6465,113.9856 -41.8882,151.5507 -14.4444,22.3831 -46.4916,58.9831 -64.2496,73.3772 -3.7148,3.0112 -1.0663,-0.1307 5.9818,-7.0953 19.9702,-19.7344 37.378,-39.8482 49.1868,-56.8326 5.5506,-7.9832 2.014,-4.4424 -6.3834,6.3911 -19.1626,24.7213 -66.3571,67.6331 -109.5482,99.6069 -38.8032,28.7255 -87.457,56.1999 -134.174,75.7667 -6.7486,2.8267 -12.093,5.3164 -11.8765,5.5331 0.2167,0.2165 7.2383,-1.6819 15.6036,-4.2186 16.2511,-4.928 41.712,-15.0146 57.5299,-22.7912 16.503,-8.1133 4.2318,-0.056 -15.6534,10.2776 -113.9512,59.2183 -233.789,86.3368 -411.3333,93.0823 -41.3451,1.5708 -865.96851,1.5 -907.33341,-0.077 z m -141.3209,-209.257 c 0.4601,-0.7444 3.0455,-2.3058 5.7454,-3.4698 4.2874,-1.8484 4.5759,-2.241 2.2794,-3.1011 -2.3542,-0.8816 -2.2537,-1.0565 0.9596,-1.6708 2.2229,-0.4249 3.273,-0.1747 2.7586,0.6577 -1.1537,1.8666 6.0946,0.592 36.9112,-6.4909 42.3677,-9.7377 60.2899,-14.4349 58.0605,-15.2169 -1.1539,-0.4047 5.4749,-2.7107 14.7306,-5.1243 9.2556,-2.4137 17.1641,-4.0529 17.5742,-3.6427 0.4102,0.4102 -0.3542,0.7458 -1.6986,0.7458 -1.3445,0 -2.1021,0.3424 -1.6835,0.7609 1.4177,1.4177 62.46333,-15.9347 96.25126,-27.3596 8.74562,-2.9573 16.12814,-5.1499 16.4056,-4.8724 0.27746,0.2775 -2.37804,1.5101 -5.90112,2.7393 -68.86934,24.0278 -122.28684,38.9623 -200.40564,56.0298 -18.7,4.0856 -35.2,7.9744 -36.6666,8.6416 -2.6108,1.1878 -2.6075,1.2152 0.1586,1.3034 11.4577,0.366 103.6741,-21.1506 162.508,-37.9176 68.34345,-19.4769 134.51131,-44.9028 145.95241,-56.0841 1.7101,-1.6712 1.6485,-1.908 -0.4966,-1.908 -1.9884,0 -2.1471,-0.3637 -0.8441,-1.9337 1.3693,-1.6499 0.8549,-1.8222 -3.5034,-1.1731 -2.8095,0.4183 -6.4856,1.6203 -8.169,2.6709 -1.6835,1.0507 -4.1754,1.5566 -5.5377,1.1242 -3.5398,-1.1235 -33.42981,11.0201 -32.57941,13.2361 0.4189,1.0916 -0.9095,2.0264 -3.6616,2.5768 -2.3754,0.4751 -5.3231,1.7725 -6.5504,2.8832 -2.5521,2.3097 -52.4241,19.2823 -56.65865,19.2823 -1.53561,0 -14.45295,3.2434 -28.70515,7.2076 -14.2522,3.9641 -39.7441,10.8309 -56.6488,15.2594 -16.9047,4.4286 -33.4529,8.9743 -36.7738,10.1018 -16.8547,5.7224 -71.9691,16.4654 -68.9421,13.4384 0.2729,-0.2728 14.2861,-3.5559 31.1406,-7.2956 55.1751,-12.2426 116.0298,-28.039 94.6444,-24.5674 -5.6084,0.9106 -28.3678,6.0344 -67.3333,15.1591 -12.8334,3.0052 -30.2059,6.9292 -38.6057,8.72 -22.0924,4.7103 -34.6577,8.6879 -36.129,11.4371 -0.8033,1.501 -0.7906,3.6146 0.035,5.7856 1.0508,2.7638 2.1878,3.4206 5.9215,3.4206 2.5415,0 4.9974,-0.609 5.4575,-1.3536 z m 1.7375,-6.2238 c 0.9625,-0.3852 2.1125,-0.3379 2.5556,0.1053 0.443,0.4431 -0.3445,0.7583 -1.75,0.7004 -1.5533,-0.064 -1.8692,-0.38 -0.8056,-0.8056 z m 98.6667,-22.6667 c 0.9625,-0.3852 2.1125,-0.3379 2.5556,0.1053 0.443,0.4431 -0.3445,0.7583 -1.75,0.7004 -1.5533,-0.064 -1.8692,-0.38 -0.8056,-0.8056 z m 42.25,-11.0892 c 1.4667,-0.6303 3.5667,-1.1459 4.6667,-1.1459 1.2606,0 1.0141,0.4236 -0.6667,1.1459 -1.4667,0.6303 -3.5667,1.1459 -4.6667,1.1459 -1.2606,0 -1.0142,-0.4236 0.6667,-1.1459 z m 1078.83761,31.1269 c 1.3048,-5.1988 -0.8545,-7.4824 -9.6413,-10.1954 -7.9015,-2.4398 -27.3219,-6.7948 -37.218,-8.3464 -12.5911,-1.974 -81.5167,-19.9584 -83.9783,-21.912 -0.7333,-0.582 -9.4333,-3.2051 -19.3333,-5.829 -9.9,-2.6238 -24.45,-6.5393 -32.3333,-8.701 -7.8834,-2.1616 -14.3334,-3.4258 -14.3334,-2.8092 0,0.6165 1.843,1.5257 4.0954,2.0204 2.2524,0.4946 3.8144,1.1805 3.4709,1.5238 -1.2103,1.2103 -34.1323,-9.2957 -33.3081,-10.6292 0.4513,-0.7301 0.1586,-0.9185 -0.6504,-0.4185 -2.0151,1.2453 -13.5794,-1.7944 -13.2258,-3.4764 0.1566,-0.7447 -2.4153,-2.2349 -5.7153,-3.3116 -5.7992,-1.892 -37.2647,-13.0716 -41.3333,-14.6855 -1.1,-0.4362 -2.3,-0.8542 -2.6667,-0.9288 -0.3667,-0.075 -1.4167,-0.6118 -2.3333,-1.1938 -0.9167,-0.5822 -2.2667,-0.6875 -3,-0.2343 -0.7334,0.4532 -1.3334,0.088 -1.3334,-0.8101 0,-0.899 -0.3452,-1.2892 -0.767,-0.8674 -0.4219,0.4219 -2.5335,0.2606 -4.6924,-0.3586 -2.3968,-0.6875 -3.6251,-0.64 -3.1543,0.1213 0.4241,0.6861 0.1357,1.2476 -0.6409,1.2476 -0.7766,0 -1.412,-0.5745 -1.412,-1.2769 0,-0.7023 -2.2446,-1.1523 -4.9879,-1 -4.104,0.2278 -4.99,-0.1718 -5,-2.255 -0.013,-1.9576 -2.6105,-3.4952 -11.4651,-6.7778 -6.299,-2.3352 -12.299,-4.3246 -13.3333,-4.4208 -1.0343,-0.096 -3.9804,-0.4579 -6.5471,-0.8038 -2.5666,-0.3458 -5.2666,-0.6762 -6,-0.7344 -0.7333,-0.057 -0.4333,-0.7529 0.6667,-1.5441 1.6769,-1.2063 1.6152,-1.3145 -0.3817,-0.6696 -1.31,0.4231 -4.91,-0.112 -8,-1.1881 -9.0379,-3.1487 -9.4676,-2.3852 -2.5508,4.5316 7.372,7.372 8.6113,8.0922 28.9325,16.8152 15.9005,6.8253 19.0173,7.9874 50,18.6412 87.7121,30.1612 250.4423,74.3922 266.3611,72.3985 2.0878,-0.2615 -10.0007,-3.7603 -28.3611,-8.2087 -54.0269,-13.0898 -110.7339,-28.3168 -154.3536,-41.447 -41.0444,-12.3552 -99.7443,-31.7826 -103.6464,-34.3031 -2.5447,-1.6437 -4.7087,-2.3012 31.3333,9.5201 86.1684,28.2623 241.7747,70.4719 253.6722,68.8108 3.8221,-0.5336 4.2121,-0.4349 1.6612,0.4203 l -3.3334,1.1175 3.5372,1.4381 c 1.9454,0.7909 3.9308,2.0752 4.412,2.8537 0.4812,0.7786 2.928,1.4156 5.4375,1.4156 3.8256,0 4.706,-0.5717 5.4509,-3.5397 z m -26.8376,-8.7324 c -2.9333,-0.7314 -22.3972,-5.5301 -43.2532,-10.6637 -31.32,-7.7093 -79.8353,-22.0265 -75.6329,-22.3197 0.6127,-0.043 12.2753,2.9508 25.9171,6.6524 27.1444,7.3656 69.1753,17.934 90.6518,22.794 8.8995,2.0138 12.8615,3.4212 11.3334,4.0257 -2.8463,1.1259 -2.4562,1.1471 -9.0162,-0.4887 z m -126.6666,-34.3945 c -1.6808,-0.7223 -1.9274,-1.1459 -0.6667,-1.1459 1.1,0 3.2,0.5156 4.6667,1.1459 1.6808,0.7223 1.9273,1.1459 0.6666,1.1459 -1.1,0 -3.2,-0.5156 -4.6666,-1.1459 z m -6.25,-2.2441 c 0.9625,-0.3852 2.1125,-0.3379 2.5556,0.1053 0.443,0.4431 -0.3446,0.7583 -1.75,0.7004 -1.5534,-0.064 -1.8692,-0.38 -0.8056,-0.8056 z m -21.75,-5.7559 c -1.6808,-0.7223 -1.9274,-1.1459 -0.6667,-1.1459 1.1,0 3.2,0.5156 4.6667,1.1459 1.6808,0.7223 1.9273,1.1459 0.6666,1.1459 -1.1,0 -3.2,-0.5156 -4.6666,-1.1459 z m -67.3623,-19.2945 c -14.2148,-3.1171 -53.5997,-16.9435 -52.2131,-18.3302 0.878,-0.878 4.1794,-0.1926 9.7836,2.031 4.6522,1.8458 16.2584,5.854 25.7918,8.9072 30.5974,9.7989 33.504,11.0902 16.6377,7.392 z m -63.9711,-15.3722 c -1.1,-0.7109 -1.4,-1.2925 -0.6666,-1.2925 0.7333,0 2.2333,0.5816 3.3333,1.2925 1.1,0.711 1.4,1.2926 0.6667,1.2926 -0.7334,0 -2.2334,-0.5816 -3.3334,-1.2926 z m -795.02781,64.5278 c -0.443,-0.4431 -1.593,-0.4904 -2.5555,-0.1054 -1.0637,0.4256 -0.7477,0.7416 0.8055,0.8056 1.4056,0.057 2.1931,-0.2573 1.75,-0.7004 z m 20,-5.3334 c -0.443,-0.443 -1.593,-0.4904 -2.5555,-0.1053 -1.0637,0.4256 -0.7477,0.7416 0.8055,0.8056 1.4056,0.057 2.1931,-0.2573 1.75,-0.7004 z m 35.9959,-17.125 c 24.87617,-7.2188 42.74141,-13.236 36.36524,-12.2483 -1.83334,0.284 -16.90484,4.1904 -33.49214,8.6809 -16.5873,4.4906 -30.5727,8.1647 -31.0787,8.1647 -0.5059,0 -0.5491,0.6 -0.096,1.3333 1.202,1.9448 1.0597,1.9747 28.3014,-5.9306 z m -644.9681,-11.4027 c -0.7849,-1.4667 -1.7272,-2.6667 -2.0938,-2.6667 -0.3667,0 -0.024,1.2 0.7605,2.6667 0.7849,1.4667 1.7271,2.6667 2.0938,2.6667 0.3666,0 0.024,-1.2 -0.7605,-2.6667 z m 2148.00001,-2.6667 c 0.785,-1.4666 1.1272,-2.6666 0.7606,-2.6666 -0.3667,0 -1.309,1.2 -2.0939,2.6666 -0.7849,1.4667 -1.1272,2.6667 -0.7605,2.6667 0.3666,0 1.3089,-1.2 2.0938,-2.6667 z M 739.18599,1865.2633 c -21.3683,-0.6982 -19.9989,-0.7864 16.2602,-1.0479 40.6551,-0.2931 91.4836,-2.45 95.8565,-4.0677 1.3532,-0.5006 -29.0722,-0.6863 -67.612,-0.4127 -38.5398,0.2736 -76.4697,0.013 -84.2885,-0.5777 l -14.2162,-1.0752 12.6667,-1.158 c 8.2607,-0.7552 15.1788,-0.6658 19.889,0.2573 8.1901,1.6048 97.3802,1.7128 110.111,0.1333 7.6654,-0.951 7.2353,-1.2026 -3.2223,-1.8846 -1.4055,-0.092 -3.0455,-0.6567 -3.6444,-1.2555 -0.5988,-0.5989 5.6524,-0.8989 13.8916,-0.6667 8.2393,0.2322 14.9793,-0.028 14.9778,-0.5778 -0.001,-0.55 4.0473,-1.0526 8.9973,-1.1168 4.95,-0.064 12,-0.6198 15.6666,-1.2343 7.4563,-1.25 -39.5802,-0.3521 -50.6666,0.9671 -22.0423,2.6228 -166.202,-2.194 -209.3334,-6.9946 -9.5333,-1.061 -19.7333,-1.8616 -22.6666,-1.7792 -4.5958,0.1294 -4.1348,0.3611 3.3333,1.6768 11.7134,2.0635 8.0653,3.9291 -4.0174,2.0543 -5.2376,-0.8127 -9.8763,-1.124 -10.3083,-0.6921 -0.432,0.432 0.8146,0.7854 2.7701,0.7854 1.9556,0 3.5556,0.6 3.5556,1.3334 0,1.6829 -0.775,1.6634 -7.3333,-0.1838 -4.5478,-1.281 -4.9406,-1.6589 -2.6667,-2.5656 2.3231,-0.9262 2.1943,-1.0753 -1,-1.1569 -2.0167,-0.052 -3.6667,-0.6655 -3.6667,-1.3643 0,-0.7161 3.0543,-1.0218 7,-0.7006 l 7,0.57 -7.3333,-1.9595 c -4.0333,-1.0777 -11.2333,-1.8125 -16,-1.6328 -8.1811,0.3085 -8.6888,0.516 -9.0606,3.7041 -0.5201,4.458 5.0439,9.8975 8.8791,8.6803 1.6583,-0.5263 2.4248,-1.6093 1.9728,-2.7873 -0.5902,-1.538 0.163,-1.7546 3.7347,-1.0736 5.7405,1.0945 6.5383,1.8033 2.0296,1.8033 -6.0102,0 -3.955,2.2032 4.186,4.4875 9.7196,2.7272 29.694,5.695 49.5767,7.3662 15.6053,1.3116 21.4962,1.0204 9.8039,-0.4846 -14.1881,-1.8264 -30.8072,-4.8307 -37.1222,-6.7107 -3.6667,-1.0915 -4.7902,-1.7159 -2.4968,-1.3875 10.3747,1.4855 44.2474,4.8084 61.8301,6.0656 10.6334,0.7603 22.6334,1.9268 26.6667,2.5923 4.0333,0.6655 12.6187,1.2536 19.0787,1.3072 8.519,0.071 11.484,0.5201 10.794,1.6367 -0.5679,0.9188 -0.3679,1.1788 0.4958,0.6449 0.796,-0.492 1.8241,-0.2847 2.2847,0.4607 0.5261,0.8513 9.3592,1.2489 23.7588,1.0696 l 22.9213,-0.2856 z m -52.7546,-10.5243 c 0.4048,-0.6551 8.3902,-1.1765 17.7453,-1.1588 16.9664,0.032 16.9807,0.035 5.676,1.0587 -16.0094,1.4498 -24.2774,1.4852 -23.4213,0.1 z m 58.4466,0.2669 c 1.2973,-0.338 3.0973,-0.3158 4,0.049 0.9027,0.3652 -0.1587,0.6417 -2.3587,0.6146 -2.2,-0.027 -2.9386,-0.326 -1.6413,-0.6641 z m 9.9985,-0.043 c 2.3965,-0.2968 5.9965,-0.2907 8,0.013 2.0036,0.3041 0.043,0.5469 -4.3572,0.5395 -4.4,-0.013 -6.0392,-0.2564 -3.6428,-0.5531 z m 15.3278,0.013 c 2.0268,-0.3064 5.0268,-0.2983 6.6667,0.019 1.6399,0.3164 -0.018,0.5672 -3.685,0.5572 -3.6667,-0.013 -5.0084,-0.269 -2.9817,-0.5755 z m 11.3984,0.045 c 0.9625,-0.3852 2.1125,-0.3378 2.5555,0.1054 0.4431,0.443 -0.3444,0.7582 -1.75,0.7004 -1.5532,-0.064 -1.8692,-0.38 -0.8055,-0.8056 z m -118.6082,-1.9024 c -1.0979,-0.6957 2.3393,-1.154 8.7471,-1.1664 5.8055,-0.013 10.2832,0.2519 9.9504,0.5847 -1.2081,1.2081 -16.9367,1.6975 -18.6975,0.5817 z m -20.8085,-2.1446 c 2.0167,-0.3055 5.3167,-0.3055 7.3333,0 2.0167,0.3056 0.3667,0.5554 -3.6666,0.5554 -4.0334,0 -5.6834,-0.2498 -3.6667,-0.5554 z m -79,-8.3783 c -1.7092,-1.1045 -1.6607,-1.2955 0.3333,-1.3129 1.2834,-0.013 2.3334,0.5796 2.3334,1.3129 0,1.6261 -0.1504,1.6261 -2.6667,0 z m 204.3333,23.1169 c -0.9166,-0.3698 -2.4166,-0.3698 -3.3333,0 -0.9167,0.3699 -0.1667,0.6726 1.6667,0.6726 1.8333,0 2.5833,-0.3027 1.6666,-0.6726 z m 108.3334,-1.8164 c 60.91332,-3.0044 112.5307,-10.115 122.9409,-16.9361 2.82371,-1.8503 2.97811,-2.3037 1.1356,-3.3348 -1.173,-0.6564 -1.7857,-1.7548 -1.3617,-2.4408 0.4732,-0.7657 -0.5114,-0.7599 -2.5498,0.015 -2.2169,0.8429 -3.4759,0.7968 -3.7877,-0.1387 -0.3139,-0.9416 -4.3175,-0.6799 -12.20365,0.7979 -7.16947,1.3434 -14.02663,1.8558 -17.62175,1.3166 -3.68814,-0.553 -5.88526,-0.3748 -5.88526,0.4774 0,0.748 -1.20932,1.0437 -2.68738,0.6572 -1.47805,-0.3866 -14.22805,0.4196 -28.33333,1.7914 -23.99643,2.3339 -25.00283,2.5372 -15.64593,3.161 14.3483,0.9565 7.377,2.1178 -24,3.9981 -14.3,0.8568 -29.9,2.0312 -34.6667,2.6095 l -8.6667,1.0516 8.4121,0.1704 c 5.6664,0.1146 8.1205,0.642 7.5189,1.6153 -0.9615,1.5559 3.3353,1.3611 50.069,-2.2692 14.3,-1.1108 30.20004,-2.5613 35.33337,-3.2232 13.42279,-1.7308 16.20841,-1.2895 5.33333,0.8451 -21.21684,4.1642 -61.9272,7.7514 -106.3333,9.3694 -13.75,0.5011 -25.0008,1.2684 -25.0017,1.7054 0,1.0052 22.061,0.5341 58.0017,-1.2386 z m 85.74997,-12.878 c 0.96249,-0.3852 2.11251,-0.3378 2.55556,0.1054 0.44305,0.443 -0.34445,0.7582 -1.75,0.7004 -1.55327,-0.064 -1.8692,-0.38 -0.80556,-0.8056 z m -12.08333,-5.3056 c 0.91666,-0.3698 2.41666,-0.3698 3.33333,0 0.91667,0.3699 0.16667,0.6726 -1.66667,0.6726 -1.83333,0 -2.58333,-0.3027 -1.66666,-0.6726 z m 9.41666,-1.361 c 0.9625,-0.3852 2.11251,-0.3379 2.55556,0.1053 0.44306,0.4431 -0.34445,0.7583 -1.75,0.7004 -1.55326,-0.064 -1.8692,-0.38 -0.80556,-0.8056 z m -254.7053,19.9325 c -3.4588,-0.2736 -9.4588,-0.2764 -13.3333,0 -3.8746,0.2701 -1.0447,0.4941 6.2886,0.4976 7.3333,0 10.5034,-0.2176 7.0447,-0.4913 z m -32.0725,-1.1607 c -0.443,-0.443 -1.593,-0.4904 -2.5555,-0.1053 -1.0637,0.4256 -0.7477,0.7416 0.8055,0.8056 1.4056,0.057 2.1931,-0.2573 1.75,-0.7004 z m 1156.36121,-9.3122 c -18.7,-0.9694 -44.5,-2.7202 -57.3334,-3.8904 -25.14,-2.2928 -59.2058,-6.9068 -52.6666,-7.1336 2.2,-0.076 7.9,0.4165 12.6666,1.0952 4.7667,0.6786 22.1667,2.1302 38.6667,3.2257 50.3029,3.3397 57.3333,3.6048 57.3333,2.1609 0,-0.7886 5.0747,-1.4117 12.3334,-1.5144 l 12.3333,-0.1744 -10,-1.0176 c -5.5,-0.5597 -24.6557,-1.7397 -42.5683,-2.6221 -17.9125,-0.8825 -33.8125,-2.1148 -35.3333,-2.7384 -1.6608,-0.6811 2.826,-0.9103 11.2349,-0.5739 10.8192,0.4328 12.6368,0.2827 8,-0.6609 -9.7876,-1.992 -55.2705,-5.7033 -74.7497,-6.0996 -9.9457,-0.2023 -20.5109,-1.0216 -23.4783,-1.8205 -2.9673,-0.7991 -6.83,-1.3714 -8.5836,-1.2718 -1.7536,0.1 -4.3425,-0.3042 -5.7532,-0.8974 -2.0493,-0.8618 -2.3954,-0.6371 -1.722,1.1176 0.4967,1.2944 0.017,2.6582 -1.1672,3.321 -2.8786,1.611 1.7276,3.4778 18.4236,7.4664 30.0638,7.1823 104.2126,13.7115 156.3638,13.7688 18.5566,0.02 17.5462,-0.1053 -14,-1.7406 z m -119.6414,-12.1395 c 1.2974,-0.338 3.0974,-0.3159 4,0.049 0.9028,0.3652 -0.1586,0.6418 -2.3586,0.6147 -2.2,-0.027 -2.9386,-0.326 -1.6414,-0.6641 z m 241.9747,13.286 c -2.75,-0.2876 -7.25,-0.2876 -10,0 -2.75,0.2877 -0.5,0.5231 5,0.5231 5.5,0 7.75,-0.2354 5,-0.5231 z m 9.3056,0.1657 c -0.4431,-0.443 -1.5931,-0.4904 -2.5556,-0.1053 -1.0636,0.4256 -0.7477,0.7416 0.8056,0.8056 1.4055,0.057 2.1931,-0.2573 1.75,-0.7004 z m 3.0277,-3.2294 c 6.2334,-0.5277 25.1334,-1.949 42,-3.1588 26.0963,-1.8714 47.4938,-3.9962 68.6667,-6.8185 2.5667,-0.3421 0.4667,0.5489 -4.6667,1.9801 -5.1333,1.4312 -14.8833,3.3531 -21.6666,4.2708 -6.7834,0.9178 -12.3334,2.0126 -12.3334,2.4328 0,2.3894 51.5323,-4.742 62.6744,-8.6732 3.1736,-1.1196 6.8395,-1.6964 8.1464,-1.2816 3.478,1.1039 8.1028,-4.0506 7.5934,-8.463 -0.3866,-3.3464 -0.9038,-3.6142 -7.7475,-4.01 -4.0333,-0.2332 -12.4333,0.4901 -18.6667,1.6076 -45.8174,8.2133 -186.528,14.0868 -262.6666,10.964 -26.9288,-1.1046 -32.6906,-0.8056 -23.3034,1.209 8.1063,1.7396 135.9634,2.3159 171.97,0.775 19.8,-0.8474 42.9,-1.7852 51.3334,-2.0843 24.1353,-0.8559 4.4144,1.3019 -29.3334,3.2095 -15.7666,0.8912 -34.0666,2.0902 -40.6666,2.6645 l -12,1.0443 15.3333,0.4682 15.3333,0.4683 -22.6666,0.826 c -12.4667,0.4544 -44.2294,0.6137 -70.5839,0.3541 -47.448,-0.4673 -59.5532,0.3898 -31.7869,2.2507 18.5046,1.2401 100.2657,1.2149 115.0374,-0.036 z m 117.86,-14.8572 c -0.6729,-1.0888 -0.1932,-1.2662 1.588,-0.5877 2.0119,0.7665 2.2083,0.626 0.9282,-0.664 -1.2811,-1.2907 -2.7714,-1.2924 -7.059,-0.013 -2.9892,0.8956 -6.7584,1.192 -8.3761,0.6588 -3.8952,-1.2842 11.5941,-4.3911 21.0589,-4.2242 4.2311,0.075 5.2054,0.3256 2.6667,0.6871 -4.2972,0.6117 -7.922,3.0163 -4.6,3.0513 1.6443,0.017 1.6343,0.2138 -0.067,1.313 -2.697,1.7429 -4.9746,1.6589 -6.14,-0.2266 z m 15.14,0.619 c 1.65,-0.3179 4.35,-0.3179 6,0 1.65,0.3177 0.3,0.5777 -3,0.5777 -3.3,0 -4.65,-0.26 -3,-0.5777 z m 7,-5.7676 c 0,-0.7103 0.9,-1.2915 2,-1.2915 1.1,0 2,0.2359 2,0.524 0,0.2883 -0.9,0.8693 -2,1.2915 -1.1,0.4221 -2,0.1864 -2,-0.524 z m -71,19.1228 c -1.2833,-0.3355 -3.3833,-0.3355 -4.6666,0 -1.2834,0.3353 -0.2334,0.6097 2.3333,0.6097 2.5667,0 3.6167,-0.2744 2.3333,-0.6097 z m -122.6666,-4.0759 c -7.8834,-0.2357 -20.7834,-0.2357 -28.6667,0 -7.8833,0.2357 -1.4333,0.4285 14.3333,0.4285 15.7667,0 22.2167,-0.1928 14.3334,-0.4285 z m -836.6667,-48.3131 c 3.4833,-0.866 6.3333,-2.0532 6.3333,-2.6382 0,-2.3472 -8.2765,-4.3924 -14.6976,-3.632 -3.6343,0.4305 -8.264,0.2358 -10.2884,-0.4323 -2.0243,-0.6683 -17.1807,-1.8065 -33.6807,-2.5295 -34.38301,-1.5066 -65.45607,-5.0248 -109.33331,-12.3792 -4.7667,-0.799 -10.1667,-1.422 -12,-1.3844 -1.8333,0.037 -4.0571,-0.5305 -4.9416,-1.2622 -0.8845,-0.7318 -2.2207,-0.9519 -2.9692,-0.4892 -0.7486,0.4625 -3.9249,0.108 -7.0584,-0.7875 -3.1336,-0.8957 -6.2614,-1.4845 -6.9507,-1.3085 -0.6893,0.1758 -3.6893,-0.5771 -6.6667,-1.6734 -2.9774,-1.0961 -13.2134,-3.8572 -22.7467,-6.1353 -30.8082,-7.3624 -70,-20.9527 -70,-24.2735 0,-1.8096 -8.5963,-5.1001 -13.3235,-5.1001 -3.1753,0 -4.3707,0.7755 -5.4102,3.5095 -0.7338,1.9301 -1.0225,4.4801 -0.6414,5.6666 0.7992,2.488 8.1957,7.6647 10.1892,7.1311 0.7386,-0.1979 4.0876,0.5723 7.4422,1.7111 3.3545,1.1389 6.2871,1.8826 6.5169,1.6529 0.2299,-0.2299 -2.274,-1.846 -5.5642,-3.5913 -11.477,-6.0886 -3.6141,-5.3516 14.8522,1.3921 64.8702,23.6896 138.34631,37.6377 224.11341,42.5436 18.5566,1.0615 17.9481,1.0996 -9.508,0.5963 -67.39913,-1.2354 -148.01351,-14.6888 -201.08871,-33.5588 -15.8503,-5.6354 -18.7575,-5.0099 -3.6062,0.776 39.7017,15.1605 116.4959,30.5725 183.3616,36.7992 23.48101,2.1865 77.95421,1.812 87.66671,-0.603 z m -305.66671,-60.0253 c -1.2017,-0.7767 -1.3662,-1.3007 -0.412,-1.3129 0.8734,-0.013 1.9588,0.5796 2.412,1.3129 1.0231,1.6553 0.5615,1.6553 -2,0 z m 848.00001,51.5511 c 17.0183,-3.977 29.7131,-7.6158 29.0127,-8.3162 -0.2851,-0.2852 -6.6349,0.6674 -14.1107,2.1164 -7.4758,1.4492 -18.837,2.9064 -25.2472,3.2382 -6.4101,0.3317 -10.1548,0.306 -8.3214,-0.057 16.4637,-3.2621 37.6968,-8.1736 49.2944,-11.4024 11.8641,-3.3029 50.015,-15.4134 57.0005,-18.094 1.458,-0.5596 1.824,-0.3068 1.1455,0.7911 -1.152,1.8639 3.6728,0.9357 11.037,-2.1232 2.4626,-1.0229 4.726,-1.6113 5.0298,-1.3076 0.3037,0.3039 -2.0111,1.4963 -5.1442,2.6499 -12.6514,4.6585 -41.0268,14.3957 -51.4878,17.6685 -6.1187,1.9143 -10.8714,3.7339 -10.5616,4.0437 0.7764,0.7764 18.7262,-4.0093 36.353,-9.6922 55.4844,-17.8883 118.29,-44.5258 161.3334,-68.4258 5.8666,-3.2574 11.5666,-5.7797 12.6666,-5.605 1.1,0.1746 5,-1.9619 8.6667,-4.748 6.0239,-4.5772 6.6667,-5.5744 6.6667,-10.3431 0,-4.5257 -0.4466,-5.3405 -3.1356,-5.7212 -5.0592,-0.7161 -8.8888,0.7848 -14.973,5.8679 -7.5673,6.3224 -58,31.0298 -90.5581,44.3654 -14.3,5.8572 -31.4,12.8735 -38,15.5918 -42.4811,17.4965 -99.1233,34.8477 -145.3333,44.5198 -6.6539,1.3927 -15.3334,5.1068 -15.3334,6.5614 0,0.6012 0.45,1.5617 1,2.1344 1.8471,1.9233 28.8658,-0.4094 43,-3.7124 z m 112,-38.2178 c 1.1,-0.7109 2.6,-1.2925 3.3334,-1.2925 0.7333,0 0.4333,0.5816 -0.6667,1.2925 -1.1,0.711 -2.6,1.2926 -3.3333,1.2926 -0.7334,0 -0.4334,-0.5816 0.6666,-1.2926 z m 6.6667,-2.6666 c 1.1,-0.711 2.6,-1.2926 3.3333,-1.2926 0.7334,0 0.4334,0.5816 -0.6666,1.2926 -1.1,0.7109 -2.6,1.2925 -3.3334,1.2925 -0.7333,0 -0.4333,-0.5816 0.6667,-1.2925 z m 51.3333,-21.4514 c 6.6427,-3.2652 9.1578,-4.9997 6.6667,-4.598 -3.9459,0.6364 -3.9548,0.6243 -0.6667,-0.8892 1.8334,-0.8438 18.7834,-9.2285 37.6667,-18.6324 22.9309,-11.4196 34.3333,-16.4582 34.3333,-15.1718 0,2.7893 -22.9546,15.299 -56.947,31.0344 -29.1986,13.5161 -41.8331,18.4716 -21.053,8.257 z m -970.00001,23.5086 c -9.1667,-3.1599 -19.3103,-6.7219 -22.5413,-7.9155 -3.2311,-1.1936 -6.1732,-1.8717 -6.5381,-1.5068 -0.9364,0.9364 6.0183,3.6788 23.7461,9.3635 8.4333,2.7042 15.9333,5.1136 16.6666,5.354 0.7334,0.2404 2.2334,0.44 3.3334,0.4437 1.1,0 -5.5,-2.5789 -14.6667,-5.7389 z m 1037.12391,-66.5591 c 2.4515,-1.2988 4.1636,-2.6551 3.8047,-3.014 -0.8287,-0.8287 -21.7772,9.6529 -22.8895,11.4527 -0.7711,1.2476 8.7376,-2.9568 19.0848,-8.4387 z M 819.60919,1607.5966 c -1.1382,-3.1329 -1.4877,-32.816 -0.4844,-41.1308 l 0.579,-4.7976 16.7411,7.6084 c 17.571,7.9855 20.7612,9.0607 48.7411,16.4285 37.719,9.9323 36.638,7.9014 -1.6316,-3.0653 -15.5102,-4.4447 -30.7882,-9.2445 -33.9511,-10.6665 l -5.7506,-2.5854 14,0.033 c 11.654,0.028 17.5747,0.9025 35.3333,5.2236 27.5232,6.6968 38.50449,8.12 16,2.0734 -9.5333,-2.5614 -20.0333,-5.3853 -23.3333,-6.2754 -3.3,-0.8902 -6.3027,-2.0666 -6.6726,-2.6143 -0.3699,-0.5477 -6.3692,-3.5028 -13.3317,-6.5667 -13.5729,-5.9728 -24.2706,-13.0497 -35.9957,-23.8124 -11.1822,-10.2642 -5.9629,-8.1492 10.7141,4.3416 13.1296,9.834 17.426,12.183 35.3616,19.3334 11.2289,4.4766 20.7884,8.1393 21.2434,8.1393 0.4549,0 3.3686,1.1577 6.4748,2.5728 14.0553,6.4029 43.02314,10.1897 68.20607,8.9163 18.29913,-0.9254 24.56523,-1.9036 22.07023,-3.4456 -0.8671,-0.536 3.1215,-3.9923 9.55401,-8.2791 6.0733,-4.0475 18.3788,-13.228 27.3454,-20.4011 17.5496,-14.0393 20.0854,-17.2782 34.9934,-44.6966 5.963,-10.967 6.6672,-13.0246 5.2479,-15.3334 -1.4345,-2.3334 -1.384,-2.4557 0.4042,-0.9784 1.73,1.4292 2.3008,1.067 3.7211,-2.362 2.1565,-5.2061 3.2981,-5.8348 5.8896,-3.2433 1.9211,1.9212 2.1075,1.9181 2.1075,-0.035 0,-1.1781 -1.0484,-3.7421 -2.3297,-5.6977 -2.2292,-3.4021 -2.2262,-3.5159 0.069,-2.6349 1.3194,0.5062 2.0664,0.3824 1.6599,-0.2754 -0.4065,-0.6577 1.0704,-5.9345 3.2821,-11.7262 2.2116,-5.7918 5.4746,-15.8134 7.2511,-22.2703 2.1375,-7.7689 4.1573,-12.3893 5.9717,-13.6601 4.0751,-2.8543 6.1208,-7.1987 4.0054,-8.506 -1.3515,-0.8354 -1.2865,-1.6867 0.3181,-4.1639 1.1093,-1.7125 2.4233,-4.7637 2.92,-6.7804 0.4966,-2.0167 1.71,-3.6667 2.6963,-3.6667 1.1228,0 2.1105,-2.3133 2.6413,-6.1861 1.1979,-8.7397 1.0526,-13.8139 -0.3956,-13.8139 -1.4919,0 -2.3081,2.566 -3.4986,11 -0.5311,3.762 -1.5816,6.3334 -2.5875,6.3334 -0.9314,0 -3.8917,-2.4332 -6.5784,-5.4071 l -4.885,-5.4071 2.6637,-4.31 c 1.5307,-2.4768 3.0464,-8.0449 3.5634,-13.091 0.7945,-7.755 1.1952,-8.7039 3.4284,-8.1199 2.2456,0.5872 2.3763,0.2599 1.1665,-2.922 -0.7492,-1.9713 -1.3623,-9.8447 -1.3623,-17.497 0,-12.7625 -0.2087,-13.9132 -2.5242,-13.9132 -2.0497,0 -2.7989,-1.5597 -3.9858,-8.2978 -0.832,-4.7232 -3.1412,-10.9996 -5.3604,-14.5696 -3.0717,-4.9412 -3.5697,-6.6753 -2.3475,-8.1738 2.1043,-2.58 7.7996,-6.2921 9.6537,-6.2921 1.5991,0 6.1953,14.1968 8.7412,27 1.661,8.3534 3.8286,10.2481 3.8136,3.3333 -0.014,-6.7004 -3.6235,-29.1738 -4.8746,-30.3545 -0.6138,-0.5793 -2.2663,-1.2615 -3.6722,-1.516 -1.4438,-0.2614 -3.1221,-2.2034 -3.8567,-4.4628 -0.7154,-2.2 -2.456,-5.65 -3.868,-7.6667 l -2.5673,-3.6666 h 4.0908 c 5.2523,0 5.1607,-1.451 -0.3997,-6.3331 -4.0127,-3.5232 -4.5912,-4.9207 -5.4384,-13.1381 -4.7291,-45.8675 -26.6243,-89.065 -61.9904,-122.302 -9.7576,-9.1701 -17.0075,-13.25 -28.1043,-15.8157 l -6.02351,-1.3927 -14.43562,14.3484 -14.43566,14.3485 -10.20751,-4.1584 c -15.10608,-6.1539 -41.43921,-14.1816 -60.26971,-18.3732 -14.0157,-3.1199 -19.4108,-3.6703 -34.6045,-3.5303 -15.7161,0.1449 -20.3304,0.7472 -36.3673,4.747 -15.5353,3.8746 -18.2713,4.2483 -17.7447,2.4236 0.3425,-1.1865 1.8743,-6.6574 3.4041,-12.1574 1.5298,-5.5 3.4134,-11.8 4.1857,-14 2.8438,-8.1006 4.9858,-18.6965 3.9857,-19.7162 -0.5661,-0.5773 -6.0851,-1.4064 -12.2644,-1.8425 -9.9353,-0.7011 -12.3464,-0.392 -20.8413,2.6723 -14.4588,5.2156 -21.049,8.9052 -47.0048,26.3162 -23.6424,15.8591 -46.9373,35.2446 -61.5699,51.2369 -18.7756,20.5204 -38.5759,48.3679 -49.4352,69.5266 -4.6912,9.1404 -5.3002,11.1893 -3.8468,12.9406 0.9498,1.1444 7.6299,5.7082 14.8447,10.1419 l 13.1178,8.0612 -2.6979,7.6648 c -3.8043,10.8082 -9.9183,44.5645 -11.7023,64.6098 -1.0971,12.3271 -1.1175,21.4813 -0.074,33.5909 0.7884,9.1553 1.091,18.0301 0.6724,19.7217 -0.8639,3.4921 6.6649,45.3253 8.9135,49.5268 1.7294,3.2315 1.1955,3.6843 -15.3561,13.0261 -5.9869,3.3792 -11.0642,7.0514 -11.283,8.1604 -0.5137,2.6043 10.9496,22.5131 20.0102,34.7527 3.8798,5.2411 13.4861,17.2728 21.3474,26.7373 11.4017,13.7271 17.0575,19.2396 27.9577,27.2496 19.2029,14.1115 56.0396,38.3915 65.4624,43.1482 13.509,6.8193 46.5524,19.9333 54.9534,21.8094 11.382,2.542 11.6993,2.5115 10.4232,-1.0013 z m 115.65896,-31.0301 c -9.12148,-1.73 -21.72146,-4.7623 -27.99996,-6.7383 l -11.4155,-3.5928 12.6666,-3.2579 c 11.5028,-2.9585 36.00277,-10.109 40.34169,-11.774 2.64643,-1.0156 25.70167,26.1219 23.42099,27.568 -3.17168,2.011 -20.10378,1.0023 -37.01382,-2.205 z m -133.41546,-19.2239 c -22.2697,-8.1385 -42.9666,-17.8547 -57.4473,-26.9688 -7.3786,-4.6441 -18.5585,-11.5327 -24.8442,-15.3079 -19.2128,-11.539 -46.9903,-37.3178 -56.8512,-52.7606 -4.3005,-6.7347 -12.8573,-22.9046 -12.8573,-24.2964 0,-1.6086 16.537,-11.0284 29.5642,-16.8404 13.0646,-5.8287 36.2084,-12.0184 44.2881,-11.8447 3.0051,0.064 4.6978,3.2185 21.0533,39.2272 12.8355,28.2589 12.7195,28.1283 34.0842,38.4001 18.9602,9.1159 32.6857,14.2971 37.9681,14.3326 6.8684,0.047 7.0487,0.9585 3.9907,20.195 -1.5549,9.7815 -3.2117,21.5196 -3.6816,26.0846 l -0.8545,8.3 -5.3477,-2.9667 c -2.9412,-1.6316 -9.9341,-7.2544 -15.5396,-12.4948 -8.0953,-7.5681 -11.289,-11.7467 -15.5252,-20.3127 -2.9334,-5.9314 -6.0834,-10.7937 -7,-10.805 -2.0767,-0.025 -2.1558,-0.6546 1.0056,7.9946 1.4698,4.0212 4.9198,10.5798 7.6667,14.5746 5.0095,7.2854 21.134,21.6472 24.9294,22.2042 3.4159,0.5014 11.4613,6.0251 10.6612,7.3196 -0.4145,0.6707 -0.8682,1.1886 -1.0083,1.1507 -0.1401,-0.037 -6.5546,-2.3713 -14.2546,-5.1852 z m 143.57792,-14.7556 c -5.85664,-6.514 -9.2609,-13.7177 -18.08491,-38.2697 l -3.93401,-10.946 2.88715,-0.8875 c 6.8343,-2.1009 56.41707,-27.0156 58.38015,-29.3353 3.4096,-4.0287 18.39131,-28.2854 23.81091,-38.5519 2.7099,-5.1333 5.9897,-13.6833 7.2885,-19 1.3796,-5.6472 3.0613,-9.6667 4.0445,-9.6667 3.7861,0 30.5003,8.5334 47.0909,15.0423 l 17.7278,6.9551 -0.8969,5.3346 c -0.4933,2.9342 -2.2566,9.5347 -3.9184,14.668 -1.6618,5.1334 -3.2664,10.5334 -3.5658,12 -0.2994,1.4667 -0.9954,-0.6333 -1.5466,-4.6666 -2.0572,-15.053 -7.7591,-33.3334 -10.397,-33.3334 -1.7809,0 -1.368,1.8267 2.1507,9.5123 5.2846,11.5432 8.7076,39.3787 3.6308,29.5251 -0.6718,-1.3039 -2.5787,-6.5707 -4.2374,-11.704 -2.7371,-8.4704 -9.9227,-20.523 -12.2966,-20.6255 -0.5252,-0.023 1.4163,4.3088 4.3146,9.6255 2.8982,5.3166 5.2922,10.5666 5.3199,11.6666 0.028,1.1 1.4488,5.3998 3.1578,9.555 l 3.1075,7.5549 -2.7161,4.2897 c -2.9915,4.7248 -3.2012,4.6292 -9.083,-4.1386 -3.9436,-5.8786 -4.1603,-1.6088 -0.275,5.416 l 3.7959,6.8628 -18.6667,18.0562 c -10.2666,9.931 -22.2883,21.1687 -26.7148,24.973 -12.6631,10.8829 -40.80856,27.506 -57.5402,33.9838 l -6.92168,2.6799 z m -107.97822,-39.9283 c -5.7201,-0.5966 -10.7364,-1.421 -11.1473,-1.8318 -0.4109,-0.411 1.4717,-12.0308 4.1835,-25.822 4.345,-22.0972 4.9057,-27.2126 4.722,-43.075 -0.1147,-9.9 -0.6311,-21.9 -1.1476,-26.6666 l -0.939,-8.6667 35.031,-0.4337 35.031,-0.4338 v 27.5612 c 0,24.7824 0.2516,27.9182 2.4957,31.1004 4.3239,6.1319 9.7362,17.7787 12.1486,26.1427 1.2791,4.4348 2.7477,9.0509 3.2635,10.258 0.7588,1.7757 -0.6708,2.7184 -7.485,4.9363 -4.6325,1.5077 -12.0228,3.6433 -16.4228,4.7456 -9.6272,2.4118 -45.1157,3.7102 -59.7336,2.1854 z m 251.40031,-83.6118 c -0.9167,-0.3699 -1.6693,-1.3726 -1.6724,-2.228 0,-0.8556 -1.8354,-4.2556 -4.0717,-7.5556 -4.2663,-6.2958 -10.5893,-17.9328 -10.5893,-19.4891 0,-0.5011 1.8038,1.5789 4.0084,4.6224 2.7583,3.8076 4.9949,5.5333 7.1716,5.5333 2.1961,0 3.629,1.1246 4.6867,3.6782 1.7821,4.3022 8.9614,12.3218 11.0309,12.3218 0.9138,0 0.8306,0.721 -0.2309,2 -1.6027,1.9312 -6.8971,2.5035 -10.3333,1.117 z m -365.42451,-20.117 c -7.1559,-19.9528 -9.1587,-31.6461 -10.9627,-64.0037 -1.2714,-22.8046 -1.1796,-25.0916 1.4569,-36.3216 1.5475,-6.5915 3.274,-12.2691 3.8368,-12.6169 1.6704,-1.0324 22.7752,5.9183 28.0166,9.227 12.0801,7.6259 21.5888,11.5545 25.7524,10.6401 2.2564,-0.4956 16.3271,-0.4646 31.2681,0.069 l 27.1655,0.9701 -0.3879,29.518 c -0.2134,16.235 0.1439,35.9675 0.794,43.8501 l 1.1818,14.332 -20.5152,-0.8219 c -11.2833,-0.452 -23.8152,-1.2425 -27.8485,-1.7567 -6.5529,-0.8353 -9.1072,-0.3129 -24,4.9088 -17.3241,6.0742 -28.9231,9.6295 -31.5041,9.6566 -0.8273,0.013 -2.7414,-3.4342 -4.2537,-7.6508 z m 363.30151,-2.6666 c -3.0496,-4.9695 -10.5791,-27.3726 -11.1904,-33.2958 -0.6945,-6.7289 -0.5385,-7.394 1.5462,-6.594 1.2752,0.4894 3.0828,0.8898 4.0168,0.8898 1.1201,0 1.9768,2.984 2.5167,8.7662 0.5873,6.2894 1.9786,10.7938 4.9239,15.9416 3.9505,6.9048 4.0262,7.3284 2.0066,11.2338 -2.1901,4.2352 -2.7986,4.7224 -3.8198,3.0584 z M 905.00909,1384.721 c 0.4652,-5.2017 1.4347,-14.8577 2.1543,-21.4577 0.7197,-6.6 1.3192,-17.1399 1.3322,-23.4218 0.013,-6.282 0.6335,-14.982 1.3788,-19.3334 0.7453,-4.3513 1.675,-9.8751 2.0661,-12.2751 l 0.711,-4.3635 33.60058,0.311 33.60059,0.3111 20.00003,-4.796 c 11.00001,-2.6378 20.09361,-4.7142 20.20811,-4.6142 0.1146,0.1 0.7274,5.2818 1.362,11.5152 1.8124,17.8025 -1.4183,83.6259 -4.2431,86.4508 -0.2883,0.2883 -2.5049,-0.1675 -4.9256,-1.0129 -2.4208,-0.8454 -8.6014,-2.1171 -13.73481,-2.8259 -5.1333,-0.7088 -14.86508,-2.5316 -21.62615,-4.0507 l -12.29284,-2.7617 -22.37383,5.3577 c -12.3056,2.9467 -25.90388,5.5979 -30.21848,5.8914 l -7.8447,0.5336 z m 189.14471,-26.1293 c -2.4011,-1.464 -5.7643,-2.6618 -7.4739,-2.6618 -2.8645,0 -3.1749,-0.7057 -3.9583,-9 -0.4675,-4.95 -0.8542,-10.9638 -0.8594,-13.3641 -0.01,-4.3543 0,-4.3592 3.3394,-2.1697 2.1818,1.4295 4.7318,1.9177 7.3171,1.4006 3.3457,-0.6691 4.0651,-0.3287 4.5856,2.1698 0.4927,2.3647 1.8674,26.3108 1.5094,26.2918 -0.052,0 -2.0589,-1.2028 -4.4599,-2.6666 z m -27.4014,-8.6658 c -1.0318,-10.9289 -1.0133,-31.5696 0.026,-28.6627 0.3931,1.1 1.4997,2.6325 2.459,3.4055 1.0013,0.8068 2.3559,6.8902 3.18,14.2808 1.8762,16.8263 1.8661,16.9804 -1.1199,16.9804 -1.4055,0 -2.8049,0.7482 -3.1098,1.6627 -0.3048,0.9144 -0.9505,-2.5356 -1.4349,-7.6667 z m 8.7338,-24.7165 c -2.2412,-0.9 -2.8698,-2.0093 -2.4077,-4.2488 3.8443,-18.6309 5.1722,-24.5318 5.7303,-25.4643 0.3622,-0.6051 2.0587,0.2151 3.7701,1.8229 l 3.1115,2.9231 -2.5855,4.8241 c -1.77,3.3024 -2.5856,7.4588 -2.5856,13.1771 0,8.7399 -0.1385,8.9316 -5.0331,6.9659 z m -243.80671,-28.2578 c 0.4828,-4.5952 1.236,-17.055 1.6738,-27.6884 l 0.7959,-19.3333 -4.2457,-9.3333 c -5.1996,-11.4303 -12.4542,-40.7404 -10.5605,-42.6667 0.8196,-0.8337 16.6486,-1.3143 42.2436,-1.2826 l 40.9327,0.051 15.6667,4.5138 c 8.61667,2.4826 15.66667,5.006 15.66667,5.6075 0,0.6016 -2.7,7.1013 -6,14.4439 -3.3,7.3425 -5.99997,13.8625 -5.99997,14.4889 0,0.6264 -1.371,3.1727 -3.0467,5.6583 -2.4569,3.6445 -3.101,6.5844 -3.3271,15.1861 -0.2767,10.5222 -2.3671,33.3464 -3.8049,41.543 l -0.7384,4.2096 -14.8748,0.7488 c -8.1811,0.4119 -26.2113,1.0773 -40.067,1.4788 l -25.1922,0.7299 0.8779,-8.355 z m 242.91311,-9.6884 c 6.259,-11.7648 8.2139,-14 12.2445,-14 3.8074,0 3.8611,-0.186 -2.9844,10.3275 -3.3364,5.124 -6.2768,8.2187 -7.853,8.2651 -1.3858,0.041 -3.3866,1.1241 -4.4461,2.4074 -1.0596,1.2834 0.308,-1.8666 3.039,-7 z m -54.7087,-0.4819 c -0.9566,-5.6621 -14.5107,-34.5038 -20.92011,-44.5159 -3.242,-5.0642 -6.8936,-8.0425 -18.24872,-14.8839 -13.64033,-8.2182 -37.64929,-20.7629 -39.81872,-20.8053 -5.37516,-0.1052 -3.9465,-5.3695 8.49787,-31.313 2.11056,-4.4 6.74872,-12.6652 10.30701,-18.3671 l 6.46962,-10.3672 12.8409,6.8565 c 28.10505,15.007 36.62695,22.6176 65.55525,58.5445 9.9063,12.3029 15.294,20.5068 20.5777,31.3333 7.4735,15.3137 13.158,30.8599 11.9806,32.7649 -1.2496,2.022 -48.9699,15.9018 -54.6719,15.9018 -0.9348,0 -2.0911,-2.3169 -2.5695,-5.1486 z m -309.36461,-5.0787 c -2.9333,-1.0583 -10.2271,-3.0992 -16.2084,-4.5354 -12.0512,-2.8937 -19.4447,-6.0132 -32.6812,-13.7893 l -8.8833,-5.2187 3.3376,-7.448 c 1.8357,-4.0964 3.8129,-8.648 4.3938,-10.1146 1.9404,-4.899 24.1888,-34.5669 31.8302,-42.4452 19.3762,-19.9767 51.2211,-43.7617 71.5447,-53.4367 5.1333,-2.4437 16.3833,-6.9062 25,-9.9166 l 15.6666,-5.4734 0.035,12.3026 c 0.029,10.211 1.0071,15.9296 5.7505,33.6359 l 5.7151,21.3334 -12.0839,2.0712 c -7.9286,1.359 -17.8148,4.4648 -28.7504,9.0321 -26.8031,11.1944 -26.9248,11.3003 -39.513,34.3606 -5.9655,10.9282 -12.5239,24.3694 -14.5742,29.8694 -2.0504,5.5 -4.0696,10.3818 -4.4871,10.8484 -0.4175,0.4666 -3.1591,-0.018 -6.0924,-1.0757 z M 1893.8527,1593.647 c 28.9563,-9.6235 40.246,-15.1731 65.2037,-32.0515 45.5708,-30.8185 60.4494,-43.879 79.9578,-70.1874 11.65,-15.7111 16.6152,-23.3659 24.0256,-37.0406 l 5.5432,-10.229 -15.0319,-8.986 c -8.2675,-4.9423 -15.1715,-9.079 -15.3423,-9.1926 -0.1708,-0.1133 0.2891,-2.2669 1.0219,-4.7849 0.7329,-2.5181 2.8037,-12.0784 4.6019,-21.2451 8.5858,-43.7697 7.768,-70.7284 -3.5799,-118 -2.2885,-9.5333 -4.2147,-18.7036 -4.2804,-20.3785 -0.095,-2.4224 2.6069,-4.8763 13.2137,-12 10.679,-7.1721 13.4154,-9.6647 13.7455,-12.5206 0.2533,-2.1914 -1.9583,-8.4384 -5.7379,-16.2078 -18.0785,-37.1626 -53.127,-77.2741 -94.4321,-108.0736 -28.8941,-21.5451 -66.8275,-42.1528 -77.5921,-42.1528 -4.9623,0 -16.65,2.5191 -16.65,3.5887 0,2.0065 8.255,35.0567 11.555,46.2617 0.8639,2.9333 2.1086,3.1119 -22.2217,-3.1881 -22.2813,-5.7694 -36.0023,-6.4659 -56,-2.8427 -19.1396,3.4678 -42.1931,9.9849 -64.5697,18.2535 l -17.2364,6.3691 -14.3754,-14.8146 -14.3753,-14.8146 -10.15,3.4126 c -6.7447,2.2677 -12.2429,5.2232 -16.3883,8.8094 -10.7054,9.2614 -33.2434,34.1127 -39.576,43.6383 -15.8881,23.8991 -26.8886,55.2933 -29.9257,85.4046 -0.8395,8.3228 -1.7657,11.1093 -5.3189,16 l -4.3026,5.9221 4.1091,0.4178 c 4.6119,0.4689 4.882,1.1145 2.0395,4.8743 -1.0916,1.444 -2.5956,4.894 -3.3423,7.6667 -0.9631,3.5763 -2.0899,5.0412 -3.8781,5.0412 -1.9783,0 -2.8154,1.5065 -3.8892,7 -2.3723,12.136 -3.2638,25 -1.7326,25 1.6036,0 2.1404,-1.5961 4.2598,-12.6667 2.4044,-12.5603 4.263,-18 6.1501,-18 0.9584,0 3.8383,1.84 6.3996,4.0889 l 4.6569,4.0889 -3.8445,5.3073 c -2.8617,3.9505 -4.0801,7.5067 -4.766,13.9111 -0.7539,7.0402 -1.3556,8.6038 -3.3113,8.6038 -2.1074,0 -2.4535,1.616 -2.9268,13.6667 -0.2954,7.5166 -1.0512,14.8131 -1.6796,16.2143 -0.9707,2.164 -0.7072,2.4338 1.7488,1.7916 2.7301,-0.714 2.8916,-0.3079 2.8916,7.2708 0,5.8025 0.8138,9.4749 2.9366,13.2521 l 2.9368,5.2252 -5.5576,5.5576 c -3.0568,3.0568 -5.874,5.2413 -6.2606,4.8547 -1.3026,-1.3026 -3.3886,-14.8067 -3.3886,-21.9363 0,-3.8899 -0.6,-7.4435 -1.3333,-7.8967 -0.8431,-0.521 -1.3333,2.8131 -1.3333,9.0686 0,13.6256 1.3236,22.2648 3.4112,22.2648 0.9434,0 2.44,2.25 3.3258,5 0.8858,2.75 2.2214,5.7688 2.9679,6.7084 0.962,1.2106 0.7385,2.1816 -0.7669,3.3333 -1.8723,1.432 -1.9034,2.1393 -0.2623,5.9583 1.0243,2.3833 2.4265,4.3333 3.1163,4.3333 0.6897,0 2.3062,4.35 3.5921,9.6667 2.9001,11.9904 9.1547,28.5788 11.9328,31.6486 1.8656,2.0614 1.8708,2.479 0.051,3.9902 -2.8316,2.35 -2.5418,4.4717 0.5022,3.6757 1.937,-0.5065 3.0818,0.5473 4.8468,4.4616 2.0722,4.5951 2.6026,4.972 5.1308,3.6471 2.7208,-1.426 2.7383,-1.3859 0.498,1.1418 -2.2357,2.5224 -2.0084,3.1694 6.125,17.4231 15.2466,26.7203 24.4401,36.7349 51.1082,55.6737 l 13.578,9.6427 14.004,2.1811 c 38.0507,5.9262 100.4098,-1.3143 124.5594,-14.4627 3.4544,-1.8808 8.3806,-5.3644 10.9473,-7.7415 5.0607,-4.6868 11.8468,-8.2245 13.1723,-6.8669 1.8601,1.9049 -13.1206,13.1709 -25.4195,19.1164 -7.2092,3.4851 -12.7028,6.7413 -12.208,7.2361 0.4948,0.4948 2.7496,0.9376 5.0108,0.9842 4.0905,0.084 4.0944,0.091 0.7777,1.4213 -12.6201,5.0615 -64.4717,13.1843 -83.3333,13.0548 -15.5779,-0.1067 -26.1088,-1.4381 -23.6667,-2.9913 3.2138,-2.044 1.6579,-4.6075 -3.3333,-5.492 -2.75,-0.4875 -6.05,-1.1947 -7.3333,-1.5716 -4.304,-1.2643 -2.3884,1.9593 2.9457,4.9573 2.9036,1.6319 5.0088,3.4045 4.6784,3.9391 -1.1199,1.812 8.5341,2.6989 30.9911,2.847 l 22.3848,0.1476 -10,1.718 c -5.5,0.9448 -13,1.7978 -16.6667,1.8952 -3.6667,0.097 -7.8667,0.7198 -9.3333,1.3827 -3.5631,1.6104 13.9032,0.2912 28.6666,-2.1652 6.2334,-1.0371 11.9334,-1.9473 12.6667,-2.0228 0.7333,-0.076 -0.1667,-0.6683 -2,-1.3173 -2.3956,-0.8483 -1.2704,-1.0068 4,-0.5638 5.3785,0.4522 12.6647,-0.6252 27.3333,-4.0416 26.8464,-6.2526 38.5216,-10.1124 56.3334,-18.6234 16.752,-8.0047 20.279,-8.7228 5.3333,-1.086 -10.7112,5.4732 -9.7388,7.0814 2.37,3.9193 l 7.6177,-1.9892 -0.885,6.6719 c -0.4868,3.6694 -1.1826,13.821 -1.5462,22.559 l -0.6612,15.8874 4.3858,-0.7962 c 2.412,-0.4377 14.2856,-4.0862 26.3856,-8.1077 z m -177.3333,-27.7197 c 0,-1.5043 6.1688,-9.4984 12.995,-16.8403 l 5.7427,-6.1763 10.9644,3.6315 c 6.0305,1.9973 18.0563,5.6295 26.7239,8.0715 9.8009,2.7612 15.0684,4.8265 13.9317,5.4626 -5.4207,3.0336 -70.3577,8.4338 -70.3577,5.851 z m 151.6629,-14.7199 c -0.5132,-2.6852 0.112,-3.7819 3.0089,-5.2801 2.0112,-1.04 3.9364,-1.6114 4.2783,-1.2695 1.3597,1.3597 19.1431,-15.1755 23.7264,-22.0612 4.2408,-6.3713 9.3235,-17.4803 9.3235,-20.3779 0,-3.3538 -3.2487,0.4872 -8.078,9.5508 -7.0148,13.1655 -13.8006,21.1596 -23.3298,27.4847 -4.0921,2.7163 -7.596,4.7296 -7.7862,4.4739 -0.1904,-0.2556 -1.0728,-4.9648 -1.9611,-10.4648 -0.8881,-5.5 -2.6847,-16 -3.9921,-23.3334 l -2.3774,-13.3333 8.7623,-2.1373 c 12.5831,-3.0695 24.8019,-8.0222 43.0091,-17.433 l 15.9537,-8.246 17.3533,-34.7585 c 9.5444,-19.1172 18.0759,-34.9288 18.959,-35.1368 3.3948,-0.8 35.9972,7.8904 43.4226,11.5745 9.0227,4.4767 19.1691,10.2106 24.3106,13.7383 l 3.5792,2.4559 -3.8807,9.4109 c -7.8247,18.9749 -23.7528,38.6836 -44.7612,55.3852 -18.79,14.9381 -55.6237,37.7981 -73.7519,45.7724 -12.7785,5.6212 -42.7277,17.3744 -44.2726,17.3744 -0.4664,0 -1.1395,-1.5252 -1.4959,-3.3892 z m -142.3296,-13.1839 c -12.5379,-5.1361 -32.1945,-15.436 -43.3333,-22.7058 -14.4399,-9.4246 -38.3744,-28.5408 -47.3334,-37.8048 l -7.3333,-7.583 5.6911,-10.9062 c 3.1301,-5.9984 5.126,-11.2555 4.4353,-11.6823 -1.6111,-0.9957 -5.9907,5.1621 -9.5085,13.3689 l -2.752,6.4202 -5.0884,-5.908 -5.0883,-5.908 2.1553,-5.8966 c 1.1855,-3.243 5.4627,-12.7064 9.505,-21.0294 4.0421,-8.3232 7.0205,-16.0704 6.6186,-17.2162 -0.6388,-1.821 -1.0085,-1.7761 -2.9398,0.358 -3.9804,4.3983 -19.6971,41.733 -17.5683,41.733 0.3548,0 -0.128,0.8394 -1.0741,1.8654 -2.3255,2.5234 -2.9284,1.6395 -1.1492,-1.6848 1.1893,-2.2224 0.6286,-4.2369 -3.0932,-11.1141 -2.5003,-4.62 -5.5392,-11.9089 -6.7534,-16.1977 -2.0984,-7.412 -2.0884,-7.8886 0.2012,-9.629 4.7674,-3.6238 30.7055,-13.8272 45.0754,-17.7313 8.0666,-2.1916 16.4144,-4.6499 18.5504,-5.4628 4.7026,-1.7897 5.1586,-1.3441 8.1389,7.9543 3.7321,11.6446 10.7195,24.5905 24.108,44.6666 l 12.4484,18.6667 25.3415,10.6667 c 13.9377,5.8666 25.3574,11.399 25.377,12.2941 0.073,3.3543 -10.7112,34.188 -13.5893,38.8516 -3.4191,5.5403 -11.6001,14.9127 -12.8635,14.7364 -0.4646,-0.065 -4.1448,-1.4696 -8.1781,-3.1219 z m 65.3333,-43.2946 c -9.248,-2.0472 -25.9932,-7.3803 -27.7456,-8.8364 -1.1718,-0.9739 4.8928,-17.5771 10.701,-29.2959 l 6.6085,-13.3333 0.7564,-27.6915 c 0.6701,-24.5329 0.9992,-27.616 2.8848,-27.0303 4.0556,1.26 54.6324,3.3596 60.7452,2.5219 l 6.1412,-0.8419 -0.6596,5.1876 c -0.3628,2.8531 -0.988,14.7875 -1.3892,26.5208 -0.6977,20.3996 -0.56,22.0044 3.1448,36.6667 4.5583,18.0392 7.5616,35.6955 6.2884,36.9685 -0.4955,0.4956 -13.3303,1.0746 -28.5217,1.2868 -23.1378,0.3232 -29.4603,-0.021 -38.9542,-2.123 z m -200.4497,-79.8927 c -2.0607,-2.2769 -1.9439,-2.6685 1.8897,-6.3333 2.2475,-2.1484 5.3534,-6.1563 6.902,-8.9063 1.9987,-3.5491 3.7203,-5 5.933,-5 2.261,0 4.2076,-1.7195 7.0877,-6.2611 2.1839,-3.4436 3.9436,-5.3936 3.9104,-4.3333 -0.1508,4.8272 -18.3768,33.098 -21.3997,33.1937 -1.1698,0.037 -3.1151,-1.0248 -4.3231,-2.3597 z m 357.7831,-20.9317 c -4.0334,-0.9918 -13.2527,-3.9562 -20.4875,-6.5874 l -13.154,-4.7841 -13.5127,1.9712 c -19.8116,2.8901 -47.3794,5.3367 -48.4192,4.2968 -0.4961,-0.4961 -0.116,-5.7425 0.8448,-11.6588 2.6371,-16.2387 3.4932,-35.7329 2.5126,-57.2123 -0.4855,-10.6333 -0.7855,-19.3965 -0.6667,-19.4737 0.1187,-0.077 5.316,0.4167 11.5493,1.0975 6.2334,0.6808 22.2242,0.8895 35.535,0.4637 l 24.2017,-0.7742 11.3105,-6.0169 c 10.505,-5.5883 28.5779,-12.6297 32.4163,-12.6297 5.3807,0 6.6995,30.4937 2.768,64 -2.5415,21.6593 -3.9193,28.9173 -7.7837,41 -3.0255,9.4599 -3.5342,9.6473 -17.1144,6.3079 z m -350.399,-5.5731 -2.6213,-3.5984 3.4959,-5.2827 c 2.4037,-3.6321 3.9305,-8.4296 4.8872,-15.3557 1.365,-9.8844 1.4716,-10.0896 5.6809,-10.9505 2.3592,-0.4826 4.2896,-0.6904 4.2896,-0.4619 0,1.3751 -4.2573,18.43 -5.2213,20.9168 -0.6392,1.6487 -2.25,6.4476 -3.5799,10.6643 -1.3297,4.2166 -2.8433,7.6666 -3.3637,7.6666 -0.5203,0 -2.1256,-1.6193 -3.5674,-3.5985 z m 72.5838,-3.4015 c -2.6486,-14.7394 -5.3924,-94.2313 -3.3243,-96.3033 1.2091,-1.2114 17.7128,2.372 35.8061,7.7744 14.4894,4.3264 16.0194,4.5251 27.7962,3.6115 6.8544,-0.5317 18.6649,-0.691 26.2454,-0.3538 l 13.7828,0.6129 0.7392,8.1625 c 2.833,31.2785 5.2246,53.9261 6.8374,64.7464 1.0317,6.9212 1.5918,12.8677 1.2449,13.2146 -1.2711,1.2711 -27.0123,-2.6442 -39.6587,-6.0324 l -13.0129,-3.4861 -18.9871,3.6809 c -10.4429,2.0244 -22.5872,4.8038 -26.9872,6.1762 -4.4,1.3724 -8.3832,2.5029 -8.8516,2.5124 -0.4684,0.013 -1.202,-1.9328 -1.6302,-4.3162 z m -80.3275,-31.109 c 0.4452,-1.16 0.8093,-7.23 0.8093,-13.4888 v -11.3797 l 3.5983,0.6878 c 2.5532,0.4881 4.9069,-0.3103 8.1041,-2.7489 l 4.5059,-3.4368 -0.8323,9.9044 c -1.4406,17.1457 -1.8298,18.5657 -5.103,18.6182 -1.6168,0.025 -4.4396,0.9048 -6.273,1.9528 -4.3814,2.5047 -5.8,2.4726 -4.8093,-0.1093 z m 28.9671,-0.2243 c -0.089,-1.7076 -1.0194,-3 -2.1578,-3 -2.2785,0 -2.4398,-2.8117 -1.1277,-19.6667 0.5875,-7.5464 1.3873,-11 2.5476,-11 0.9301,0 1.9939,-0.75 2.3637,-1.6667 1.0912,-2.7043 0.6628,29.9589 -0.4502,34.3334 -0.823,3.2339 -1.048,3.4255 -1.1756,1 z m -11.2072,-39.6576 c -0.4304,-4.1692 -1.9244,-8.965 -3.4683,-11.1333 l -2.7124,-3.8091 3.8775,-3.7148 3.8774,-3.7148 0.6715,3.1814 c 0.3693,1.7498 1.7205,7.8724 3.0028,13.6056 2.0225,9.0433 2.0755,10.586 0.3995,11.6462 -3.775,2.3882 -4.9007,1.1802 -5.648,-6.0612 z m 164.9061,-14.9141 c -1.7868,-1.3249 -5.8567,-36.2504 -5.8567,-50.2591 0,-8.7668 -0.5101,-10.917 -3.9901,-16.8192 -4.8167,-8.169 -12.0797,-29.5516 -10.5944,-31.1896 1.9831,-2.1867 23.1801,-7.6226 37.9179,-9.724 11.3949,-1.6247 21.4592,-1.9301 45.1166,-1.3693 16.7476,0.3971 30.8178,1.0895 31.267,1.5387 1.2776,1.2776 -3.3827,17.3484 -9.4903,32.7275 l -5.56,14 0.097,30.0904 0.097,30.0904 -13.4314,-0.083 c -7.387,-0.046 -24.8312,0.4064 -38.7645,1.0046 -13.9333,0.5982 -25.9979,0.5949 -26.81,-0.01 z m -157.0393,-7.7188 c -1.2004,-1.8321 -2.9658,-2.9797 -3.9831,-2.5894 -1.1175,0.4289 -3.7481,-1.9159 -6.7741,-6.0382 -2.721,-3.7067 -5.9192,-7.2834 -7.1074,-7.9483 -1.8165,-1.0166 -1.879,-1.5476 -0.3932,-3.3379 0.9718,-1.171 2.6288,-2.1291 3.6824,-2.1291 1.084,0 1.5114,-0.6537 0.9844,-1.5063 -0.5701,-0.9225 -0.213,-1.2455 0.9214,-0.8333 1.0188,0.3701 1.6844,1.4015 1.4793,2.2919 -0.2052,0.8904 1.7052,4.5116 4.2452,8.0472 4.5859,6.3831 10.6769,17.3339 9.6415,17.3339 -0.2972,0 -1.5106,-1.4807 -2.6964,-3.2905 z m 41.7846,-7.4086 c -13.588,-3.6864 -33.211,-10.052 -41.9353,-13.6036 -7.3253,-2.9821 -7.9656,-3.5692 -7.5923,-6.9629 0.6014,-5.4662 7.8394,-23.081 12.6288,-30.7344 9.4107,-15.0377 35.9642,-47.5977 48.5704,-59.5574 9.0247,-8.5618 25.6798,-19.7594 40.2523,-27.0624 l 9.8592,-4.941 3.1733,3.7804 c 5.7451,6.8444 25.775,49.1352 25.775,54.4209 0,0.9151 -2.85,2.7353 -6.3334,4.0448 -3.4833,1.3095 -15.1926,6.7995 -26.0208,12.1999 l -19.6873,9.8189 -6.2036,9.6479 c -7.1052,11.0503 -17.7321,32.8082 -21.3921,43.7986 l -2.4923,7.484 z m 309.7326,-16.9676 c -3.0999,-7.15 -10.2344,-20.8627 -15.8543,-30.4726 l -10.2181,-17.4727 -13.9691,-7.772 c -17.3136,-9.6328 -32.2937,-15.6418 -46.68,-18.7245 l -11.0535,-2.3687 0.8183,-4.0947 c 0.45,-2.2521 3.3229,-12.7948 6.3843,-23.4281 4.0698,-14.1361 5.5668,-21.7527 5.5686,-28.3334 0,-4.95 0.095,-9 0.2068,-9 0.112,0 6.4124,2.1456 14,4.768 15.7194,5.4328 36.7103,15.6301 48.4624,23.543 33.389,22.4811 65.2319,56.8742 79.3356,85.689 9.4624,19.3326 9.4454,18.27 0.3807,23.7151 -4.2439,2.5494 -9.6476,5.6121 -12.0081,6.8062 -4.1371,2.0927 -34.2463,10.1454 -37.9339,10.1454 -1.0071,0 -4.2925,-5.7409 -7.4397,-13 z M 954.45266,1597.4354 c -0.69667,-0.6387 -6.96667,-1.8376 -13.93333,-2.6644 -6.96667,-0.8268 -15.21667,-2.0237 -18.33334,-2.6599 -3.1167,-0.636 -5.6667,-0.7198 -5.6667,-0.1864 0,1.074 21.99673,4.8943 37.2667,6.4722 1.17315,0.1213 1.43528,-0.2568 0.66667,-0.9615 z m 15.24739,-9.5111 c -1.91244,-1.1176 -12.21912,-2.676 -30.51406,-4.6138 -6.77911,-0.7182 8.26672,2.4421 20.66667,4.3406 11.58013,1.7732 12.45588,1.7975 9.84739,0.2732 z m -38.18073,-6.2108 c -0.91666,-0.3698 -2.41666,-0.3698 -3.33333,0 -0.91667,0.3699 -0.16667,0.6726 1.66667,0.6726 1.83333,0 2.58333,-0.3027 1.66666,-0.6726 z m 180.97958,-207.4502 c -0.015,-5.0112 -0.3876,-6.4318 -1.3129,-5 -1.7052,2.6386 -1.7052,12 0,12 0.7333,0 1.3242,-3.15 1.3129,-7 z m 881.8139,-763.05756 c -0.4342,-1.13162 -1.0754,-1.77154 -1.425,-1.42204 -0.3495,0.34951 -0.24,1.27539 0.2434,2.05751 1.3147,2.12728 2.0832,1.71401 1.1816,-0.63547 z M 361.68259,2048.2633 c -1.6585,-2.1148 -1.6114,-2.1619 0.5034,-0.5035 2.221,1.7419 2.9273,2.8368 1.8299,2.8368 -0.2769,0 -1.3269,-1.05 -2.3333,-2.3333 z m -15.528,-12.4263 c -6.7661,-5.9179 -12.3019,-11.0772 -12.3019,-11.4653 0,-0.388 3.6891,2.5037 8.198,6.4264 14.2244,12.3745 17.822,15.686 17.1039,15.743 -0.3839,0.031 -6.2339,-4.7864 -13,-10.7041 z m 1963.82971,5.0929 c 0.3168,-0.1833 3.2668,-2.7333 6.5556,-5.6666 l 5.9795,-5.3334 -5.2706,5.6667 c -2.8989,3.1167 -5.8489,5.6667 -6.5556,5.6667 -0.7068,0 -1.0257,-0.15 -0.7089,-0.3334 z m 14.5351,-12.1701 c 0,-0.2768 1.05,-1.3268 2.3333,-2.3333 2.1148,-1.6584 2.1619,-1.6114 0.5035,0.5034 -1.7419,2.221 -2.8368,2.9274 -2.8368,1.8299 z M 1050.6305,801.15215 c -0.501,-3.77678 -0.6426,-7.13523 -0.3146,-7.46324 0.328,-0.32802 1.0196,2.48044 1.5368,6.24101 0.5172,3.76057 0.6587,7.11903 0.3145,7.46324 -0.3442,0.34421 -1.0357,-2.46424 -1.5367,-6.24101 z M 1045.955,778.187 c -1.777,-7.47472 -4.6345,-17.76773 -6.3501,-22.87335 -1.7155,-5.10561 -2.9349,-9.8358 -2.7096,-10.51153 0.5064,-1.51927 9.6945,27.88057 11.7078,37.46228 2.709,12.89297 0.6228,9.6806 -2.6481,-4.0774 z m 541.4416,-3.59041 c 0,-1.83334 0.3026,-2.58334 0.6725,-1.66667 0.3699,0.91667 0.3699,2.41667 0,3.33333 -0.3699,0.91667 -0.6725,0.16667 -0.6725,-1.66666 z m 1.3333,-8 c 0,-1.83334 0.3027,-2.58334 0.6725,-1.66667 0.3699,0.91667 0.3699,2.41667 0,3.33333 -0.3698,0.91667 -0.6725,0.16667 -0.6725,-1.66666 z m 1.228,-7.44444 c 0.064,-1.55327 0.38,-1.8692 0.8056,-0.80556 0.3852,0.96249 0.3379,2.1125 -0.1053,2.55556 -0.4431,0.44305 -0.7583,-0.34446 -0.7004,-1.75 z m 1.3333,-6.66667 c 0.064,-1.55327 0.38,-1.8692 0.8056,-0.80556 0.3852,0.96249 0.3379,2.11251 -0.1053,2.55556 -0.4431,0.44305 -0.7583,-0.34445 -0.7004,-1.75 z m 1.3334,-5.33333 c 0.064,-1.55327 0.38,-1.8692 0.8056,-0.80556 0.3852,0.96249 0.3378,2.1125 -0.1054,2.55556 -0.443,0.44305 -0.7582,-0.34446 -0.7004,-1.75 z m -560,-13.33334 c 0.064,-1.55326 0.3799,-1.8692 0.8056,-0.80556 0.3851,0.9625 0.3378,2.11251 -0.1052,2.55556 -0.4431,0.44306 -0.7582,-0.34445 -0.7003,-1.75 z M 152.51929,91.263243 V 15.929909 h 1190.00011 1190 v 75.333334 75.333337 h -1190 -1190.00011 z"
       id="path349" />
  </g>
</svg>
