<?xml version="1.0" encoding="UTF-8" standalone="no"?>
<!-- Created with Inkscape (http://www.inkscape.org/) -->

<svg
   version="1.1"
   id="svg307"
   width="2666.6667"
   height="2666.6667"
   viewBox="0 0 2666.6667 2666.6667"
   xml:space="preserve"
   xmlns="http://www.w3.org/2000/svg"
   xmlns:svg="http://www.w3.org/2000/svg"><defs
     id="defs311" /><g
     id="g313"><text
       xml:space="preserve"
       style="font-style:normal;font-variant:normal;font-weight:normal;font-stretch:normal;font-size:652.916px;font-family:'Harlow Solid Italic';-inkscape-font-specification:'Harlow Solid Italic, ';fill:#000000;stroke-width:2.44845"
       x="930.80243"
       y="4930.4199"
       id="text508"
       transform="matrix(2.0337506,0,-0.33801692,0.49170238,0,0)"><tspan
         id="tspan506"
         x="930.80243"
         y="4930.4199"
         style="font-style:normal;font-variant:normal;font-weight:normal;font-stretch:normal;font-family:Haettenschweiler;-inkscape-font-specification:Haettenschweiler;stroke-width:2.44845">iDyno</tspan></text><path
       style="fill:#000000;stroke-width:1.33333"
       d="m 1588.7934,2062.6284 c -21.5148,-4.0664 -38.6118,-11.8176 -64.5986,-29.2868 -42.9851,-28.896 -56.4284,-41.9255 -63.7177,-61.756 -4.0972,-11.1467 -3.9895,-34.4343 0.2233,-48.2674 14.8204,-48.6637 42.9299,-74.2598 92.9422,-84.6321 21.4858,-4.456 21.1104,-4.3327 19.4396,-6.3836 -3.288,-4.0363 -4.1358,-11.6781 -2.1439,-19.3255 2.5321,-9.7214 13.0915,-29.744 19.5681,-37.1048 4.6547,-5.2901 4.81,-5.7154 2,-5.478 -6.2256,0.5259 -46.4329,-2.0021 -67.7131,-4.2576 l -22,-2.3316 -15.3333,-10.7845 c -22.8432,-16.0665 -22.9377,-16.1949 -28.7221,-39.0356 -5.9727,-23.584 -7.3967,-42.7861 -7.3174,-98.6667 l 0.055,-38 4.6776,-15.2314 c 2.5916,-8.4388 6.2448,-17.2859 8.1916,-19.8384 5.3014,-6.9503 30.3424,-18.3166 48.5639,-22.0434 l 14.1141,-2.8868 -2.3433,-12.2348 c -3.5136,-18.3444 -6.3009,-54.6802 -9.2464,-120.5373 -3.0353,-67.8665 -3.4,-71.8945 -6.5093,-71.8945 -1.2066,0 -20.1794,0.914 -42.1616,2.0312 -33.3423,1.6944 -41.3823,2.497 -48.5006,4.8417 -7.1217,2.3457 -10.3032,2.6629 -19.2396,1.9176 -5.8888,-0.4911 -12.5491,-1.7132 -14.8006,-2.7157 -2.2515,-1.0026 -7.6936,-2.1643 -12.0936,-2.5818 -4.4,-0.4173 -11.16,-1.5886 -15.0222,-2.603 l -7.0222,-1.8443 -0.7369,3.4772 c -3.0809,14.5361 -10.3413,25.4805 -22.3854,33.7443 -36.2628,24.8805 -100.1073,30.8672 -160.7244,15.0708 -40.5349,-10.563 -71.0747,-25.0282 -113.4429,-53.7319 -30.3893,-20.5883 -54.72924,-40.1699 -142.00007,-114.2392 C 843.98357,1139.3148 795.86022,1102.127 746.54162,1069.0911 625.19022,987.80427 512.47333,944.77258 392.79359,934.04138 c -8.43333,-0.7562 -28.53333,-2.2916 -44.66667,-3.412 -59.96928,-4.1647 -77.33333,-8.363 -77.33333,-18.6976 0,-3.3941 0.97653,-4.4702 6.9722,-7.6833 32.07889,-17.1912 142.32532,-23.5869 233.0278,-13.5186 83.52159,9.2711 176.77123,35.2564 272.77442,76.01219 70.29844,29.8435 124.53677,57.68173 253.89229,130.31203 125.556,70.4969 164.1373,88.9003 223.3333,106.53 2.5667,0.7644 8.0452,3.4173 12.1745,5.8953 4.1292,2.478 7.7343,4.5055 8.0113,4.5055 0.6544,0 -0.9723,-25.2667 -1.6615,-25.8069 -0.2883,-0.226 -6.2243,-3.1683 -13.1909,-6.5382 -11.096,-5.3674 -35.5828,-22.4105 -38.1376,-26.5442 -2.1238,-3.4364 28.3172,-28.3743 43.8441,-35.9178 l 6.2935,-3.0576 v -11.6309 -11.6309 l -5,-1.5811 c -9.3404,-2.9536 -24.3252,-11.8344 -37.0152,-21.937 -6.9583,-5.5395 -12.6515,-10.5419 -12.6515,-11.1164 0,-0.5745 5.4413,-5.8133 12.0919,-11.6418 12.6992,-11.1295 30.0331,-22.6038 36.2414,-23.9902 3.5668,-0.7966 3.6667,-1.0697 3.6667,-10.0209 0,-8.9464 -0.1019,-9.2253 -3.6667,-10.0404 -58.2589,-13.32173 -94.3428,-26.03843 -191.6666,-67.54712 -94.79123,-40.4286 -128.55078,-51.6653 -155.22295,-51.6653 h -8.92831 l -12.59108,11.4684 c -34.43106,31.361 -55.31365,41.2973 -90.01202,42.8291 -43.21803,1.908 -67.94389,-13.8656 -69.62942,-44.4193 -1.26863,-22.9963 11.1624,-47.164 37.65741,-73.2115 28.42346,-27.9434 63.37789,-46.1501 102.7263,-53.5071 18.61813,-3.481 65.64903,-3.5212 86.66667,-0.074 44.6875,7.3292 90.4555,22.4284 162.9277,53.7509 19.6564,8.4956 48.7895,21.0927 64.7402,27.9938 l 29.0012,12.5473 18.3321,-9.3163 c 27.2289,-13.8374 43.9106,-17.4103 57.3846,-12.2906 l 6.4144,2.4373 7.104,-6.3628 c 14.4677,-12.9581 34.8146,-20.1367 63.7304,-22.4847 25.6448,-2.0824 45.257,-1.6559 90.833,1.9756 22.9907,1.8319 43.0907,3.3248 44.6667,3.3176 3.0217,-0.014 -19.0809,-11.6961 -153.3466,-81.0513 -89.0301,-45.9887 -92.9205,-48.1249 -105.2274,-57.7786 -14.3944,-11.2912 -19.8078,-21.7336 -19.608,-37.8237 0.1734,-13.9696 3.6473,-25.4084 19.5627,-64.4142 l 12.6818,-31.0809 -4.4227,-6.9191 c -3.9441,-6.1704 -16.7741,-34.3379 -16.7741,-36.8266 0,-1.0267 27.0111,-7.40523 37.3334,-8.81607 l 6,-0.82007 8.4491,-20.89485 8.4491,-20.89486 -3.9381,-7.46432 c -4.0126,-7.60551 -14.3464,-36.92713 -13.3614,-37.91219 0.8768,-0.87676 27.2635,-4.62158 32.7258,-4.64448 l 5.0088,-0.0209 8.4271,-17.75584 8.427,-17.75584 -2.0937,-11.03713 c -2.6838,-14.14807 -2.9808,-53.40927 -0.4039,-53.40927 5.1517,0 35.3817,10.15744 45.8787,15.41549 13.1468,6.58536 25.0659,16.66902 26.5116,22.42898 0.8489,3.38278 6.6528,6.12852 12.9955,6.14809 2.2232,0.007 2.2488,-0.22112 0.3333,-2.95591 -7.1667,-10.23185 6.4611,-33.90408 35.2473,-61.22706 9.1611,-8.69528 17.0216,-15.80959 17.468,-15.80959 1.5666,0 15.9332,42.11169 17.8939,52.45063 2.4815,13.08481 2.5452,27.62 0.1465,33.36108 -1.0096,2.41601 -3.4942,5.60108 -5.5216,7.07793 l -3.6862,2.6852 13.5216,3.39059 13.5216,3.39057 v -5.36529 c 0,-8.26652 4.974,-16.58791 16.9693,-28.3894 10.4744,-10.30503 42.9407,-34.14148 46.9268,-34.45308 1.3947,-0.10907 2.9444,4.96369 5.861,19.1851 3.2884,16.03408 3.9886,22.74636 4.104,39.33334 0.1466,21.11765 -0.6943,24.78854 -7.3507,32.08624 -2.8019,3.07188 -3.0683,2.87325 14.2897,10.65484 l 6.8,3.04846 0.1147,-4.04092 c 0.216,-7.59724 6.97,-18.14245 18.7799,-29.32144 13.0357,-12.33942 46.5368,-35.46177 47.5249,-32.80156 0.3488,0.93924 2.4339,10.63592 4.6336,21.5482 3.1441,15.59758 4.0116,23.43878 4.0568,36.66667 0.075,21.70805 -2.744,31.29723 -10.3937,35.36709 -3.6351,1.934 -3.561,1.98464 18.3501,12.52336 51.9193,24.97203 58.4996,28.32026 68,34.60038 12.3576,8.1688 20.4977,16.29221 25.0537,25.00203 2.9203,5.5829 3.4848,8.4006 3.4724,17.3333 -0.02,14.1591 -3.4052,25.7228 -17.1773,58.6667 -13.0035,31.1055 -17.5106,44.0225 -20.1212,57.6671 -4.1178,21.5221 -1.6722,31.5235 10.6777,43.6662 6.7352,6.6222 12.3776,10.1815 32.7616,20.6667 29.4859,15.1669 41.2531,22.6702 49.5237,31.5791 10.031,10.8048 11.1575,13.7723 11.0427,29.0875 -0.1173,15.696 -2.5603,24.1874 -15.952,55.4548 -18.8281,43.9602 -30.0581,61.086 -45.1793,68.8985 -10.0991,5.2177 -25.9263,5.4874 -64.216,1.0939 -16.804,-1.9281 -32.6053,-3.8389 -35.1141,-4.2463 l -4.5615,-0.7406 7.1159,7.7698 c 9.8999,10.8101 14.3102,17.1137 18.6739,26.6912 3.2439,7.1194 3.6599,9.3716 3.0247,16.3763 -1.1452,12.6294 -7.1397,20.24129 -22.1737,28.15669 -13.1531,6.925 -23.2772,9.2124 -40.7747,9.2124 h -10.7432 v 104.14263 c 0,82.7969 0.3416,103.9999 1.6667,103.4459 0.9167,-0.3832 13.0976,-5.768 27.0688,-11.9661 68.4893,-30.3847 112.5044,-40.1509 157.9312,-35.0428 56.7924,6.3863 106.5473,39.5076 149.3496,99.4204 36.6906,51.358 73.5329,135.9231 83.3578,191.3333 2.4787,13.9786 3.3136,22.3083 2.7732,27.6667 -0.4252,4.2167 -0.4422,7.6667 -0.037,7.6667 3.3835,0 37.2064,5.8356 41.9572,7.239 3.3367,0.9856 10.2451,3.8964 15.3521,6.4683 7.3314,3.692 9.7791,5.7109 11.6303,9.5931 l 2.3448,4.9169 3.7416,-4.0055 c 4.7332,-5.0669 10.942,-6.255 19.3276,-3.6985 22.8997,6.9815 33.1545,29.7953 21.0879,46.9144 -2.8308,4.016 -3.6714,6.1559 -2.5526,6.4975 36.4524,11.1301 55.2982,17.2144 56.5572,18.2592 1.1507,0.955 1.2096,2.3808 0.216,5.2309 -1.6229,4.6556 -1.3117,4.6207 -11.1149,1.2479 -4.2685,-1.4686 -8.0027,-2.4284 -8.2981,-2.133 -0.2955,0.2956 1.5546,1.2278 4.1114,2.0715 6.3115,2.0831 59.5995,26.4627 61.7599,28.2557 0.9493,0.7879 6.2829,10.0918 11.8525,20.6754 l 10.1263,19.2426 -9.5969,17.3236 c -11.9392,21.5519 -19.2719,30.4287 -31.2784,37.8652 -9.0559,5.6091 -10.1676,5.9236 -37.4014,10.5794 l -28.068,4.7984 -37.2653,-3.35 c -20.4959,-1.8426 -39.0653,-3.6598 -41.2653,-4.0383 -2.2,-0.3784 -21.4,-2.7601 -42.6667,-5.2927 -21.2667,-2.5324 -47.6621,-6.2186 -58.6565,-8.1916 l -19.9898,-3.5872 -16.1509,-9.8644 -16.1509,-9.8644 -4.821,-16.9101 c -4.2214,-14.808 -5.0106,-19.9763 -6.3481,-41.5767 -0.8401,-13.5666 -1.2385,-36.6666 -0.8855,-51.3333 l 0.642,-26.6667 4.7772,-12.3269 c 2.6274,-6.7799 5.2598,-13.1893 5.8496,-14.2433 1.8134,-3.2403 17.307,-15.0604 26.4236,-20.1588 4.754,-2.6586 8.6436,-5.124 8.6436,-5.4788 0,-0.3548 -1.9414,-3.4531 -4.3142,-6.8852 -2.373,-3.4322 -17.4096,-32.3298 -33.415,-64.2168 -39.3344,-78.3648 -55.5136,-102.4643 -83.313,-124.0972 -22.011,-17.1286 -41.152,-23.8811 -68.2911,-24.0918 -27.2667,-0.2116 -49.8513,5.75 -96.6667,25.5167 -53.6091,22.6351 -71.1403,28.8189 -88.9393,31.3717 -3.0873,0.4428 -4.7238,1.315 -4.3648,2.3262 1.3408,3.7746 4.6316,74.4474 4.6075,98.9509 -0.033,34.2864 -3.136,81.294 -6.5947,99.9239 -1.4897,8.0248 -2.7086,15.2941 -2.7086,16.1541 0,0.9848 3.4849,1.8131 9.4128,2.2372 8.3114,0.5947 11.5485,1.7467 27.6666,9.8457 17.9387,9.014 18.3115,9.2918 21.5872,16.0788 l 3.3334,6.9066 3.1477,-2.5732 c 10.2351,-8.3667 44.9304,4.9692 52.9713,20.3606 2.7391,5.2432 2.3216,9.3782 -1.5183,15.0366 -1.8696,2.7549 -3.2196,5.1441 -3,5.309 0.2196,0.1651 13.476,5.2954 29.4587,11.4006 15.9827,6.1053 29.3519,11.5736 29.7091,12.1516 0.6962,1.1266 -2.849,10.5018 -3.9712,10.5018 -0.3696,0 -10.1503,-3.6732 -21.7347,-8.1626 -11.5845,-4.4894 -26.7627,-10.2204 -33.7293,-12.7355 l -12.6667,-4.5729 5.3333,5.3456 c 4.8446,4.8556 7.5328,6.0337 29.3334,12.8552 24.9478,7.8064 88.2006,31.7701 90.8512,34.4197 0.8348,0.8344 6.8128,11.8085 13.2844,24.3869 l 11.7665,22.8699 -8.3685,17.7968 c -13.4239,28.5481 -13.7919,29.1648 -19.0096,31.8491 -2.6451,1.3608 -21.8451,7.4532 -42.6667,13.5386 l -37.8573,11.0647 -56.7864,0.4044 -56.7865,0.4045 4.4346,4.8416 c 2.4391,2.6628 5.4024,7.3754 6.5852,10.4724 1.9888,5.2079 1.9814,6.2124 -0.099,13.3694 -1.2372,4.2561 -3.6973,10.5954 -5.4669,14.0874 -2.485,4.9039 -2.7451,6.1678 -1.1427,5.553 1.1409,-0.4379 4.0537,0.2698 6.4729,1.5726 4.2898,2.3102 5.0874,2.2627 32.2604,-1.9165 30.4458,-4.6827 64.8677,-12.2044 107.1953,-23.424 37.5714,-9.9589 63.3528,-16.1905 71.6382,-17.3159 l 6.9715,-0.9468 -1.9715,-3.8125 c -4.4193,-8.546 -1.2064,-21.3508 10.0186,-39.9287 5.9161,-9.7917 12.9685,-17.0418 20.2289,-20.7964 6.1125,-3.1608 16.4548,-2.9842 24.0152,0.4102 7.2355,3.2484 17.7297,12.4768 20.6832,18.1881 2.8787,5.5668 1.6932,14.6559 -3.3044,25.3356 -4.1476,8.8633 -4.1477,8.8639 -1.0388,8.0835 2.4857,-0.6239 14.9691,7.0261 62.2673,38.1585 32.5372,21.4163 62.6084,41.1117 66.8251,43.7676 5.5401,3.4896 7.6667,5.6412 7.6667,7.7572 0,1.6104 1.3066,3.8433 2.9037,4.962 2.6824,1.8788 3.0609,1.8083 4.9656,-0.9244 4.6195,-6.6277 8.8815,-10.4272 15.2644,-13.608 11.3851,-5.6733 21.2116,-4.1396 34.0555,5.3155 8.883,6.5394 13.4774,13.7849 13.4774,21.2548 0,3.0929 -2.685,9.968 -7.8742,20.1618 l -7.8743,15.4686 5.9829,3.5578 c 19.7776,11.7611 21.7494,13.8258 19.1643,20.067 -1.3616,3.2872 -2.5224,4.1576 -5.5445,4.1576 -5.433,0 -25.0962,6.5116 -60.681,20.0948 -108.1177,41.27 -134.4828,47.8244 -267.8398,66.585 -40.9207,5.7567 -65.4128,10.941 -100.6667,21.308 -30.0275,8.8302 -51.8392,14.5923 -63.3334,16.7311 -16.5084,3.0717 -57.8764,3.8012 -71.3333,1.2579 z m 487.8479,-192.8047 c -3.2956,-2.534 -6.5146,-3.2659 -6.5146,-1.4809 0,1.5949 7.116,5.5218 8.4793,4.6792 0.6692,-0.4136 -0.2149,-1.8528 -1.9647,-3.1983 z M 1722.4449,1578.2 c 4.9062,-4.9062 -14.9608,-18.0228 -30.4898,-20.1302 -8.6591,-1.175 -9.0284,-0.049 -3.2752,9.9806 4.7347,8.2544 6.7497,10.0117 14.6133,12.7436 5.2936,1.839 6.9968,1.8965 12.0283,0.4052 3.2238,-0.9555 6.4293,-2.3051 7.1234,-2.9992 z m 447.5255,-55.3871 c 4.6041,-4.7504 6.5936,-12.2476 4.9684,-18.7231 -2.0837,-8.3022 -15.0397,-18.1049 -23.9291,-18.1049 -6.7549,0 -8.3209,2.6431 -6.4272,10.8473 1.6251,7.0402 16.6268,30.486 19.5064,30.486 0.8331,0 3.4798,-2.0274 5.8815,-4.5053 z"
       id="path536" /></g></svg>
